<svg width="24" height="24" viewBox="0 0 24 24" fill="none" xmlns="http://www.w3.org/2000/svg">
<path d="M11.875 22C11.875 22.5523 12.3227 23 12.875 23C13.4273 23 13.875 22.5523 13.875 22H11.875ZM7.625 7.1667L8.16101 6.32248L7.625 5.98216L7.08899 6.32248L7.625 7.1667ZM4.46399 7.98915C3.99775 8.28518 3.85976 8.90312 4.15579 9.36937C4.45182 9.83562 5.06976 9.9736 5.53601 9.67758L4.46399 7.98915ZM9.71399 9.67758C10.1802 9.9736 10.7982 9.83562 11.0942 9.36937C11.3902 8.90312 11.2523 8.28518 10.786 7.98915L9.71399 9.67758ZM16.375 3.00003L16.911 2.15581L16.375 1.81549L15.839 2.15581L16.375 3.00003ZM13.214 3.82248C12.7477 4.11851 12.6098 4.73646 12.9058 5.2027C13.2018 5.66895 13.8198 5.80694 14.286 5.51091L13.214 3.82248ZM18.464 5.51091C18.9302 5.80694 19.5482 5.66895 19.8442 5.2027C20.1402 4.73646 20.0023 4.11851 19.536 3.82248L18.464 5.51091ZM9.48054 17.0991L9.09905 18.0235L9.48054 17.0991ZM13.806 13.78L14.4957 14.5041L14.4957 14.5041L13.806 13.78ZM17.375 10.0476V4.66669H15.375L15.375 10.0476H17.375ZM14.4957 14.5041L16.1336 12.9442L14.7543 11.4959L13.1164 13.0559L14.4957 14.5041ZM13.875 22V18.5H11.875V22H13.875ZM13.875 18.5V15.9524H11.875V18.5H13.875ZM13.2565 17.5757L9.86202 16.1748L9.09905 18.0235L12.4935 19.4244L13.2565 17.5757ZM8.625 14.326V8.83336H6.625L6.625 14.326H8.625ZM8.625 8.83336V7.1667H6.625V8.83336H8.625ZM7.08899 6.32248L4.46399 7.98915L5.53601 9.67758L8.16101 8.01091L7.08899 6.32248ZM7.08899 8.01091L9.71399 9.67758L10.786 7.98915L8.16101 6.32248L7.08899 8.01091ZM17.375 4.66669V3.00003H15.375V4.66669H17.375ZM15.839 2.15581L13.214 3.82248L14.286 5.51091L16.911 3.84424L15.839 2.15581ZM15.839 3.84424L18.464 5.51091L19.536 3.82248L16.911 2.15581L15.839 3.84424ZM9.86202 16.1748C9.1134 15.8658 8.625 15.1359 8.625 14.326H6.625C6.625 15.9457 7.60181 17.4056 9.09905 18.0235L9.86202 16.1748ZM13.1164 13.0559C12.3237 13.8108 11.875 14.8577 11.875 15.9524H13.875C13.875 15.4051 14.0993 14.8816 14.4957 14.5041L13.1164 13.0559ZM15.375 10.0476C15.375 10.595 15.1507 11.1184 14.7543 11.4959L16.1336 12.9442C16.9263 12.1892 17.375 11.1424 17.375 10.0476H15.375Z" fill="black"/>
</svg>
