<svg width="24" height="24" viewBox="0 0 24 24" fill="none" xmlns="http://www.w3.org/2000/svg">
<path d="M12.114 18C12.114 18 16.642 15.0226 16.642 11.5489C16.642 10.3644 16.1649 9.22838 15.3158 8.39081C14.4666 7.55324 13.3149 7.0827 12.114 7.0827C10.9131 7.0827 9.76134 7.55324 8.91217 8.39081C8.063 9.22838 7.58594 10.3644 7.58594 11.5489C7.58594 15.0226 12.114 18 12.114 18Z" stroke="black" stroke-width="1.5" stroke-linecap="round" stroke-linejoin="round"/>
<path d="M12.1138 13.0374C12.9474 13.0374 13.6232 12.3709 13.6232 11.5487C13.6232 10.7265 12.9474 10.06 12.1138 10.06C11.2802 10.06 10.6045 10.7265 10.6045 11.5487C10.6045 12.3709 11.2802 13.0374 12.1138 13.0374Z" stroke="black" stroke-width="1.5" stroke-linecap="round" stroke-linejoin="round"/>
<path d="M17.2374 15.9647C17.9385 16.5663 18.4723 16.9173 18.4723 16.9173C18.4723 16.9173 23.0004 13.9399 23.0004 10.4662C23.0004 9.28167 22.5233 8.14568 21.6741 7.30811C20.825 6.47054 19.6732 6 18.4723 6C17.585 6 16.7246 6.25688 15.9932 6.72887" stroke="black" stroke-width="1.5" stroke-linecap="round" stroke-linejoin="round"/>
<path d="M18.8134 12.0798C19.6276 11.9037 20.143 11.1099 19.9645 10.3068C19.786 9.50367 18.9812 8.99533 18.167 9.17139" stroke="black" stroke-width="1.5" stroke-linecap="round" stroke-linejoin="round"/>
<path d="M7.01081 16.3935C6.27956 17.021 5.72275 17.3871 5.72275 17.3871C5.72275 17.3871 0.999855 14.2815 0.999855 10.6584C0.999855 9.42289 1.49744 8.23802 2.38316 7.36441C3.26887 6.49079 4.47016 6 5.72275 6C6.64823 6 7.54571 6.26793 8.30859 6.76024" stroke="black" stroke-width="1.5" stroke-linecap="round" stroke-linejoin="round"/>
<path d="M5.36534 12.3413C4.51604 12.1577 3.97848 11.3298 4.16466 10.4921C4.35084 9.65438 5.19026 9.12416 6.03955 9.3078" stroke="black" stroke-width="1.5" stroke-linecap="round" stroke-linejoin="round"/>
</svg>
