<svg width="24" height="24" viewBox="0 0 24 24" fill="none" xmlns="http://www.w3.org/2000/svg">
<path d="M13.5 22.3125V3C13.5 2.17157 12.8284 1.5 12 1.5H3C2.17157 1.5 1.5 2.17157 1.5 3V22.5H13.3125C13.3622 22.5 13.4099 22.4803 13.4451 22.4451C13.4802 22.4099 13.5 22.3622 13.5 22.3125Z" stroke="black" stroke-width="2" stroke-linecap="round" stroke-linejoin="round"/>
<path d="M22.5 10.0556V9.50026C22.5 8.67183 21.8284 8 21 8H13.5V9.27778V22.5H22.5V10.0556Z" stroke="black" stroke-width="2" stroke-linecap="round" stroke-linejoin="round"/>
<rect x="4.5" y="4" width="2" height="2" rx="0.25" fill="black"/>
<rect x="8.5" y="4" width="2" height="2" rx="0.25" fill="black"/>
<rect x="4.5" y="7.5" width="2" height="2" rx="0.25" fill="black"/>
<rect x="8.5" y="7.5" width="2" height="2" rx="0.25" fill="black"/>
<rect x="4.5" y="11" width="2" height="2" rx="0.25" fill="black"/>
<rect x="8.5" y="11" width="2" height="2" rx="0.25" fill="black"/>
<rect x="4.5" y="14.5" width="2" height="2" rx="0.25" fill="black"/>
<rect x="8.5" y="14.5" width="2" height="2" rx="0.25" fill="black"/>
<rect x="15.6299" y="10.5" width="1.75" height="1.75" rx="0.25" fill="black"/>
<rect x="18.6299" y="10.5" width="1.75" height="1.75" rx="0.25" fill="black"/>
<rect x="15.6299" y="13.5" width="1.75" height="1.75" rx="0.25" fill="black"/>
<rect x="18.6299" y="16.5" width="1.75" height="1.75" rx="0.25" fill="black"/>
<rect x="15.6299" y="16.5" width="1.75" height="1.75" rx="0.25" fill="black"/>
<rect x="18.6299" y="13.5" width="1.75" height="1.75" rx="0.25" fill="black"/>
<path d="M6 18.5C6 18.2239 6.22386 18 6.5 18H8.5C8.77614 18 9 18.2239 9 18.5V22H6V18.5Z" fill="black"/>
<path d="M17 20C17 19.7239 17.2239 19.5 17.5 19.5H18.5C18.7761 19.5 19 19.7239 19 20V22.5H17V20Z" fill="black"/>
</svg>
