<svg width="24" height="24" viewBox="0 0 24 24" fill="none" xmlns="http://www.w3.org/2000/svg">
<path d="M19.7778 22.5H4.22222C2.99492 22.5 2 21.5574 2 20.3947V6.71053C2 5.54782 2.99492 4.60526 4.22222 4.60526H6.44444V3.5C6.44444 2.94772 6.89216 2.5 7.44444 2.5H7.66667C8.21895 2.5 8.66667 2.94772 8.66667 3.5V4.60526H15.3333V3.5C15.3333 2.94772 15.781 2.5 16.3333 2.5H16.5556C17.1078 2.5 17.5556 2.94772 17.5556 3.5V4.60526H19.7778C21.0051 4.60526 22 5.54782 22 6.71053V20.3947C22 21.5574 21.0051 22.5 19.7778 22.5ZM4 9.86842V20.3947H20V9.86842H4ZM8.66667 14C8.66667 14.2761 8.44281 14.5 8.16667 14.5H6C5.72386 14.5 5.5 14.2761 5.5 14V12C5.5 11.7239 5.72386 11.5 6 11.5H8.16667C8.44281 11.5 8.66667 11.7239 8.66667 12V14Z" fill="#212121"/>
</svg>
