<svg width="24" height="24" viewBox="0 0 24 24" fill="none" xmlns="http://www.w3.org/2000/svg">
<mask id="path-1-inside-1" fill="white">
<path d="M21.4502 20C21.5192 21.1024 20.6046 22 19.5 22H4.5C3.39543 22 2.4808 21.1024 2.54984 20C2.80085 15.992 4.24461 13 12 13C19.7554 13 21.1992 15.992 21.4502 20Z"/>
</mask>
<path d="M21.4502 20L19.4541 20.125L21.4502 20ZM4.54593 20.125C4.66216 18.2692 5.03684 17.1825 5.81266 16.4709C6.62353 15.7272 8.3039 15 12 15V11C7.94071 11 5.02151 11.7688 3.10889 13.5231C1.16123 15.3095 0.688533 17.7229 0.553754 19.875L4.54593 20.125ZM12 15C15.6961 15 17.3765 15.7272 18.1873 16.4709C18.9632 17.1825 19.3378 18.2692 19.4541 20.125L23.4462 19.875C23.3115 17.7229 22.8388 15.3095 20.8911 13.5231C18.9785 11.7688 16.0593 11 12 11V15ZM19.5 20H4.5V24H19.5V20ZM0.553754 19.875C0.40645 22.2272 2.34253 24 4.5 24V20C4.49392 20 4.49784 19.998 4.50705 20.0073C4.51283 20.0131 4.52397 20.0267 4.53336 20.0508C4.54364 20.0771 4.54721 20.1047 4.54593 20.125L0.553754 19.875ZM19.4541 20.125C19.4528 20.1047 19.4564 20.0771 19.4666 20.0508C19.476 20.0267 19.4872 20.0131 19.493 20.0073C19.5022 19.998 19.5061 20 19.5 20V24C21.6575 24 23.5936 22.2272 23.4462 19.875L19.4541 20.125Z" fill="black" mask="url(#path-1-inside-1)"/>
<circle cx="12" cy="7" r="4" stroke="black" stroke-width="2"/>
</svg>
