<svg width="28" height="28" viewBox="0 0 28 28" fill="none" xmlns="http://www.w3.org/2000/svg">
<mask id="path-1-inside-1" fill="white">
<path d="M23.4754 23.4996C23.5081 24.3273 22.8284 25 22 25H6C5.17157 25 4.49186 24.3273 4.52457 23.4996C4.69276 19.2432 5.92565 16 14 16C22.0743 16 23.3072 19.2432 23.4754 23.4996Z"/>
</mask>
<path d="M6.52301 23.5785C6.60374 21.5357 6.94229 20.3397 7.71396 19.5656C8.48898 18.7881 10.1495 18 14 18V14C9.77619 14 6.78306 14.8335 4.881 16.7417C2.97559 18.6532 2.6136 21.2071 2.52613 23.4206L6.52301 23.5785ZM14 18C17.8505 18 19.511 18.7881 20.286 19.5656C21.0577 20.3397 21.3963 21.5357 21.477 23.5785L25.4739 23.4206C25.3864 21.2071 25.0244 18.6532 23.119 16.7417C21.2169 14.8335 18.2238 14 14 14V18ZM22 23H6V27H22V23ZM2.52613 23.4206C2.44623 25.4425 4.09649 27 6 27V23C6.24665 23 6.53749 23.2121 6.52301 23.5785L2.52613 23.4206ZM21.477 23.5785C21.4625 23.2121 21.7533 23 22 23V27C23.9035 27 25.5538 25.4425 25.4739 23.4206L21.477 23.5785Z" fill="black" mask="url(#path-1-inside-1)"/>
<circle cx="14" cy="10" r="4" stroke="black" stroke-width="2"/>
<path d="M21.5 12.9951C20.9477 12.9951 20.5 13.4428 20.5 13.9951C20.5 14.5474 20.9477 14.9951 21.5 14.9951V12.9951ZM26.9656 18.9955L25.9683 19.0686L25.9683 19.0686L26.9656 18.9955ZM26 19.9951L26 18.9951L26 18.9951L26 19.9951ZM24.5 18.9952C23.9477 18.9952 23.5 19.4429 23.5 19.9952C23.5 20.5475 23.9477 20.9952 24.5 20.9952L24.5 18.9952ZM21.5 14.9951C23.3413 14.9951 24.3499 15.4836 24.9378 16.1134C25.5486 16.7679 25.8715 17.7496 25.9683 19.0686L27.9629 18.9223C27.8515 17.4034 27.4604 15.885 26.3999 14.7488C25.3163 13.5879 23.6962 12.9951 21.5 12.9951V14.9951ZM26 18.9951L24.5 18.9952L24.5 20.9952L26 20.9951L26 18.9951ZM25.9683 19.0686C25.9675 19.0582 25.9692 19.0433 25.9748 19.0284C25.98 19.0148 25.9866 19.0063 25.9908 19.002C25.9983 18.9944 26.0029 18.9951 26 18.9951L26 20.9951C27.081 20.9951 28.0496 20.1036 27.9629 18.9223L25.9683 19.0686Z" fill="black"/>
<path d="M20.9697 10.9413C22.9704 10.0045 23.8328 7.62318 22.8959 5.62252C21.9591 3.62186 19.5778 2.75946 17.5771 3.69629" stroke="black" stroke-width="2" stroke-linecap="round"/>
<path d="M6.49805 12.9984C7.05033 12.9984 7.49805 13.4461 7.49805 13.9984C7.49805 14.5506 7.05033 14.9984 6.49805 14.9984V12.9984ZM1.03409 19.0003L2.03141 19.0734L2.03141 19.0734L1.03409 19.0003ZM1.99969 20L1.99966 21L1.99966 21L1.99969 20ZM3.49898 19C4.05126 19 4.49897 19.4478 4.49895 20C4.49894 20.5523 4.05121 21 3.49893 21L3.49898 19ZM6.49805 14.9984C4.65746 14.9984 3.64931 15.4869 3.06168 16.1169C2.45097 16.7716 2.1281 17.7538 2.03141 19.0734L0.0367604 18.9273C0.148079 17.408 0.538989 15.8893 1.59916 14.7527C2.68241 13.5914 4.30223 12.9984 6.49805 12.9984V14.9984ZM1.99971 19L3.49898 19L3.49893 21L1.99966 21L1.99971 19ZM2.03141 19.0734C2.03218 19.063 2.03053 19.0481 2.02489 19.0332C2.01969 19.0196 2.01314 19.0111 2.00892 19.0068C2.00146 18.9992 1.99686 19 1.99971 19L1.99966 21C0.918653 21 -0.0497923 20.1085 0.0367605 18.9273L2.03141 19.0734Z" fill="black"/>
<path d="M7.02838 10.9437C5.02833 10.0066 4.16618 7.62466 5.10273 5.62347C6.03928 3.62227 8.41987 2.75963 10.4199 3.69672" stroke="black" stroke-width="2" stroke-linecap="round"/>
</svg>
