<svg width="24" height="24" viewBox="0 0 24 24" fill="none" xmlns="http://www.w3.org/2000/svg">
<path d="M17 19C17 19.2761 16.7761 19.5 16.5 19.5H8.5C8.22386 19.5 8 19.2761 8 19V18.4868C8 18.2096 8.22547 17.9853 8.50265 17.9868L11 18V16.9921L6.80343 16.9762C6.80343 16.9762 6.80343 16.0736 6.80343 14.9603L1.13379 7.5V3.87299C1.13379 2.75965 2.05684 1.85712 3.19548 1.85712H21.7507C22.8893 1.85712 23.8124 2.75965 23.8124 3.87299V14.9603C23.8124 16.0736 22.8893 16.9762 21.7507 16.9762H14V17.9762L16.5013 17.9828C16.7769 17.9835 17 18.2072 17 18.4828V19ZM3.19548 3.87299V7.5H1.13379L6.80343 14.9603H21.7507V3.87299H3.19548Z" fill="#212121"/>
<path d="M6.85714 19.5H1.14286C0.511675 19.5 0 18.9709 0 18.3182V7.68182C0 7.02912 0.511675 6.5 1.14286 6.5H6.85714C7.48833 6.5 8 7.02912 8 7.68182V18.3182C8 18.9709 7.48833 19.5 6.85714 19.5ZM1.5 8V18H6.5V8H1.5ZM4 17.7273C3.68441 17.7273 3.42857 17.4627 3.42857 17.1364C3.42857 16.81 3.68441 16.5455 4 16.5455C4.31559 16.5455 4.57143 16.81 4.57143 17.1364C4.57143 17.4627 4.31559 17.7273 4 17.7273Z" fill="#212121"/>
</svg>
