<svg width="28" height="28" viewBox="0 0 28 28" fill="none" xmlns="http://www.w3.org/2000/svg">
<path d="M15.1667 18.6667H12.8334C12.1917 18.6667 11.6667 18.1417 11.6667 17.5H3.51171V22.1667C3.51171 23.45 4.56171 24.5 5.84504 24.5H22.1667C23.45 24.5 24.5 23.45 24.5 22.1667V17.5H16.3334C16.3334 18.1417 15.8084 18.6667 15.1667 18.6667ZM23.3334 8.16667H18.6667C18.6667 5.58833 16.5784 3.5 14 3.5C11.4217 3.5 9.33337 5.58833 9.33337 8.16667H4.66671C3.38337 8.16667 2.33337 9.21667 2.33337 10.5V14C2.33337 15.295 3.37171 16.3333 4.66671 16.3333H11.6667V15.1667C11.6667 14.525 12.1917 14 12.8334 14H15.1667C15.8084 14 16.3334 14.525 16.3334 15.1667V16.3333H23.3334C24.6167 16.3333 25.6667 15.2833 25.6667 14V10.5C25.6667 9.21667 24.6167 8.16667 23.3334 8.16667ZM11.6667 8.16667C11.6667 6.88333 12.7167 5.83333 14 5.83333C15.2834 5.83333 16.3334 6.88333 16.3334 8.16667H11.655H11.6667Z" fill="#866FFE"/>
</svg>
