<svg width="224" height="144" viewBox="0 0 224 144" fill="none" xmlns="http://www.w3.org/2000/svg">
<g clip-path="url(#clip0)">
<path d="M111.443 109.695C137.855 109.695 159.266 88.2733 159.266 61.8477C159.266 35.4221 137.855 14 111.443 14C85.0319 14 63.6211 35.4221 63.6211 61.8477C63.6211 88.2733 85.0319 109.695 111.443 109.695Z" fill="#EAEEF9"/>
<path d="M64.4329 33.8125C65.6963 33.4016 66.3877 32.0438 65.977 30.7797C65.5664 29.5156 64.2092 28.8239 62.9458 29.2347C61.6823 29.6456 60.991 31.0034 61.4017 32.2676C61.8123 33.5317 63.1694 34.2234 64.4329 33.8125Z" fill="#EAEEF9"/>
<path d="M69.6848 25.9596C70.5439 25.6802 71.014 24.7568 70.7347 23.8973C70.4555 23.0376 69.5327 22.5673 68.6735 22.8467C67.8144 23.1261 67.3443 24.0495 67.6235 24.909C67.9027 25.7687 68.8256 26.239 69.6848 25.9596Z" fill="#EAEEF9"/>
<path d="M164.301 49.8394C165.791 48.4764 165.896 46.1624 164.534 44.6709C163.171 43.1793 160.858 43.0752 159.367 44.4382C157.877 45.8012 157.773 48.1153 159.135 49.6067C160.497 51.0983 162.81 51.2025 164.301 49.8394Z" fill="#EAEEF9"/>
<path d="M164.643 33.5092C165.27 32.9353 165.314 31.9609 164.741 31.3329C164.167 30.7049 163.194 30.661 162.565 31.235C161.938 31.8089 161.894 32.7832 162.468 33.4113C163.041 34.0393 164.015 34.0831 164.643 33.5092Z" fill="#EAEEF9"/>
<path d="M144.909 19.9689C145.759 19.9689 146.448 19.2793 146.448 18.4285C146.448 17.5779 145.759 16.8882 144.909 16.8882C144.058 16.8882 143.369 17.5779 143.369 18.4285C143.369 19.2793 144.058 19.9689 144.909 19.9689Z" fill="url(#paint0_linear)"/>
<path d="M65.0786 86.2049C65.9289 86.2049 66.6181 85.5153 66.6181 84.6646C66.6181 83.8138 65.9289 83.1241 65.0786 83.1241C64.2284 83.1241 63.5391 83.8138 63.5391 84.6646C63.5391 85.5153 64.2284 86.2049 65.0786 86.2049Z" fill="url(#paint1_linear)"/>
<g filter="url(#filter0_d)">
<path d="M145.871 37.9719L146.641 100.742C146.641 102.86 144.909 104.593 142.792 104.593H81.6907C79.5738 104.593 77.8418 102.86 77.8418 100.742V20.0652C77.8418 17.9471 79.5738 16.2142 81.6907 16.2142H125.953L145.871 37.9719Z" fill="white"/>
</g>
<path d="M135.286 76.8665H98.7214C98.2403 76.8665 97.8555 76.385 97.8555 75.8074C97.8555 75.2298 98.2403 74.7484 98.7214 74.7484H135.286C135.767 74.7484 136.152 75.2298 136.152 75.8074C136.152 76.385 135.767 76.8665 135.286 76.8665Z" fill="#E3EAF2"/>
<path d="M94.1996 76.8665H87.7527C87.2716 76.8665 86.8867 76.385 86.8867 75.8074C86.8867 75.2298 87.2716 74.7484 87.7527 74.7484H94.1996C94.6807 74.7484 95.0656 75.2298 95.0656 75.8074C95.0656 76.385 94.6807 76.8665 94.1996 76.8665Z" fill="#866FFE" fill-opacity="0.8"/>
<path d="M135.189 69.1644H118.831C118.35 69.1644 117.965 68.6831 117.965 68.1054C117.965 67.5278 118.35 67.0464 118.831 67.0464H135.189C135.67 67.0464 136.055 67.5278 136.055 68.1054C136.055 68.6831 135.67 69.1644 135.189 69.1644Z" fill="#866FFE" fill-opacity="0.8"/>
<path d="M111.903 69.1644H88.0398C87.5587 69.1644 87.1738 68.6831 87.1738 68.1054C87.1738 67.5278 87.5587 67.0464 88.0398 67.0464H111.903C112.384 67.0464 112.769 67.5278 112.769 68.1054C112.865 68.6831 112.384 69.1644 111.903 69.1644Z" fill="#E3EAF2"/>
<path d="M129.319 45.9627H135.862C136.343 45.9627 136.728 45.4812 136.728 44.9036C136.728 44.3259 136.343 43.8446 135.862 43.8446H129.319C128.838 43.8446 128.453 44.3259 128.453 44.9036C128.453 45.5775 128.838 45.9627 129.319 45.9627Z" fill="#E3EAF2"/>
<path d="M135.478 61.3665H129.128C128.647 61.3665 128.262 60.885 128.262 60.3074C128.262 59.7298 128.647 59.2484 129.128 59.2484H135.478C135.959 59.2484 136.344 59.7298 136.344 60.3074C136.344 60.885 135.959 61.3665 135.478 61.3665Z" fill="#E3EAF2"/>
<path d="M123.259 61.3665H106.227C105.746 61.3665 105.361 60.885 105.361 60.3074C105.361 59.7298 105.746 59.2484 106.227 59.2484H123.355C123.836 59.2484 124.221 59.7298 124.221 60.3074C124.221 60.885 123.836 61.3665 123.259 61.3665Z" fill="#866FFE" fill-opacity="0.8"/>
<path d="M107.573 92.0775H105.36C104.879 92.0775 104.494 91.5962 104.494 91.0185C104.494 90.4409 104.879 89.9596 105.36 89.9596H107.573C108.054 89.9596 108.439 90.4409 108.439 91.0185C108.439 91.6925 108.054 92.0775 107.573 92.0775Z" fill="#E3EAF2"/>
<path d="M101.415 92.0775H88.4246C87.9435 92.0775 87.5586 91.5962 87.5586 91.0185C87.5586 90.4409 87.9435 89.9596 88.4246 89.9596H101.415C101.896 89.9596 102.281 90.4409 102.281 91.0185C102.281 91.6925 101.896 92.0775 101.415 92.0775Z" fill="#866FFE" fill-opacity="0.8"/>
<path d="M135.767 53.6646H122.969C122.488 53.6646 122.104 53.1833 122.104 52.6056C122.104 52.028 122.488 51.5466 122.969 51.5466H135.863C136.344 51.5466 136.729 52.028 136.729 52.6056C136.729 53.1833 136.344 53.6646 135.767 53.6646Z" fill="#866FFE" fill-opacity="0.8"/>
<path d="M106.13 45.9627H123.45C123.931 45.9627 124.316 45.4812 124.316 44.9036C124.316 44.3259 123.931 43.8446 123.45 43.8446H106.13C105.649 43.8446 105.264 44.3259 105.264 44.9036C105.264 45.5775 105.649 45.9627 106.13 45.9627Z" fill="#866FFE" fill-opacity="0.8"/>
<path d="M109.055 84.568L116.781 84.568C117.262 84.568 117.647 84.0866 117.647 83.509C117.647 82.9313 117.262 82.45 116.781 82.45L109.055 82.45C108.574 82.45 108.189 82.9313 108.189 83.509C108.189 84.1829 108.574 84.568 109.055 84.568Z" fill="#866FFE" fill-opacity="0.8"/>
<path d="M121.055 84.568H135.134C135.615 84.568 136 84.0866 136 83.509C136 82.9313 135.615 82.45 135.134 82.45H121.055C120.574 82.45 120.189 82.9313 120.189 83.509C120.189 84.1828 120.574 84.568 121.055 84.568Z" fill="#866FFE" fill-opacity="0.8"/>
<path d="M87.866 84.568H105.186C105.667 84.568 106.052 84.0866 106.052 83.509C106.052 82.9313 105.667 82.45 105.186 82.45H87.866C87.3849 82.45 87 82.9313 87 83.509C87 84.1828 87.3849 84.568 87.866 84.568Z" fill="#E3EAF2"/>
<path d="M117.581 53.6646H106.034C105.553 53.6646 105.168 53.1833 105.168 52.6056C105.168 52.028 105.553 51.5466 106.034 51.5466H117.581C118.062 51.5466 118.447 52.028 118.447 52.6056C118.543 53.1833 118.158 53.6646 117.581 53.6646Z" fill="#E3EAF2"/>
<path d="M118.254 29.4037H89.0028C88.3293 29.4037 87.752 28.8261 87.752 28.1522C87.752 27.4782 88.3293 26.9006 89.0028 26.9006H118.254C118.928 26.9006 119.505 27.4782 119.505 28.1522C119.505 28.8261 118.928 29.4037 118.254 29.4037Z" fill="#CED7E2"/>
<path d="M100.261 36.4317H89.0028C88.3293 36.4317 87.752 35.854 87.752 35.1801C87.752 34.5062 88.3293 33.9286 89.0028 33.9286H100.165C100.838 33.9286 101.415 34.5062 101.415 35.1801C101.415 35.854 100.838 36.4317 100.261 36.4317Z" fill="#CED7E2"/>
<path d="M125.953 16.2142V33.5434C125.953 35.9502 128.07 37.9719 130.476 37.9719H145.871" fill="#CED7E2"/>
<path d="M100.357 61.4627C100.164 61.4627 99.9721 61.3664 99.8759 61.0776L98.8174 57.9006H91.5046L90.4461 61.0776C90.3499 61.2702 90.1574 61.4627 89.965 61.4627H88.0405C87.9443 61.4627 87.8481 61.3664 87.7519 61.3664C87.6556 61.2702 87.6556 61.1739 87.7519 61.0776L93.3328 45.8664C93.429 45.4814 93.8139 45.2888 94.1025 45.2888H96.508C96.893 45.2888 97.1816 45.4814 97.2778 45.8664L102.859 61.3664L102.762 61.4627H100.357ZM92.3705 55.5901H97.9514L95.1609 47.4069L92.3705 55.5901Z" fill="url(#paint2_linear)"/>
</g>
<defs>
<filter id="filter0_d" x="55.8418" y="5.21423" width="112.799" height="132.379" filterUnits="userSpaceOnUse" color-interpolation-filters="sRGB">
<feFlood flood-opacity="0" result="BackgroundImageFix"/>
<feColorMatrix in="SourceAlpha" type="matrix" values="0 0 0 0 0 0 0 0 0 0 0 0 0 0 0 0 0 0 127 0" result="hardAlpha"/>
<feOffset dy="11"/>
<feGaussianBlur stdDeviation="11"/>
<feColorMatrix type="matrix" values="0 0 0 0 0.397708 0 0 0 0 0.47749 0 0 0 0 0.575 0 0 0 0.18 0"/>
<feBlend mode="normal" in2="BackgroundImageFix" result="effect1_dropShadow"/>
<feBlend mode="normal" in="SourceGraphic" in2="effect1_dropShadow" result="shape"/>
</filter>
<linearGradient id="paint0_linear" x1="143.447" y1="18.4065" x2="146.434" y2="18.4065" gradientUnits="userSpaceOnUse">
<stop stop-color="#FFDE83"/>
<stop offset="1" stop-color="#FFBE07"/>
</linearGradient>
<linearGradient id="paint1_linear" x1="63.6155" y1="84.656" x2="66.6025" y2="84.656" gradientUnits="userSpaceOnUse">
<stop stop-color="#FFDE83"/>
<stop offset="1" stop-color="#FFBE07"/>
</linearGradient>
<linearGradient id="paint2_linear" x1="87.6294" y1="53.3982" x2="102.839" y2="53.3982" gradientUnits="userSpaceOnUse">
<stop stop-color="#FFBE07"/>
<stop offset="1" stop-color="#FFBE07"/>
</linearGradient>
<clipPath id="clip0">
<rect width="109" height="128" fill="white" transform="translate(58 6)"/>
</clipPath>
</defs>
</svg>
