<svg width="224" height="144" viewBox="0 0 224 144" fill="none" xmlns="http://www.w3.org/2000/svg">
<path d="M116.666 107C143.238 107 164.78 85.3094 164.78 58.4589C164.78 31.6084 143.143 9.91772 116.666 9.91772C90.0947 9.91772 68.5527 31.6084 68.5527 58.4589C68.5527 85.3094 90.0947 107 116.666 107Z" fill="#EAEEF9"/>
<path d="M161.649 26.6396C163.797 26.6396 165.539 24.8856 165.539 22.7219C165.539 20.5582 163.797 18.8042 161.649 18.8042C159.5 18.8042 157.758 20.5582 157.758 22.7219C157.758 24.8856 159.5 26.6396 161.649 26.6396Z" fill="#EAEEF9"/>
<path d="M167.343 11.351C168.81 11.351 170 10.1531 170 8.6755C170 7.19786 168.81 6 167.343 6C165.875 6 164.686 7.19786 164.686 8.6755C164.686 10.1531 165.875 11.351 167.343 11.351Z" fill="#EAEEF9"/>
<path d="M71.1161 26.544C72.5836 26.544 73.7733 25.3461 73.7733 23.8685C73.7733 22.3909 72.5836 21.193 71.1161 21.193C69.6486 21.193 68.459 22.3909 68.459 23.8685C68.459 25.3461 69.6486 26.544 71.1161 26.544Z" fill="#EAEEF9"/>
<path d="M59.9347 84.3807C62.6601 84.3807 64.8694 82.1561 64.8694 79.4119C64.8694 76.6677 62.6601 74.4431 59.9347 74.4431C57.2093 74.4431 55 76.6677 55 79.4119C55 82.1561 57.2093 84.3807 59.9347 84.3807Z" fill="#EAEEF9"/>
<g filter="url(#filter0_d)">
<path d="M167.872 80.0811H153.276C152.585 80.0811 151.994 79.6343 151.796 79.0384C150.366 74.7683 147.21 73.7256 139.567 70.6968C139.123 70.4982 139.074 69.9023 139.518 69.6541C141.737 68.5617 141.342 67.6183 141.342 61.0641C141.243 60.9648 141.145 60.8159 141.096 60.7166C140.602 59.9718 140.257 59.078 140.159 58.1843L139.665 57.936C138.186 58.2836 138.285 56.6947 137.89 53.6162C137.742 52.3253 137.94 52.077 138.482 51.8784L138.975 51.2329C136.066 44.6788 137.545 40.5576 140.405 39.068C139.468 36.9826 139.419 36.2378 139.419 36.2378C139.419 36.2378 145.484 37.2805 147.555 36.8336C150.218 36.2874 154.262 36.9329 155.791 40.4583C158.306 41.4513 159.292 43.0899 159.538 44.7781C159.884 47.5586 158.355 50.5874 158.059 51.7791C158.108 51.8287 158.108 51.8784 158.158 51.928C158.552 52.1267 158.7 52.4742 158.552 53.5666C158.207 56.4961 158.256 58.3332 156.777 57.8864L155.445 60.22C155.396 60.518 155.347 60.6173 155.347 60.7662C155.298 61.2131 155.297 62.0572 155.297 66.9232C155.297 67.519 155.445 68.0652 155.741 68.5121C156.037 69.0582 156.53 69.4554 157.122 69.7037H157.171C160.623 71.1436 163.089 72.087 164.913 72.8318C168.957 74.4704 169.647 74.9172 169.993 77.6481C170.091 78.9888 169.154 80.0811 167.872 80.0811Z" fill="white"/>
</g>
<path d="M157.959 51.7293C158.107 50.9845 157.762 50.0908 157.466 49.4453C157.417 49.346 157.368 49.2467 157.318 49.0977C156.184 46.764 153.57 45.771 151.105 45.6717C144.793 45.3241 144.201 46.5654 142.229 44.7283C142.82 45.6717 142.919 47.1116 141.933 48.9487C141.292 50.2397 140.01 50.7859 138.875 51.1831C136.015 44.629 137.445 40.5078 140.305 39.0182C139.369 36.9328 139.319 36.188 139.319 36.188C139.319 36.188 145.385 37.2307 147.456 36.7838C150.119 36.2376 154.162 36.8831 155.691 40.4085C158.206 41.4015 159.192 43.0401 159.439 44.7283C159.833 47.5088 158.255 50.5376 157.959 51.7293Z" fill="url(#paint0_linear)"/>
<path opacity="0.1" d="M166.343 80.081C167.872 77.6976 167.28 75.4633 164.814 72.8317C168.858 74.4702 169.548 74.9171 169.894 77.648C170.091 78.8893 169.105 80.0313 167.823 80.0313H166.343V80.081Z" fill="#9AA2B2"/>
<path d="M155.642 68.5616V69.7036H140.996V68.214C141.341 67.4196 141.243 67.4692 141.243 61.064C141.144 60.9647 141.045 60.8158 140.996 60.7165V60.3689C141.292 60.9151 141.736 61.4116 142.18 61.8088L146.766 65.0363C147.851 65.93 149.379 65.9797 150.464 65.0859L154.754 61.213C154.902 61.064 155.05 60.9647 155.198 60.8158C155.149 61.2626 155.149 62.1067 155.149 66.9727C155.198 67.5189 155.346 68.0651 155.642 68.5616Z" fill="url(#paint1_linear)"/>
<g filter="url(#filter1_d)">
<path d="M92.4233 69.0084C90.0563 68.9588 89.8098 68.5119 89.8098 68.5119V64.5397C92.3247 62.4543 94.4451 60.0213 95.0369 56.8435C96.6149 56.4959 97.6011 55.056 97.4532 53.4671C97.4039 52.772 96.9601 52.1265 96.9108 51.3817C96.9108 51.0341 96.9108 50.6866 96.9108 50.339C96.9108 50.0907 96.9108 49.8921 96.8614 49.6439C96.8614 49.3956 96.8121 49.1473 96.8121 48.8991C96.6642 47.7074 96.3683 46.4661 95.5793 45.0262C93.6068 41.3022 89.7112 38.8196 85.3224 38.8196C84.4347 38.8196 83.5471 38.9189 82.7088 39.1175C81.1308 39.4651 79.7008 40.1602 78.4186 41.1533C78.1721 41.3519 77.9255 41.5505 77.6789 41.7491C77.6296 41.7987 77.5803 41.8484 77.4817 41.898C76.101 43.189 75.0161 44.8276 74.4243 46.6647C73.8326 48.5019 73.6847 50.3887 73.9312 52.2755C73.9312 52.3251 73.9312 52.3748 73.9312 52.4244C73.9312 52.4741 73.9312 52.5237 73.9312 52.5734C73.9805 52.9209 74.0791 52.8713 73.8326 53.1692C73.7833 53.2685 73.6847 53.3678 73.6353 53.5168C73.3395 54.063 73.0929 54.8077 73.4381 55.7015C74.0298 57.3897 75.2133 57.1414 76.2982 58.0848C76.2489 58.1345 76.1503 58.1841 76.101 58.1841H76.0516L74.8188 58.5814C67.422 60.915 66.5837 68.8098 74.1778 70.2497C73.6353 70.2994 73.1422 70.5973 72.797 70.8456C70.3807 72.7324 68.852 75.6122 68.4575 78.4424C68.3096 79.2865 69 80.081 69.8876 80.081H81.6239C81.8705 80.081 82.1171 79.8824 82.2157 79.6341C83.3006 75.6619 85.7662 74.2716 90.8946 72.1862L93.8534 70.9945C94.3465 70.7959 94.889 70.5973 95.4807 70.349C96.0231 70.1504 95.9738 69.356 95.3821 69.207C94.7903 69.0581 94.1986 69.0084 93.6068 68.9588C93.1137 69.0084 92.7192 69.0084 92.4233 69.0084ZM77.3831 63.9438C77.3831 63.4473 77.7283 62.9011 78.4679 62.3053C78.7638 62.7025 79.1583 63.1494 79.6021 63.5466C79.9473 63.8445 80.2925 64.1425 80.687 64.4404C80.9336 64.5893 81.1801 64.7879 81.4267 64.9866C81.476 65.0362 81.5253 65.0859 81.5746 65.0859C81.6239 65.1355 81.7226 65.1852 81.7719 65.2348V67.6678C81.7226 67.6181 81.6732 67.5685 81.6239 67.5685C81.3774 67.3699 81.1801 67.1713 80.9829 67.0223C80.6377 66.7741 80.2925 66.5754 79.9473 66.3768C79.7994 66.2775 79.7008 66.2279 79.6021 66.1286C78.4679 65.3838 77.4324 64.6886 77.3831 63.9438Z" fill="white"/>
</g>
<path d="M92.4242 69.0084C92.0297 70.4483 91.5859 71.3421 91.5859 71.3421L78.8633 69.3063L79.603 66.1285C79.7016 66.2278 79.8495 66.2775 79.9482 66.3271C80.2933 66.5258 80.6878 66.774 80.9837 67.0223C81.181 67.1712 81.4275 67.3202 81.6248 67.5685C81.6741 67.6181 81.7234 67.6678 81.7234 67.6678V65.2348C81.6248 65.1851 81.5755 65.1355 81.5261 65.0858C83.5973 66.1285 86.1615 66.6747 89.8599 64.49C89.8106 64.49 89.8106 64.5396 89.7613 64.5396V68.5119C89.7613 68.5119 90.0572 68.9587 92.4242 69.0084Z" fill="url(#paint2_linear)"/>
<path d="M96.8124 49.6438C94.692 50.3886 92.4236 50.6865 90.1552 50.4879C86.6048 50.19 83.1529 48.75 80.49 46.3667C79.6024 48.9486 77.3834 50.8851 74.8684 52.0271C74.5232 52.1761 74.178 52.325 73.8329 52.4243C73.8329 52.3747 73.8329 52.325 73.8329 52.325C73.5863 50.4382 73.7342 48.5514 74.326 46.7143C74.9177 44.8771 76.0026 43.2386 77.3834 41.9476C77.4327 41.898 77.482 41.8483 77.5806 41.7987C77.8272 41.6 78.0737 41.4014 78.3203 41.2028C79.6024 40.2594 81.0818 39.5643 82.6105 39.1671C83.4981 38.9684 84.3364 38.8691 85.224 38.8691C89.6128 38.8691 93.5085 41.3518 95.481 45.0757C96.2207 46.5157 96.5658 47.757 96.7138 48.899C96.8124 49.1473 96.8124 49.3955 96.8124 49.6438Z" fill="url(#paint3_linear)"/>
<path d="M78.6152 62.4542C78.9111 62.8514 79.2563 63.199 79.5522 63.4969C79.207 63.199 78.8618 62.8514 78.6152 62.4542Z" fill="#3973F4"/>
<path d="M83.2509 75.0165C82.314 76.2081 80.5388 76.2578 79.0594 76.2081C80.6374 74.6689 79.7498 69.654 74.2268 70.2498H74.1775C66.5834 68.8099 67.4217 60.9151 74.7692 58.5814L76.002 58.1842C76.1006 58.2339 76.15 58.2835 76.1993 58.3828C76.791 59.922 77.58 61.213 78.4183 62.2557C75.4103 64.788 79.6018 65.5825 81.6236 67.5189C83.3989 68.5616 84.8782 72.9311 83.2509 75.0165Z" fill="url(#paint4_linear)"/>
<path d="M78.5674 62.4538C78.5181 62.4043 78.4688 62.3548 78.4688 62.3053C78.4688 62.3053 78.5181 62.4043 78.5674 62.4538Z" fill="#3973F4"/>
<g filter="url(#filter2_d)">
<path d="M148.985 82.365C149.232 84.2022 147.802 85.8904 145.928 85.8904H88.1339C86.26 85.8904 84.83 84.2022 85.0765 82.365C85.619 78.5418 86.4573 77.7473 92.0789 75.4633L93.4596 74.9171C96.0732 73.8744 99.4757 72.5834 104.062 70.647C105.097 70.2001 105.936 69.4057 106.379 68.363C106.626 67.8168 106.774 67.1713 106.774 66.5258V57.8366C106.626 57.638 106.478 57.489 106.379 57.2904C105.64 56.198 105.147 54.9071 104.999 53.5168L104.259 53.1692C102.04 53.7154 102.237 51.3321 101.645 46.764C101.399 44.8772 101.695 44.48 102.533 44.1821L103.223 43.2387C98.9826 33.5564 101.103 27.4988 105.295 25.3637C104.012 22.2852 103.914 21.1929 103.914 21.1929C103.914 21.1929 112.839 22.6825 115.897 22.0866C119.792 21.2922 125.809 22.2356 128.028 27.4491C131.726 28.9387 133.156 31.2724 133.501 33.8543C134.044 37.9258 131.726 42.3946 131.282 44.1324C131.331 44.2317 131.331 44.2814 131.381 44.331C131.973 44.629 132.17 45.1255 131.973 46.764C131.43 51.0838 131.578 53.7651 129.359 53.1692L127.386 56.6449C127.288 57.0421 127.288 57.1911 127.239 57.489C127.14 58.1345 127.189 59.4255 127.189 66.5258C127.189 67.3699 127.436 68.214 127.88 68.8595C128.373 69.6043 129.063 70.2498 129.901 70.5973C129.951 70.5973 129.951 70.5973 130 70.647C135.079 72.782 138.728 74.1723 141.391 75.215C147.457 77.5984 148.394 78.3432 148.985 82.365Z" fill="white"/>
</g>
<path d="M131.332 44.1324C131.529 43.0401 131.036 41.6994 130.641 40.756C130.592 40.6071 130.493 40.4581 130.444 40.2595C128.718 36.7838 124.921 35.3935 121.272 35.1949C111.952 34.6984 111.114 36.4859 108.204 33.8047C109.092 35.1949 109.19 37.33 107.81 40.0112C106.823 41.8981 104.95 42.7421 103.322 43.2883C99.0813 33.606 101.202 27.5484 105.393 25.4134C104.013 22.2852 103.914 21.1929 103.914 21.1929C103.914 21.1929 112.839 22.6825 115.897 22.0866C119.793 21.2922 125.809 22.2356 128.028 27.4491C131.726 28.9387 133.156 31.2724 133.501 33.8543C134.093 37.8762 131.775 42.3449 131.332 44.1324Z" fill="url(#paint5_linear)"/>
<path opacity="0.1" d="M143.759 85.8408C146.027 82.3651 145.139 79.088 141.49 75.2151C147.457 77.5984 148.443 78.3432 148.986 82.3154C149.232 84.1526 147.802 85.8408 145.928 85.8408H143.759Z" fill="#9AA2B2"/>
<path d="M127.93 68.8594V70.5476H106.43V68.3629C106.676 67.8167 106.824 67.1712 106.824 66.5258V57.8365C106.676 57.6379 106.528 57.489 106.43 57.2904V56.7938C106.873 57.5883 107.465 58.3331 108.205 58.9289L114.961 63.6955C116.539 65.0362 118.807 65.0858 120.434 63.7949L126.746 58.0848C126.944 57.8862 127.19 57.6876 127.387 57.489C127.289 58.1344 127.338 59.4254 127.338 66.5258C127.289 67.3698 127.535 68.1643 127.93 68.8594Z" fill="url(#paint6_linear)"/>
<defs>
<filter id="filter0_d" x="115.395" y="25.2378" width="76.6052" height="87.8433" filterUnits="userSpaceOnUse" color-interpolation-filters="sRGB">
<feFlood flood-opacity="0" result="BackgroundImageFix"/>
<feColorMatrix in="SourceAlpha" type="matrix" values="0 0 0 0 0 0 0 0 0 0 0 0 0 0 0 0 0 0 127 0" result="hardAlpha"/>
<feOffset dy="11"/>
<feGaussianBlur stdDeviation="11"/>
<feColorMatrix type="matrix" values="0 0 0 0 0.397708 0 0 0 0 0.47749 0 0 0 0 0.575 0 0 0 0.27 0"/>
<feBlend mode="normal" in2="BackgroundImageFix" result="effect1_dropShadow"/>
<feBlend mode="normal" in="SourceGraphic" in2="effect1_dropShadow" result="shape"/>
</filter>
<filter id="filter1_d" x="46.4375" y="27.8196" width="73.0303" height="85.2614" filterUnits="userSpaceOnUse" color-interpolation-filters="sRGB">
<feFlood flood-opacity="0" result="BackgroundImageFix"/>
<feColorMatrix in="SourceAlpha" type="matrix" values="0 0 0 0 0 0 0 0 0 0 0 0 0 0 0 0 0 0 127 0" result="hardAlpha"/>
<feOffset dy="11"/>
<feGaussianBlur stdDeviation="11"/>
<feColorMatrix type="matrix" values="0 0 0 0 0.397708 0 0 0 0 0.47749 0 0 0 0 0.575 0 0 0 0.27 0"/>
<feBlend mode="normal" in2="BackgroundImageFix" result="effect1_dropShadow"/>
<feBlend mode="normal" in="SourceGraphic" in2="effect1_dropShadow" result="shape"/>
</filter>
<filter id="filter2_d" x="63.0488" y="10.1929" width="107.964" height="108.697" filterUnits="userSpaceOnUse" color-interpolation-filters="sRGB">
<feFlood flood-opacity="0" result="BackgroundImageFix"/>
<feColorMatrix in="SourceAlpha" type="matrix" values="0 0 0 0 0 0 0 0 0 0 0 0 0 0 0 0 0 0 127 0" result="hardAlpha"/>
<feOffset dy="11"/>
<feGaussianBlur stdDeviation="11"/>
<feColorMatrix type="matrix" values="0 0 0 0 0.397708 0 0 0 0 0.47749 0 0 0 0 0.575 0 0 0 0.27 0"/>
<feBlend mode="normal" in2="BackgroundImageFix" result="effect1_dropShadow"/>
<feBlend mode="normal" in="SourceGraphic" in2="effect1_dropShadow" result="shape"/>
</filter>
<linearGradient id="paint0_linear" x1="137.306" y1="43.9603" x2="159.506" y2="43.9603" gradientUnits="userSpaceOnUse">
<stop stop-color="#B0BACC"/>
<stop offset="1" stop-color="#969EAE"/>
</linearGradient>
<linearGradient id="paint1_linear" x1="148.323" y1="69.7604" x2="148.323" y2="64.618" gradientUnits="userSpaceOnUse">
<stop stop-color="white"/>
<stop offset="1" stop-color="#E2E5EC"/>
</linearGradient>
<linearGradient id="paint2_linear" x1="85.6478" y1="71.3838" x2="85.6478" y2="67.609" gradientUnits="userSpaceOnUse">
<stop stop-color="white"/>
<stop offset="1" stop-color="#E2E5EC"/>
</linearGradient>
<linearGradient id="paint3_linear" x1="73.7082" y1="45.6482" x2="96.8166" y2="45.6482" gradientUnits="userSpaceOnUse">
<stop stop-color="#B0BACC"/>
<stop offset="1" stop-color="#969EAE"/>
</linearGradient>
<linearGradient id="paint4_linear" x1="68.8505" y1="67.2042" x2="83.9554" y2="67.2042" gradientUnits="userSpaceOnUse">
<stop stop-color="#B0BACC"/>
<stop offset="1" stop-color="#969EAE"/>
</linearGradient>
<linearGradient id="paint5_linear" x1="100.993" y1="32.6651" x2="133.603" y2="32.6651" gradientUnits="userSpaceOnUse">
<stop stop-color="#B0BACC"/>
<stop offset="1" stop-color="#969EAE"/>
</linearGradient>
<linearGradient id="paint6_linear" x1="117.186" y1="70.6313" x2="117.186" y2="63.0544" gradientUnits="userSpaceOnUse">
<stop stop-color="white"/>
<stop offset="1" stop-color="#E2E5EC"/>
</linearGradient>
</defs>
</svg>
