<svg width="154" height="114" viewBox="0 0 154 114" fill="none" xmlns="http://www.w3.org/2000/svg">
<path d="M13.2591 52.0392C13.5487 51.9423 13.7417 51.6515 13.7417 51.2637L13.5487 50.4882C13.4521 50.1974 13.1625 50.0035 12.8729 50.1004L5.53625 52.0392C5.24665 52.1362 5.05358 52.427 5.15011 52.7178L5.34318 53.4934C5.43972 53.7842 5.72932 53.9781 6.01893 53.8811C6.30853 54.9475 7.08081 55.82 8.04616 56.4016L9.30112 57.0802C9.49419 57.1772 9.49419 57.371 9.39766 57.468L8.52884 58.6313C7.85309 59.5038 7.66002 60.6671 7.85309 61.7334C7.56349 61.8304 7.37042 62.1212 7.46695 62.412L7.66002 63.1875C7.75656 63.6722 8.1427 63.8661 8.4323 63.7692L15.769 61.8304C16.0586 61.7334 16.2516 61.4426 16.1551 61.1518L15.962 60.3762C15.8655 60.0854 15.5759 59.8915 15.2863 59.9885C14.9967 58.9221 14.2244 58.0496 13.2591 57.5649L11.9076 56.8863C11.7145 56.7894 11.7145 56.5955 11.811 56.4986L12.6798 55.3353C13.2591 54.2689 13.4521 53.2025 13.2591 52.0392ZM11.5214 54.4628L10.5561 55.82C10.4595 56.0139 10.1699 56.0139 10.0734 55.9169L8.62537 55.1414C8.04616 54.8506 7.66002 54.4628 7.37042 53.8811C7.27388 53.6873 7.37042 53.4934 7.56349 53.3964C7.56349 53.3964 7.56349 53.3964 7.66002 53.3964L11.7145 52.3301C11.9076 52.3301 12.1006 52.427 12.1006 52.6209C12.1006 52.6209 12.1006 52.6209 12.1006 52.7178C12.0041 53.3964 11.9076 53.9781 11.5214 54.4628Z" fill="url(#paint0_linear)"/>
<path d="M72.4369 104C98.9344 104 120.415 82.4291 120.415 55.82C120.415 29.2109 98.9344 7.63995 72.4369 7.63995C45.9394 7.63995 24.459 29.2109 24.459 55.82C24.459 82.4291 45.9394 104 72.4369 104Z" fill="#EAEEF9"/>
<path d="M127.325 32.1658C128.821 30.7933 128.925 28.4632 127.559 26.9614C126.192 25.4595 123.871 25.3546 122.376 26.7271C120.88 28.0995 120.776 30.4297 122.143 31.9315C123.509 33.4334 125.83 33.5383 127.325 32.1658Z" fill="#EAEEF9"/>
<path d="M44.709 11.7749C45.9765 11.3612 46.6701 9.9939 46.2581 8.72101C45.8461 7.44811 44.4846 6.75161 43.217 7.16532C41.9494 7.57904 41.2559 8.94632 41.6679 10.2192C42.0799 11.4921 43.4414 12.1886 44.709 11.7749Z" fill="#EAEEF9"/>
<path d="M49.9775 3.86748C50.8395 3.58614 51.3111 2.65639 51.031 1.79082C50.7508 0.925244 49.825 0.451628 48.963 0.732965C48.1011 1.0143 47.6295 1.94406 47.9096 2.80963C48.1898 3.6752 49.1156 4.14882 49.9775 3.86748Z" fill="#EAEEF9"/>
<path d="M127.603 15.6508C128.233 15.0729 128.277 14.0918 127.701 13.4595C127.126 12.8271 126.149 12.7829 125.519 13.3608C124.889 13.9387 124.845 14.9198 125.421 15.5522C125.996 16.1845 126.973 16.2287 127.603 15.6508Z" fill="#EAEEF9"/>
<path d="M89.4959 4.08767C89.9288 3.69038 89.9591 3.01588 89.5634 2.58113C89.1678 2.14638 88.4961 2.11602 88.0632 2.51331C87.6303 2.9106 87.6 3.5851 87.9956 4.01985C88.3913 4.45459 89.063 4.48496 89.4959 4.08767Z" fill="#EAEEF9"/>
<path d="M78.4931 5.42878C78.2035 5.13796 77.8174 4.84713 77.4312 4.55631V4.45937C77.4312 4.45937 77.5278 4.36242 77.6243 4.36242C77.9139 4.16854 78.2035 3.87772 78.3001 3.58689C78.3966 3.00524 77.9139 2.81136 77.6243 2.61747C77.6243 2.61747 77.5278 2.61747 77.5278 2.52053L77.6243 2.42359C77.9139 2.22971 78.2035 1.84194 78.2035 1.45417C78.2035 1.26029 78.0105 1.06641 77.8174 1.06641C77.6243 1.06641 77.4312 1.26029 77.4312 1.45417C77.4312 1.55111 77.2382 1.745 77.1416 1.84194C76.9486 2.03582 76.659 2.32665 76.659 2.71441C76.7555 3.00524 76.9486 3.19912 77.2382 3.29607C77.3347 3.29607 77.4312 3.39301 77.4312 3.39301C77.4312 3.48995 77.2382 3.58689 77.1416 3.68383C76.9486 3.78077 76.852 3.97466 76.659 4.0716C76.659 4.0716 76.5624 4.0716 76.5624 3.97466C76.3694 3.87772 76.1763 3.78077 75.9832 3.68383C75.8867 3.68383 75.7901 3.58689 75.6936 3.58689C75.0179 3.39301 74.5352 3.48995 74.149 3.87771C74.0525 3.97466 73.956 4.0716 73.956 4.26548L71.253 12.0208C71.1565 12.3116 71.253 12.6025 71.5426 12.6994C71.6391 12.6994 71.8322 12.6994 71.9287 12.6994L79.3619 9.8881H79.4585C79.555 9.79116 79.6515 9.79116 79.7481 9.69422C80.0377 9.40339 80.1342 9.01562 80.1342 8.62786C80.0377 7.85232 79.8446 7.17373 79.3619 6.59208C79.1689 6.20432 78.8793 5.81655 78.4931 5.42878ZM79.2654 9.20951C78.9758 9.50033 77.6243 9.20951 76.1763 7.75538C74.8248 6.30126 74.5352 4.94407 74.8248 4.65325C75.0179 4.45937 75.5971 4.55631 76.3694 4.94407L76.1763 5.2349C76.0798 5.42878 76.0797 5.62267 76.2728 5.81655C76.3694 5.81655 76.3694 5.91349 76.4659 5.91349C76.5624 5.91349 76.7555 5.81655 76.7555 5.71961L76.9486 5.42878C77.2382 5.62267 77.5278 5.91349 77.8174 6.20432C79.2654 7.46456 79.555 8.91868 79.2654 9.20951Z" fill="url(#paint1_linear)"/>
<path d="M83.7066 6.30119C83.6101 6.39813 83.3205 6.20425 83.1274 6.10731C82.8378 5.91342 82.3551 5.71954 82.0655 6.01036C81.7759 6.30119 81.8725 6.59201 81.8725 6.97978C81.8725 7.07672 81.8725 7.17366 81.8725 7.27061C81.6794 7.17366 81.5829 7.07672 81.3898 6.97978C81.1002 6.7859 80.6175 6.49507 80.2314 6.88284C80.1348 7.07672 80.1348 7.27061 80.3279 7.46449C80.4245 7.56143 80.6175 7.56143 80.7141 7.46449C80.8106 7.46449 80.9071 7.56143 81.0037 7.65837C81.2933 7.85226 81.5829 8.04614 81.969 8.04614C82.0655 8.04614 82.0655 8.04614 82.1621 8.04614C82.7413 7.85226 82.6448 7.17366 82.6448 6.88284C82.6448 6.88284 82.6448 6.7859 82.6448 6.68896C82.7413 6.68896 82.7413 6.7859 82.8378 6.7859C83.224 6.97978 83.7066 7.17366 84.0928 6.97978C84.2858 6.88284 84.3824 6.68896 84.2858 6.49507C84.1893 6.30119 83.8997 6.20425 83.7066 6.30119Z" fill="url(#paint2_linear)"/>
<path d="M79.3625 4.94404C79.459 4.94404 79.5556 4.8471 79.6521 4.8471C79.7486 4.8471 79.8452 4.8471 79.8452 4.8471C80.2313 4.94404 80.6174 4.94404 80.907 4.75016C81.2932 4.45933 81.3897 4.07157 81.2932 3.58686C81.2932 3.48992 81.2932 3.29603 81.2932 3.29603C81.3897 3.29603 81.4862 3.29603 81.5828 3.29603C81.9689 3.39297 82.4516 3.29603 82.7412 3.00521C82.9343 2.90827 82.9343 2.61744 82.8377 2.42356C82.7412 2.22967 82.4516 2.22967 82.2585 2.32662C82.0655 2.42356 81.7759 2.5205 81.5828 2.42356C81.1966 2.32662 80.907 2.42356 80.6174 2.71438C80.4244 3.00521 80.4244 3.29603 80.4244 3.58686C80.4244 3.87768 80.4244 3.97462 80.3278 3.97462C80.2313 4.07157 80.0382 3.97462 79.8452 3.97462C79.5556 3.87768 79.1694 3.78074 78.8798 4.16851C78.7833 4.36239 78.7833 4.55627 78.9763 4.65322C79.1694 4.94404 79.266 4.94404 79.3625 4.94404Z" fill="url(#paint3_linear)"/>
<path d="M80.1348 1.45413C80.1348 1.55107 80.1348 1.55107 80.2313 1.64801H80.3278L80.8105 1.45413C80.9071 1.35718 81.0036 1.35718 81.1001 1.45413L81.5828 1.64801C81.6793 1.64801 81.6793 1.64801 81.7759 1.55107V1.45413L81.5828 0.969417C81.4863 0.872475 81.4863 0.775534 81.5828 0.678593L81.7759 0.193884C81.7759 0.0969424 81.7759 0.0969417 81.6793 0H81.5828L81.1001 0.193884C81.0036 0.290826 80.9071 0.290826 80.8105 0.193884L80.3278 0C80.2313 0 80.2313 3.68359e-07 80.1348 0.0969421V0.193884L80.3278 0.678593C80.4244 0.775534 80.4244 0.872475 80.3278 0.969417L80.1348 1.45413Z" fill="url(#paint4_linear)"/>
<path d="M86.0222 4.65319C86.0222 4.55625 86.0222 4.45931 86.0222 4.36237L86.2153 3.87766C86.2153 3.78072 86.2153 3.78072 86.1188 3.68378H86.0222L85.5396 3.87766C85.443 3.87766 85.3465 3.87766 85.25 3.87766L84.7673 3.68378C84.6707 3.68378 84.6708 3.68378 84.5742 3.78072V3.87766L84.7673 4.36237C84.7673 4.45931 84.7673 4.55625 84.7673 4.65319L84.5742 5.1379C84.5742 5.23484 84.5742 5.23484 84.6708 5.33179H84.7673L85.25 5.1379C85.3465 5.1379 85.443 5.1379 85.5396 5.1379L86.0222 5.33179C86.1188 5.33179 86.1188 5.33179 86.2153 5.23484V5.1379L86.0222 4.65319Z" fill="url(#paint5_linear)"/>
<path d="M74.3416 2.81133L74.7277 2.61745C74.8243 2.61745 74.9208 2.61745 75.0173 2.61745L75.4035 2.81133H75.5V2.71439L75.3069 2.32662C75.3069 2.22968 75.3069 2.13274 75.3069 2.03579L75.5 1.64803V1.55109H75.4035L75.0173 1.74497C74.9208 1.74497 74.8243 1.74497 74.7277 1.74497L74.3416 1.55109H74.2451V1.64803L74.4381 2.03579C74.4381 2.13274 74.4381 2.22968 74.4381 2.32662L74.2451 2.71439C74.1485 2.81133 74.1485 2.81133 74.3416 2.81133C74.245 2.81133 74.245 2.81133 74.3416 2.81133Z" fill="url(#paint6_linear)"/>
<path d="M99.2728 95.4691H12.1016L28.0299 21.8904H115.298L99.2728 95.4691Z" fill="white"/>
<path d="M99.2728 95.4691H12.1016L28.0299 21.8904H115.298L99.2728 95.4691Z" fill="#D5DAE8"/>
<path d="M48.9789 95.4691H30.9268C27.6447 95.4691 24.9417 92.6578 25.1347 89.3618L28.0308 21.8904H32.3749L48.9789 95.4691Z" fill="url(#paint7_linear)"/>
<path d="M134.411 95.4691H47.2398L32.4699 38.9521L32.3734 38.5644L28.0293 21.8904H115.297L119.062 36.3347L119.641 38.5644L119.738 38.9521L134.411 95.4691Z" fill="white"/>
<path d="M119.641 38.5644H32.3734L28.0293 21.8904H115.297L119.062 36.3347L119.641 38.5644Z" fill="#F3F5FA"/>
<path opacity="0.3" d="M51.0051 33.8142C52.7112 33.8142 54.0943 32.4253 54.0943 30.7121C54.0943 28.9988 52.7112 27.6099 51.0051 27.6099C49.2991 27.6099 47.916 28.9988 47.916 30.7121C47.916 32.4253 49.2991 33.8142 51.0051 33.8142Z" fill="#172D45"/>
<path opacity="0.3" d="M101.976 33.8142C103.682 33.8142 105.065 32.4253 105.065 30.7121C105.065 28.9988 103.682 27.6099 101.976 27.6099C100.27 27.6099 98.8867 28.9988 98.8867 30.7121C98.8867 32.4253 100.27 33.8142 101.976 33.8142Z" fill="#172D45"/>
<path d="M50.2324 31.9723C49.6531 31.9723 49.1705 31.4876 49.1705 30.906C49.1705 30.3243 49.6531 29.8396 50.2324 29.8396C52.3561 29.8396 54.5764 26.8344 54.5764 22.2782C54.5764 22.1812 54.5764 21.9873 54.5764 21.8904C54.4799 17.4311 52.2596 14.7167 50.2324 14.7167C48.3017 14.7167 46.1779 17.3341 45.8883 21.4057H43.668C43.9576 16.3647 46.7571 12.584 50.1358 12.584C53.7076 12.584 56.5071 16.7525 56.7002 22.0843C56.7002 22.1812 56.7002 22.2782 56.7002 22.3751C56.7967 27.7069 53.9007 31.9723 50.2324 31.9723Z" fill="#1C3754"/>
<path d="M100.914 31.9723C100.335 31.9723 99.8521 31.4876 99.8521 30.906C99.8521 30.3243 100.335 29.8396 100.914 29.8396C103.038 29.8396 105.258 26.8344 105.258 22.2782C105.258 22.1812 105.258 21.9873 105.258 21.8904C105.162 17.4311 102.941 14.7167 100.914 14.7167C98.9833 14.7167 96.8595 17.3341 96.5699 21.4057H94.3496C94.6392 16.3647 97.4387 12.584 100.817 12.584C104.389 12.584 107.189 16.7525 107.382 22.0843C107.382 22.1812 107.382 22.2782 107.382 22.3751C107.478 27.7069 104.582 31.9723 100.914 31.9723Z" fill="#1C3754"/>
<path d="M1 95.3723H141.459" stroke="#EAEEF9" stroke-width="2" stroke-miterlimit="10" stroke-linecap="round" stroke-linejoin="round"/>
<path d="M102.458 60.3763C101.878 60.3763 101.492 59.8916 101.492 59.4069C101.492 58.8252 101.878 58.4374 102.458 58.4374H105.45C106.029 58.4374 106.415 58.9221 106.415 59.4069C106.415 59.9885 105.933 60.3763 105.45 60.3763H102.458Z" fill="#D5DAE8"/>
<path d="M61.3338 87.7138C60.9477 87.7138 60.5615 87.423 60.3685 87.0352L58.8239 81.3157H51.1976C50.6184 81.3157 50.2323 80.831 50.2323 80.3463C50.2323 79.7646 50.715 79.3768 51.1976 79.3768H58.2447L55.8313 70.846H48.4947C47.9154 70.846 47.5293 70.3613 47.5293 69.8766C47.5293 69.2949 47.9154 68.9071 48.4947 68.9071H55.2521L52.8387 60.3763H45.8882C45.309 60.3763 44.9229 59.8916 44.9229 59.4069C44.9229 58.8252 45.309 58.4374 45.8882 58.4374H52.3561L49.9427 49.9066H43.2818C42.7025 49.9066 42.3164 49.4219 42.3164 48.9371C42.3164 48.3555 42.7025 47.9677 43.2818 47.9677H49.3635L48.3981 44.4778C48.3016 43.9931 48.5912 43.4115 49.0739 43.3145C49.1704 43.3145 49.2669 43.3145 49.3635 43.3145C49.7496 43.3145 50.1357 43.6054 50.3288 43.9931L51.4872 47.9677H59.2101C59.7893 47.9677 60.1754 48.3555 60.1754 48.9371C60.1754 49.5188 59.7893 49.9066 59.2101 49.9066H52.0665L54.4798 58.4374H66.6433L62.7819 44.4778C62.6853 43.9931 62.9749 43.4115 63.4576 43.3145C63.5541 43.3145 63.6507 43.3145 63.7472 43.3145C64.1333 43.3145 64.5195 43.6054 64.7126 43.9931L65.871 47.9677H70.022C70.6012 47.9677 70.9873 48.3555 70.9873 48.9371C70.9873 49.5188 70.5047 49.9066 70.022 49.9066H66.4502L68.8636 58.4374H77.0691C77.6483 58.4374 78.0344 58.9221 78.0344 59.4069C78.0344 59.9885 77.6483 60.3763 77.0691 60.3763H69.4428L71.8562 68.9071H84.1161L78.8067 49.9066H76.2002C75.621 49.9066 75.2349 49.4219 75.2349 48.9371C75.2349 48.3555 75.7176 47.9677 76.2002 47.9677H78.2275L77.2621 44.4778C77.1656 44.187 77.2621 43.9931 77.3587 43.7023C77.4552 43.5084 77.6483 43.3145 77.9379 43.2176C78.0344 43.2176 78.1309 43.2176 78.2275 43.2176C78.6136 43.2176 78.9998 43.5084 79.1928 43.8962L80.3512 47.8708H82.3785C82.9577 47.8708 83.3438 48.2586 83.3438 48.8402C83.3438 49.4219 82.9577 49.8096 82.3785 49.8096H80.9305L83.3438 58.3405H95.6038L93.1904 49.8096H86.9156C86.3364 49.8096 85.9503 49.3249 85.9503 48.8402C85.9503 48.2586 86.433 47.8708 86.9156 47.8708H92.3216L91.3562 44.3809C91.2597 43.8962 91.5493 43.3145 92.032 43.2176C92.1285 43.2176 92.2251 43.2176 92.3216 43.2176C92.7077 43.2176 93.0939 43.5084 93.2869 43.8962L94.4454 47.8708H106.705L105.74 44.3809C105.643 43.8962 105.933 43.3145 106.416 43.2176C106.512 43.2176 106.609 43.2176 106.705 43.2176C107.091 43.2176 107.478 43.5084 107.671 43.8962L108.829 47.8708H116.359C116.938 47.8708 117.324 48.2586 117.324 48.8402C117.324 49.4219 116.938 49.8096 116.359 49.8096H109.119L111.532 58.3405H118.772C119.351 58.3405 119.738 58.8252 119.738 59.3099C119.738 59.8916 119.351 60.2793 118.772 60.2793H112.111L114.525 68.8102H121.475C122.054 68.8102 122.441 69.2949 122.441 69.7796C122.441 70.3613 122.054 70.749 121.475 70.749H115.104L117.517 79.2799H124.082C124.661 79.2799 125.047 79.7646 125.047 80.2493C125.047 80.831 124.564 81.2187 124.082 81.2187H118L119.448 86.3566C119.544 86.8413 119.255 87.423 118.772 87.5199C118.676 87.5199 118.579 87.5199 118.483 87.5199C118.096 87.5199 117.71 87.2291 117.517 86.8413L115.973 81.2187H103.713L105.161 86.2597C105.257 86.5505 105.161 86.7444 105.064 87.0352C104.968 87.2291 104.775 87.423 104.485 87.5199C104.388 87.5199 104.292 87.5199 104.195 87.5199C103.809 87.5199 103.423 87.2291 103.23 86.8413L101.686 81.3157H89.4255L90.8736 86.3566C90.9701 86.8413 90.6805 87.423 90.1978 87.5199C90.1013 87.5199 90.0048 87.5199 89.9082 87.5199C89.5221 87.5199 89.1359 87.2291 88.9429 86.8413L87.3983 81.3157H75.1383L76.5864 86.3566C76.6829 86.8413 76.3933 87.423 75.9106 87.5199C75.8141 87.5199 75.7176 87.5199 75.621 87.5199C75.2349 87.5199 74.8487 87.2291 74.6557 86.8413L73.1111 81.3157H60.8511L62.2992 86.4536C62.3957 86.7444 62.2992 86.9383 62.2026 87.2291C62.1061 87.423 61.913 87.6169 61.6234 87.7138C61.5269 87.7138 61.4304 87.7138 61.3338 87.7138ZM88.8463 79.3768H115.393L112.98 70.846H100.72L101.589 73.9481C101.686 74.2389 101.589 74.4328 101.492 74.7236C101.396 74.9175 101.203 75.1114 100.913 75.2083C100.817 75.2083 100.72 75.2083 100.624 75.2083C100.237 75.2083 99.8513 74.9175 99.6583 74.5298L98.6929 70.9429H95.0246C94.4454 70.9429 94.0592 70.4582 94.0592 69.9735C94.0592 69.3918 94.4454 69.0041 95.0246 69.0041H98.1137L95.7003 60.4732H83.5369L85.9503 69.0041H88.9429C89.5221 69.0041 89.9082 69.4888 89.9082 69.9735C89.9082 70.5551 89.5221 70.9429 88.9429 70.9429H86.433L88.8463 79.3768ZM74.5591 79.3768H86.8191L84.4057 70.846H72.1458L74.5591 79.3768ZM60.2719 79.3768H72.5319L70.1185 70.846H66.5467C65.9675 70.846 65.5814 70.3613 65.5814 69.8766C65.5814 69.2949 66.064 68.9071 66.5467 68.9071H69.6358L67.2225 60.3763H54.9625L57.3759 68.9071H60.5615C61.1408 68.9071 61.5269 69.3918 61.5269 69.8766C61.5269 70.4582 61.0442 70.846 60.5615 70.846H57.9551L60.2719 79.3768ZM100.237 68.9071H112.497L107.188 49.9066H94.8315L100.237 68.9071Z" fill="#D5DAE8"/>
<path d="M68.5755 54.7537C67.3205 56.6925 66.7413 59.0191 66.9344 61.3457C67.0309 63.5754 67.8997 65.805 69.2512 67.6469C70.6027 69.3919 72.5334 70.846 74.6572 71.4276C76.781 72.1062 79.0978 72.0093 81.2216 71.4276C83.2488 70.749 85.083 69.3919 86.0483 67.55C87.0137 65.7081 87.1102 63.4784 86.1449 61.7335C85.276 59.8916 83.4419 58.5344 81.4146 57.7589C79.3874 56.8864 77.0706 56.4986 74.7537 56.4017C73.8849 56.4017 73.3057 55.6261 73.3057 54.8506C73.3057 53.9781 74.078 53.3965 74.8503 53.3965C77.4567 53.5904 80.0632 53.9781 82.4765 55.0445C84.8899 56.1109 87.3033 57.8558 88.5582 60.5702C89.1374 61.8304 89.5236 63.3815 89.4271 64.8356C89.3305 66.2897 88.9444 67.7438 88.2686 68.9071C86.9171 71.4276 84.5038 73.1726 81.8973 73.9481C79.2909 74.7237 76.4914 74.6267 73.9814 73.7542C71.4715 72.8818 69.2512 71.1368 67.7067 69.0041C66.1621 66.8714 65.2933 64.254 65.1967 61.6365C65.1002 59.0191 65.969 56.3047 67.4171 54.172C67.6101 53.8812 68.0928 53.7842 68.4789 53.9781C68.672 53.9781 68.7685 54.4628 68.5755 54.7537Z" fill="url(#paint8_linear)"/>
<g filter="url(#filter0_d)">
<path d="M145.623 86.0756C145.527 86.3664 145.527 86.7542 145.43 87.045C145.141 88.1114 144.851 89.0808 144.368 89.9533C142.148 94.8973 137.9 98.581 132.784 100.035C132.494 100.132 132.205 100.229 132.012 100.229C129.405 100.908 126.606 101.004 123.806 100.423C113.863 98.387 107.395 88.4994 109.519 78.5144C111.546 68.5294 121.393 62.034 131.336 64.1667C134.908 64.9422 138.094 66.6874 140.603 69.2079C144.948 73.5702 146.878 79.9683 145.623 86.0756Z" fill="url(#paint9_linear)"/>
</g>
<path d="M144.355 89.9435C142.135 94.8875 137.888 98.5713 132.771 100.025L124.18 91.3976L123.504 87.423L130.165 86.6474L130.841 76.4686L144.355 89.9435Z" fill="url(#paint10_linear)"/>
<path d="M120.084 86.7987C120.084 85.7324 121.242 86.2171 121.918 83.8905C122.69 81.0792 121.532 78.3648 124.525 76.0382C124.718 75.8443 125.007 75.7474 125.297 75.5535C125.393 75.4565 125.49 75.3596 125.49 75.2627C125.393 74.1963 126.166 73.2269 127.228 73.1299C128.289 73.033 129.255 73.8085 129.351 74.8749C129.351 74.9718 129.351 75.0688 129.351 75.0688C129.351 75.2627 129.448 75.3596 129.544 75.4565C131.668 76.5229 132.537 78.3648 132.634 80.6914C133.02 85.9263 134.178 85.1507 134.854 86.0232C135.433 86.8957 134.564 87.8651 133.406 87.8651C121.822 88.2529 120.084 88.3498 120.084 86.7987Z" fill="url(#paint11_linear)"/>
<path d="M126.744 91.355C125.779 90.9672 125.296 89.9008 125.682 89.0284C125.682 88.9314 125.779 88.8345 125.972 88.8345C127.034 88.8345 127.999 88.8345 129.061 88.8345C129.157 88.8345 129.35 88.9314 129.35 89.0284C129.64 89.7069 129.35 90.5794 128.868 91.0641C128.192 91.4519 127.42 91.6458 126.744 91.355Z" fill="url(#paint12_linear)"/>
<defs>
<filter id="filter0_d" x="101.115" y="60.761" width="52.8849" height="53.0438" filterUnits="userSpaceOnUse" color-interpolation-filters="sRGB">
<feFlood flood-opacity="0" result="BackgroundImageFix"/>
<feColorMatrix in="SourceAlpha" type="matrix" values="0 0 0 0 0 0 0 0 0 0 0 0 0 0 0 0 0 0 127 0" result="hardAlpha"/>
<feOffset dy="5"/>
<feGaussianBlur stdDeviation="4"/>
<feColorMatrix type="matrix" values="0 0 0 0 0.1125 0 0 0 0 0.295916 0 0 0 0 1 0 0 0 0.22 0"/>
<feBlend mode="normal" in2="BackgroundImageFix" result="effect1_dropShadow"/>
<feBlend mode="normal" in="SourceGraphic" in2="effect1_dropShadow" result="shape"/>
</filter>
<linearGradient id="paint0_linear" x1="4.9749" y1="56.9677" x2="16.2035" y2="56.9677" gradientUnits="userSpaceOnUse">
<stop stop-color="#866FFE"/>
<stop offset="1" stop-color="#634EFE"/>
</linearGradient>
<linearGradient id="paint1_linear" x1="71.2496" y1="6.96928" x2="80.2421" y2="6.96928" gradientUnits="userSpaceOnUse">
<stop stop-color="#FFD600"/>
<stop offset="1" stop-color="#FFBE07"/>
</linearGradient>
<linearGradient id="paint2_linear" x1="80.2382" y1="6.91405" x2="84.2737" y2="6.91405" gradientUnits="userSpaceOnUse">
<stop stop-color="#FFD600"/>
<stop offset="1" stop-color="#FFBE07"/>
</linearGradient>
<linearGradient id="paint3_linear" x1="78.9831" y1="3.66451" x2="83.015" y2="3.66451" gradientUnits="userSpaceOnUse">
<stop stop-color="#FFD600"/>
<stop offset="1" stop-color="#FFBE07"/>
</linearGradient>
<linearGradient id="paint4_linear" x1="80.1471" y1="0.732492" x2="81.8357" y2="0.732492" gradientUnits="userSpaceOnUse">
<stop stop-color="#FFD600"/>
<stop offset="1" stop-color="#FFBE07"/>
</linearGradient>
<linearGradient id="paint5_linear" x1="84.5943" y1="4.5326" x2="86.2428" y2="4.5326" gradientUnits="userSpaceOnUse">
<stop stop-color="#FFD600"/>
<stop offset="1" stop-color="#FFBE07"/>
</linearGradient>
<linearGradient id="paint6_linear" x1="74.1792" y1="2.21514" x2="75.4401" y2="2.21514" gradientUnits="userSpaceOnUse">
<stop stop-color="#FFD600"/>
<stop offset="1" stop-color="#FFBE07"/>
</linearGradient>
<linearGradient id="paint7_linear" x1="25.1171" y1="58.6687" x2="49.0145" y2="58.6687" gradientUnits="userSpaceOnUse">
<stop stop-color="#D5DAE8"/>
<stop offset="1" stop-color="#9AA3BA"/>
</linearGradient>
<linearGradient id="paint8_linear" x1="75.2198" y1="74.3259" x2="78.8463" y2="53.7442" gradientUnits="userSpaceOnUse">
<stop stop-color="#FFD600"/>
<stop offset="1" stop-color="#FFBE07"/>
</linearGradient>
<linearGradient id="paint9_linear" x1="109.063" y1="82.3115" x2="145.99" y2="82.3115" gradientUnits="userSpaceOnUse">
<stop stop-color="#866FFE"/>
<stop offset="1" stop-color="#634EFE"/>
</linearGradient>
<linearGradient id="paint10_linear" x1="128.649" y1="85.0497" x2="136.555" y2="92.9233" gradientUnits="userSpaceOnUse">
<stop stop-color="#634EFE" stop-opacity="0.61"/>
<stop offset="1" stop-color="#634EFE" stop-opacity="0"/>
</linearGradient>
<linearGradient id="paint11_linear" x1="133.368" y1="89.5108" x2="122.858" y2="79.0449" gradientUnits="userSpaceOnUse">
<stop offset="0.0113208" stop-color="#C2D1FF"/>
<stop offset="1" stop-color="white"/>
</linearGradient>
<linearGradient id="paint12_linear" x1="130.337" y1="92.5531" x2="119.827" y2="82.0871" gradientUnits="userSpaceOnUse">
<stop offset="0.0113208" stop-color="#C2D1FF"/>
<stop offset="1" stop-color="white"/>
</linearGradient>
</defs>
</svg>
