<svg width="109" height="128" viewBox="0 0 109 128" fill="none" xmlns="http://www.w3.org/2000/svg">
<g clip-path="url(#clip0)">
<path d="M53.4434 103.695C79.855 103.695 101.266 82.2733 101.266 55.8477C101.266 29.4221 79.855 8 53.4434 8C27.0319 8 5.62109 29.4221 5.62109 55.8477C5.62109 82.2733 27.0319 103.695 53.4434 103.695Z" fill="#EAEEF9"/>
<path d="M6.43289 27.8126C7.69634 27.4017 8.38766 26.0438 7.97701 24.7798C7.56635 23.5157 6.20922 22.8239 4.94578 23.2348C3.68233 23.6457 2.991 25.0035 3.40166 26.2677C3.81231 27.5318 5.16944 28.2235 6.43289 27.8126Z" fill="#EAEEF9"/>
<path d="M11.6848 19.9596C12.5439 19.6803 13.014 18.7569 12.7347 17.8973C12.4555 17.0377 11.5327 16.5674 10.6735 16.8468C9.81439 17.1261 9.34428 18.0495 9.62351 18.9091C9.90275 19.7687 10.8256 20.239 11.6848 19.9596Z" fill="#EAEEF9"/>
<path d="M106.301 43.8394C107.791 42.4763 107.896 40.1623 106.534 38.6708C105.171 37.1793 102.858 37.0751 101.367 38.4381C99.8767 39.8011 99.773 42.1152 101.135 43.6067C102.497 45.0982 104.81 45.2024 106.301 43.8394Z" fill="#EAEEF9"/>
<path d="M106.643 27.5092C107.27 26.9353 107.314 25.9609 106.741 25.3329C106.167 24.7049 105.194 24.661 104.565 25.235C103.938 25.8089 103.894 26.7832 104.468 27.4113C105.041 28.0393 106.015 28.0831 106.643 27.5092Z" fill="#EAEEF9"/>
<path d="M86.9086 13.9689C87.7589 13.9689 88.4482 13.2793 88.4482 12.4285C88.4482 11.5779 87.7589 10.8882 86.9086 10.8882C86.0584 10.8882 85.3691 11.5779 85.3691 12.4285C85.3691 13.2793 86.0584 13.9689 86.9086 13.9689Z" fill="url(#paint0_linear)"/>
<path d="M7.07859 80.2049C7.92887 80.2049 8.61814 79.5153 8.61814 78.6646C8.61814 77.8138 7.92887 77.1241 7.07859 77.1241C6.22839 77.1241 5.53906 77.8138 5.53906 78.6646C5.53906 79.5153 6.22839 80.2049 7.07859 80.2049Z" fill="url(#paint1_linear)"/>
<g filter="url(#filter0_d)">
<path d="M87.8707 31.9719L88.6406 94.7422C88.6406 96.8605 86.9085 98.5929 84.7917 98.5929H23.6907C21.5738 98.5929 19.8418 96.8605 19.8418 94.7422V14.0652C19.8418 11.9471 21.5738 10.2142 23.6907 10.2142H67.9528L87.8707 31.9719Z" fill="white"/>
</g>
<path d="M77.2858 70.8664H40.7214C40.2403 70.8664 39.8555 70.385 39.8555 69.8074C39.8555 69.2298 40.2403 68.7484 40.7214 68.7484H77.2858C77.7669 68.7484 78.1518 69.2298 78.1518 69.8074C78.1518 70.385 77.7669 70.8664 77.2858 70.8664Z" fill="#E3EAF2"/>
<path d="M36.1996 70.8664H29.7527C29.2716 70.8664 28.8867 70.385 28.8867 69.8074C28.8867 69.2298 29.2716 68.7484 29.7527 68.7484H36.1996C36.6807 68.7484 37.0656 69.2298 37.0656 69.8074C37.0656 70.385 36.6807 70.8664 36.1996 70.8664Z" fill="#CED7E2"/>
<path d="M77.1886 63.1644H60.8308C60.3497 63.1644 59.9648 62.6831 59.9648 62.1054C59.9648 61.5278 60.3497 61.0464 60.8308 61.0464H77.1886C77.6697 61.0464 78.0546 61.5278 78.0546 62.1054C78.0546 62.6831 77.6697 63.1644 77.1886 63.1644Z" fill="#CED7E2"/>
<path d="M53.9028 63.1644H30.0398C29.5587 63.1644 29.1738 62.6831 29.1738 62.1054C29.1738 61.5278 29.5587 61.0464 30.0398 61.0464H53.9028C54.3839 61.0464 54.7689 61.5278 54.7689 62.1054C54.865 62.6831 54.3839 63.1644 53.9028 63.1644Z" fill="#E3EAF2"/>
<path d="M71.3191 39.9627H77.8622C78.3433 39.9627 78.7282 39.4812 78.7282 38.9036C78.7282 38.3259 78.3433 37.8446 77.8622 37.8446H71.3191C70.838 37.8446 70.4531 38.3259 70.4531 38.9036C70.4531 39.5775 70.838 39.9627 71.3191 39.9627Z" fill="#E3EAF2"/>
<path d="M77.4783 55.3664H71.1277C70.6466 55.3664 70.2617 54.885 70.2617 54.3074C70.2617 53.7298 70.6466 53.2484 71.1277 53.2484H77.4783C77.9594 53.2484 78.3444 53.7298 78.3444 54.3074C78.3444 54.885 77.9594 55.3664 77.4783 55.3664Z" fill="#E3EAF2"/>
<path d="M65.2586 55.3664H48.2273C47.7462 55.3664 47.3613 54.885 47.3613 54.3074C47.3613 53.7298 47.7462 53.2484 48.2273 53.2484H65.3548C65.8359 53.2484 66.2208 53.7298 66.2208 54.3074C66.2208 54.885 65.8359 55.3664 65.2586 55.3664Z" fill="#CED7E2"/>
<path d="M49.5733 86.0775H47.3602C46.8791 86.0775 46.4941 85.5962 46.4941 85.0185C46.4941 84.4409 46.8791 83.9595 47.3602 83.9595H49.5733C50.0544 83.9595 50.4392 84.4409 50.4392 85.0185C50.4392 85.6924 50.0544 86.0775 49.5733 86.0775Z" fill="#E3EAF2"/>
<path d="M43.4145 86.0775H30.4246C29.9435 86.0775 29.5586 85.5962 29.5586 85.0185C29.5586 84.4409 29.9435 83.9595 30.4246 83.9595H43.4145C43.8956 83.9595 44.2806 84.4409 44.2806 85.0185C44.2806 85.6924 43.8956 86.0775 43.4145 86.0775Z" fill="#CED7E2"/>
<path d="M77.7671 47.6645H64.9695C64.4884 47.6645 64.1035 47.1832 64.1035 46.6055C64.1035 46.0279 64.4884 45.5466 64.9695 45.5466H77.8632C78.3443 45.5466 78.7293 46.0279 78.7293 46.6055C78.7293 47.1832 78.3443 47.6645 77.7671 47.6645Z" fill="#CED7E2"/>
<path d="M48.1296 39.9627H65.4496C65.9307 39.9627 66.3156 39.4812 66.3156 38.9036C66.3156 38.3259 65.9307 37.8446 65.4496 37.8446H48.1296C47.6485 37.8446 47.2637 38.3259 47.2637 38.9036C47.2637 39.5775 47.6485 39.9627 48.1296 39.9627Z" fill="#CED7E2"/>
<path d="M51.0554 78.5681L58.7809 78.5681C59.262 78.5681 59.6468 78.0866 59.6468 77.509C59.6468 76.9313 59.262 76.45 58.7809 76.45L51.0554 76.45C50.5743 76.45 50.1895 76.9314 50.1895 77.509C50.1895 78.1829 50.5743 78.5681 51.0554 78.5681Z" fill="#CED7E2"/>
<path d="M63.0554 78.5681H77.134C77.6151 78.5681 77.9999 78.0866 77.9999 77.509C77.9999 76.9313 77.6151 76.45 77.134 76.45H63.0554C62.5743 76.45 62.1895 76.9313 62.1895 77.509C62.1895 78.1829 62.5743 78.5681 63.0554 78.5681Z" fill="#CED7E2"/>
<path d="M29.866 78.5681H47.1859C47.667 78.5681 48.052 78.0866 48.052 77.509C48.052 76.9313 47.667 76.45 47.1859 76.45H29.866C29.3849 76.45 29 76.9313 29 77.509C29 78.1829 29.3849 78.5681 29.866 78.5681Z" fill="#E3EAF2"/>
<path d="M59.5806 47.6645H48.0339C47.5528 47.6645 47.168 47.1832 47.168 46.6055C47.168 46.0279 47.5528 45.5466 48.0339 45.5466H59.5806C60.0617 45.5466 60.4466 46.0279 60.4466 46.6055C60.5428 47.1832 60.1579 47.6645 59.5806 47.6645Z" fill="#E3EAF2"/>
<path d="M60.2543 23.4037H31.0028C30.3293 23.4037 29.752 22.8261 29.752 22.1522C29.752 21.4782 30.3293 20.9006 31.0028 20.9006H60.2543C60.9279 20.9006 61.5052 21.4782 61.5052 22.1522C61.5052 22.8261 60.9279 23.4037 60.2543 23.4037Z" fill="#CED7E2"/>
<path d="M42.2608 30.4318H31.0028C30.3293 30.4318 29.752 29.8541 29.752 29.1802C29.752 28.5063 30.3293 27.9286 31.0028 27.9286H42.1646C42.8382 27.9286 43.4155 28.5063 43.4155 29.1802C43.4155 29.8541 42.8382 30.4318 42.2608 30.4318Z" fill="#CED7E2"/>
<path d="M67.9531 10.2142V27.5434C67.9531 29.9502 70.07 31.9719 72.4756 31.9719H87.8711" fill="#CED7E2"/>
<path d="M42.357 55.4627C42.1645 55.4627 41.9721 55.3664 41.8759 55.0776L40.8174 51.9006H33.5046L32.4461 55.0776C32.3499 55.2702 32.1574 55.4627 31.965 55.4627H30.0405C29.9443 55.4627 29.8481 55.3664 29.7519 55.3664C29.6556 55.2702 29.6556 55.1739 29.7519 55.0776L35.3328 39.8664C35.429 39.4814 35.8139 39.2888 36.1025 39.2888H38.508C38.893 39.2888 39.1816 39.4814 39.2778 39.8664L44.8587 55.3664L44.7625 55.4627H42.357ZM34.3705 49.5901H39.9514L37.1609 41.4069L34.3705 49.5901Z" fill="url(#paint2_linear)"/>
</g>
<defs>
<filter id="filter0_d" x="-2.1582" y="-0.785767" width="112.799" height="132.379" filterUnits="userSpaceOnUse" color-interpolation-filters="sRGB">
<feFlood flood-opacity="0" result="BackgroundImageFix"/>
<feColorMatrix in="SourceAlpha" type="matrix" values="0 0 0 0 0 0 0 0 0 0 0 0 0 0 0 0 0 0 127 0" result="hardAlpha"/>
<feOffset dy="11"/>
<feGaussianBlur stdDeviation="11"/>
<feColorMatrix type="matrix" values="0 0 0 0 0.397708 0 0 0 0 0.47749 0 0 0 0 0.575 0 0 0 0.18 0"/>
<feBlend mode="normal" in2="BackgroundImageFix" result="effect1_dropShadow"/>
<feBlend mode="normal" in="SourceGraphic" in2="effect1_dropShadow" result="shape"/>
</filter>
<linearGradient id="paint0_linear" x1="85.4471" y1="12.4065" x2="88.4342" y2="12.4065" gradientUnits="userSpaceOnUse">
<stop stop-color="#FFDE83"/>
<stop offset="1" stop-color="#FFBE07"/>
</linearGradient>
<linearGradient id="paint1_linear" x1="5.61547" y1="78.656" x2="8.60246" y2="78.656" gradientUnits="userSpaceOnUse">
<stop stop-color="#FFDE83"/>
<stop offset="1" stop-color="#FFBE07"/>
</linearGradient>
<linearGradient id="paint2_linear" x1="29.6294" y1="47.3982" x2="44.8394" y2="47.3982" gradientUnits="userSpaceOnUse">
<stop stop-color="#FFBE07"/>
<stop offset="1" stop-color="#FFBE07"/>
</linearGradient>
<clipPath id="clip0">
<rect width="109" height="128" fill="white"/>
</clipPath>
</defs>
</svg>
