<svg width="24" height="24" viewBox="0 0 24 24" fill="none" xmlns="http://www.w3.org/2000/svg">
<path d="M6.5 2.4C6.5 1.07452 7.48497 0 8.7 0H15.3C16.515 0 17.5 1.07452 17.5 2.4V4.8H19.6886C19.6954 4.79993 19.7023 4.79993 19.7091 4.8H21.9C22.5075 4.8 23 5.33726 23 6C23 6.66274 22.5075 7.2 21.9 7.2H20.7242L19.7702 21.771C19.6879 23.0269 18.73 24 17.5758 24H6.42423C5.27003 24 4.31206 23.0269 4.22982 21.771L3.27577 7.2H2.1C1.49249 7.2 1 6.66274 1 6C1 5.33726 1.49249 4.8 2.1 4.8H4.29092C4.29774 4.79993 4.30455 4.79993 4.31135 4.8H6.5V2.4ZM8.7 4.8H15.3V2.4H8.7V4.8Z" fill="#757575"/>
</svg>
