<svg width="24" height="24" viewBox="0 0 24 24" fill="none" xmlns="http://www.w3.org/2000/svg">
<path fill-rule="evenodd" clip-rule="evenodd" d="M2 2H20C21.1 2 22 2.89 22 4V10H17.5C17.5 10 17 10 16.5 10.5C16 11 16 11.5 16 11.5V18H13V20H14.25C14.6642 20 15 20.3358 15 20.75V21.25C15 21.6642 14.6642 22 14.25 22H7.75C7.33579 22 7 21.6642 7 21.25V20.75C7 20.3358 7.33579 20 7.75 20H9V18H2C0.89 18 0 17.1 0 16V4C0 2.89 0.89 2 2 2ZM23 11.01L18 11C17.45 11 17 11.45 17 12V21C17 21.55 17.45 22 18 22H23C23.55 22 24 21.55 24 21V12C24 11.45 23.55 11.01 23 11.01ZM23 20H18V13H23V20Z" fill="#BABEC3"/>
</svg>
