<svg width="16" height="21" viewBox="0 0 16 21" fill="none" xmlns="http://www.w3.org/2000/svg">
<path d="M16 10.0254C16 9.76017 15.8946 9.50582 15.7071 9.31828C15.5196 9.13075 15.2652 9.02539 15 9.02539H7.41L9.71 6.73539C9.80373 6.64243 9.87812 6.53183 9.92889 6.40997C9.97966 6.28811 10.0058 6.1574 10.0058 6.02539C10.0058 5.89338 9.97966 5.76267 9.92889 5.64081C9.87812 5.51895 9.80373 5.40835 9.71 5.31539C9.61704 5.22166 9.50644 5.14727 9.38458 5.0965C9.26272 5.04573 9.13201 5.01959 9 5.01959C8.86799 5.01959 8.73728 5.04573 8.61542 5.0965C8.49356 5.14727 8.38296 5.22166 8.29 5.31539L4.29 9.31539C4.19896 9.41049 4.12759 9.52264 4.08 9.64539C3.97998 9.88885 3.97998 10.1619 4.08 10.4054C4.12759 10.5281 4.19896 10.6403 4.29 10.7354L8.29 14.7354C8.38324 14.8286 8.49393 14.9026 8.61575 14.9531C8.73757 15.0035 8.86814 15.0295 9 15.0295C9.13186 15.0295 9.26243 15.0035 9.38425 14.9531C9.50607 14.9026 9.61676 14.8286 9.71 14.7354C9.80324 14.6422 9.8772 14.5315 9.92766 14.4096C9.97812 14.2878 10.0041 14.1572 10.0041 14.0254C10.0041 13.8935 9.97812 13.763 9.92766 13.6411C9.8772 13.5193 9.80324 13.4086 9.71 13.3154L7.41 11.0254H15C15.2652 11.0254 15.5196 10.92 15.7071 10.7325C15.8946 10.545 16 10.2906 16 10.0254ZM3 20.0254H13C13.7956 20.0254 14.5587 19.7093 15.1213 19.1467C15.6839 18.5841 16 17.821 16 17.0254V14.0254C16 13.7602 15.8946 13.5058 15.7071 13.3183C15.5196 13.1307 15.2652 13.0254 15 13.0254C14.7348 13.0254 14.4804 13.1307 14.2929 13.3183C14.1054 13.5058 14 13.7602 14 14.0254V17.0254C14 17.2906 13.8946 17.545 13.7071 17.7325C13.5196 17.92 13.2652 18.0254 13 18.0254H3C2.73478 18.0254 2.48043 17.92 2.29289 17.7325C2.10536 17.545 2 17.2906 2 17.0254L2 3.02539C2 2.76017 2.10536 2.50582 2.29289 2.31828C2.48043 2.13075 2.73478 2.02539 3 2.02539H13C13.2652 2.02539 13.5196 2.13075 13.7071 2.31828C13.8946 2.50582 14 2.76017 14 3.02539V6.02539C14 6.29061 14.1054 6.54496 14.2929 6.7325C14.4804 6.92003 14.7348 7.02539 15 7.02539C15.2652 7.02539 15.5196 6.92003 15.7071 6.7325C15.8946 6.54496 16 6.29061 16 6.02539V3.02539C16 2.22974 15.6839 1.46668 15.1213 0.90407C14.5587 0.341461 13.7956 0.0253906 13 0.0253906H3C2.20435 0.0253906 1.44129 0.341461 0.878679 0.90407C0.316071 1.46668 0 2.22974 0 3.02539V17.0254C0 17.821 0.316071 18.5841 0.878679 19.1467C1.44129 19.7093 2.20435 20.0254 3 20.0254Z" fill="#8C9196"/>
</svg>
