<svg width="24" height="24" viewBox="0 0 24 24" fill="none" xmlns="http://www.w3.org/2000/svg">
<path d="M8.64373 22C8.91987 22 9.14373 21.7761 9.14373 21.5V17.7152C9.14372 16.9381 9.77567 16.3067 10.5584 16.3018H13.4326C14.2189 16.3018 14.8563 16.9346 14.8563 17.7152V21.5C14.8563 21.7761 15.0801 22 15.3563 22L20.5 22C21.0523 22 21.5 21.5523 21.5 21L21.5 9.86585C21.5 9.13139 21.1721 8.43471 20.6046 7.9635L13.943 2.67427C12.7785 1.74912 11.1154 1.77901 9.98539 2.74538L3.46701 7.9635C2.87274 8.42082 2.51755 9.11956 2.5 9.86585V18.5686C2.5 19.5188 2.49999 20.3787 2.49999 21.0001C2.49998 21.5524 2.9477 22 3.49999 22H8.64373Z" fill="#202223"/>
</svg>
