<svg width="124" height="133" viewBox="0 0 124 133" fill="none" xmlns="http://www.w3.org/2000/svg">
<path d="M62.4104 108.566C89.3894 108.566 111.26 86.5809 111.26 59.4608C111.26 32.3407 89.3894 10.3555 62.4104 10.3555C35.4314 10.3555 13.5605 32.3407 13.5605 59.4608C13.5605 86.5809 35.4314 108.566 62.4104 108.566Z" fill="#EAEEF9"/>
<path d="M119.244 46.5103C120.766 45.1115 120.873 42.7366 119.481 41.2059C118.09 39.6752 115.727 39.5683 114.204 40.9671C112.682 42.366 112.575 44.7408 113.967 46.2715C115.358 47.8022 117.721 47.9091 119.244 46.5103Z" fill="#EAEEF9"/>
<path d="M34.1703 14.5878C35.4609 14.1661 36.1671 12.7726 35.7476 11.4752C35.3282 10.1779 33.9419 9.46802 32.6513 9.8897C31.3607 10.3114 30.6545 11.7049 31.074 13.0022C31.4935 14.2996 32.8797 15.0095 34.1703 14.5878Z" fill="#EAEEF9"/>
<path d="M39.5341 6.52855C40.4117 6.24182 40.8919 5.29421 40.6067 4.41202C40.3214 3.52982 39.3788 3.04711 38.5012 3.33385C37.6235 3.62058 37.1433 4.56819 37.4286 5.45038C37.7138 6.33258 38.6565 6.81529 39.5341 6.52855Z" fill="#EAEEF9"/>
<path d="M119.519 29.8177C120.16 29.2287 120.205 28.2288 119.619 27.5843C119.033 26.9398 118.038 26.8947 117.397 27.4837C116.756 28.0727 116.711 29.0726 117.297 29.7172C117.883 30.3617 118.878 30.4067 119.519 29.8177Z" fill="#EAEEF9"/>
<path d="M79.8438 6.71459C80.2848 6.30948 80.3156 5.62172 79.9126 5.17842C79.5096 4.73512 78.8254 4.70416 78.3844 5.10927C77.9434 5.51437 77.9126 6.20214 78.3156 6.64544C78.7186 7.08873 79.4028 7.1197 79.8438 6.71459Z" fill="#EAEEF9"/>
<g filter="url(#filter0_d)">
<path d="M91.1099 19.6431H68.8965H32.2346C26.8286 20.0383 22.5039 24.682 22.5039 30.215V55.8051V58.6704V88.7066C22.5039 94.536 27.2218 99.2786 33.0209 99.2786H91.1099C96.9089 99.2786 101.627 94.536 101.627 88.7066V58.6704V55.8051V30.215C101.627 24.3856 96.9089 19.6431 91.1099 19.6431Z" fill="white"/>
</g>
<path d="M91.1099 19.6431H68.8965H32.2346C26.8286 20.0383 22.5039 24.682 22.5039 30.215V54.5206H101.725V30.215C101.627 24.3856 96.9089 19.6431 91.1099 19.6431ZM41.6703 28.5354C40.3926 28.5354 39.4097 27.5473 39.4097 26.2629C39.4097 24.9784 40.3926 23.9904 41.6703 23.9904C42.9481 23.9904 43.931 24.9784 43.931 26.2629C43.8327 27.4485 42.8498 28.5354 41.6703 28.5354ZM81.7724 28.5354C80.4946 28.5354 79.5117 27.5473 79.5117 26.2629C79.5117 24.9784 80.4946 23.9904 81.7724 23.9904C83.0501 23.9904 84.033 24.9784 84.033 26.2629C83.9347 27.4485 82.9519 28.5354 81.7724 28.5354Z" fill="#D5DAE8"/>
<path d="M22.5039 55.8051V88.7066C22.5039 94.536 27.2218 99.2786 33.0209 99.2786H91.1099C96.9089 99.2786 101.627 94.536 101.627 88.7066V55.8051H22.5039Z" fill="white"/>
<path d="M22.5044 58.7692L18.6711 38.7121C17.7865 34.1672 22.5044 30.3138 29.188 30.3138H96.0248C102.708 30.3138 107.328 34.1672 106.247 38.7121L101.726 58.7692" fill="#EAEEF9"/>
<path d="M54.5461 80.3083C48.059 80.3083 43.2428 76.455 43.1445 71.1196V70.5268H45.9949V71.1196C46.0932 74.7753 49.8282 77.6406 54.5461 77.6406C59.4606 77.6406 63.0973 74.6765 63.0973 70.5268C63.0973 66.3771 59.7554 63.8082 54.0547 63.8082H49.8282V61.0417H54.0547C58.576 61.0417 61.7212 58.4728 61.7212 54.7183C61.7212 51.1613 58.576 48.4937 54.2512 48.4937C50.2214 48.4937 47.0761 51.0625 46.7812 54.6195V55.1135H43.9308V54.5207C44.2257 49.3829 48.5504 45.6284 54.3495 45.6284C60.2469 45.6284 64.6699 49.3829 64.6699 54.4219C64.6699 57.88 62.8024 60.7453 59.6571 62.0297C63.687 63.1165 66.1442 66.1794 66.1442 70.2304C66.046 76.0598 61.1315 80.3083 54.5461 80.3083Z" fill="#1C3754"/>
<path d="M77.4476 79.8143V49.7781C76.4647 50.3709 75.0887 51.2602 73.8109 52.1494L73.6143 52.2482C72.0417 53.2362 70.4691 54.3231 69.4862 54.9159L68.6016 55.5087V52.1494L68.8964 51.9518C69.6827 51.4578 70.8622 50.6673 72.14 49.8769C74.1058 48.5925 76.3664 47.1104 77.7425 46.2212L77.8408 46.1224H80.298V79.7155H77.4476V79.8143Z" fill="#1C3754"/>
<g filter="url(#filter1_d)">
<path d="M115.597 96.4231C115.499 96.7195 115.499 97.0159 115.401 97.4111C113.632 104.031 108.52 108.873 102.23 110.453C99.6743 111.145 96.9222 111.145 94.1701 110.651C84.3412 108.576 78.0506 98.8933 80.1147 89.1117C82.1788 79.2314 91.7129 72.9082 101.542 74.983C104.982 75.6747 108.226 77.4531 110.683 79.9232C115.008 84.1718 116.875 90.3961 115.597 96.4231Z" fill="url(#paint0_linear)"/>
</g>
<path d="M115.388 97.3025C113.618 103.922 108.507 108.764 102.217 110.345L91.8965 99.9702L93.8623 98.0929L100.448 97.4013L103.691 88.9042L101.431 86.9282L105.46 87.521L115.388 97.3025Z" fill="url(#paint1_linear)"/>
<path d="M105.511 87.4904C104.725 86.5023 103.742 85.7119 102.661 85.1191C102.169 84.8227 101.481 85.0203 101.186 85.6131C100.891 86.1071 101.088 86.7988 101.678 87.0952C102.562 87.4904 103.25 88.0832 103.84 88.8736C104.233 89.3676 104.921 89.4665 105.413 89.0712C105.806 88.5772 105.904 87.8856 105.511 87.4904Z" fill="url(#paint2_linear)"/>
<path d="M91.8491 88.8737C92.4388 88.0832 93.2251 87.3916 94.1097 86.9964C94.6012 86.7 94.7977 86.0084 94.5029 85.5143C94.208 85.0203 93.52 84.8227 93.0285 85.1191C91.9473 85.7119 90.9645 86.6012 90.1781 87.5892C89.785 88.0832 89.8833 88.7749 90.3747 89.0713C90.7679 89.4665 91.4559 89.3677 91.8491 88.8737Z" fill="url(#paint3_linear)"/>
<path d="M102.76 98.1619C105.316 95.4942 105.217 91.1468 102.465 88.5779C101.581 87.7875 100.598 87.1947 99.5165 86.8983C98.4353 86.6019 97.2559 86.6019 96.1747 86.8983C92.538 87.7875 90.3756 91.542 91.2602 95.099C91.5551 96.1858 92.1448 97.2726 92.9311 98.1619L92.0465 99.0511C91.7517 99.3475 91.7517 99.8415 92.0465 100.138C92.3414 100.434 92.8328 100.434 93.0294 100.138L94.0123 99.1499C94.7003 99.5451 95.3884 99.9403 96.0764 100.138C97.1576 100.434 98.337 100.434 99.4182 100.138C100.205 99.9403 100.893 99.6439 101.482 99.1499L102.465 100.138C102.76 100.434 103.252 100.434 103.546 100.138C103.841 99.8415 103.841 99.3475 103.546 99.0511L102.76 98.1619ZM100.106 95.0002C100.008 95.1978 99.7131 95.3954 99.4182 95.3954C99.3199 95.3954 99.1234 95.3954 99.0251 95.2966L97.2559 94.2097C97.0593 94.1109 96.8627 93.8145 96.8627 93.6169V89.9612C96.8627 89.566 97.1576 89.1708 97.649 89.2696C98.0422 89.2696 98.3371 89.566 98.3371 89.9612V93.2217L99.8114 94.0121C100.205 94.2097 100.303 94.6049 100.106 95.0002Z" fill="url(#paint4_linear)"/>
<path d="M97.6703 5.53349C97.3754 5.23708 96.9823 4.94067 96.5891 4.64426V4.54546C96.5891 4.54546 96.6874 4.44666 96.7857 4.44666C97.0805 4.24905 97.3754 3.95264 97.4737 3.65623C97.572 3.06341 97.0805 2.8658 96.7857 2.6682C96.7857 2.6682 96.6874 2.6682 96.6874 2.56939L96.7857 2.47059C97.0805 2.27298 97.3754 1.87777 97.3754 1.48255C97.3754 1.28495 97.1788 1.08734 96.9823 1.08734C96.7857 1.08734 96.5891 1.28495 96.5891 1.48255C96.5891 1.58136 96.3925 1.77897 96.2942 1.87777C96.0976 2.07538 95.8028 2.37178 95.8028 2.767C95.9011 3.06341 96.0977 3.26102 96.3925 3.35982C96.4908 3.35982 96.5891 3.45862 96.5891 3.45862C96.5891 3.55742 96.3925 3.65623 96.2942 3.75503C96.0976 3.85384 95.9994 4.05144 95.8028 4.15025C95.8028 4.15025 95.7045 4.15025 95.7045 4.05144C95.5079 3.95264 95.3113 3.85384 95.1148 3.75503C95.0165 3.75503 94.9182 3.65623 94.8199 3.65623C94.1319 3.45862 93.6404 3.55742 93.2473 3.95264C93.149 4.05144 93.0507 4.15025 93.0507 4.34785L90.2986 12.2521C90.2003 12.5485 90.2986 12.8449 90.5934 12.9437C90.6917 12.9437 90.8883 12.9437 90.9866 12.9437L98.5549 10.0784H98.6532C98.7515 9.97964 98.8498 9.97964 98.9481 9.88084C99.2429 9.58443 99.3412 9.18922 99.3412 8.794C99.2429 8.00358 99.0463 7.31195 98.5549 6.71913C98.4566 6.32392 98.0634 5.92871 97.6703 5.53349ZM98.4566 9.38682C98.1617 9.68323 96.7857 9.38682 95.3113 7.90477C93.837 6.42272 93.6404 5.03948 93.9353 4.74307C94.1319 4.54546 94.7216 4.64426 95.5079 5.03948L95.3113 5.33589C95.213 5.53349 95.213 5.7311 95.4096 5.92871C95.5079 5.92871 95.5079 6.02751 95.6062 6.02751C95.7045 6.02751 95.9011 5.92871 95.9011 5.8299L96.0976 5.53349C96.3925 5.7311 96.6874 6.02751 96.9823 6.32392C98.4566 7.60836 98.8498 9.09041 98.4566 9.38682Z" fill="url(#paint5_linear)"/>
<path d="M102.978 6.42223C102.88 6.52103 102.585 6.32343 102.388 6.22462C102.093 6.02702 101.602 5.82941 101.307 6.12582C101.012 6.42223 101.11 6.71864 101.11 7.11386C101.11 7.21266 101.11 7.31146 101.11 7.41027C100.914 7.31146 100.816 7.21266 100.619 7.11386C100.324 6.91625 99.8327 6.61984 99.4396 7.01505C99.3413 7.21266 99.3413 7.41027 99.5378 7.60787C99.6361 7.70668 99.8327 7.70668 99.931 7.60787C100.029 7.60787 100.128 7.70668 100.226 7.80548C100.521 8.00309 100.816 8.20069 101.209 8.20069C101.307 8.20069 101.307 8.20069 101.405 8.20069C101.995 8.00309 101.897 7.31146 101.897 7.01505C101.897 7.01505 101.897 6.91625 101.897 6.81745C101.995 6.81745 101.995 6.91625 102.093 6.91625C102.487 7.11386 102.978 7.31146 103.371 7.11386C103.568 7.01505 103.666 6.81745 103.568 6.61984C103.469 6.42223 103.273 6.32343 102.978 6.42223C103.076 6.42223 102.978 6.42223 102.978 6.42223Z" fill="url(#paint6_linear)"/>
<path d="M98.5541 5.03899C98.6523 5.03899 98.7506 4.94018 98.8489 4.94018C98.9472 4.94018 99.0455 4.94018 99.0455 4.94018C99.4387 5.03899 99.8318 5.03899 100.127 4.84138C100.52 4.54497 100.618 4.14976 100.52 3.65574C100.52 3.55694 100.52 3.35933 100.52 3.35933C100.618 3.35933 100.716 3.35933 100.815 3.35933C101.208 3.45813 101.699 3.35933 101.994 3.06292C102.191 2.96412 102.191 2.66771 102.092 2.4701C101.994 2.27249 101.699 2.27249 101.503 2.3713C101.306 2.4701 101.011 2.5689 100.815 2.4701C100.422 2.3713 100.127 2.4701 99.8318 2.76651C99.6352 3.06292 99.6352 3.35933 99.6352 3.65574C99.6352 3.95215 99.6352 4.05095 99.5369 4.05095C99.4387 4.14976 99.2421 4.05095 99.0455 4.05095C98.7506 3.95215 98.3575 3.85335 98.0626 4.24856C97.9643 4.44617 97.9643 4.64377 98.1609 4.74258C98.4558 5.03899 98.4558 5.03899 98.5541 5.03899Z" fill="url(#paint7_linear)"/>
<path d="M99.3418 1.48271C99.3418 1.58156 99.3418 1.58156 99.4401 1.68041H99.5385L100.03 1.48271C100.128 1.38387 100.227 1.38387 100.325 1.48271L100.817 1.68041C100.915 1.68041 100.915 1.68041 101.013 1.58156V1.48271L100.817 0.988476C100.718 0.889628 100.718 0.790781 100.817 0.691934L101.013 0.197696C101.013 0.0988483 101.013 0.0988476 100.915 0H100.817L100.325 0.197696C100.227 0.296543 100.128 0.296543 100.03 0.197696L99.5385 0C99.4401 0 99.4401 3.75601e-07 99.3418 0.0988479V0.197696L99.5385 0.691934C99.6368 0.790781 99.6368 0.889628 99.5385 0.988476L99.3418 1.48271Z" fill="url(#paint8_linear)"/>
<path d="M105.338 4.74299C105.338 4.64414 105.338 4.5453 105.338 4.44645L105.535 3.95221C105.535 3.85336 105.535 3.85336 105.437 3.75452H105.338L104.847 3.95221C104.748 3.95221 104.65 3.95221 104.552 3.95221L104.06 3.75452C103.962 3.75452 103.962 3.75452 103.863 3.85336V3.95221L104.06 4.44645C104.06 4.5453 104.06 4.64414 104.06 4.74299L103.863 5.23723C103.863 5.33608 103.863 5.33608 103.962 5.43492H104.06L104.552 5.23723C104.65 5.23723 104.748 5.23723 104.847 5.23723L105.338 5.43492C105.437 5.43492 105.437 5.43492 105.535 5.33608V5.23723L105.338 4.74299Z" fill="url(#paint9_linear)"/>
<path d="M93.4438 2.86589L93.8371 2.6682C93.9354 2.6682 94.0338 2.6682 94.1321 2.6682L94.5254 2.86589H94.6238V2.76704L94.4271 2.37165C94.4271 2.2728 94.4271 2.17396 94.4271 2.07511L94.6238 1.67972V1.58087H94.5254L94.1321 1.77857C94.0338 1.77857 93.9354 1.77857 93.8371 1.77857L93.4438 1.58087H93.3454V1.67972L93.5421 2.07511C93.5421 2.17396 93.5421 2.2728 93.5421 2.37165L93.3454 2.76704C93.2471 2.86589 93.3454 2.86589 93.4438 2.86589C93.3454 2.86589 93.4438 2.86589 93.4438 2.86589Z" fill="url(#paint10_linear)"/>
<path d="M12.3802 72.4041C12.675 72.3053 12.8716 72.0088 12.7733 71.7124L12.5767 70.922C12.4785 70.6256 12.1836 70.428 11.8887 70.5268L4.41873 72.5029C4.12386 72.6017 3.92728 72.8981 4.02557 73.1945L4.22215 73.9849C4.32044 74.2813 4.6153 74.4789 4.91017 74.3801C5.20504 75.467 5.99136 76.3562 6.97425 76.949L8.3503 77.6406C8.54688 77.7394 8.54688 77.937 8.44859 78.0359L7.56398 79.2215C6.87596 80.1107 6.67938 81.2964 6.87596 82.3832C6.58109 82.482 6.38451 82.7784 6.4828 83.0748L6.67938 83.8652C6.77767 84.1617 7.07254 84.3593 7.36741 84.2605L14.8374 82.2844C15.1323 82.1856 15.3288 81.8892 15.2306 81.5928L15.1323 80.9011C15.034 80.6047 14.7391 80.4071 14.4442 80.5059C14.1494 79.4191 13.3631 78.5299 12.3802 78.0359L11.0041 77.3442C10.8075 77.2454 10.7092 77.0478 10.8075 76.949L11.6921 75.7634C12.3802 74.6765 12.5767 73.4909 12.3802 72.4041ZM10.611 74.8741L9.62806 76.2574C9.52977 76.455 9.2349 76.455 9.13661 76.3562L7.66227 75.5658C7.07254 75.2694 6.67938 74.8741 6.38451 74.2813C6.28622 74.0837 6.38451 73.8861 6.58109 73.7873C6.58109 73.7873 6.58109 73.7873 6.67938 73.7873L10.8075 72.7005C11.0041 72.7005 11.2007 72.7993 11.2007 72.9969C11.2007 72.9969 11.2007 72.9969 11.2007 73.0957C11.1024 73.7873 11.0041 74.3801 10.611 74.8741Z" fill="url(#paint11_linear)"/>
<defs>
<filter id="filter0_d" x="0.503906" y="8.64307" width="123.123" height="123.635" filterUnits="userSpaceOnUse" color-interpolation-filters="sRGB">
<feFlood flood-opacity="0" result="BackgroundImageFix"/>
<feColorMatrix in="SourceAlpha" type="matrix" values="0 0 0 0 0 0 0 0 0 0 0 0 0 0 0 0 0 0 127 0" result="hardAlpha"/>
<feOffset dy="11"/>
<feGaussianBlur stdDeviation="11"/>
<feColorMatrix type="matrix" values="0 0 0 0 0.397708 0 0 0 0 0.47749 0 0 0 0 0.575 0 0 0 0.18 0"/>
<feBlend mode="normal" in2="BackgroundImageFix" result="effect1_dropShadow"/>
<feBlend mode="normal" in="SourceGraphic" in2="effect1_dropShadow" result="shape"/>
</filter>
<filter id="filter1_d" x="71.7227" y="71.5889" width="52.2699" height="52.4111" filterUnits="userSpaceOnUse" color-interpolation-filters="sRGB">
<feFlood flood-opacity="0" result="BackgroundImageFix"/>
<feColorMatrix in="SourceAlpha" type="matrix" values="0 0 0 0 0 0 0 0 0 0 0 0 0 0 0 0 0 0 127 0" result="hardAlpha"/>
<feOffset dy="5"/>
<feGaussianBlur stdDeviation="4"/>
<feColorMatrix type="matrix" values="0 0 0 0 0.1125 0 0 0 0 0.295916 0 0 0 0 1 0 0 0 0.22 0"/>
<feBlend mode="normal" in2="BackgroundImageFix" result="effect1_dropShadow"/>
<feBlend mode="normal" in="SourceGraphic" in2="effect1_dropShadow" result="shape"/>
</filter>
<linearGradient id="paint0_linear" x1="91.5122" y1="75.3102" x2="103.906" y2="109.192" gradientUnits="userSpaceOnUse">
<stop stop-color="#866FFE"/>
<stop offset="1" stop-color="#3A30F2"/>
</linearGradient>
<linearGradient id="paint1_linear" x1="99.7232" y1="94.7388" x2="107.455" y2="102.43" gradientUnits="userSpaceOnUse">
<stop stop-color="#634EFE"/>
<stop offset="1" stop-color="#3A30F2" stop-opacity="0"/>
</linearGradient>
<linearGradient id="paint2_linear" x1="108.463" y1="92.0859" x2="98.2536" y2="81.9293" gradientUnits="userSpaceOnUse">
<stop offset="0.0113208" stop-color="#C2D1FF"/>
<stop offset="1" stop-color="white"/>
</linearGradient>
<linearGradient id="paint3_linear" x1="102.833" y1="97.7458" x2="92.6235" y2="87.5893" gradientUnits="userSpaceOnUse">
<stop offset="0.0113208" stop-color="#C2D1FF"/>
<stop offset="1" stop-color="white"/>
</linearGradient>
<linearGradient id="paint4_linear" x1="101.718" y1="98.868" x2="91.5087" y2="88.7114" gradientUnits="userSpaceOnUse">
<stop offset="0.0113208" stop-color="#C2D1FF"/>
<stop offset="1" stop-color="white"/>
</linearGradient>
<linearGradient id="paint5_linear" x1="90.3104" y1="7.10358" x2="99.4663" y2="7.10358" gradientUnits="userSpaceOnUse">
<stop stop-color="#FFEB84"/>
<stop offset="1" stop-color="#FFBE07"/>
</linearGradient>
<linearGradient id="paint6_linear" x1="99.4617" y1="7.04687" x2="103.57" y2="7.04687" gradientUnits="userSpaceOnUse">
<stop stop-color="#FFD600"/>
<stop offset="1" stop-color="#FFBE07"/>
</linearGradient>
<linearGradient id="paint7_linear" x1="98.183" y1="3.73488" x2="102.288" y2="3.73488" gradientUnits="userSpaceOnUse">
<stop stop-color="#FFD600"/>
<stop offset="1" stop-color="#FFBE07"/>
</linearGradient>
<linearGradient id="paint8_linear" x1="99.3695" y1="0.746893" x2="101.09" y2="0.746893" gradientUnits="userSpaceOnUse">
<stop stop-color="#FFD600"/>
<stop offset="1" stop-color="#FFBE07"/>
</linearGradient>
<linearGradient id="paint9_linear" x1="103.899" y1="4.62003" x2="105.578" y2="4.62003" gradientUnits="userSpaceOnUse">
<stop stop-color="#FFEB84"/>
<stop offset="1" stop-color="#FFBE07"/>
</linearGradient>
<linearGradient id="paint10_linear" x1="93.2935" y1="2.25798" x2="94.5779" y2="2.25798" gradientUnits="userSpaceOnUse">
<stop stop-color="#FFD600"/>
<stop offset="1" stop-color="#FFBE07"/>
</linearGradient>
<linearGradient id="paint11_linear" x1="3.92728" y1="77.4092" x2="15.3599" y2="77.4092" gradientUnits="userSpaceOnUse">
<stop stop-color="#866FFE"/>
<stop offset="1" stop-color="#3A30F2"/>
</linearGradient>
</defs>
</svg>
