<svg width="24" height="24" viewBox="0 0 24 24" fill="none" xmlns="http://www.w3.org/2000/svg">
<path d="M4.5 9.5C4.5 5.35786 7.85786 2 12 2C16.1421 2 19.5 5.35786 19.5 9.5C19.5 11.6141 18.6245 13.5247 17.218 14.8873C16.9643 15.1331 16.769 15.3884 16.6516 15.6609L15.699 17.8723C15.6003 18.1015 15.3746 18.25 15.125 18.25H8.875C8.6254 18.25 8.39974 18.1015 8.30099 17.8723L7.34841 15.6609C7.23101 15.3884 7.03572 15.1331 6.78204 14.8873C5.37549 13.5247 4.5 11.6141 4.5 9.5Z" fill="#866ffe"/>
<path d="M8.25 20.125C8.25 19.7798 8.52982 19.5 8.875 19.5H15.125C15.4702 19.5 15.75 19.7798 15.75 20.125C15.75 20.4702 15.4702 20.75 15.125 20.75L14.8455 21.309C14.6338 21.7325 14.2009 22 13.7275 22H10.2725C9.79908 22 9.36625 21.7325 9.15451 21.309L8.875 20.75C8.52982 20.75 8.25 20.4702 8.25 20.125Z" fill="#866ffe"/>
</svg>
