<svg width="131" height="118" viewBox="0 0 131 118" fill="none" xmlns="http://www.w3.org/2000/svg">
<path d="M66.5 112C93.2858 112 115 90.2858 115 63.5C115 36.7142 93.2858 15 66.5 15C39.7142 15 18 36.7142 18 63.5C18 90.2858 39.7142 112 66.5 112Z" fill="#EAEEF9"/>
<path d="M24.9152 101.26C24.6225 99.9239 23.2945 99.0744 21.9489 99.3631C20.6033 99.6517 19.7497 100.969 20.0424 102.306C20.335 103.642 21.6631 104.492 23.0087 104.203C24.3543 103.914 25.2079 102.597 24.9152 101.26Z" fill="#EAEEF9"/>
<path d="M16.6739 95.6456C16.4749 94.7367 15.5718 94.1591 14.6568 94.3554C13.7418 94.5517 13.1614 95.4476 13.3604 96.3565C13.5594 97.2653 14.4625 97.8429 15.3775 97.6466C16.2925 97.4504 16.8729 96.5545 16.6739 95.6456Z" fill="url(#paint0_linear)"/>
<path d="M128.222 53.7953C129.756 52.3831 129.864 49.9856 128.462 48.4403C127.06 46.895 124.679 46.7871 123.145 48.1993C121.611 49.6114 121.504 52.0089 122.906 53.5543C124.308 55.0996 126.688 55.2075 128.222 53.7953Z" fill="url(#paint1_linear)"/>
<path d="M128.507 36.8026C129.153 36.208 129.198 35.1985 128.607 34.5478C128.017 33.8971 127.015 33.8517 126.369 34.4463C125.723 35.0409 125.678 36.0504 126.268 36.7011C126.858 37.3518 127.861 37.3972 128.507 36.8026Z" fill="#EAEEF9"/>
<path d="M111.012 22.0452C111.887 22.0452 112.597 21.3307 112.597 20.4493C112.597 19.5679 111.887 18.8534 111.012 18.8534C110.137 18.8534 109.428 19.5679 109.428 20.4493C109.428 21.3307 110.137 22.0452 111.012 22.0452Z" fill="url(#paint2_linear)"/>
<path d="M109 31.5L113.339 89.3504C113.426 90.5107 112.508 91.5 111.344 91.5H23.6201C22.4697 91.5 21.5565 90.5319 21.6235 89.3835L25 31.5C25 29.9771 26.1831 28.6573 27.5481 28.6573H106.452C107.908 28.6573 109 29.9771 109 31.5Z" fill="#172D45"/>
<path d="M103.5 33H31L27 86H107.5L103.5 33Z" fill="white"/>
<path d="M98.5228 69.7476L98.9999 77.2524C98.9999 78.2233 98.3502 79 97.538 79H37.4806C36.6684 79 35.4961 77.2233 35.4961 76.2524V69.7476C35.4961 68.7767 36.6684 68 37.4806 68H97.0608C97.873 68 98.5228 68.7767 98.5228 69.7476Z" fill="#E3EAF2"/>
<path d="M46.5 68L45.8209 79H36.77C35.7866 79 35 78.1848 35 77.1657L35.4962 69.8343C35.4962 68.8152 36.2828 68 37.2661 68H45.8209H46.5Z" fill="#CED7E2"/>
<path d="M97.5376 54.6392L97.9998 61.6786C97.9998 62.5893 97.3704 63.3178 96.5835 63.3178H38.4029C37.6161 63.3178 36.4805 61.6513 36.4805 60.7406V54.6392C36.4805 53.7285 37.6161 53 38.4029 53H96.1213C96.9081 53 97.5376 53.7285 97.5376 54.6392Z" fill="#E3EAF2"/>
<path d="M47 53L46.4827 63.3178H37.7146C36.7621 63.3178 36 62.5531 36 61.5973L36.4806 54.7205C36.4806 53.7647 37.2427 53 38.1953 53H46.4827H47Z" fill="#866FFE"/>
<path d="M96.5523 40.5579L96.9997 47.2483C96.9997 48.1138 96.3905 48.8062 95.6291 48.8062H39.3253C38.5639 48.8062 37.4648 47.2223 37.4648 46.3568V40.5579C37.4648 39.6924 38.5639 39 39.3253 39H95.1818C95.9432 39 96.5523 39.6924 96.5523 40.5579Z" fill="#E3EAF2"/>
<path d="M47.5 39L46.8775 48.8062H38.6593C37.7375 48.8062 37 48.0794 37 47.171L37.4651 40.6352C37.4651 39.7268 38.2026 39 39.1245 39H47.5Z" fill="#CED7E2"/>
<path d="M41.1521 60.5C40.9669 60.5 40.7818 60.3895 40.6893 60.279L39.2083 58.511C38.9306 58.1796 38.9306 57.6271 39.2083 57.2956C39.486 56.9641 39.9488 56.9641 40.2264 57.2956L41.1521 58.4006L43.3736 55.7486C43.6512 55.4171 44.114 55.4171 44.3917 55.7486C44.6694 56.0801 44.6694 56.6326 44.3917 56.9641L41.7074 60.1685C41.5223 60.3895 41.3372 60.5 41.1521 60.5Z" fill="white"/>
<path d="M76 106.5C70.4996 108.441 64.5004 108.441 59 106.5V91.5H76V106.5Z" fill="url(#paint3_linear)"/>
<defs>
<linearGradient id="paint0_linear" x1="13.3604" y1="96.3565" x2="16.6708" y2="95.6316" gradientUnits="userSpaceOnUse">
<stop stop-color="#FFBE07"/>
<stop offset="1" stop-color="#FFD600"/>
</linearGradient>
<linearGradient id="paint1_linear" x1="123.145" y1="48.1993" x2="128.262" y2="53.7585" gradientUnits="userSpaceOnUse">
<stop stop-color="#FFBE07"/>
<stop offset="1" stop-color="#FFD600" stop-opacity="0.85"/>
</linearGradient>
<linearGradient id="paint2_linear" x1="109.478" y1="20.4228" x2="112.552" y2="20.4228" gradientUnits="userSpaceOnUse">
<stop stop-color="#FFD600"/>
<stop offset="1" stop-color="#FFBE07"/>
</linearGradient>
<linearGradient id="paint3_linear" x1="67.5683" y1="107.387" x2="67.5683" y2="92.7308" gradientUnits="userSpaceOnUse">
<stop stop-color="#F5F8FF"/>
<stop offset="0.9913" stop-color="#D8E0EB"/>
</linearGradient>
</defs>
</svg>
