<svg width="148" height="134" viewBox="0 0 148 134" fill="none" xmlns="http://www.w3.org/2000/svg">
<path d="M74.7108 117C101.585 117 123.373 95.2124 123.373 68.242C123.373 41.2715 101.585 19.484 74.7108 19.484C47.8364 19.484 26.0488 41.2715 26.0488 68.242C26.0488 95.2124 47.8364 117 74.7108 117Z" fill="#EAEEF9"/>
<path d="M128.939 52.9812C131.112 52.9812 132.874 51.2193 132.874 49.046C132.874 46.8726 131.112 45.1108 128.939 45.1108C126.766 45.1108 125.004 46.8726 125.004 49.046C125.004 51.2193 126.766 52.9812 128.939 52.9812Z" fill="#EAEEF9"/>
<path d="M134.695 37.5282C136.179 37.5282 137.383 36.325 137.383 34.8407C137.383 33.3565 136.179 32.1533 134.695 32.1533C133.211 32.1533 132.008 33.3565 132.008 34.8407C132.008 36.325 133.211 37.5282 134.695 37.5282Z" fill="#EAEEF9"/>
<path d="M22.6874 55.7645C24.1717 55.7645 25.3749 54.5613 25.3749 53.0771C25.3749 51.5929 24.1717 50.3896 22.6874 50.3896C21.2032 50.3896 20 51.5929 20 53.0771C20 54.5613 21.2032 55.7645 22.6874 55.7645Z" fill="#EAEEF9"/>
<g filter="url(#filter0_d)">
<path d="M122.437 99.4505L99.3625 90.6385L74.044 100.779L46.5513 90.5685L25.5109 98.6113C23.6173 99.3107 21.6535 97.5622 22.2146 95.604L35.3297 50.3547C35.7506 48.886 36.8026 47.6272 38.2053 46.9977L59.2456 37.1366L74.044 47.767L88.4916 38.6053L111.776 48.8161C113.319 49.5155 114.441 50.8443 114.792 52.4528L125.733 96.5831C126.224 98.4714 124.33 100.15 122.437 99.4505Z" fill="url(#paint0_linear)"/>
</g>
<path d="M59.2456 37.2065L46.5513 90.5685L25.5109 98.6113C23.6173 99.3107 21.6535 97.5622 22.2146 95.604L35.3297 50.3547C35.7505 48.886 36.8026 47.6272 38.2053 46.9977L59.2456 37.2065Z" fill="#E7EAF1"/>
<path d="M122.297 99.7302L99.2224 90.9181L88.3516 38.9549L111.636 49.1657C113.179 49.8651 114.301 51.1939 114.652 52.8024L125.593 96.9327C126.084 98.821 124.19 100.5 122.297 99.7302Z" fill="white"/>
<path d="M99.4336 90.6385L74.0449 100.779V47.7671L88.4926 38.6053L99.4336 90.6385Z" fill="#E7EAF1"/>
<path d="M51.3905 78.4695C51.3204 78.4695 51.2502 78.4695 51.11 78.4695C50.8294 78.3995 50.619 78.3995 50.3385 78.3296C49.567 78.1198 49.1462 77.4204 49.2865 76.6511C49.4267 75.8818 50.1982 75.4622 50.9697 75.602C51.1801 75.672 51.3905 75.672 51.6009 75.7419C52.3724 75.8818 52.8633 76.5812 52.7231 77.3505C52.6529 78.0498 52.0918 78.4695 51.3905 78.4695ZM56.2999 78.3296C55.6687 78.3296 55.1076 77.91 54.9674 77.2805C54.757 76.5112 55.2479 75.7419 56.0194 75.602C56.2298 75.5321 56.4402 75.4622 56.6506 75.4622C57.4221 75.2524 58.1935 75.672 58.4039 76.3713C58.6144 77.1407 58.1935 77.91 57.4922 78.1198C57.2117 78.1897 57.0013 78.2596 56.7207 78.3296C56.5103 78.3296 56.37 78.3296 56.2999 78.3296ZM46.2707 76.3713C45.9901 76.3713 45.7096 76.3014 45.4992 76.1615C45.2888 76.0217 45.0784 75.8818 44.868 75.7419C44.2368 75.3223 44.0965 74.4131 44.5173 73.7837C44.9381 73.1542 45.8499 73.0144 46.4811 73.434C46.6915 73.5739 46.8318 73.7137 47.0422 73.7837C47.6734 74.2033 47.8838 75.0425 47.463 75.7419C47.1824 76.1615 46.7616 76.3713 46.2707 76.3713ZM61.3496 76.0217C60.9288 76.0217 60.4378 75.8119 60.1573 75.3922C59.7365 74.7628 59.8768 73.8536 60.5781 73.434C60.7885 73.2941 60.9288 73.2242 61.1392 73.0843C61.7704 72.6647 62.6821 72.8046 63.103 73.434C63.5238 74.0634 63.3835 74.9726 62.7523 75.3922C62.5419 75.5321 62.3315 75.672 62.1211 75.8119C61.9107 75.8818 61.6301 76.0217 61.3496 76.0217ZM96.6974 74.3432C95.996 74.3432 95.3648 73.7837 95.2947 73.0144C95.2245 72.2451 95.8557 71.5457 96.6272 71.5457C96.7675 71.5457 96.9779 71.5457 97.1883 71.4758C97.9598 71.3359 98.6611 71.8254 98.8014 72.5948C98.9417 73.3641 98.4507 74.0634 97.6792 74.2033C97.3987 74.2732 97.1182 74.2732 96.8376 74.3432C96.7675 74.3432 96.7675 74.3432 96.6974 74.3432ZM41.9925 72.7346C41.6418 72.7346 41.221 72.5948 41.0106 72.315C40.8703 72.1751 40.6599 71.9653 40.5197 71.7555C39.9586 71.196 40.0287 70.2868 40.5898 69.7973C41.1509 69.3077 42.0626 69.3077 42.5536 69.8672C42.6938 70.0071 42.8341 70.2169 43.0445 70.3568C43.6056 70.9163 43.5354 71.8254 42.9744 72.315C42.6938 72.5948 42.3432 72.7346 41.9925 72.7346ZM92.2087 72.7346C91.9282 72.7346 91.5775 72.6647 91.3671 72.4549C91.1567 72.315 90.9463 72.1751 90.8061 71.9653C90.245 71.4758 90.1748 70.5666 90.6658 70.0071C91.1567 69.4476 92.0685 69.3776 92.6296 69.8672C92.7698 70.0071 92.9802 70.147 93.1205 70.2868C93.7517 70.7764 93.8218 71.6156 93.3309 72.2451C93.0504 72.5248 92.6296 72.7346 92.2087 72.7346ZM65.7681 72.5248C65.3473 72.5248 64.9966 72.3849 64.716 72.0353C64.2251 71.4758 64.2952 70.5666 64.8563 70.077C65.0667 69.9371 65.207 69.7973 65.3473 69.6574C65.9083 69.1678 66.8201 69.2378 67.311 69.7973C67.802 70.3568 67.7318 71.2659 67.1708 71.7555C66.9603 71.8954 66.8201 72.0353 66.6097 72.2451C66.3993 72.4549 66.1187 72.5248 65.7681 72.5248ZM101.887 72.315C101.396 72.315 100.976 72.1052 100.695 71.6856C100.274 71.0561 100.485 70.147 101.116 69.7273C101.326 69.5875 101.466 69.5175 101.677 69.3776C102.308 68.958 103.22 69.0979 103.641 69.7273C104.061 70.3568 103.921 71.2659 103.29 71.6856C103.08 71.8254 102.869 71.9653 102.659 72.1052C102.378 72.2451 102.098 72.315 101.887 72.315ZM88.1409 68.8881C87.7903 68.8881 87.4396 68.7482 87.1591 68.4685C87.0188 68.3286 86.8084 68.1887 86.6681 67.9789C86.1071 67.4893 86.0369 66.5802 86.598 66.0207C87.0889 65.4612 88.0007 65.3912 88.5618 65.9507C88.7722 66.0906 88.9124 66.3004 89.1228 66.4403C89.6839 66.9998 89.6839 67.839 89.193 68.3985C88.8423 68.7482 88.4916 68.8881 88.1409 68.8881ZM106.306 68.8881C105.885 68.8881 105.534 68.7482 105.254 68.3985C104.763 67.839 104.833 66.9298 105.394 66.4403C105.534 66.3004 105.745 66.1605 105.885 66.0207C106.446 65.5311 107.358 65.601 107.849 66.1605C108.34 66.72 108.27 67.6292 107.708 68.1188C107.498 68.2587 107.358 68.3985 107.147 68.6083C107.007 68.8181 106.656 68.8881 106.306 68.8881ZM69.8359 68.7482C69.4852 68.7482 69.1345 68.6083 68.854 68.3286C68.2929 67.7691 68.2929 66.9299 68.854 66.3704L69.3449 65.8808C69.906 65.3213 70.7476 65.3213 71.3087 65.8109C71.8698 66.3704 71.8698 67.2096 71.3788 67.7691L70.8879 68.2587C70.6073 68.6083 70.2567 68.7482 69.8359 68.7482ZM38.4156 68.4685C37.9948 68.4685 37.574 68.2587 37.2935 67.909C37.1532 67.6992 37.0129 67.5593 36.8727 67.3495C36.3817 66.72 36.522 65.8808 37.1532 65.3912C37.7844 64.9017 38.626 65.0416 39.117 65.671L39.5378 66.2305C40.0287 66.8599 39.8885 67.6992 39.2572 68.1887C38.9767 68.3286 38.6962 68.4685 38.4156 68.4685ZM83.8627 65.3213C83.5822 65.3213 83.3017 65.2514 83.0211 65.0415C82.8107 64.9017 82.6705 64.7618 82.4601 64.6219C81.8289 64.2023 81.6886 63.2931 82.1795 62.6637C82.6003 62.0343 83.5121 61.8944 84.1433 62.3839C84.3537 62.5238 84.494 62.6637 84.7044 62.8036C85.3356 63.2931 85.4758 64.1324 84.9849 64.7618C84.7044 65.1115 84.2836 65.3213 83.8627 65.3213ZM110.514 65.1814C110.163 65.1814 109.742 65.0415 109.462 64.7618C108.901 64.2023 108.971 63.2931 109.532 62.8036L110.023 62.314C110.584 61.7545 111.496 61.8244 111.987 62.3839C112.548 62.9434 112.478 63.8526 111.917 64.3422L111.426 64.8317C111.215 65.0415 110.865 65.1814 110.514 65.1814ZM73.6933 64.6219C73.3426 64.6219 72.9919 64.4821 72.7114 64.2722C72.1503 63.7127 72.0802 62.8735 72.6412 62.314C72.7815 62.1042 72.9919 61.9643 73.1322 61.7545C73.6933 61.195 74.5349 61.195 75.0959 61.7545C75.657 62.314 75.657 63.1532 75.0959 63.7127C74.9557 63.8526 74.8154 64.0624 74.605 64.2023C74.3946 64.4821 74.0439 64.6219 73.6933 64.6219ZM35.1894 63.8526C34.6985 63.8526 34.2777 63.6428 33.9972 63.2232L33.5764 62.6637C33.1555 62.0343 33.3659 61.1251 33.9972 60.7055C34.6284 60.2858 35.5401 60.4956 35.9609 61.1251L36.3116 61.6846C36.7324 62.314 36.5921 63.2232 35.8908 63.6428C35.7505 63.7827 35.47 63.8526 35.1894 63.8526ZM79.0936 62.3839C78.9533 62.3839 78.7429 62.3839 78.6027 62.314C78.3923 62.2441 78.252 62.2441 78.1117 62.1741C77.3403 62.0343 76.8493 61.2649 77.0597 60.4956C77.2701 59.7263 77.9715 59.2368 78.7429 59.4466C79.0235 59.5165 79.304 59.5865 79.5845 59.7263C80.2859 60.0061 80.7067 60.7754 80.4262 61.5447C80.1456 62.0343 79.6547 62.3839 79.0936 62.3839Z" fill="#FFBE07"/>
<path d="M74.0442 0C86.8788 0 97.2587 10.3507 97.2587 23.1492C97.2587 33.36 82.5305 53.5718 76.4989 61.4047C75.2365 63.0832 72.7117 63.0832 71.4492 61.4047C65.4177 53.5718 50.6895 33.36 50.6895 23.1492C50.8297 10.3507 61.2096 0 74.0442 0Z" fill="#866FFE"/>
<path d="M74.0431 32.241C79.1173 32.241 83.2307 28.1392 83.2307 23.0793C83.2307 18.0194 79.1173 13.9175 74.0431 13.9175C68.9689 13.9175 64.8555 18.0194 64.8555 23.0793C64.8555 28.1392 68.9689 32.241 74.0431 32.241Z" fill="#E2DCFF"/>
<defs>
<filter id="filter0_d" x="0.117188" y="26.1366" width="147.694" height="107.643" filterUnits="userSpaceOnUse" color-interpolation-filters="sRGB">
<feFlood flood-opacity="0" result="BackgroundImageFix"/>
<feColorMatrix in="SourceAlpha" type="matrix" values="0 0 0 0 0 0 0 0 0 0 0 0 0 0 0 0 0 0 127 0" result="hardAlpha"/>
<feOffset dy="11"/>
<feGaussianBlur stdDeviation="11"/>
<feColorMatrix type="matrix" values="0 0 0 0 0.397708 0 0 0 0 0.47749 0 0 0 0 0.575 0 0 0 0.27 0"/>
<feBlend mode="normal" in2="BackgroundImageFix" result="effect1_dropShadow"/>
<feBlend mode="normal" in="SourceGraphic" in2="effect1_dropShadow" result="shape"/>
</filter>
<linearGradient id="paint0_linear" x1="73.9306" y1="35.6645" x2="73.9306" y2="101.465" gradientUnits="userSpaceOnUse">
<stop stop-color="#FDFEFF"/>
<stop offset="0.9964" stop-color="#ECF0F5"/>
</linearGradient>
</defs>
</svg>
