<?xml version="1.0" standalone="no"?>
<!DOCTYPE svg PUBLIC "-//W3C//DTD SVG 1.0//EN" "http://www.w3.org/TR/2001/REC-SVG-20010904/DTD/svg10.dtd">
<svg xmlns="http://www.w3.org/2000/svg" xmlns:xlink="http://www.w3.org/1999/xlink" id="body_1" width="20" height="20">

<g transform="matrix(0.0390625 0 0 0.0390625 0 0)">
	<g transform="matrix(0.1 0 -0 -0.1 0 512)">
        <path d="M3030 5114C 2898 5098 2824 5086 2750 5065C 2214 4915 1870 4473 1791 3831C 1785 3784 1777 3657 1773 3548L1773 3548L1767 3350L2062 3350L2357 3350L2363 3548C 2370 3804 2394 3936 2461 4094C 2552 4307 2719 4453 2935 4507C 3035 4531 3258 4531 3363 4507C 3598 4452 3769 4291 3865 4037C 3911 3912 3931 3782 3937 3558L3937 3558L3943 3350L4238 3350L4533 3350L4527 3563C 4516 3937 4466 4165 4341 4412C 4214 4662 4023 4858 3791 4975C 3692 5024 3529 5077 3417 5095C 3323 5110 3094 5122 3030 5114z" stroke="none" fill="#000000" fill-rule="nonzero" />
        <path d="M1680 3143C 1510 3115 1334 2990 1257 2842C 1180 2695 1185 2783 1185 1575C 1185 555 1186 492 1203 435C 1256 265 1369 131 1522 60C 1657 -3 1586 -1 3188 2L3188 2L4645 5L4703 27C 4907 105 5028 228 5096 430C 5114 482 5115 536 5115 1575L5115 1575L5115 2665L5090 2740C 5042 2889 4923 3024 4782 3091C 4655 3152 4721 3150 3145 3148C 2353 3148 1694 3145 1680 3143zM3232 2155C 3416 2116 3541 1961 3541 1770C 3542 1646 3477 1517 3385 1457L3385 1457L3350 1435L3350 1200C 3350 949 3344 908 3303 860C 3200 737 3004 783 2960 939C 2955 959 2950 1079 2950 1205L2950 1205L2949 1435L2905 1467C 2851 1507 2804 1574 2778 1648C 2749 1731 2756 1853 2793 1936C 2844 2047 2963 2139 3080 2159C 3157 2171 3157 2171 3232 2155z" stroke="none" fill="#000000" fill-rule="nonzero" />
	</g>
</g>
</svg>