<svg width="24" height="24" viewBox="0 0 24 24" fill="none" xmlns="http://www.w3.org/2000/svg">
<path d="M21 8.4C21.4971 8.4 21.9 7.99706 21.9 7.5C21.9 7.00294 21.4971 6.6 21 6.6V8.4ZM9.38889 6.6H8.48889V8.4H9.38889V6.6ZM21 6.6H9.38889V8.4H21V6.6Z" fill="#866ffe"/>
<circle cx="5.5" cy="7.5" r="3.5" fill="#866ffe"/>
<path d="M3 15.6C2.50294 15.6 2.1 16.0029 2.1 16.5C2.1 16.9971 2.50294 17.4 3 17.4V15.6ZM14.6111 17.4H15.5111V15.6H14.6111V17.4ZM3 17.4H14.6111V15.6L3 15.6V17.4Z" fill="#866ffe"/>
<circle cx="18.5" cy="16.5" r="3.5" transform="rotate(-180 18.5 16.5)" fill="#866ffe"/>
</svg>
