<svg width="140" height="128" viewBox="0 0 140 128" fill="none" xmlns="http://www.w3.org/2000/svg">
<path d="M69.5 113C96.2858 113 118 91.2858 118 64.5C118 37.7142 96.2858 16 69.5 16C42.7142 16 21 37.7142 21 64.5C21 91.2858 42.7142 113 69.5 113Z" fill="#EAEEF9"/>
<path d="M91.786 107.592C91.786 111.009 89.0047 113.786 85.5814 113.786H52.2047C48.7814 113.786 46 111.009 46 107.592V29.1948C46 25.777 48.7814 23 52.2047 23H85.7953C89.2186 23 92 25.777 92 29.1948V107.592H91.786Z" fill="white"/>
<path d="M85.7953 23C89.2186 23 92 25.777 92 29.1948V107.805C92 111.223 89.2186 114 85.7953 114H52.2047C48.7814 114 46 111.223 46 107.805V29.1948C46 25.777 48.7814 23 52.2047 23H85.7953Z" fill="#1C3754"/>
<path d="M85.7931 25.9891C87.5047 25.9891 88.7884 27.2708 88.7884 28.9797V107.59C88.7884 109.299 87.5047 110.581 85.7931 110.581H52.2024C50.4908 110.581 49.207 109.299 49.207 107.59V29.1934C49.207 27.4844 50.4908 26.2027 52.2024 26.2027H57.1233C57.7652 26.2027 58.1931 26.63 58.1931 27.2708C58.1931 28.5525 59.2628 29.6206 60.5466 29.6206H77.6628C78.9466 29.6206 80.0163 28.5525 80.0163 27.2708C80.0163 26.63 80.4442 26.2027 81.0861 26.2027H85.7931V25.9891Z" fill="white"/>
<path d="M71.8888 27.0601H67.3958C66.9679 27.0601 66.7539 26.6327 66.7539 26.419C66.7539 25.9916 67.1818 25.778 67.3958 25.778H71.8888C72.3167 25.778 72.5307 26.2053 72.5307 26.419C72.5307 26.8464 72.3167 27.0601 71.8888 27.0601Z" fill="#2D5887"/>
<path d="M64.8278 27.059H64.614C64.1864 27.059 63.9727 26.632 63.9727 26.4185C63.9727 25.9915 64.4002 25.778 64.614 25.778H64.8278C65.2553 25.778 65.4691 26.205 65.4691 26.4185C65.4691 26.8455 65.2553 27.059 64.8278 27.059Z" fill="#2D5887"/>
<path d="M84.2199 53H53.6021C52.712 53 52 52.2308 52 51.2692V34.7308C52 33.7692 52.712 33 53.6021 33H84.3979C85.288 33 86 33.7692 86 34.7308V51.2692C85.822 52.2308 85.1099 53 84.2199 53Z" fill="#866FFE"/>
<path d="M67.6641 47.231C67.3081 47.231 66.9521 47.0387 66.7741 46.8464L63.9259 43.7694C63.3919 43.1925 63.3919 42.231 63.9259 41.6541C64.4599 41.0771 65.35 41.0771 65.884 41.6541L67.6641 43.5771L71.9364 38.9617C72.4704 38.3848 73.3605 38.3848 73.8945 38.9617C74.4285 39.5387 74.4285 40.5002 73.8945 41.0771L68.7322 46.6541C68.3762 47.0387 68.0202 47.231 67.6641 47.231Z" fill="white"/>
<path d="M84.2199 77H53.6021C52.712 77 52 76.2308 52 75.2692V58.7308C52 57.7692 52.712 57 53.6021 57H84.3979C85.288 57 86 57.7692 86 58.7308V75.2692C85.822 76.2308 85.1099 77 84.2199 77Z" fill="#CED7E2"/>
<path d="M86 106.6V110.6H85.822H52.178H52V106.6C52 105.489 52.712 104.6 53.6021 104.6H84.3979C85.288 104.6 86 105.489 86 106.6Z" fill="#E3EAF2"/>
<path d="M84.2199 101H53.6021C52.712 101 52 100.231 52 99.2692V82.7308C52 81.7692 52.712 81 53.6021 81H84.3979C85.288 81 86 81.7692 86 82.7308V99.2692C85.822 100.231 85.1099 101 84.2199 101Z" fill="#E3EAF2"/>
<path d="M22.1497 31.0464C23.4131 30.6355 24.1045 29.2777 23.6938 28.0136C23.2832 26.7495 21.926 26.0578 20.6626 26.4686C19.3991 26.8795 18.7078 28.2373 19.1185 29.5015C19.5291 30.7656 20.8862 31.4573 22.1497 31.0464Z" fill="#EAEEF9"/>
<path d="M27.4016 23.1935C28.2607 22.9141 28.7308 21.9907 28.4515 21.1312C28.1723 20.2715 27.2495 19.8012 26.3903 20.0806C25.5312 20.36 25.0611 21.2833 25.3403 22.1429C25.6195 23.0025 26.5424 23.4729 27.4016 23.1935Z" fill="#EAEEF9"/>
<path d="M121.123 42.3591C122.613 40.9961 122.718 38.682 121.356 37.1905C119.993 35.699 117.68 35.5948 116.19 36.9578C114.699 38.3209 114.595 40.6349 115.957 42.1264C117.319 43.6179 119.632 43.7221 121.123 42.3591Z" fill="#EAEEF9"/>
<path d="M119.578 21.6775C120.206 21.1036 120.25 20.1293 119.676 19.5013C119.102 18.8733 118.129 18.8294 117.501 19.4033C116.874 19.9772 116.829 20.9515 117.403 21.5796C117.977 22.2076 118.951 22.2514 119.578 21.6775Z" fill="#EAEEF9"/>
<path d="M100.623 14.0807C101.474 14.0807 102.163 13.3911 102.163 12.5404C102.163 11.6897 101.474 11 100.623 11C99.7733 11 99.084 11.6897 99.084 12.5404C99.084 13.3911 99.7733 14.0807 100.623 14.0807Z" fill="url(#paint0_linear)"/>
<path d="M21 97C22.1046 97 23 96.1045 23 95.0001C23 93.8955 22.1046 93 21 93C19.8955 93 19 93.8955 19 95.0001C19 96.1045 19.8955 97 21 97Z" fill="url(#paint1_linear)"/>
<defs>
<linearGradient id="paint0_linear" x1="99.162" y1="12.5183" x2="102.149" y2="12.5183" gradientUnits="userSpaceOnUse">
<stop stop-color="#FFDE83"/>
<stop offset="1" stop-color="#FFBE07"/>
</linearGradient>
<linearGradient id="paint1_linear" x1="19.0993" y1="94.9889" x2="22.9796" y2="94.9889" gradientUnits="userSpaceOnUse">
<stop stop-color="#FFDE83"/>
<stop offset="1" stop-color="#FFBE07"/>
</linearGradient>
</defs>
</svg>
