<svg width="131" height="119" viewBox="0 0 131 119" fill="none" xmlns="http://www.w3.org/2000/svg">
<path d="M66.5 112C93.2858 112 115 90.2858 115 63.5C115 36.7142 93.2858 15 66.5 15C39.7142 15 18 36.7142 18 63.5C18 90.2858 39.7142 112 66.5 112Z" fill="#EAEEF9"/>
<path d="M16 117.501H117.109" stroke="#EBF0F6" stroke-width="2" stroke-miterlimit="10" stroke-linecap="round" stroke-linejoin="round"/>
<path d="M88.5873 116.703C81.0611 116.903 72.0495 116.703 65.7116 116.604C59.3738 116.803 50.3621 116.903 42.8359 116.703C50.2631 112.414 52.8379 104.534 53.234 99.3477H78.0902C78.6844 104.435 81.2592 112.414 88.5873 116.703Z" fill="url(#paint0_linear)"/>
<path d="M43.6298 118H87.7967C88.3908 118 88.985 117.501 88.985 116.803C88.985 116.205 88.4899 115.606 87.7967 115.606H43.6298C43.0356 115.606 42.4414 116.105 42.4414 116.803C42.5404 117.501 43.0356 118 43.6298 118Z" fill="#EBF0F6"/>
<path d="M112.75 33.2166V98.4499C112.75 100.046 111.463 101.243 109.978 101.243H21.9408C20.4553 101.243 19.168 99.9461 19.168 98.4499V33.2166C19.168 31.7204 20.4553 30.4237 21.9408 30.4237H109.978C111.562 30.4237 112.75 31.7204 112.75 33.2166Z" fill="#F5F8FF"/>
<path d="M112.75 33.2166V89.3731H19.168V33.2166C19.168 31.7204 20.4553 30.4237 21.9408 30.4237H109.978C111.562 30.4237 112.75 31.7204 112.75 33.2166Z" fill="#172D45"/>
<path d="M109.186 34.0145H22.3379V86.281H109.186V34.0145Z" fill="white"/>
<path d="M65.8109 97.9512C67.0688 97.9512 68.0885 96.9241 68.0885 95.6571C68.0885 94.39 67.0688 93.3629 65.8109 93.3629C64.5529 93.3629 63.5332 94.39 63.5332 95.6571C63.5332 96.9241 64.5529 97.9512 65.8109 97.9512Z" fill="#DBDFE6"/>
<path d="M29.8849 28.5136C31.1852 28.0879 31.8967 26.6811 31.4741 25.3714C31.0514 24.0617 29.6547 23.345 28.3544 23.7707C27.0541 24.1964 26.3426 25.6032 26.7652 26.9129C27.1879 28.2227 28.5846 28.9393 29.8849 28.5136Z" fill="#EAEEF9"/>
<path d="M34.6417 19.7492C35.526 19.4598 36.0098 18.5031 35.7224 17.6125C35.435 16.7219 34.4852 16.2346 33.601 16.5241C32.7168 16.8136 32.233 17.7702 32.5204 18.6608C32.8078 19.5514 33.7575 20.0387 34.6417 19.7492Z" fill="#EAEEF9"/>
<path d="M128.222 53.7953C129.756 52.3831 129.864 49.9856 128.462 48.4403C127.06 46.895 124.679 46.7871 123.145 48.1993C121.611 49.6114 121.504 52.0089 122.906 53.5543C124.308 55.0996 126.688 55.2075 128.222 53.7953Z" fill="#EAEEF9"/>
<path d="M128.507 36.8026C129.153 36.208 129.198 35.1985 128.607 34.5478C128.017 33.8971 127.015 33.8517 126.369 34.4463C125.723 35.0409 125.678 36.0504 126.268 36.7011C126.858 37.3518 127.861 37.3972 128.507 36.8026Z" fill="#EAEEF9"/>
<path d="M111.012 22.0452C111.887 22.0452 112.597 21.3307 112.597 20.4493C112.597 19.5679 111.887 18.8534 111.012 18.8534C110.137 18.8534 109.428 19.5679 109.428 20.4493C109.428 21.3307 110.137 22.0452 111.012 22.0452Z" fill="url(#paint1_linear)"/>
<path d="M104.28 43.59V50.2729C104.28 51.2704 103.488 52.0683 102.498 52.0683H29.2161C28.2258 52.0683 27.4336 51.2704 27.4336 50.2729V43.59C27.4336 42.5925 28.2258 41.7946 29.2161 41.7946H102.498C103.488 41.7946 104.28 42.5925 104.28 43.59Z" fill="#E3EAF2"/>
<path d="M37.732 41.7946V52.1681H29.1165C28.1262 52.1681 27.334 51.3701 27.334 50.3726V43.6897C27.334 42.6923 28.1262 41.8943 29.1165 41.8943H37.732V41.7946Z" fill="#CED7E2"/>
<path d="M104.28 57.5544V64.2374C104.28 65.2348 103.488 66.0328 102.498 66.0328H29.2161C28.2258 66.0328 27.4336 65.2348 27.4336 64.2374V57.5544C27.4336 56.557 28.2258 55.759 29.2161 55.759H102.498C103.488 55.759 104.28 56.557 104.28 57.5544Z" fill="#E3EAF2"/>
<path d="M37.732 55.759V66.1325H29.1165C28.1262 66.1325 27.334 65.3346 27.334 64.3371V57.6542C27.334 56.6567 28.1262 55.8588 29.1165 55.8588H37.732V55.759Z" fill="#866FFE"/>
<path d="M32.1872 63.1402C31.9891 63.1402 31.7911 63.0404 31.692 62.9407L30.1076 61.3448C29.8105 61.0455 29.8105 60.5468 30.1076 60.2476C30.4047 59.9483 30.8998 59.9483 31.1969 60.2476L32.1872 61.245L34.5639 58.8511C34.861 58.5519 35.3561 58.5519 35.6532 58.8511C35.9503 59.1504 35.9503 59.6491 35.6532 59.9483L32.6823 62.841C32.5833 63.0404 32.3852 63.1402 32.1872 63.1402Z" fill="white"/>
<path d="M104.28 71.5188V78.2017C104.28 79.1992 103.488 79.9972 102.498 79.9972H29.2161C28.2258 79.9972 27.4336 79.1992 27.4336 78.2017V71.5188C27.4336 70.5213 28.2258 69.7234 29.2161 69.7234H102.498C103.488 69.7234 104.28 70.5213 104.28 71.5188Z" fill="#E3EAF2"/>
<path d="M37.732 69.7234V80.0969H29.1165C28.1262 80.0969 27.334 79.2989 27.334 78.3015V71.6186C27.334 70.6211 28.1262 69.8231 29.1165 69.8231H37.732V69.7234Z" fill="#CED7E2"/>
<path d="M104.28 85.483V86.281H27.334V85.483C27.334 84.4856 28.1262 83.6876 29.1165 83.6876H102.398C103.487 83.6876 104.28 84.4856 104.28 85.483Z" fill="#E3EAF2"/>
<path d="M37.732 83.6876V86.281H27.334V85.483C27.334 84.4856 28.1262 83.6876 29.1165 83.6876H37.732Z" fill="#CED7E2"/>
<path d="M26.1446 38.0043C26.6915 38.0043 27.1349 37.5577 27.1349 37.0069C27.1349 36.456 26.6915 36.0094 26.1446 36.0094C25.5977 36.0094 25.1543 36.456 25.1543 37.0069C25.1543 37.5577 25.5977 38.0043 26.1446 38.0043Z" fill="#E3EAF2"/>
<path d="M29.3145 38.0043C29.8614 38.0043 30.3048 37.5577 30.3048 37.0069C30.3048 36.456 29.8614 36.0094 29.3145 36.0094C28.7676 36.0094 28.3242 36.456 28.3242 37.0069C28.3242 37.5577 28.7676 38.0043 29.3145 38.0043Z" fill="#E3EAF2"/>
<path d="M32.4825 38.0043C33.0294 38.0043 33.4728 37.5577 33.4728 37.0069C33.4728 36.456 33.0294 36.0094 32.4825 36.0094C31.9356 36.0094 31.4922 36.456 31.4922 37.0069C31.4922 37.5577 31.9356 38.0043 32.4825 38.0043Z" fill="#E3EAF2"/>
<defs>
<linearGradient id="paint0_linear" x1="65.7619" y1="116.213" x2="65.7619" y2="100.654" gradientUnits="userSpaceOnUse">
<stop stop-color="#F5F8FF"/>
<stop offset="0.9913" stop-color="#D8E0EB"/>
</linearGradient>
<linearGradient id="paint1_linear" x1="109.478" y1="20.4228" x2="112.552" y2="20.4228" gradientUnits="userSpaceOnUse">
<stop stop-color="#FFD600"/>
<stop offset="1" stop-color="#FFBE07"/>
</linearGradient>
</defs>
</svg>
