<svg width="398" height="206" viewBox="0 0 398 206" fill="none" xmlns="http://www.w3.org/2000/svg">
<rect width="398" height="206" fill="none"/>
<path d="M267 157C268.153 157 269.086 156.089 269.086 154.964H264.914C264.914 156.089 265.847 157 267 157ZM275.69 152.18L274.337 150.86V144.721C274.337 141.293 271.864 138.428 268.572 137.732V136.535C268.572 135.686 267.87 135 267 135C266.13 135 265.428 135.686 265.428 136.535V137.732C262.137 138.428 259.663 141.293 259.663 144.721V150.86L258.311 152.18C257.65 152.825 258.112 153.93 259.044 153.93H274.945C275.889 153.93 276.35 152.825 275.69 152.18Z" fill="#866FFE"/>
<path d="M211.5 143.5C211.5 139.358 214.858 136 219 136C223.142 136 226.5 139.358 226.5 143.5C226.5 145.614 225.625 147.525 224.218 148.887C223.964 149.133 223.769 149.388 223.652 149.661L222.699 151.872C222.6 152.101 222.375 152.25 222.125 152.25H215.875C215.625 152.25 215.4 152.101 215.301 151.872L214.348 149.661C214.231 149.388 214.036 149.133 213.782 148.887C212.375 147.525 211.5 145.614 211.5 143.5Z" fill="#866FFE"/>
<path d="M215.25 154.125C215.25 153.78 215.53 153.5 215.875 153.5H222.125C222.47 153.5 222.75 153.78 222.75 154.125C222.75 154.47 222.47 154.75 222.125 154.75L221.845 155.309C221.634 155.732 221.201 156 220.727 156H217.273C216.799 156 216.366 155.732 216.155 155.309L215.875 154.75C215.53 154.75 215.25 154.47 215.25 154.125Z" fill="#866FFE"/>
<path d="M180 142.4C180.497 142.4 180.9 141.997 180.9 141.5C180.9 141.003 180.497 140.6 180 140.6V142.4ZM168.389 140.6H167.489V142.4H168.389V140.6ZM180 140.6H168.389V142.4H180V140.6Z" fill="#866FFE"/>
<circle cx="164.5" cy="141.5" r="3.5" fill="#866FFE"/>
<path d="M162 149.6C161.503 149.6 161.1 150.003 161.1 150.5C161.1 150.997 161.503 151.4 162 151.4V149.6ZM173.611 151.4H174.511V149.6H173.611V151.4ZM162 151.4H173.611V149.6H162V151.4Z" fill="#866FFE"/>
<circle cx="177.5" cy="150.5" r="3.5" transform="rotate(-180 177.5 150.5)" fill="#866FFE"/>
<path d="M113.375 150.125C113.375 149.366 113.991 148.75 114.75 148.75H117.5C118.259 148.75 118.875 149.366 118.875 150.125V154.25C118.875 155.009 118.259 155.625 117.5 155.625H114.75C113.991 155.625 113.375 155.009 113.375 154.25V150.125Z" fill="#866FFE"/>
<path d="M120.25 144.625C120.25 143.866 120.866 143.25 121.625 143.25H124.375C125.134 143.25 125.75 143.866 125.75 144.625V154.25C125.75 155.009 125.134 155.625 124.375 155.625H121.625C120.866 155.625 120.25 155.009 120.25 154.25V144.625Z" fill="#866FFE"/>
<path d="M127.125 137.75C127.125 136.991 127.741 136.375 128.5 136.375H131.25C132.009 136.375 132.625 136.991 132.625 137.75V154.25C132.625 155.009 132.009 155.625 131.25 155.625H128.5C127.741 155.625 127.125 155.009 127.125 154.25V137.75Z" fill="#866FFE"/>
<path d="M76.25 153.5C76.25 153.5 77.5 153.5 77.5 152.25C77.5 151 76.25 147.25 71.25 147.25C66.25 147.25 65 151 65 152.25C65 153.5 66.25 153.5 66.25 153.5H76.25Z" fill="#866FFE"/>
<path d="M71.25 146C69.1789 146 67.5 144.321 67.5 142.25C67.5 140.179 69.1789 138.5 71.25 138.5C73.3211 138.5 75 140.179 75 142.25C75 144.321 73.3211 146 71.25 146Z" fill="#866FFE"/>
<path fill-rule="evenodd" clip-rule="evenodd" d="M78.4795 153.5C78.6555 153.145 78.75 152.724 78.75 152.25C78.75 150.556 77.9012 148.813 76.3301 147.6C77.0174 147.38 77.8186 147.25 78.75 147.25C83.75 147.25 85 151 85 152.25C85 153.5 83.75 153.5 83.75 153.5H78.4795Z" fill="#866FFE"/>
<path d="M79.375 146C77.6491 146 76.25 144.601 76.25 142.875C76.25 141.149 77.6491 139.75 79.375 139.75C81.1009 139.75 82.5 141.149 82.5 142.875C82.5 144.601 81.1009 146 79.375 146Z" fill="#866FFE"/>
<path d="M23.6438 156C23.9199 156 24.1438 155.776 24.1438 155.5V151.715C24.1437 150.938 24.7757 150.307 25.5585 150.302H28.4326C29.2189 150.302 29.8563 150.935 29.8563 151.715V155.5C29.8563 155.776 30.0801 156 30.3563 156L35.5 156C36.0523 156 36.5 155.552 36.5 155L36.5 143.866C36.5 143.131 36.1721 142.435 35.6046 141.964L28.943 136.674C27.7785 135.749 26.1154 135.779 24.9854 136.745L18.467 141.964C17.8728 142.421 17.5176 143.12 17.5 143.866V152.569C17.5 153.519 17.5 154.379 17.5 155C17.5 155.552 17.9477 156 18.5 156H23.6438Z" fill="#866FFE"/>
<path d="M19.244 125V116.456H18.14V125H19.244ZM23.7647 118.736C22.0007 118.736 20.8967 119.972 20.8967 121.952C20.8967 123.932 22.0007 125.168 23.7647 125.168C25.2527 125.168 26.2487 124.148 26.3687 122.756H25.2647C25.1927 123.632 24.5927 124.304 23.7527 124.304C22.6727 124.304 22.0127 123.416 22.0127 121.952C22.0127 120.5 22.6727 119.6 23.7527 119.6C24.5927 119.6 25.1927 120.2 25.2647 121.064H26.3687C26.2487 119.696 25.2287 118.736 23.7647 118.736ZM30.2872 118.736C28.4992 118.736 27.3952 119.96 27.3952 121.952C27.3952 123.944 28.4992 125.168 30.2872 125.168C32.0752 125.168 33.1912 123.944 33.1912 121.952C33.1912 119.96 32.0752 118.736 30.2872 118.736ZM30.2872 119.6C31.4032 119.6 32.0872 120.5 32.0872 121.952C32.0872 123.404 31.4032 124.304 30.2872 124.304C29.1832 124.304 28.4992 123.404 28.4992 121.952C28.4992 120.5 29.1832 119.6 30.2872 119.6ZM37.5343 118.772C36.7183 118.772 36.0583 119.144 35.6863 119.708H35.6623V118.904H34.6423V125H35.6983V121.508C35.6983 120.284 36.4183 119.636 37.2823 119.636C38.1583 119.636 38.6863 120.092 38.6863 121.364V125H39.7423V121.28C39.7423 119.612 38.9263 118.772 37.5343 118.772ZM43.5064 118.736C42.1744 118.736 41.2504 119.456 41.2504 120.5C41.2504 121.832 42.2944 122.036 43.3144 122.288C44.4904 122.576 44.9944 122.708 44.9944 123.416C44.9944 123.968 44.4664 124.328 43.6744 124.328C42.7264 124.328 42.1744 123.848 42.1744 122.972H41.1064C41.1184 124.4 42.0664 125.168 43.6624 125.168C45.1384 125.168 46.0744 124.436 46.0744 123.344C46.0744 121.928 44.8864 121.676 43.7704 121.4C42.7504 121.16 42.3064 121.052 42.3064 120.416C42.3064 119.888 42.7624 119.552 43.4944 119.552C44.3464 119.552 44.8504 119.996 44.8504 120.812H45.8824C45.8824 119.468 44.9944 118.736 43.5064 118.736ZM48.8128 120.308V118.904H47.5168V120.308H48.8128ZM48.8128 125V123.596H47.5168V125H48.8128ZM55.7734 116.288C54.0334 116.288 52.9414 117.26 52.9414 118.64C52.9414 120.356 54.1654 120.764 55.8094 121.172C57.1894 121.52 57.8974 121.76 57.8974 122.708C57.8974 123.656 57.2134 124.22 55.9894 124.22C54.7054 124.22 53.9254 123.572 53.9254 122.168H52.7854C52.7854 124.136 53.9854 125.168 55.9774 125.168C57.8374 125.168 59.0374 124.184 59.0374 122.648C59.0374 120.896 57.7534 120.488 56.1334 120.092C54.7294 119.744 54.0694 119.48 54.0694 118.568C54.0694 117.752 54.7054 117.236 55.7614 117.236C57.0214 117.236 57.7174 117.836 57.7174 119.096H58.8334C58.8334 117.248 57.8134 116.288 55.7734 116.288ZM63.0079 124.352C62.0119 124.352 61.2439 123.668 61.1959 122.168H65.7559C65.7559 121.64 65.7199 121.208 65.6359 120.86C65.3239 119.552 64.3519 118.736 62.9719 118.736C61.1959 118.736 60.1399 120.068 60.1399 121.868C60.1399 123.86 61.2079 125.168 63.0079 125.168C64.5679 125.168 65.4919 124.244 65.6959 123.176H64.6159C64.4719 123.86 63.8959 124.352 63.0079 124.352ZM62.9719 119.552C63.9079 119.552 64.6039 120.176 64.7119 121.364H61.2079C61.3159 120.2 61.9999 119.552 62.9719 119.552ZM68.2556 125V116.456H67.1996V125H68.2556ZM72.5713 124.352C71.5753 124.352 70.8073 123.668 70.7593 122.168H75.3193C75.3193 121.64 75.2833 121.208 75.1993 120.86C74.8873 119.552 73.9153 118.736 72.5353 118.736C70.7593 118.736 69.7033 120.068 69.7033 121.868C69.7033 123.86 70.7713 125.168 72.5713 125.168C74.1313 125.168 75.0553 124.244 75.2593 123.176H74.1793C74.0353 123.86 73.4593 124.352 72.5713 124.352ZM72.5353 119.552C73.4713 119.552 74.1673 120.176 74.2753 121.364H70.7713C70.8793 120.2 71.5633 119.552 72.5353 119.552ZM79.3041 118.736C77.5401 118.736 76.4361 119.972 76.4361 121.952C76.4361 123.932 77.5401 125.168 79.3041 125.168C80.7921 125.168 81.7881 124.148 81.9081 122.756H80.8041C80.7321 123.632 80.1321 124.304 79.2921 124.304C78.2121 124.304 77.5521 123.416 77.5521 121.952C77.5521 120.5 78.2121 119.6 79.2921 119.6C80.1321 119.6 80.7321 120.2 80.8041 121.064H81.9081C81.7881 119.696 80.7681 118.736 79.3041 118.736ZM85.4563 124.172C84.8443 124.172 84.6163 123.884 84.6163 123.188V119.744H85.8283V118.904H84.6163V117.428H83.5603V118.904H82.5043V119.744H83.5603V123.296C83.5603 124.556 84.0523 125.048 85.2163 125.048C85.4323 125.048 85.7083 125.024 85.8883 124.976V124.112C85.7803 124.148 85.6123 124.172 85.4563 124.172ZM89.4065 124.352C88.4105 124.352 87.6425 123.668 87.5945 122.168H92.1545C92.1545 121.64 92.1185 121.208 92.0345 120.86C91.7225 119.552 90.7505 118.736 89.3705 118.736C87.5945 118.736 86.5385 120.068 86.5385 121.868C86.5385 123.86 87.6065 125.168 89.4065 125.168C90.9665 125.168 91.8905 124.244 92.0945 123.176H91.0145C90.8705 123.86 90.2945 124.352 89.4065 124.352ZM89.3705 119.552C90.3065 119.552 91.0025 120.176 91.1105 121.364H87.6065C87.7145 120.2 88.3985 119.552 89.3705 119.552ZM98.7553 125V116.456H97.6993V119.744H97.6753C97.3393 119.132 96.6313 118.748 95.8153 118.748C94.2673 118.748 93.2713 119.996 93.2713 121.94C93.2713 123.884 94.2673 125.144 95.8273 125.144C96.6553 125.144 97.3633 124.748 97.6993 124.112H97.7233V125H98.7553ZM96.0913 119.6C97.0993 119.6 97.7593 120.5 97.7593 121.94C97.7593 123.392 97.0993 124.292 96.0913 124.292C95.0473 124.292 94.3753 123.368 94.3753 121.94C94.3753 120.512 95.0473 119.6 96.0913 119.6Z" fill="black"/>
<path d="M23.6438 76C23.9199 76 24.1438 75.7761 24.1438 75.5V71.7152C24.1437 70.9381 24.7757 70.3067 25.5585 70.3018H28.4326C29.2189 70.3018 29.8563 70.9346 29.8563 71.7152V75.5C29.8563 75.7761 30.0801 76 30.3563 76L35.5 76C36.0523 76 36.5 75.5523 36.5 75L36.5 63.8658C36.5 63.1314 36.1721 62.4347 35.6046 61.9635L28.943 56.6743C27.7785 55.7491 26.1154 55.779 24.9854 56.7454L18.467 61.9635C17.8728 62.4208 17.5176 63.1196 17.5 63.8658V72.5686C17.5 73.5188 17.5 74.3787 17.5 75.0001C17.5 75.5524 17.9477 76 18.5 76H23.6438Z" fill="#202223"/>
<path d="M19.244 40V31.456H18.14V40H19.244ZM23.7647 33.736C22.0007 33.736 20.8967 34.972 20.8967 36.952C20.8967 38.932 22.0007 40.168 23.7647 40.168C25.2527 40.168 26.2487 39.148 26.3687 37.756H25.2647C25.1927 38.632 24.5927 39.304 23.7527 39.304C22.6727 39.304 22.0127 38.416 22.0127 36.952C22.0127 35.5 22.6727 34.6 23.7527 34.6C24.5927 34.6 25.1927 35.2 25.2647 36.064H26.3687C26.2487 34.696 25.2287 33.736 23.7647 33.736ZM30.2872 33.736C28.4992 33.736 27.3952 34.96 27.3952 36.952C27.3952 38.944 28.4992 40.168 30.2872 40.168C32.0752 40.168 33.1912 38.944 33.1912 36.952C33.1912 34.96 32.0752 33.736 30.2872 33.736ZM30.2872 34.6C31.4032 34.6 32.0872 35.5 32.0872 36.952C32.0872 38.404 31.4032 39.304 30.2872 39.304C29.1832 39.304 28.4992 38.404 28.4992 36.952C28.4992 35.5 29.1832 34.6 30.2872 34.6ZM37.5343 33.772C36.7183 33.772 36.0583 34.144 35.6863 34.708H35.6623V33.904H34.6423V40H35.6983V36.508C35.6983 35.284 36.4183 34.636 37.2823 34.636C38.1583 34.636 38.6863 35.092 38.6863 36.364V40H39.7423V36.28C39.7423 34.612 38.9263 33.772 37.5343 33.772ZM43.5064 33.736C42.1744 33.736 41.2504 34.456 41.2504 35.5C41.2504 36.832 42.2944 37.036 43.3144 37.288C44.4904 37.576 44.9944 37.708 44.9944 38.416C44.9944 38.968 44.4664 39.328 43.6744 39.328C42.7264 39.328 42.1744 38.848 42.1744 37.972H41.1064C41.1184 39.4 42.0664 40.168 43.6624 40.168C45.1384 40.168 46.0744 39.436 46.0744 38.344C46.0744 36.928 44.8864 36.676 43.7704 36.4C42.7504 36.16 42.3064 36.052 42.3064 35.416C42.3064 34.888 42.7624 34.552 43.4944 34.552C44.3464 34.552 44.8504 34.996 44.8504 35.812H45.8824C45.8824 34.468 44.9944 33.736 43.5064 33.736ZM48.8128 35.308V33.904H47.5168V35.308H48.8128ZM48.8128 40V38.596H47.5168V40H48.8128ZM53.4574 31.456V40H56.0614C58.8934 40 60.4894 38.464 60.4894 35.728C60.4894 32.992 58.8934 31.456 56.0614 31.456H53.4574ZM54.5614 32.44H56.0494C58.1854 32.44 59.3254 33.592 59.3254 35.728C59.3254 37.864 58.1854 39.016 56.0494 39.016H54.5614V32.44ZM64.4845 39.352C63.4885 39.352 62.7205 38.668 62.6725 37.168H67.2325C67.2325 36.64 67.1965 36.208 67.1125 35.86C66.8005 34.552 65.8285 33.736 64.4485 33.736C62.6725 33.736 61.6165 35.068 61.6165 36.868C61.6165 38.86 62.6845 40.168 64.4845 40.168C66.0445 40.168 66.9685 39.244 67.1725 38.176H66.0925C65.9485 38.86 65.3725 39.352 64.4845 39.352ZM64.4485 34.552C65.3845 34.552 66.0805 35.176 66.1885 36.364H62.6845C62.7925 35.2 63.4765 34.552 64.4485 34.552ZM70.8961 32.236C71.0281 32.236 71.1721 32.248 71.2441 32.272V31.456C71.1001 31.42 70.8481 31.396 70.6321 31.396C69.5521 31.396 68.9641 31.972 68.9641 33.148V33.904H67.8961V34.744H68.9641V40H70.0081V34.744H71.2201V33.904H70.0081V33.268C70.0081 32.512 70.3081 32.236 70.8961 32.236ZM74.3349 33.736C72.7869 33.736 71.9469 34.612 71.8869 35.764H72.9429C72.9789 35.044 73.4469 34.552 74.3349 34.552C75.1509 34.552 75.7149 34.972 75.7149 35.98V36.22C75.2349 36.256 74.4909 36.34 73.9509 36.424C72.1989 36.7 71.6349 37.336 71.6349 38.344C71.6349 39.376 72.4269 40.132 73.6989 40.132C74.6829 40.132 75.3909 39.76 75.8109 39.112H75.8349C75.8349 39.388 75.8589 39.724 75.9189 40H76.8789C76.7949 39.628 76.7349 39.112 76.7349 38.44V36.1C76.7349 34.492 75.8229 33.736 74.3349 33.736ZM75.7149 37.396C75.7149 38.116 75.5949 38.452 75.2229 38.836C74.9229 39.148 74.4549 39.316 73.9629 39.316C73.1709 39.316 72.7149 38.896 72.7149 38.272C72.7149 37.672 73.0749 37.372 74.1189 37.216C74.5869 37.132 75.2469 37.06 75.7149 37.024V37.396ZM80.5395 40.132C81.3555 40.132 82.0275 39.76 82.3995 39.196H82.4235V40H83.4435V33.904H82.3875V37.396C82.3875 38.62 81.6555 39.268 80.8035 39.268C79.9275 39.268 79.3995 38.812 79.3995 37.54V33.904H78.3435V37.624C78.3435 39.292 79.1475 40.132 80.5395 40.132ZM86.3916 40V31.456H85.3356V40H86.3916ZM90.4313 39.172C89.8193 39.172 89.5913 38.884 89.5913 38.188V34.744H90.8033V33.904H89.5913V32.428H88.5353V33.904H87.4793V34.744H88.5353V38.296C88.5353 39.556 89.0273 40.048 90.1913 40.048C90.4073 40.048 90.6833 40.024 90.8633 39.976V39.112C90.7553 39.148 90.5873 39.172 90.4313 39.172Z" fill="black"/>
<path d="M267 79C268.153 79 269.086 78.0893 269.086 76.9637H264.914C264.914 78.0893 265.847 79 267 79ZM275.69 74.1805L274.337 72.8605V66.7209C274.337 63.293 271.864 60.4279 268.572 59.7321V58.5349C268.572 57.6856 267.87 57 267 57C266.13 57 265.428 57.6856 265.428 58.5349V59.7321C262.137 60.4279 259.663 63.293 259.663 66.7209V72.8605L258.311 74.1805C257.65 74.8251 258.112 75.9302 259.044 75.9302H274.945C275.889 75.9302 276.35 74.8251 275.69 74.1805Z" fill="#5C5F62"/>
<path d="M211.5 65.5C211.5 61.3579 214.858 58 219 58C223.142 58 226.5 61.3579 226.5 65.5C226.5 67.6141 225.625 69.5247 224.218 70.8873C223.964 71.1331 223.769 71.3884 223.652 71.6609L222.699 73.8723C222.6 74.1015 222.375 74.25 222.125 74.25H215.875C215.625 74.25 215.4 74.1015 215.301 73.8723L214.348 71.6609C214.231 71.3884 214.036 71.1331 213.782 70.8873C212.375 69.5247 211.5 67.6141 211.5 65.5Z" fill="#5C5F62"/>
<path d="M215.25 76.125C215.25 75.7798 215.53 75.5 215.875 75.5H222.125C222.47 75.5 222.75 75.7798 222.75 76.125C222.75 76.4702 222.47 76.75 222.125 76.75L221.845 77.309C221.634 77.7325 221.201 78 220.727 78H217.273C216.799 78 216.366 77.7325 216.155 77.309L215.875 76.75C215.53 76.75 215.25 76.4702 215.25 76.125Z" fill="#5C5F62"/>
<path d="M180 64.4C180.497 64.4 180.9 63.9971 180.9 63.5C180.9 63.0029 180.497 62.6 180 62.6V64.4ZM168.389 62.6H167.489V64.4H168.389V62.6ZM180 62.6H168.389V64.4H180V62.6Z" fill="#5C5F62"/>
<circle cx="164.5" cy="63.5" r="3.5" fill="#5C5F62"/>
<path d="M162 71.6C161.503 71.6 161.1 72.0029 161.1 72.5C161.1 72.9971 161.503 73.4 162 73.4V71.6ZM173.611 73.4H174.511V71.6H173.611V73.4ZM162 73.4H173.611V71.6H162V73.4Z" fill="#5C5F62"/>
<circle cx="177.5" cy="72.5" r="3.5" transform="rotate(-180 177.5 72.5)" fill="#5C5F62"/>
<path d="M113.375 72.125C113.375 71.3656 113.991 70.75 114.75 70.75H117.5C118.259 70.75 118.875 71.3656 118.875 72.125V76.25C118.875 77.0094 118.259 77.625 117.5 77.625H114.75C113.991 77.625 113.375 77.0094 113.375 76.25V72.125Z" fill="#5C5F62"/>
<path d="M120.25 66.625C120.25 65.8656 120.866 65.25 121.625 65.25H124.375C125.134 65.25 125.75 65.8656 125.75 66.625V76.25C125.75 77.0094 125.134 77.625 124.375 77.625H121.625C120.866 77.625 120.25 77.0094 120.25 76.25V66.625Z" fill="#5C5F62"/>
<path d="M127.125 59.75C127.125 58.9906 127.741 58.375 128.5 58.375H131.25C132.009 58.375 132.625 58.9906 132.625 59.75V76.25C132.625 77.0094 132.009 77.625 131.25 77.625H128.5C127.741 77.625 127.125 77.0094 127.125 76.25V59.75Z" fill="#5C5F62"/>
<path d="M76.25 75.5C76.25 75.5 77.5 75.5 77.5 74.25C77.5 73 76.25 69.25 71.25 69.25C66.25 69.25 65 73 65 74.25C65 75.5 66.25 75.5 66.25 75.5H76.25Z" fill="#5C5F62"/>
<path d="M71.25 68C69.1789 68 67.5 66.3211 67.5 64.25C67.5 62.1789 69.1789 60.5 71.25 60.5C73.3211 60.5 75 62.1789 75 64.25C75 66.3211 73.3211 68 71.25 68Z" fill="#5C5F62"/>
<path fill-rule="evenodd" clip-rule="evenodd" d="M78.4795 75.5C78.6555 75.1449 78.75 74.7239 78.75 74.25C78.75 72.5557 77.9012 70.8132 76.3301 69.6C77.0174 69.3801 77.8186 69.25 78.75 69.25C83.75 69.25 85 73 85 74.25C85 75.5 83.75 75.5 83.75 75.5H78.4795Z" fill="#5C5F62"/>
<path d="M79.375 68C77.6491 68 76.25 66.6009 76.25 64.875C76.25 63.1491 77.6491 61.75 79.375 61.75C81.1009 61.75 82.5 63.1491 82.5 64.875C82.5 66.6009 81.1009 68 79.375 68Z" fill="#5C5F62"/>
</svg>
