<svg width="24" height="24" viewBox="0 0 24 24" fill="none" xmlns="http://www.w3.org/2000/svg">
<path d="M12.0002 23C13.1532 23 14.0861 22.0893 14.0861 20.9637H9.9143C9.9143 22.0893 10.8472 23 12.0002 23ZM20.6896 18.1805L19.3374 16.8605V10.7209C19.3374 7.29302 16.8637 4.42791 13.5724 3.73209V2.53488C13.5724 1.68558 12.8702 1 12.0002 1C11.1302 1 10.4279 1.68558 10.4279 2.53488V3.73209C7.13662 4.42791 4.66291 7.29302 4.66291 10.7209V16.8605L3.31076 18.1805C2.65041 18.8251 3.11161 19.9302 4.04449 19.9302H19.9454C20.8888 19.9302 21.35 18.8251 20.6896 18.1805Z" fill="#866ffe"/>
</svg>
