<svg width="28" height="28" viewBox="0 0 28 28" fill="none" xmlns="http://www.w3.org/2000/svg">
<path fill-rule="evenodd" clip-rule="evenodd" d="M13.3551 1.69521C10.3837 4.09012 7.74023 5.58583 3.9166 5.80529C3.36522 5.83694 2.91513 6.29433 2.92597 6.84651C3.27543 24.6384 12.8201 26.6488 13.9003 26.8195C13.9694 26.8304 14.0295 26.8304 14.0987 26.8195C15.1788 26.6488 24.7234 24.6384 25.073 6.84651C25.0838 6.29433 24.6337 5.83694 24.0823 5.80529C20.2587 5.58583 17.6153 4.09012 14.6438 1.69521C14.268 1.39229 13.731 1.39229 13.3551 1.69521ZM19.3025 11.7198C19.654 11.3683 19.654 10.7984 19.3025 10.447C18.9511 10.0955 18.3812 10.0955 18.0297 10.447L12.8328 15.6439L10.5525 13.3636C10.2011 13.0122 9.63121 13.0122 9.27974 13.3636C8.92826 13.7151 8.92826 14.2849 9.27974 14.6364L12.1964 17.5531C12.3652 17.7219 12.5941 17.8167 12.8328 17.8167C13.0715 17.8167 13.3004 17.7219 13.4692 17.5531L19.3025 11.7198Z" fill="#866FFE"/>
</svg>
