<svg width="24" height="24" viewBox="0 0 24 24" fill="none" xmlns="http://www.w3.org/2000/svg">
<mask id="path-1-inside-1" fill="white">
<path d="M23.9599 21.9996C24.014 23.1028 23.1046 24 22 24H2C0.89543 24 -0.0140212 23.1028 0.0400842 21.9996C0.285727 16.9908 1.93428 13.2002 12 13.2002C22.0657 13.2002 23.7143 16.9908 23.9599 21.9996Z"/>
</mask>
<path d="M23.9599 21.9996L21.9623 22.0976L23.9599 21.9996ZM2.03768 22.0976C2.15437 19.7182 2.5958 18.2073 3.69572 17.1897C4.83727 16.1336 7.13234 15.2002 12 15.2002V11.2002C6.80194 11.2002 3.23988 12.1621 0.979304 14.2535C-1.32289 16.3834 -1.82856 19.2722 -1.95752 21.9016L2.03768 22.0976ZM12 15.2002C16.8677 15.2002 19.1627 16.1336 20.3043 17.1897C21.4042 18.2073 21.8456 19.7182 21.9623 22.0976L25.9575 21.9016C25.8286 19.2722 25.3229 16.3834 23.0207 14.2535C20.7601 12.1621 17.1981 11.2002 12 11.2002V15.2002ZM22 22H2V26H22V22ZM-1.95752 21.9016C-2.07129 24.2216 -0.171008 26 2 26V22C1.9953 22 1.99948 21.999 2.00663 22.0062C2.01099 22.0106 2.0197 22.0211 2.02722 22.0401C2.03555 22.0611 2.03841 22.0827 2.03768 22.0976L-1.95752 21.9016ZM21.9623 22.0976C21.9616 22.0827 21.9644 22.0611 21.9728 22.0401C21.9803 22.0211 21.989 22.0106 21.9934 22.0062C22.0005 21.999 22.0047 22 22 22V26C24.171 26 26.0713 24.2216 25.9575 21.9016L21.9623 22.0976Z" fill="#707070" mask="url(#path-1-inside-1)"/>
<circle cx="12" cy="6" r="5" stroke="#707070" stroke-width="2"/>
</svg>
