<svg width="24" height="24" viewBox="0 0 24 24" fill="none" xmlns="http://www.w3.org/2000/svg">
<path d="M13.25 19.5C13.25 19.5 14.5 19.5 14.5 18.25C14.5 17 13.25 13.25 8.25 13.25C3.25 13.25 2 17 2 18.25C2 19.5 3.25 19.5 3.25 19.5H13.25Z" fill="#202223"/>
<path d="M8.25 12C6.17893 12 4.5 10.3211 4.5 8.25C4.5 6.17893 6.17893 4.5 8.25 4.5C10.3211 4.5 12 6.17893 12 8.25C12 10.3211 10.3211 12 8.25 12Z" fill="#202223"/>
<path fill-rule="evenodd" clip-rule="evenodd" d="M15.4795 19.5C15.6555 19.1449 15.75 18.7239 15.75 18.25C15.75 16.5557 14.9012 14.8132 13.3301 13.6C14.0174 13.3801 14.8186 13.25 15.75 13.25C20.75 13.25 22 17 22 18.25C22 19.5 20.75 19.5 20.75 19.5H15.4795Z" fill="#202223"/>
<path d="M16.375 12C14.6491 12 13.25 10.6009 13.25 8.875C13.25 7.14911 14.6491 5.75 16.375 5.75C18.1009 5.75 19.5 7.14911 19.5 8.875C19.5 10.6009 18.1009 12 16.375 12Z" fill="#202223"/>
</svg>
