<svg width="120" height="113" viewBox="0 0 120 113" fill="none" xmlns="http://www.w3.org/2000/svg">
<path d="M64.5 105C91.2858 105 113 83.2858 113 56.5C113 29.7142 91.2858 8 64.5 8C37.7142 8 16 29.7142 16 56.5C16 83.2858 37.7142 105 64.5 105Z" fill="#EAEEF9"/>
<path d="M14.4688 106.518H113.133" stroke="#EBF0F6" stroke-width="2" stroke-miterlimit="10" stroke-linecap="round" stroke-linejoin="round"/>
<path d="M85.3303 105.746C77.9932 105.939 69.208 105.746 63.0294 105.649C56.8508 105.842 48.0656 105.939 40.7285 105.746C47.9691 101.597 50.4791 93.9737 50.8653 88.9561H75.097C75.5797 93.9737 78.0898 101.597 85.3303 105.746Z" fill="url(#paint0_linear)"/>
<path d="M41.5003 107H84.5574C85.1367 107 85.7159 106.518 85.7159 105.842C85.7159 105.263 85.2332 104.684 84.5574 104.684H41.5003C40.921 104.684 40.3418 105.167 40.3418 105.842C40.3418 106.518 40.8245 107 41.5003 107Z" fill="#EBF0F6"/>
<path d="M108.885 25.079V88.0877C108.885 89.6316 107.63 90.7895 106.182 90.7895H20.3574C18.9093 90.7895 17.6543 89.5351 17.6543 88.0877V25.079C17.6543 23.6316 18.9093 22.3772 20.3574 22.3772H106.182C107.63 22.3772 108.885 23.5351 108.885 25.079Z" fill="#F5F8FF"/>
<path d="M108.885 25.079V79.4035H17.6543V25.079C17.6543 23.6316 18.9093 22.3772 20.3574 22.3772H106.182C107.63 22.3772 108.885 23.5351 108.885 25.079Z" fill="#172D45"/>
<path d="M105.313 25.7544H20.6465V76.3158H105.313V25.7544Z" fill="white"/>
<path d="M63.029 87.6053C64.2553 87.6053 65.2495 86.6116 65.2495 85.386C65.2495 84.1603 64.2553 83.1667 63.029 83.1667C61.8027 83.1667 60.8086 84.1603 60.8086 85.386C60.8086 86.6116 61.8027 87.6053 63.029 87.6053Z" fill="#DBDFE6"/>
<path d="M24.0089 68.5965H23.0781C22.802 68.5965 22.5781 68.8204 22.5781 69.0965V70.0264C22.5781 70.3025 22.802 70.5264 23.0781 70.5264H24.0089C24.2851 70.5264 24.5089 70.3025 24.5089 70.0264V69.0965C24.5089 68.8204 24.2851 68.5965 24.0089 68.5965Z" fill="#EAEEF9"/>
<path d="M24.0089 64.7369H23.0781C22.802 64.7369 22.5781 64.9607 22.5781 65.2369V66.1667C22.5781 66.4428 22.802 66.6667 23.0781 66.6667H24.0089C24.2851 66.6667 24.5089 66.4428 24.5089 66.1667V65.2369C24.5089 64.9607 24.2851 64.7369 24.0089 64.7369Z" fill="#EAEEF9"/>
<path d="M24.0089 60.9737H23.0781C22.802 60.9737 22.5781 61.1976 22.5781 61.4737V62.4035C22.5781 62.6797 22.802 62.9035 23.0781 62.9035H24.0089C24.2851 62.9035 24.5089 62.6797 24.5089 62.4035V61.4737C24.5089 61.1976 24.2851 60.9737 24.0089 60.9737Z" fill="#EAEEF9"/>
<path d="M24.0089 57.2106H23.0781C22.802 57.2106 22.5781 57.4344 22.5781 57.7106V58.6404C22.5781 58.9165 22.802 59.1404 23.0781 59.1404H24.0089C24.2851 59.1404 24.5089 58.9165 24.5089 58.6404V57.7106C24.5089 57.4344 24.2851 57.2106 24.0089 57.2106Z" fill="url(#paint1_linear)"/>
<path d="M24.0089 53.3509H23.0781C22.802 53.3509 22.5781 53.5748 22.5781 53.8509V54.7807C22.5781 55.0569 22.802 55.2807 23.0781 55.2807H24.0089C24.2851 55.2807 24.5089 55.0569 24.5089 54.7807V53.8509C24.5089 53.5748 24.2851 53.3509 24.0089 53.3509Z" fill="#EAEEF9"/>
<path d="M24.0089 49.5877H23.0781C22.802 49.5877 22.5781 49.8116 22.5781 50.0877V51.0176C22.5781 51.2937 22.802 51.5176 23.0781 51.5176H24.0089C24.2851 51.5176 24.5089 51.2937 24.5089 51.0176V50.0877C24.5089 49.8116 24.2851 49.5877 24.0089 49.5877Z" fill="#F3F5FA"/>
<path d="M27.9679 72.3597H27.0371C26.761 72.3597 26.5371 72.5835 26.5371 72.8597V73.7895C26.5371 74.0656 26.761 74.2895 27.0371 74.2895H27.9679C28.2441 74.2895 28.4679 74.0656 28.4679 73.7895V72.8597C28.4679 72.5835 28.2441 72.3597 27.9679 72.3597Z" fill="#EAEEF9"/>
<path d="M27.9679 68.5965H27.0371C26.761 68.5965 26.5371 68.8204 26.5371 69.0965V70.0264C26.5371 70.3025 26.761 70.5264 27.0371 70.5264H27.9679C28.2441 70.5264 28.4679 70.3025 28.4679 70.0264V69.0965C28.4679 68.8204 28.2441 68.5965 27.9679 68.5965Z" fill="#EAEEF9"/>
<path d="M27.9679 60.9737H27.0371C26.761 60.9737 26.5371 61.1976 26.5371 61.4737V62.4035C26.5371 62.6797 26.761 62.9035 27.0371 62.9035H27.9679C28.2441 62.9035 28.4679 62.6797 28.4679 62.4035V61.4737C28.4679 61.1976 28.2441 60.9737 27.9679 60.9737Z" fill="#EAEEF9"/>
<path d="M27.9679 57.2106H27.0371C26.761 57.2106 26.5371 57.4344 26.5371 57.7106V58.6404C26.5371 58.9165 26.761 59.1404 27.0371 59.1404H27.9679C28.2441 59.1404 28.4679 58.9165 28.4679 58.6404V57.7106C28.4679 57.4344 28.2441 57.2106 27.9679 57.2106Z" fill="#EAEEF9"/>
<path d="M27.9679 53.3509H27.0371C26.761 53.3509 26.5371 53.5748 26.5371 53.8509V54.7807C26.5371 55.0569 26.761 55.2807 27.0371 55.2807H27.9679C28.2441 55.2807 28.4679 55.0569 28.4679 54.7807V53.8509C28.4679 53.5748 28.2441 53.3509 27.9679 53.3509Z" fill="#EAEEF9"/>
<path d="M27.9679 49.5877H27.0371C26.761 49.5877 26.5371 49.8116 26.5371 50.0877V51.0176C26.5371 51.2937 26.761 51.5176 27.0371 51.5176H27.9679C28.2441 51.5176 28.4679 51.2937 28.4679 51.0176V50.0877C28.4679 49.8116 28.2441 49.5877 27.9679 49.5877Z" fill="#EAEEF9"/>
<path d="M27.9679 45.8246H27.0371C26.761 45.8246 26.5371 46.0484 26.5371 46.3246V47.2544C26.5371 47.5305 26.761 47.7544 27.0371 47.7544H27.9679C28.2441 47.7544 28.4679 47.5305 28.4679 47.2544V46.3246C28.4679 46.0484 28.2441 45.8246 27.9679 45.8246Z" fill="#EAEEF9"/>
<path d="M27.9679 41.9649H27.0371C26.761 41.9649 26.5371 42.1888 26.5371 42.4649V43.3948C26.5371 43.6709 26.761 43.8948 27.0371 43.8948H27.9679C28.2441 43.8948 28.4679 43.6709 28.4679 43.3948V42.4649C28.4679 42.1888 28.2441 41.9649 27.9679 41.9649Z" fill="url(#paint2_linear)"/>
<path d="M31.925 72.3597H30.9941C30.718 72.3597 30.4941 72.5835 30.4941 72.8597V73.7895C30.4941 74.0656 30.718 74.2895 30.9941 74.2895H31.925C32.2011 74.2895 32.425 74.0656 32.425 73.7895V72.8597C32.425 72.5835 32.2011 72.3597 31.925 72.3597Z" fill="#EAEEF9"/>
<path d="M31.925 68.5965H30.9941C30.718 68.5965 30.4941 68.8204 30.4941 69.0965V70.0264C30.4941 70.3025 30.718 70.5264 30.9941 70.5264H31.925C32.2011 70.5264 32.425 70.3025 32.425 70.0264V69.0965C32.425 68.8204 32.2011 68.5965 31.925 68.5965Z" fill="#EAEEF9"/>
<path d="M31.925 64.7369H30.9941C30.718 64.7369 30.4941 64.9607 30.4941 65.2369V66.1667C30.4941 66.4428 30.718 66.6667 30.9941 66.6667H31.925C32.2011 66.6667 32.425 66.4428 32.425 66.1667V65.2369C32.425 64.9607 32.2011 64.7369 31.925 64.7369Z" fill="#EAEEF9"/>
<path d="M31.925 60.9737H30.9941C30.718 60.9737 30.4941 61.1976 30.4941 61.4737V62.4035C30.4941 62.6797 30.718 62.9035 30.9941 62.9035H31.925C32.2011 62.9035 32.425 62.6797 32.425 62.4035V61.4737C32.425 61.1976 32.2011 60.9737 31.925 60.9737Z" fill="#EAEEF9"/>
<path d="M31.925 57.2106H30.9941C30.718 57.2106 30.4941 57.4344 30.4941 57.7106V58.6404C30.4941 58.9165 30.718 59.1404 30.9941 59.1404H31.925C32.2011 59.1404 32.425 58.9165 32.425 58.6404V57.7106C32.425 57.4344 32.2011 57.2106 31.925 57.2106Z" fill="url(#paint3_linear)"/>
<path d="M31.925 53.3509H30.9941C30.718 53.3509 30.4941 53.5748 30.4941 53.8509V54.7807C30.4941 55.0569 30.718 55.2807 30.9941 55.2807H31.925C32.2011 55.2807 32.425 55.0569 32.425 54.7807V53.8509C32.425 53.5748 32.2011 53.3509 31.925 53.3509Z" fill="#F3F5FA"/>
<path d="M31.925 49.5877H30.9941C30.718 49.5877 30.4941 49.8116 30.4941 50.0877V51.0176C30.4941 51.2937 30.718 51.5176 30.9941 51.5176H31.925C32.2011 51.5176 32.425 51.2937 32.425 51.0176V50.0877C32.425 49.8116 32.2011 49.5877 31.925 49.5877Z" fill="#EAEEF9"/>
<path d="M31.925 45.8246H30.9941C30.718 45.8246 30.4941 46.0484 30.4941 46.3246V47.2544C30.4941 47.5305 30.718 47.7544 30.9941 47.7544H31.925C32.2011 47.7544 32.425 47.5305 32.425 47.2544V46.3246C32.425 46.0484 32.2011 45.8246 31.925 45.8246Z" fill="#F3F5FA"/>
<path d="M31.925 41.9649H30.9941C30.718 41.9649 30.4941 42.1888 30.4941 42.4649V43.3948C30.4941 43.6709 30.718 43.8948 30.9941 43.8948H31.925C32.2011 43.8948 32.425 43.6709 32.425 43.3948V42.4649C32.425 42.1888 32.2011 41.9649 31.925 41.9649Z" fill="#EAEEF9"/>
<path d="M31.925 38.2018H30.9941C30.718 38.2018 30.4941 38.4256 30.4941 38.7018V39.6316C30.4941 39.9077 30.718 40.1316 30.9941 40.1316H31.925C32.2011 40.1316 32.425 39.9077 32.425 39.6316V38.7018C32.425 38.4256 32.2011 38.2018 31.925 38.2018Z" fill="#F3F5FA"/>
<path d="M35.7863 72.3597H34.8555C34.5793 72.3597 34.3555 72.5835 34.3555 72.8597V73.7895C34.3555 74.0656 34.5793 74.2895 34.8555 74.2895H35.7863C36.0624 74.2895 36.2863 74.0656 36.2863 73.7895V72.8597C36.2863 72.5835 36.0624 72.3597 35.7863 72.3597Z" fill="#EAEEF9"/>
<path d="M35.7863 68.5965H34.8555C34.5793 68.5965 34.3555 68.8204 34.3555 69.0965V70.0264C34.3555 70.3025 34.5793 70.5264 34.8555 70.5264H35.7863C36.0624 70.5264 36.2863 70.3025 36.2863 70.0264V69.0965C36.2863 68.8204 36.0624 68.5965 35.7863 68.5965Z" fill="#EAEEF9"/>
<path d="M35.7863 64.7369H34.8555C34.5793 64.7369 34.3555 64.9607 34.3555 65.2369V66.1667C34.3555 66.4428 34.5793 66.6667 34.8555 66.6667H35.7863C36.0624 66.6667 36.2863 66.4428 36.2863 66.1667V65.2369C36.2863 64.9607 36.0624 64.7369 35.7863 64.7369Z" fill="url(#paint4_linear)"/>
<path d="M35.7863 60.9737H34.8555C34.5793 60.9737 34.3555 61.1976 34.3555 61.4737V62.4035C34.3555 62.6797 34.5793 62.9035 34.8555 62.9035H35.7863C36.0624 62.9035 36.2863 62.6797 36.2863 62.4035V61.4737C36.2863 61.1976 36.0624 60.9737 35.7863 60.9737Z" fill="#EAEEF9"/>
<path d="M35.7863 57.2106H34.8555C34.5793 57.2106 34.3555 57.4344 34.3555 57.7106V58.6404C34.3555 58.9165 34.5793 59.1404 34.8555 59.1404H35.7863C36.0624 59.1404 36.2863 58.9165 36.2863 58.6404V57.7106C36.2863 57.4344 36.0624 57.2106 35.7863 57.2106Z" fill="#EAEEF9"/>
<path d="M35.7863 53.3509H34.8555C34.5793 53.3509 34.3555 53.5748 34.3555 53.8509V54.7807C34.3555 55.0569 34.5793 55.2807 34.8555 55.2807H35.7863C36.0624 55.2807 36.2863 55.0569 36.2863 54.7807V53.8509C36.2863 53.5748 36.0624 53.3509 35.7863 53.3509Z" fill="#F3F5FA"/>
<path d="M35.7863 49.5877H34.8555C34.5793 49.5877 34.3555 49.8116 34.3555 50.0877V51.0176C34.3555 51.2937 34.5793 51.5176 34.8555 51.5176H35.7863C36.0624 51.5176 36.2863 51.2937 36.2863 51.0176V50.0877C36.2863 49.8116 36.0624 49.5877 35.7863 49.5877Z" fill="#EAEEF9"/>
<path d="M35.7863 45.8246H34.8555C34.5793 45.8246 34.3555 46.0484 34.3555 46.3246V47.2544C34.3555 47.5305 34.5793 47.7544 34.8555 47.7544H35.7863C36.0624 47.7544 36.2863 47.5305 36.2863 47.2544V46.3246C36.2863 46.0484 36.0624 45.8246 35.7863 45.8246Z" fill="#EAEEF9"/>
<path d="M39.7453 72.3597H38.8145C38.5383 72.3597 38.3145 72.5835 38.3145 72.8597V73.7895C38.3145 74.0656 38.5383 74.2895 38.8145 74.2895H39.7453C40.0214 74.2895 40.2453 74.0656 40.2453 73.7895V72.8597C40.2453 72.5835 40.0214 72.3597 39.7453 72.3597Z" fill="#EAEEF9"/>
<path d="M39.7453 68.5965H38.8145C38.5383 68.5965 38.3145 68.8204 38.3145 69.0965V70.0264C38.3145 70.3025 38.5383 70.5264 38.8145 70.5264H39.7453C40.0214 70.5264 40.2453 70.3025 40.2453 70.0264V69.0965C40.2453 68.8204 40.0214 68.5965 39.7453 68.5965Z" fill="#EAEEF9"/>
<path d="M39.7453 64.7369H38.8145C38.5383 64.7369 38.3145 64.9607 38.3145 65.2369V66.1667C38.3145 66.4428 38.5383 66.6667 38.8145 66.6667H39.7453C40.0214 66.6667 40.2453 66.4428 40.2453 66.1667V65.2369C40.2453 64.9607 40.0214 64.7369 39.7453 64.7369Z" fill="#EAEEF9"/>
<path d="M39.7453 57.2106H38.8145C38.5383 57.2106 38.3145 57.4344 38.3145 57.7106V58.6404C38.3145 58.9165 38.5383 59.1404 38.8145 59.1404H39.7453C40.0214 59.1404 40.2453 58.9165 40.2453 58.6404V57.7106C40.2453 57.4344 40.0214 57.2106 39.7453 57.2106Z" fill="#EAEEF9"/>
<path d="M39.7453 53.3509H38.8145C38.5383 53.3509 38.3145 53.5748 38.3145 53.8509V54.7807C38.3145 55.0569 38.5383 55.2807 38.8145 55.2807H39.7453C40.0214 55.2807 40.2453 55.0569 40.2453 54.7807V53.8509C40.2453 53.5748 40.0214 53.3509 39.7453 53.3509Z" fill="url(#paint5_linear)"/>
<path d="M39.7453 49.5877H38.8145C38.5383 49.5877 38.3145 49.8116 38.3145 50.0877V51.0176C38.3145 51.2937 38.5383 51.5176 38.8145 51.5176H39.7453C40.0214 51.5176 40.2453 51.2937 40.2453 51.0176V50.0877C40.2453 49.8116 40.0214 49.5877 39.7453 49.5877Z" fill="#F3F5FA"/>
<path d="M43.7043 72.3597H42.7734C42.4973 72.3597 42.2734 72.5835 42.2734 72.8597V73.7895C42.2734 74.0656 42.4973 74.2895 42.7734 74.2895H43.7043C43.9804 74.2895 44.2043 74.0656 44.2043 73.7895V72.8597C44.2043 72.5835 43.9804 72.3597 43.7043 72.3597Z" fill="#EAEEF9"/>
<path d="M43.7043 68.5965H42.7734C42.4973 68.5965 42.2734 68.8204 42.2734 69.0965V70.0264C42.2734 70.3025 42.4973 70.5264 42.7734 70.5264H43.7043C43.9804 70.5264 44.2043 70.3025 44.2043 70.0264V69.0965C44.2043 68.8204 43.9804 68.5965 43.7043 68.5965Z" fill="#EAEEF9"/>
<path d="M43.7043 64.7369H42.7734C42.4973 64.7369 42.2734 64.9607 42.2734 65.2369V66.1667C42.2734 66.4428 42.4973 66.6667 42.7734 66.6667H43.7043C43.9804 66.6667 44.2043 66.4428 44.2043 66.1667V65.2369C44.2043 64.9607 43.9804 64.7369 43.7043 64.7369Z" fill="#EAEEF9"/>
<path d="M43.7043 60.9737H42.7734C42.4973 60.9737 42.2734 61.1976 42.2734 61.4737V62.4035C42.2734 62.6797 42.4973 62.9035 42.7734 62.9035H43.7043C43.9804 62.9035 44.2043 62.6797 44.2043 62.4035V61.4737C44.2043 61.1976 43.9804 60.9737 43.7043 60.9737Z" fill="#EAEEF9"/>
<path d="M43.7043 57.2106H42.7734C42.4973 57.2106 42.2734 57.4344 42.2734 57.7106V58.6404C42.2734 58.9165 42.4973 59.1404 42.7734 59.1404H43.7043C43.9804 59.1404 44.2043 58.9165 44.2043 58.6404V57.7106C44.2043 57.4344 43.9804 57.2106 43.7043 57.2106Z" fill="#EAEEF9"/>
<path d="M43.7043 53.3509H42.7734C42.4973 53.3509 42.2734 53.5748 42.2734 53.8509V54.7807C42.2734 55.0569 42.4973 55.2807 42.7734 55.2807H43.7043C43.9804 55.2807 44.2043 55.0569 44.2043 54.7807V53.8509C44.2043 53.5748 43.9804 53.3509 43.7043 53.3509Z" fill="#EAEEF9"/>
<path d="M43.7043 49.5877H42.7734C42.4973 49.5877 42.2734 49.8116 42.2734 50.0877V51.0176C42.2734 51.2937 42.4973 51.5176 42.7734 51.5176H43.7043C43.9804 51.5176 44.2043 51.2937 44.2043 51.0176V50.0877C44.2043 49.8116 43.9804 49.5877 43.7043 49.5877Z" fill="#F3F5FA"/>
<path d="M43.7043 45.8246H42.7734C42.4973 45.8246 42.2734 46.0484 42.2734 46.3246V47.2544C42.2734 47.5305 42.4973 47.7544 42.7734 47.7544H43.7043C43.9804 47.7544 44.2043 47.5305 44.2043 47.2544V46.3246C44.2043 46.0484 43.9804 45.8246 43.7043 45.8246Z" fill="#EAEEF9"/>
<path d="M43.7043 41.9649H42.7734C42.4973 41.9649 42.2734 42.1888 42.2734 42.4649V43.3948C42.2734 43.6709 42.4973 43.8948 42.7734 43.8948H43.7043C43.9804 43.8948 44.2043 43.6709 44.2043 43.3948V42.4649C44.2043 42.1888 43.9804 41.9649 43.7043 41.9649Z" fill="#EAEEF9"/>
<path d="M47.6613 72.3597H46.7305C46.4543 72.3597 46.2305 72.5835 46.2305 72.8597V73.7895C46.2305 74.0656 46.4543 74.2895 46.7305 74.2895H47.6613C47.9374 74.2895 48.1613 74.0656 48.1613 73.7895V72.8597C48.1613 72.5835 47.9374 72.3597 47.6613 72.3597Z" fill="#EAEEF9"/>
<path d="M47.6613 68.5965H46.7305C46.4543 68.5965 46.2305 68.8204 46.2305 69.0965V70.0264C46.2305 70.3025 46.4543 70.5264 46.7305 70.5264H47.6613C47.9374 70.5264 48.1613 70.3025 48.1613 70.0264V69.0965C48.1613 68.8204 47.9374 68.5965 47.6613 68.5965Z" fill="#EAEEF9"/>
<path d="M47.6613 64.7369H46.7305C46.4543 64.7369 46.2305 64.9607 46.2305 65.2369V66.1667C46.2305 66.4428 46.4543 66.6667 46.7305 66.6667H47.6613C47.9374 66.6667 48.1613 66.4428 48.1613 66.1667V65.2369C48.1613 64.9607 47.9374 64.7369 47.6613 64.7369Z" fill="#EAEEF9"/>
<path d="M47.6613 57.2106H46.7305C46.4543 57.2106 46.2305 57.4344 46.2305 57.7106V58.6404C46.2305 58.9165 46.4543 59.1404 46.7305 59.1404H47.6613C47.9374 59.1404 48.1613 58.9165 48.1613 58.6404V57.7106C48.1613 57.4344 47.9374 57.2106 47.6613 57.2106Z" fill="#EAEEF9"/>
<path d="M47.6613 53.3509H46.7305C46.4543 53.3509 46.2305 53.5748 46.2305 53.8509V54.7807C46.2305 55.0569 46.4543 55.2807 46.7305 55.2807H47.6613C47.9374 55.2807 48.1613 55.0569 48.1613 54.7807V53.8509C48.1613 53.5748 47.9374 53.3509 47.6613 53.3509Z" fill="#F3F5FA"/>
<path d="M51.6203 72.3597H50.6895C50.4133 72.3597 50.1895 72.5835 50.1895 72.8597V73.7895C50.1895 74.0656 50.4133 74.2895 50.6895 74.2895H51.6203C51.8964 74.2895 52.1203 74.0656 52.1203 73.7895V72.8597C52.1203 72.5835 51.8964 72.3597 51.6203 72.3597Z" fill="url(#paint6_linear)"/>
<path d="M51.6203 68.5965H50.6895C50.4133 68.5965 50.1895 68.8204 50.1895 69.0965V70.0264C50.1895 70.3025 50.4133 70.5264 50.6895 70.5264H51.6203C51.8964 70.5264 52.1203 70.3025 52.1203 70.0264V69.0965C52.1203 68.8204 51.8964 68.5965 51.6203 68.5965Z" fill="#EAEEF9"/>
<path d="M51.6203 64.7369H50.6895C50.4133 64.7369 50.1895 64.9607 50.1895 65.2369V66.1667C50.1895 66.4428 50.4133 66.6667 50.6895 66.6667H51.6203C51.8964 66.6667 52.1203 66.4428 52.1203 66.1667V65.2369C52.1203 64.9607 51.8964 64.7369 51.6203 64.7369Z" fill="#EAEEF9"/>
<path d="M51.6203 60.9737H50.6895C50.4133 60.9737 50.1895 61.1976 50.1895 61.4737V62.4035C50.1895 62.6797 50.4133 62.9035 50.6895 62.9035H51.6203C51.8964 62.9035 52.1203 62.6797 52.1203 62.4035V61.4737C52.1203 61.1976 51.8964 60.9737 51.6203 60.9737Z" fill="#F3F5FA"/>
<path d="M51.6203 57.2106H50.6895C50.4133 57.2106 50.1895 57.4344 50.1895 57.7106V58.6404C50.1895 58.9165 50.4133 59.1404 50.6895 59.1404H51.6203C51.8964 59.1404 52.1203 58.9165 52.1203 58.6404V57.7106C52.1203 57.4344 51.8964 57.2106 51.6203 57.2106Z" fill="#EAEEF9"/>
<path d="M51.6203 49.5877H50.6895C50.4133 49.5877 50.1895 49.8116 50.1895 50.0877V51.0176C50.1895 51.2937 50.4133 51.5176 50.6895 51.5176H51.6203C51.8964 51.5176 52.1203 51.2937 52.1203 51.0176V50.0877C52.1203 49.8116 51.8964 49.5877 51.6203 49.5877Z" fill="#EAEEF9"/>
<path d="M51.6203 45.8246H50.6895C50.4133 45.8246 50.1895 46.0484 50.1895 46.3246V47.2544C50.1895 47.5305 50.4133 47.7544 50.6895 47.7544H51.6203C51.8964 47.7544 52.1203 47.5305 52.1203 47.2544V46.3246C52.1203 46.0484 51.8964 45.8246 51.6203 45.8246Z" fill="#F3F5FA"/>
<path d="M55.5773 72.3597H54.6465C54.3703 72.3597 54.1465 72.5835 54.1465 72.8597V73.7895C54.1465 74.0656 54.3703 74.2895 54.6465 74.2895H55.5773C55.8534 74.2895 56.0773 74.0656 56.0773 73.7895V72.8597C56.0773 72.5835 55.8534 72.3597 55.5773 72.3597Z" fill="#EAEEF9"/>
<path d="M55.5773 68.5965H54.6465C54.3703 68.5965 54.1465 68.8204 54.1465 69.0965V70.0264C54.1465 70.3025 54.3703 70.5264 54.6465 70.5264H55.5773C55.8534 70.5264 56.0773 70.3025 56.0773 70.0264V69.0965C56.0773 68.8204 55.8534 68.5965 55.5773 68.5965Z" fill="#EAEEF9"/>
<path d="M55.5773 64.7369H54.6465C54.3703 64.7369 54.1465 64.9607 54.1465 65.2369V66.1667C54.1465 66.4428 54.3703 66.6667 54.6465 66.6667H55.5773C55.8534 66.6667 56.0773 66.4428 56.0773 66.1667V65.2369C56.0773 64.9607 55.8534 64.7369 55.5773 64.7369Z" fill="url(#paint7_linear)"/>
<path d="M55.5773 60.9737H54.6465C54.3703 60.9737 54.1465 61.1976 54.1465 61.4737V62.4035C54.1465 62.6797 54.3703 62.9035 54.6465 62.9035H55.5773C55.8534 62.9035 56.0773 62.6797 56.0773 62.4035V61.4737C56.0773 61.1976 55.8534 60.9737 55.5773 60.9737Z" fill="#EAEEF9"/>
<path d="M55.5773 57.2106H54.6465C54.3703 57.2106 54.1465 57.4344 54.1465 57.7106V58.6404C54.1465 58.9165 54.3703 59.1404 54.6465 59.1404H55.5773C55.8534 59.1404 56.0773 58.9165 56.0773 58.6404V57.7106C56.0773 57.4344 55.8534 57.2106 55.5773 57.2106Z" fill="#EAEEF9"/>
<path d="M55.5773 53.3509H54.6465C54.3703 53.3509 54.1465 53.5748 54.1465 53.8509V54.7807C54.1465 55.0569 54.3703 55.2807 54.6465 55.2807H55.5773C55.8534 55.2807 56.0773 55.0569 56.0773 54.7807V53.8509C56.0773 53.5748 55.8534 53.3509 55.5773 53.3509Z" fill="#EAEEF9"/>
<path d="M55.5773 49.5877H54.6465C54.3703 49.5877 54.1465 49.8116 54.1465 50.0877V51.0176C54.1465 51.2937 54.3703 51.5176 54.6465 51.5176H55.5773C55.8534 51.5176 56.0773 51.2937 56.0773 51.0176V50.0877C56.0773 49.8116 55.8534 49.5877 55.5773 49.5877Z" fill="#F3F5FA"/>
<path d="M55.5773 41.9649H54.6465C54.3703 41.9649 54.1465 42.1888 54.1465 42.4649V43.3948C54.1465 43.6709 54.3703 43.8948 54.6465 43.8948H55.5773C55.8534 43.8948 56.0773 43.6709 56.0773 43.3948V42.4649C56.0773 42.1888 55.8534 41.9649 55.5773 41.9649Z" fill="#EAEEF9"/>
<path d="M55.5773 38.2018H54.6465C54.3703 38.2018 54.1465 38.4256 54.1465 38.7018V39.6316C54.1465 39.9077 54.3703 40.1316 54.6465 40.1316H55.5773C55.8534 40.1316 56.0773 39.9077 56.0773 39.6316V38.7018C56.0773 38.4256 55.8534 38.2018 55.5773 38.2018Z" fill="#F3F5FA"/>
<path d="M83.2843 68.5965H82.3535C82.0774 68.5965 81.8535 68.8204 81.8535 69.0965V70.0264C81.8535 70.3025 82.0774 70.5264 82.3535 70.5264H83.2843C83.5605 70.5264 83.7843 70.3025 83.7843 70.0264V69.0965C83.7843 68.8204 83.5605 68.5965 83.2843 68.5965Z" fill="#EAEEF9"/>
<path d="M83.2843 60.9737H82.3535C82.0774 60.9737 81.8535 61.1976 81.8535 61.4737V62.4035C81.8535 62.6797 82.0774 62.9035 82.3535 62.9035H83.2843C83.5605 62.9035 83.7843 62.6797 83.7843 62.4035V61.4737C83.7843 61.1976 83.5605 60.9737 83.2843 60.9737Z" fill="#EAEEF9"/>
<path d="M83.2843 57.2106H82.3535C82.0774 57.2106 81.8535 57.4344 81.8535 57.7106V58.6404C81.8535 58.9165 82.0774 59.1404 82.3535 59.1404H83.2843C83.5605 59.1404 83.7843 58.9165 83.7843 58.6404V57.7106C83.7843 57.4344 83.5605 57.2106 83.2843 57.2106Z" fill="#EAEEF9"/>
<path d="M83.2843 53.3509H82.3535C82.0774 53.3509 81.8535 53.5748 81.8535 53.8509V54.7807C81.8535 55.0569 82.0774 55.2807 82.3535 55.2807H83.2843C83.5605 55.2807 83.7843 55.0569 83.7843 54.7807V53.8509C83.7843 53.5748 83.5605 53.3509 83.2843 53.3509Z" fill="#F3F5FA"/>
<path d="M83.2843 49.5877H82.3535C82.0774 49.5877 81.8535 49.8116 81.8535 50.0877V51.0176C81.8535 51.2937 82.0774 51.5176 82.3535 51.5176H83.2843C83.5605 51.5176 83.7843 51.2937 83.7843 51.0176V50.0877C83.7843 49.8116 83.5605 49.5877 83.2843 49.5877Z" fill="#EAEEF9"/>
<path d="M83.2843 45.8246H82.3535C82.0774 45.8246 81.8535 46.0484 81.8535 46.3246V47.2544C81.8535 47.5305 82.0774 47.7544 82.3535 47.7544H83.2843C83.5605 47.7544 83.7843 47.5305 83.7843 47.2544V46.3246C83.7843 46.0484 83.5605 45.8246 83.2843 45.8246Z" fill="#EAEEF9"/>
<path d="M87.2433 72.3597H86.3125C86.0364 72.3597 85.8125 72.5835 85.8125 72.8597V73.7895C85.8125 74.0656 86.0364 74.2895 86.3125 74.2895H87.2433C87.5195 74.2895 87.7433 74.0656 87.7433 73.7895V72.8597C87.7433 72.5835 87.5195 72.3597 87.2433 72.3597Z" fill="#EAEEF9"/>
<path d="M87.2433 68.5965H86.3125C86.0364 68.5965 85.8125 68.8204 85.8125 69.0965V70.0264C85.8125 70.3025 86.0364 70.5264 86.3125 70.5264H87.2433C87.5195 70.5264 87.7433 70.3025 87.7433 70.0264V69.0965C87.7433 68.8204 87.5195 68.5965 87.2433 68.5965Z" fill="#EAEEF9"/>
<path d="M87.2433 64.7369H86.3125C86.0364 64.7369 85.8125 64.9607 85.8125 65.2369V66.1667C85.8125 66.4428 86.0364 66.6667 86.3125 66.6667H87.2433C87.5195 66.6667 87.7433 66.4428 87.7433 66.1667V65.2369C87.7433 64.9607 87.5195 64.7369 87.2433 64.7369Z" fill="#EAEEF9"/>
<path d="M87.2433 60.9737H86.3125C86.0364 60.9737 85.8125 61.1976 85.8125 61.4737V62.4035C85.8125 62.6797 86.0364 62.9035 86.3125 62.9035H87.2433C87.5195 62.9035 87.7433 62.6797 87.7433 62.4035V61.4737C87.7433 61.1976 87.5195 60.9737 87.2433 60.9737Z" fill="#EAEEF9"/>
<path d="M87.2433 57.2106H86.3125C86.0364 57.2106 85.8125 57.4344 85.8125 57.7106V58.6404C85.8125 58.9165 86.0364 59.1404 86.3125 59.1404H87.2433C87.5195 59.1404 87.7433 58.9165 87.7433 58.6404V57.7106C87.7433 57.4344 87.5195 57.2106 87.2433 57.2106Z" fill="#EAEEF9"/>
<path d="M87.2433 53.3509H86.3125C86.0364 53.3509 85.8125 53.5748 85.8125 53.8509V54.7807C85.8125 55.0569 86.0364 55.2807 86.3125 55.2807H87.2433C87.5195 55.2807 87.7433 55.0569 87.7433 54.7807V53.8509C87.7433 53.5748 87.5195 53.3509 87.2433 53.3509Z" fill="url(#paint8_linear)"/>
<path d="M87.2433 49.5877H86.3125C86.0364 49.5877 85.8125 49.8116 85.8125 50.0877V51.0176C85.8125 51.2937 86.0364 51.5176 86.3125 51.5176H87.2433C87.5195 51.5176 87.7433 51.2937 87.7433 51.0176V50.0877C87.7433 49.8116 87.5195 49.5877 87.2433 49.5877Z" fill="#F3F5FA"/>
<path d="M91.2003 72.3597H90.2695C89.9934 72.3597 89.7695 72.5835 89.7695 72.8597V73.7895C89.7695 74.0656 89.9934 74.2895 90.2695 74.2895H91.2003C91.4765 74.2895 91.7003 74.0656 91.7003 73.7895V72.8597C91.7003 72.5835 91.4765 72.3597 91.2003 72.3597Z" fill="#EAEEF9"/>
<path d="M91.2003 68.5965H90.2695C89.9934 68.5965 89.7695 68.8204 89.7695 69.0965V70.0264C89.7695 70.3025 89.9934 70.5264 90.2695 70.5264H91.2003C91.4765 70.5264 91.7003 70.3025 91.7003 70.0264V69.0965C91.7003 68.8204 91.4765 68.5965 91.2003 68.5965Z" fill="#EAEEF9"/>
<path d="M91.2003 64.7369H90.2695C89.9934 64.7369 89.7695 64.9607 89.7695 65.2369V66.1667C89.7695 66.4428 89.9934 66.6667 90.2695 66.6667H91.2003C91.4765 66.6667 91.7003 66.4428 91.7003 66.1667V65.2369C91.7003 64.9607 91.4765 64.7369 91.2003 64.7369Z" fill="#EAEEF9"/>
<path d="M91.2003 60.9737H90.2695C89.9934 60.9737 89.7695 61.1976 89.7695 61.4737V62.4035C89.7695 62.6797 89.9934 62.9035 90.2695 62.9035H91.2003C91.4765 62.9035 91.7003 62.6797 91.7003 62.4035V61.4737C91.7003 61.1976 91.4765 60.9737 91.2003 60.9737Z" fill="#EAEEF9"/>
<path d="M91.2003 57.2106H90.2695C89.9934 57.2106 89.7695 57.4344 89.7695 57.7106V58.6404C89.7695 58.9165 89.9934 59.1404 90.2695 59.1404H91.2003C91.4765 59.1404 91.7003 58.9165 91.7003 58.6404V57.7106C91.7003 57.4344 91.4765 57.2106 91.2003 57.2106Z" fill="#EAEEF9"/>
<path d="M91.2003 53.3509H90.2695C89.9934 53.3509 89.7695 53.5748 89.7695 53.8509V54.7807C89.7695 55.0569 89.9934 55.2807 90.2695 55.2807H91.2003C91.4765 55.2807 91.7003 55.0569 91.7003 54.7807V53.8509C91.7003 53.5748 91.4765 53.3509 91.2003 53.3509Z" fill="#EAEEF9"/>
<path d="M91.2003 49.5877H90.2695C89.9934 49.5877 89.7695 49.8116 89.7695 50.0877V51.0176C89.7695 51.2937 89.9934 51.5176 90.2695 51.5176H91.2003C91.4765 51.5176 91.7003 51.2937 91.7003 51.0176V50.0877C91.7003 49.8116 91.4765 49.5877 91.2003 49.5877Z" fill="#F3F5FA"/>
<path d="M91.2003 45.8246H90.2695C89.9934 45.8246 89.7695 46.0484 89.7695 46.3246V47.2544C89.7695 47.5305 89.9934 47.7544 90.2695 47.7544H91.2003C91.4765 47.7544 91.7003 47.5305 91.7003 47.2544V46.3246C91.7003 46.0484 91.4765 45.8246 91.2003 45.8246Z" fill="url(#paint9_linear)"/>
<path d="M91.2003 41.9649H90.2695C89.9934 41.9649 89.7695 42.1888 89.7695 42.4649V43.3948C89.7695 43.6709 89.9934 43.8948 90.2695 43.8948H91.2003C91.4765 43.8948 91.7003 43.6709 91.7003 43.3948V42.4649C91.7003 42.1888 91.4765 41.9649 91.2003 41.9649Z" fill="#EAEEF9"/>
<path d="M95.0636 72.3597H94.1328C93.8567 72.3597 93.6328 72.5835 93.6328 72.8597V73.7895C93.6328 74.0656 93.8567 74.2895 94.1328 74.2895H95.0636C95.3398 74.2895 95.5636 74.0656 95.5636 73.7895V72.8597C95.5636 72.5835 95.3398 72.3597 95.0636 72.3597Z" fill="#EAEEF9"/>
<path d="M95.0636 68.5965H94.1328C93.8567 68.5965 93.6328 68.8204 93.6328 69.0965V70.0264C93.6328 70.3025 93.8567 70.5264 94.1328 70.5264H95.0636C95.3398 70.5264 95.5636 70.3025 95.5636 70.0264V69.0965C95.5636 68.8204 95.3398 68.5965 95.0636 68.5965Z" fill="#EAEEF9"/>
<path d="M95.0636 64.7369H94.1328C93.8567 64.7369 93.6328 64.9607 93.6328 65.2369V66.1667C93.6328 66.4428 93.8567 66.6667 94.1328 66.6667H95.0636C95.3398 66.6667 95.5636 66.4428 95.5636 66.1667V65.2369C95.5636 64.9607 95.3398 64.7369 95.0636 64.7369Z" fill="#EAEEF9"/>
<path d="M95.0636 60.9737H94.1328C93.8567 60.9737 93.6328 61.1976 93.6328 61.4737V62.4035C93.6328 62.6797 93.8567 62.9035 94.1328 62.9035H95.0636C95.3398 62.9035 95.5636 62.6797 95.5636 62.4035V61.4737C95.5636 61.1976 95.3398 60.9737 95.0636 60.9737Z" fill="#EAEEF9"/>
<path d="M95.0636 57.2106H94.1328C93.8567 57.2106 93.6328 57.4344 93.6328 57.7106V58.6404C93.6328 58.9165 93.8567 59.1404 94.1328 59.1404H95.0636C95.3398 59.1404 95.5636 58.9165 95.5636 58.6404V57.7106C95.5636 57.4344 95.3398 57.2106 95.0636 57.2106Z" fill="#EAEEF9"/>
<path d="M99.0207 72.3597H98.0898C97.8137 72.3597 97.5898 72.5835 97.5898 72.8597V73.7895C97.5898 74.0656 97.8137 74.2895 98.0898 74.2895H99.0207C99.2968 74.2895 99.5207 74.0656 99.5207 73.7895V72.8597C99.5207 72.5835 99.2968 72.3597 99.0207 72.3597Z" fill="url(#paint10_linear)"/>
<path d="M99.0207 68.5965H98.0898C97.8137 68.5965 97.5898 68.8204 97.5898 69.0965V70.0264C97.5898 70.3025 97.8137 70.5264 98.0898 70.5264H99.0207C99.2968 70.5264 99.5207 70.3025 99.5207 70.0264V69.0965C99.5207 68.8204 99.2968 68.5965 99.0207 68.5965Z" fill="#EAEEF9"/>
<path d="M99.0207 64.7369H98.0898C97.8137 64.7369 97.5898 64.9607 97.5898 65.2369V66.1667C97.5898 66.4428 97.8137 66.6667 98.0898 66.6667H99.0207C99.2968 66.6667 99.5207 66.4428 99.5207 66.1667V65.2369C99.5207 64.9607 99.2968 64.7369 99.0207 64.7369Z" fill="#EAEEF9"/>
<path d="M99.0207 60.9737H98.0898C97.8137 60.9737 97.5898 61.1976 97.5898 61.4737V62.4035C97.5898 62.6797 97.8137 62.9035 98.0898 62.9035H99.0207C99.2968 62.9035 99.5207 62.6797 99.5207 62.4035V61.4737C99.5207 61.1976 99.2968 60.9737 99.0207 60.9737Z" fill="#F3F5FA"/>
<path d="M99.0207 57.2106H98.0898C97.8137 57.2106 97.5898 57.4344 97.5898 57.7106V58.6404C97.5898 58.9165 97.8137 59.1404 98.0898 59.1404H99.0207C99.2968 59.1404 99.5207 58.9165 99.5207 58.6404V57.7106C99.5207 57.4344 99.2968 57.2106 99.0207 57.2106Z" fill="#EAEEF9"/>
<path d="M99.0207 53.3509H98.0898C97.8137 53.3509 97.5898 53.5748 97.5898 53.8509V54.7807C97.5898 55.0569 97.8137 55.2807 98.0898 55.2807H99.0207C99.2968 55.2807 99.5207 55.0569 99.5207 54.7807V53.8509C99.5207 53.5748 99.2968 53.3509 99.0207 53.3509Z" fill="url(#paint11_linear)"/>
<path d="M99.0207 49.5877H98.0898C97.8137 49.5877 97.5898 49.8116 97.5898 50.0877V51.0176C97.5898 51.2937 97.8137 51.5176 98.0898 51.5176H99.0207C99.2968 51.5176 99.5207 51.2937 99.5207 51.0176V50.0877C99.5207 49.8116 99.2968 49.5877 99.0207 49.5877Z" fill="#EAEEF9"/>
<path d="M99.0207 45.8246H98.0898C97.8137 45.8246 97.5898 46.0484 97.5898 46.3246V47.2544C97.5898 47.5305 97.8137 47.7544 98.0898 47.7544H99.0207C99.2968 47.7544 99.5207 47.5305 99.5207 47.2544V46.3246C99.5207 46.0484 99.2968 45.8246 99.0207 45.8246Z" fill="#F3F5FA"/>
<path d="M102.98 72.3597H102.049C101.773 72.3597 101.549 72.5835 101.549 72.8597V73.7895C101.549 74.0656 101.773 74.2895 102.049 74.2895H102.98C103.256 74.2895 103.48 74.0656 103.48 73.7895V72.8597C103.48 72.5835 103.256 72.3597 102.98 72.3597Z" fill="#EAEEF9"/>
<path d="M102.98 68.5965H102.049C101.773 68.5965 101.549 68.8204 101.549 69.0965V70.0264C101.549 70.3025 101.773 70.5264 102.049 70.5264H102.98C103.256 70.5264 103.48 70.3025 103.48 70.0264V69.0965C103.48 68.8204 103.256 68.5965 102.98 68.5965Z" fill="#EAEEF9"/>
<path d="M102.98 64.7369H102.049C101.773 64.7369 101.549 64.9607 101.549 65.2369V66.1667C101.549 66.4428 101.773 66.6667 102.049 66.6667H102.98C103.256 66.6667 103.48 66.4428 103.48 66.1667V65.2369C103.48 64.9607 103.256 64.7369 102.98 64.7369Z" fill="url(#paint12_linear)"/>
<path d="M102.98 60.9737H102.049C101.773 60.9737 101.549 61.1976 101.549 61.4737V62.4035C101.549 62.6797 101.773 62.9035 102.049 62.9035H102.98C103.256 62.9035 103.48 62.6797 103.48 62.4035V61.4737C103.48 61.1976 103.256 60.9737 102.98 60.9737Z" fill="#EAEEF9"/>
<path d="M102.98 57.2106H102.049C101.773 57.2106 101.549 57.4344 101.549 57.7106V58.6404C101.549 58.9165 101.773 59.1404 102.049 59.1404H102.98C103.256 59.1404 103.48 58.9165 103.48 58.6404V57.7106C103.48 57.4344 103.256 57.2106 102.98 57.2106Z" fill="#EAEEF9"/>
<path d="M102.98 53.3509H102.049C101.773 53.3509 101.549 53.5748 101.549 53.8509V54.7807C101.549 55.0569 101.773 55.2807 102.049 55.2807H102.98C103.256 55.2807 103.48 55.0569 103.48 54.7807V53.8509C103.48 53.5748 103.256 53.3509 102.98 53.3509Z" fill="#EAEEF9"/>
<path d="M102.98 49.5877H102.049C101.773 49.5877 101.549 49.8116 101.549 50.0877V51.0176C101.549 51.2937 101.773 51.5176 102.049 51.5176H102.98C103.256 51.5176 103.48 51.2937 103.48 51.0176V50.0877C103.48 49.8116 103.256 49.5877 102.98 49.5877Z" fill="#F3F5FA"/>
<path d="M102.98 41.9649H102.049C101.773 41.9649 101.549 42.1888 101.549 42.4649V43.3948C101.549 43.6709 101.773 43.8948 102.049 43.8948H102.98C103.256 43.8948 103.48 43.6709 103.48 43.3948V42.4649C103.48 42.1888 103.256 41.9649 102.98 41.9649Z" fill="#EAEEF9"/>
<path d="M102.98 38.2018H102.049C101.773 38.2018 101.549 38.4256 101.549 38.7018V39.6316C101.549 39.9077 101.773 40.1316 102.049 40.1316H102.98C103.256 40.1316 103.48 39.9077 103.48 39.6316V38.7018C103.48 38.4256 103.256 38.2018 102.98 38.2018Z" fill="#F3F5FA"/>
<path d="M59.5363 72.3597H58.6055C58.3293 72.3597 58.1055 72.5835 58.1055 72.8597V73.7895C58.1055 74.0656 58.3293 74.2895 58.6055 74.2895H59.5363C59.8124 74.2895 60.0363 74.0656 60.0363 73.7895V72.8597C60.0363 72.5835 59.8124 72.3597 59.5363 72.3597Z" fill="#EAEEF9"/>
<path d="M59.5363 68.5965H58.6055C58.3293 68.5965 58.1055 68.8204 58.1055 69.0965V70.0264C58.1055 70.3025 58.3293 70.5264 58.6055 70.5264H59.5363C59.8124 70.5264 60.0363 70.3025 60.0363 70.0264V69.0965C60.0363 68.8204 59.8124 68.5965 59.5363 68.5965Z" fill="#EAEEF9"/>
<path d="M59.5363 64.7369H58.6055C58.3293 64.7369 58.1055 64.9607 58.1055 65.2369V66.1667C58.1055 66.4428 58.3293 66.6667 58.6055 66.6667H59.5363C59.8124 66.6667 60.0363 66.4428 60.0363 66.1667V65.2369C60.0363 64.9607 59.8124 64.7369 59.5363 64.7369Z" fill="#EAEEF9"/>
<path d="M59.5363 57.2106H58.6055C58.3293 57.2106 58.1055 57.4344 58.1055 57.7106V58.6404C58.1055 58.9165 58.3293 59.1404 58.6055 59.1404H59.5363C59.8124 59.1404 60.0363 58.9165 60.0363 58.6404V57.7106C60.0363 57.4344 59.8124 57.2106 59.5363 57.2106Z" fill="#F3F5FA"/>
<path d="M59.5363 49.5877H58.6055C58.3293 49.5877 58.1055 49.8116 58.1055 50.0877V51.0176C58.1055 51.2937 58.3293 51.5176 58.6055 51.5176H59.5363C59.8124 51.5176 60.0363 51.2937 60.0363 51.0176V50.0877C60.0363 49.8116 59.8124 49.5877 59.5363 49.5877Z" fill="#EAEEF9"/>
<path d="M59.5363 45.8246H58.6055C58.3293 45.8246 58.1055 46.0484 58.1055 46.3246V47.2544C58.1055 47.5305 58.3293 47.7544 58.6055 47.7544H59.5363C59.8124 47.7544 60.0363 47.5305 60.0363 47.2544V46.3246C60.0363 46.0484 59.8124 45.8246 59.5363 45.8246Z" fill="#F3F5FA"/>
<path d="M59.5363 41.9649H58.6055C58.3293 41.9649 58.1055 42.1888 58.1055 42.4649V43.3948C58.1055 43.6709 58.3293 43.8948 58.6055 43.8948H59.5363C59.8124 43.8948 60.0363 43.6709 60.0363 43.3948V42.4649C60.0363 42.1888 59.8124 41.9649 59.5363 41.9649Z" fill="#EAEEF9"/>
<path d="M59.5363 38.2018H58.6055C58.3293 38.2018 58.1055 38.4256 58.1055 38.7018V39.6316C58.1055 39.9077 58.3293 40.1316 58.6055 40.1316H59.5363C59.8124 40.1316 60.0363 39.9077 60.0363 39.6316V38.7018C60.0363 38.4256 59.8124 38.2018 59.5363 38.2018Z" fill="#F3F5FA"/>
<path d="M63.4933 68.5965H62.5625C62.2864 68.5965 62.0625 68.8204 62.0625 69.0965V70.0264C62.0625 70.3025 62.2864 70.5264 62.5625 70.5264H63.4933C63.7695 70.5264 63.9933 70.3025 63.9933 70.0264V69.0965C63.9933 68.8204 63.7695 68.5965 63.4933 68.5965Z" fill="#EAEEF9"/>
<path d="M63.4933 64.7369H62.5625C62.2864 64.7369 62.0625 64.9607 62.0625 65.2369V66.1667C62.0625 66.4428 62.2864 66.6667 62.5625 66.6667H63.4933C63.7695 66.6667 63.9933 66.4428 63.9933 66.1667V65.2369C63.9933 64.9607 63.7695 64.7369 63.4933 64.7369Z" fill="#F3F5FA"/>
<path d="M63.4933 60.9737H62.5625C62.2864 60.9737 62.0625 61.1976 62.0625 61.4737V62.4035C62.0625 62.6797 62.2864 62.9035 62.5625 62.9035H63.4933C63.7695 62.9035 63.9933 62.6797 63.9933 62.4035V61.4737C63.9933 61.1976 63.7695 60.9737 63.4933 60.9737Z" fill="#EAEEF9"/>
<path d="M63.4933 57.2106H62.5625C62.2864 57.2106 62.0625 57.4344 62.0625 57.7106V58.6404C62.0625 58.9165 62.2864 59.1404 62.5625 59.1404H63.4933C63.7695 59.1404 63.9933 58.9165 63.9933 58.6404V57.7106C63.9933 57.4344 63.7695 57.2106 63.4933 57.2106Z" fill="#EAEEF9"/>
<path d="M63.4933 53.3509H62.5625C62.2864 53.3509 62.0625 53.5748 62.0625 53.8509V54.7807C62.0625 55.0569 62.2864 55.2807 62.5625 55.2807H63.4933C63.7695 55.2807 63.9933 55.0569 63.9933 54.7807V53.8509C63.9933 53.5748 63.7695 53.3509 63.4933 53.3509Z" fill="url(#paint13_linear)"/>
<path d="M63.4933 49.5877H62.5625C62.2864 49.5877 62.0625 49.8116 62.0625 50.0877V51.0176C62.0625 51.2937 62.2864 51.5176 62.5625 51.5176H63.4933C63.7695 51.5176 63.9933 51.2937 63.9933 51.0176V50.0877C63.9933 49.8116 63.7695 49.5877 63.4933 49.5877Z" fill="#EAEEF9"/>
<path d="M63.4933 45.8246H62.5625C62.2864 45.8246 62.0625 46.0484 62.0625 46.3246V47.2544C62.0625 47.5305 62.2864 47.7544 62.5625 47.7544H63.4933C63.7695 47.7544 63.9933 47.5305 63.9933 47.2544V46.3246C63.9933 46.0484 63.7695 45.8246 63.4933 45.8246Z" fill="#EAEEF9"/>
<path d="M67.4523 72.3597H66.5215C66.2453 72.3597 66.0215 72.5835 66.0215 72.8597V73.7895C66.0215 74.0656 66.2453 74.2895 66.5215 74.2895H67.4523C67.7284 74.2895 67.9523 74.0656 67.9523 73.7895V72.8597C67.9523 72.5835 67.7284 72.3597 67.4523 72.3597Z" fill="#EAEEF9"/>
<path d="M67.4523 64.7369H66.5215C66.2453 64.7369 66.0215 64.9607 66.0215 65.2369V66.1667C66.0215 66.4428 66.2453 66.6667 66.5215 66.6667H67.4523C67.7284 66.6667 67.9523 66.4428 67.9523 66.1667V65.2369C67.9523 64.9607 67.7284 64.7369 67.4523 64.7369Z" fill="#EAEEF9"/>
<path d="M67.4523 60.9737H66.5215C66.2453 60.9737 66.0215 61.1976 66.0215 61.4737V62.4035C66.0215 62.6797 66.2453 62.9035 66.5215 62.9035H67.4523C67.7284 62.9035 67.9523 62.6797 67.9523 62.4035V61.4737C67.9523 61.1976 67.7284 60.9737 67.4523 60.9737Z" fill="url(#paint14_linear)"/>
<path d="M67.4523 57.2106H66.5215C66.2453 57.2106 66.0215 57.4344 66.0215 57.7106V58.6404C66.0215 58.9165 66.2453 59.1404 66.5215 59.1404H67.4523C67.7284 59.1404 67.9523 58.9165 67.9523 58.6404V57.7106C67.9523 57.4344 67.7284 57.2106 67.4523 57.2106Z" fill="#EAEEF9"/>
<path d="M67.4523 53.3509H66.5215C66.2453 53.3509 66.0215 53.5748 66.0215 53.8509V54.7807C66.0215 55.0569 66.2453 55.2807 66.5215 55.2807H67.4523C67.7284 55.2807 67.9523 55.0569 67.9523 54.7807V53.8509C67.9523 53.5748 67.7284 53.3509 67.4523 53.3509Z" fill="#F3F5FA"/>
<path d="M67.4523 49.5877H66.5215C66.2453 49.5877 66.0215 49.8116 66.0215 50.0877V51.0176C66.0215 51.2937 66.2453 51.5176 66.5215 51.5176H67.4523C67.7284 51.5176 67.9523 51.2937 67.9523 51.0176V50.0877C67.9523 49.8116 67.7284 49.5877 67.4523 49.5877Z" fill="url(#paint15_linear)"/>
<path d="M71.4113 72.3597H70.4805C70.2043 72.3597 69.9805 72.5835 69.9805 72.8597V73.7895C69.9805 74.0656 70.2043 74.2895 70.4805 74.2895H71.4113C71.6874 74.2895 71.9113 74.0656 71.9113 73.7895V72.8597C71.9113 72.5835 71.6874 72.3597 71.4113 72.3597Z" fill="#EAEEF9"/>
<path d="M71.4113 60.9737H70.4805C70.2043 60.9737 69.9805 61.1976 69.9805 61.4737V62.4035C69.9805 62.6797 70.2043 62.9035 70.4805 62.9035H71.4113C71.6874 62.9035 71.9113 62.6797 71.9113 62.4035V61.4737C71.9113 61.1976 71.6874 60.9737 71.4113 60.9737Z" fill="#F3F5FA"/>
<path d="M71.4113 57.2106H70.4805C70.2043 57.2106 69.9805 57.4344 69.9805 57.7106V58.6404C69.9805 58.9165 70.2043 59.1404 70.4805 59.1404H71.4113C71.6874 59.1404 71.9113 58.9165 71.9113 58.6404V57.7106C71.9113 57.4344 71.6874 57.2106 71.4113 57.2106Z" fill="#EAEEF9"/>
<path d="M71.4113 53.3509H70.4805C70.2043 53.3509 69.9805 53.5748 69.9805 53.8509V54.7807C69.9805 55.0569 70.2043 55.2807 70.4805 55.2807H71.4113C71.6874 55.2807 71.9113 55.0569 71.9113 54.7807V53.8509C71.9113 53.5748 71.6874 53.3509 71.4113 53.3509Z" fill="#EAEEF9"/>
<path d="M75.3683 72.3597H74.4375C74.1614 72.3597 73.9375 72.5835 73.9375 72.8597V73.7895C73.9375 74.0656 74.1614 74.2895 74.4375 74.2895H75.3683C75.6445 74.2895 75.8683 74.0656 75.8683 73.7895V72.8597C75.8683 72.5835 75.6445 72.3597 75.3683 72.3597Z" fill="#EAEEF9"/>
<path d="M75.3683 68.5965H74.4375C74.1614 68.5965 73.9375 68.8204 73.9375 69.0965V70.0264C73.9375 70.3025 74.1614 70.5264 74.4375 70.5264H75.3683C75.6445 70.5264 75.8683 70.3025 75.8683 70.0264V69.0965C75.8683 68.8204 75.6445 68.5965 75.3683 68.5965Z" fill="#EAEEF9"/>
<path d="M75.3683 64.7369H74.4375C74.1614 64.7369 73.9375 64.9607 73.9375 65.2369V66.1667C73.9375 66.4428 74.1614 66.6667 74.4375 66.6667H75.3683C75.6445 66.6667 75.8683 66.4428 75.8683 66.1667V65.2369C75.8683 64.9607 75.6445 64.7369 75.3683 64.7369Z" fill="#EAEEF9"/>
<path d="M75.3683 60.9737H74.4375C74.1614 60.9737 73.9375 61.1976 73.9375 61.4737V62.4035C73.9375 62.6797 74.1614 62.9035 74.4375 62.9035H75.3683C75.6445 62.9035 75.8683 62.6797 75.8683 62.4035V61.4737C75.8683 61.1976 75.6445 60.9737 75.3683 60.9737Z" fill="#EAEEF9"/>
<path d="M75.3683 57.2106H74.4375C74.1614 57.2106 73.9375 57.4344 73.9375 57.7106V58.6404C73.9375 58.9165 74.1614 59.1404 74.4375 59.1404H75.3683C75.6445 59.1404 75.8683 58.9165 75.8683 58.6404V57.7106C75.8683 57.4344 75.6445 57.2106 75.3683 57.2106Z" fill="#F3F5FA"/>
<path d="M75.3683 53.3509H74.4375C74.1614 53.3509 73.9375 53.5748 73.9375 53.8509V54.7807C73.9375 55.0569 74.1614 55.2807 74.4375 55.2807H75.3683C75.6445 55.2807 75.8683 55.0569 75.8683 54.7807V53.8509C75.8683 53.5748 75.6445 53.3509 75.3683 53.3509Z" fill="#EAEEF9"/>
<path d="M75.3683 49.5877H74.4375C74.1614 49.5877 73.9375 49.8116 73.9375 50.0877V51.0176C73.9375 51.2937 74.1614 51.5176 74.4375 51.5176H75.3683C75.6445 51.5176 75.8683 51.2937 75.8683 51.0176V50.0877C75.8683 49.8116 75.6445 49.5877 75.3683 49.5877Z" fill="url(#paint16_linear)"/>
<path d="M75.3683 45.8246H74.4375C74.1614 45.8246 73.9375 46.0484 73.9375 46.3246V47.2544C73.9375 47.5305 74.1614 47.7544 74.4375 47.7544H75.3683C75.6445 47.7544 75.8683 47.5305 75.8683 47.2544V46.3246C75.8683 46.0484 75.6445 45.8246 75.3683 45.8246Z" fill="#EAEEF9"/>
<path d="M79.2296 72.3597H78.2988C78.0227 72.3597 77.7988 72.5835 77.7988 72.8597V73.7895C77.7988 74.0656 78.0227 74.2895 78.2988 74.2895H79.2296C79.5058 74.2895 79.7296 74.0656 79.7296 73.7895V72.8597C79.7296 72.5835 79.5058 72.3597 79.2296 72.3597Z" fill="#EAEEF9"/>
<path d="M79.2296 64.7369H78.2988C78.0227 64.7369 77.7988 64.9607 77.7988 65.2369V66.1667C77.7988 66.4428 78.0227 66.6667 78.2988 66.6667H79.2296C79.5058 66.6667 79.7296 66.4428 79.7296 66.1667V65.2369C79.7296 64.9607 79.5058 64.7369 79.2296 64.7369Z" fill="#EAEEF9"/>
<path d="M79.2296 60.9737H78.2988C78.0227 60.9737 77.7988 61.1976 77.7988 61.4737V62.4035C77.7988 62.6797 78.0227 62.9035 78.2988 62.9035H79.2296C79.5058 62.9035 79.7296 62.6797 79.7296 62.4035V61.4737C79.7296 61.1976 79.5058 60.9737 79.2296 60.9737Z" fill="#F3F5FA"/>
<path d="M79.435 65.823H47.833C46.6553 65.823 45.6738 64.9987 45.6738 64.0096V36.9727C45.6738 35.9836 46.6553 35.1593 47.833 35.1593H79.435C80.6128 35.1593 81.5942 35.9836 81.5942 36.9727V64.0096C81.5942 64.9987 80.6128 65.823 79.435 65.823Z" fill="#866FFE" fill-opacity="0.93"/>
<path d="M75.3871 48.1173H51.1554C50.8658 48.1173 50.5762 47.8278 50.5762 47.5383V44.9331C50.5762 44.6436 50.8658 44.3541 51.1554 44.3541H75.3871C75.6768 44.3541 75.9664 44.6436 75.9664 44.9331V47.5383C75.9664 47.8278 75.6768 48.1173 75.3871 48.1173Z" fill="#F1F1F1"/>
<path d="M75.3871 54.5822H51.1554C50.8658 54.5822 50.5762 54.2927 50.5762 54.0033V51.398C50.5762 51.1085 50.8658 50.8191 51.1554 50.8191H75.3871C75.6768 50.8191 75.9664 51.1085 75.9664 51.398V54.0033C75.9664 54.2927 75.6768 54.5822 75.3871 54.5822Z" fill="#F1F1F1"/>
<path d="M75.483 56.512H66.9874C66.6978 56.512 66.4082 56.705 66.4082 57.091V59.2138C66.4082 59.5033 66.6013 59.7927 66.9874 59.7927H75.483C75.7727 59.7927 76.0623 59.5997 76.0623 59.2138V57.091C75.9657 56.8015 75.7727 56.512 75.483 56.512Z" fill="url(#paint17_linear)"/>
<path d="M73.4568 57.7664H68.9194C68.7263 57.7664 68.5332 57.9595 68.5332 58.1526C68.5332 58.3457 68.7263 58.5387 68.9194 58.5387H73.4568C73.6499 58.5387 73.8429 58.3457 73.8429 58.1526C73.8429 57.863 73.6499 57.7664 73.4568 57.7664Z" fill="white"/>
<path d="M64.2835 52.4594H52.6987C52.5056 52.4594 52.3125 52.6525 52.3125 52.8455C52.3125 53.0386 52.5056 53.2317 52.6987 53.2317H64.2835C64.4766 53.2317 64.6697 53.0386 64.6697 52.8455C64.5732 52.5559 64.4766 52.4594 64.2835 52.4594Z" fill="#C9CCCF"/>
<path d="M64.2835 45.8015H52.6987C52.5056 45.8015 52.3125 45.9946 52.3125 46.1876C52.3125 46.3807 52.5056 46.5738 52.6987 46.5738H64.2835C64.4766 46.5738 64.6697 46.3807 64.6697 46.1876C64.5732 45.9946 64.4766 45.8015 64.2835 45.8015Z" fill="#C9CCCF"/>
<path d="M102.521 79.1579C102.521 82.7281 100.977 85.9123 98.5632 88.1316C96.3427 90.1579 93.4465 91.4123 90.2607 91.4123C87.6541 91.4123 85.2406 90.6404 83.3097 89.2895C80.1239 87.0702 78 83.4035 78 79.2544C78 72.5 83.5028 67 90.2607 67C97.0185 67 102.521 72.4035 102.521 79.1579Z" fill="#E9F0F8"/>
<path d="M98.8542 88.9046C98.7577 88.6151 98.7577 88.3256 98.6611 88.0362C98.6611 87.9397 98.5646 87.8432 98.4681 87.6502C97.9853 86.6853 97.213 85.7204 96.1511 85.1414C95.6684 84.852 95.0891 84.7555 94.4133 84.7555C94.2203 84.7555 94.0272 84.7555 93.9306 84.7555C92.8687 84.7555 92.7721 84.5625 92.7721 84.5625V82.8256C93.3514 82.3432 93.8341 81.8607 94.2203 81.2818C94.6064 80.7028 94.896 80.1239 95.0891 79.4485C95.7649 79.2555 96.2476 78.6765 96.1511 78.0011C96.1511 77.7116 95.958 77.4221 95.958 77.1327C95.958 76.9397 95.958 76.8432 95.958 76.6502C95.958 76.5537 95.958 76.4572 95.958 76.3607C95.958 76.2642 95.958 76.1677 95.958 76.0713C95.8614 75.5888 95.7649 75.0099 95.3787 74.3344C94.5099 72.6941 92.7721 71.6327 90.8413 71.6327C90.4552 71.6327 90.069 71.6327 89.6828 71.7291C89.0071 71.9221 88.3313 72.2116 87.752 72.5976C87.6555 72.6941 87.559 72.7906 87.4624 72.887C87.4624 72.887 87.3659 72.887 87.3659 72.9835C86.7866 73.5625 86.3039 74.2379 86.0143 75.1063C85.7247 75.8783 85.7247 76.7467 85.8212 77.6151C85.8212 77.6151 85.8212 77.6151 85.8212 77.7116C85.8212 77.7116 85.8212 77.7116 85.8212 77.8081C85.8212 78.0011 85.9178 77.9046 85.8212 78.0976L85.7247 78.1941C85.6281 78.3871 85.5316 78.773 85.6281 79.159C85.9178 79.9309 86.4005 79.8344 86.8832 80.2204C86.8832 80.2204 86.7866 80.2204 86.7866 80.3169L86.2074 80.5099C83.7939 81.2818 83.0215 83.3081 83.9869 84.5625C84.3731 85.0449 84.9524 85.4309 85.9178 85.6239C85.6281 85.6239 85.4351 85.8169 85.3385 85.9134C84.2766 86.7818 83.6008 88.0362 83.4077 89.2906C83.3112 89.6765 83.6973 89.966 83.9869 89.966H98.1784C98.6611 89.6765 98.9507 89.2906 98.8542 88.9046ZM87.752 81.8607C87.8486 82.0537 88.0417 82.2467 88.2347 82.4397C88.3313 82.5362 88.5244 82.7292 88.7174 82.8256C88.814 82.9221 88.9105 83.0186 89.0071 83.0186C89.0071 83.0186 89.0071 83.0186 89.1036 83.1151C89.1036 83.1151 89.2001 83.1151 89.2001 83.2116V84.1765C89.2001 84.1765 89.2001 84.1765 89.1036 84.08C89.0071 83.9835 88.9105 83.887 88.814 83.887C88.6209 83.7906 88.5244 83.6941 88.3313 83.5976C88.2347 83.5976 88.2347 83.5011 88.1382 83.5011C87.6555 83.2116 87.1728 82.9221 87.1728 82.5362C87.2693 82.3432 87.4624 82.1502 87.752 81.8607Z" fill="white"/>
<path d="M98.564 88.0351C96.3435 90.0614 93.4473 91.3158 90.2615 91.3158C87.6549 91.3158 85.2414 90.5439 83.3105 89.193C83.3105 89.0965 83.3105 89.0965 83.3105 89C83.5036 87.7456 84.1794 86.4912 85.2414 85.6228C85.4344 85.5263 85.6275 85.3333 85.8206 85.3333C84.9517 85.1404 84.276 84.7544 83.8898 84.2719H86.786C87.5583 85.4298 88.9099 86.1053 90.4546 86.1053C91.7096 86.1053 92.8681 85.6228 93.6404 84.7544C93.7369 84.7544 93.8335 84.7544 93.93 84.7544C94.0266 84.7544 94.2196 84.7544 94.4127 84.7544C95.0885 84.7544 95.6678 84.9474 96.1505 85.1404C97.2124 85.6228 97.9847 86.5877 98.4674 87.6491C98.4674 87.8421 98.564 87.9386 98.564 88.0351Z" fill="url(#paint18_linear)"/>
<path d="M92.7715 82.8246V84.4649L88.041 84.6579L88.3306 83.5965C88.4272 83.5965 88.4272 83.693 88.5237 83.693C88.7168 83.7895 88.8133 83.886 89.0064 83.9825C89.103 84.079 89.1995 84.079 89.296 84.1755C89.296 84.1755 89.296 84.1755 89.3926 84.272V83.2106C89.3926 83.2106 89.296 83.2106 89.296 83.1141C90.0684 83.5 91.2269 83.7895 92.7715 82.8246Z" fill="url(#paint19_linear)"/>
<path d="M95.8602 76.3597C94.8948 76.6491 93.9294 76.8421 92.964 76.7456C91.4193 76.6491 89.8747 75.9737 88.7162 74.9123C88.33 76.0702 87.3646 76.9386 86.2061 77.4211C86.013 77.5176 85.9165 77.5175 85.7234 77.614C85.7234 77.614 85.7234 77.614 85.7234 77.5175C85.6269 76.6491 85.7234 75.8772 85.9165 75.0088C86.2061 74.2368 86.6888 73.4649 87.2681 72.886C87.2681 72.886 87.3646 72.886 87.3646 72.7895C87.4612 72.693 87.5577 72.5965 87.6542 72.5C88.2335 72.114 88.9093 71.8246 89.585 71.6316C89.9712 71.5351 90.3574 71.5351 90.7435 71.5351C92.6744 71.5351 94.4121 72.5965 95.2809 74.2368C95.5706 74.9123 95.7636 75.3947 95.8602 75.8772C95.8602 76.0702 95.8602 76.1667 95.8602 76.3597Z" fill="#1C3754"/>
<path d="M89.8744 87.4562C89.4882 87.9386 88.7159 88.0351 88.0401 87.9386C88.7159 87.2632 88.3298 85.0439 85.9162 85.3334C82.5373 84.6579 82.9235 81.2807 86.2059 80.2193L86.7851 80.0263L86.8816 80.1228C87.1713 80.7983 87.4609 81.3772 87.847 81.8597C86.4955 83.0176 88.3298 83.307 89.2952 84.1755C89.9709 84.6579 90.6467 86.4913 89.8744 87.4562Z" fill="#1C3754"/>
<path d="M102.521 79.1579C102.521 82.7281 100.977 85.9123 98.5632 88.1316C96.3427 90.1579 93.4465 91.4123 90.2607 91.4123C87.6541 91.4123 85.2406 90.6404 83.3097 89.2895C80.1239 87.0702 78 83.4035 78 79.2544C78 72.5 83.5028 67 90.2607 67C97.0185 67 102.521 72.4035 102.521 79.1579Z" stroke="white" stroke-width="1.492" stroke-miterlimit="10" stroke-linecap="round" stroke-linejoin="round"/>
<path d="M40.4377 24.2105C40.4377 28.5526 38.6999 32.5088 35.9968 35.4035C35.8037 35.693 35.5141 35.886 35.2245 36.1754C32.3283 38.8772 28.4666 40.5176 24.2188 40.5176C20.8399 40.5176 17.6541 39.4561 14.9509 37.6228C14.1786 37.1404 13.5028 36.4649 12.827 35.886C9.83427 32.8947 8 28.8421 8 24.307C8 15.2368 15.2406 8 24.2188 8C33.1971 8 40.4377 15.2368 40.4377 24.2105Z" fill="#E9F0F8"/>
<path d="M40.4377 24.2105C40.4377 28.9386 38.4103 33.1842 35.2245 36.079C32.3283 38.7807 28.4666 40.4211 24.2188 40.4211C20.8399 40.4211 17.6541 39.3597 14.9509 37.5263C10.7031 34.6316 8 29.7105 8 24.2105C8 15.2368 15.2406 8 24.2188 8C33.1971 8 40.4377 15.2368 40.4377 24.2105Z" fill="#E9F0F8"/>
<path d="M35.9959 35.4035C35.8029 35.6929 35.5132 35.8859 35.2236 36.1754C32.3274 38.8772 28.4658 40.5175 24.218 40.5175C20.839 40.5175 17.6532 39.4561 14.9501 37.6228C14.1777 37.1403 13.502 36.4649 12.8262 35.8859C13.2123 35.4035 13.7916 35.114 15.0466 34.6315L15.5293 34.4386C16.4947 34.0526 17.8463 33.5701 19.584 32.7982C19.8736 32.7017 20.0667 32.5087 20.2598 32.3158C20.3563 32.2193 20.4529 32.1228 20.4529 31.9298C20.5494 31.7368 20.646 31.4473 20.646 31.2544V27.9736C20.5494 27.8772 20.5494 27.8772 20.4529 27.7807C20.1633 27.3947 19.9702 26.9122 19.9702 26.3333L19.6806 26.2368C18.8117 26.4298 18.9082 25.5614 18.7152 23.8245C18.6186 23.0526 18.7152 22.9561 19.1013 22.8596L19.3909 22.4736C18.8117 21.0263 18.5221 19.8684 18.5221 18.9035C18.5221 17.2631 19.1979 16.2017 20.1633 15.7193C19.584 14.2719 19.584 13.8859 19.584 13.8859C19.584 13.8859 22.9629 14.4649 24.218 14.2719C25.6661 13.9824 27.9831 14.3684 28.8519 16.2982C30.3 16.8772 30.7827 17.7456 30.9758 18.7105C31.1689 20.2543 30.3 21.9912 30.107 22.5701V22.6666C30.3 22.7631 30.3966 22.9561 30.3 23.6315C30.107 25.2719 30.107 26.2368 29.3346 26.0438L28.5623 27.2982C28.5623 27.4912 28.5623 27.4912 28.4658 27.5877C28.4658 27.8772 28.4658 28.3596 28.4658 31.0614C28.4658 31.3508 28.5623 31.7368 28.7554 31.9298C28.8519 32.0263 28.8519 32.1228 28.9485 32.1228C29.1415 32.3158 29.3346 32.5087 29.5277 32.6052C31.4585 33.3772 32.9066 33.9561 33.872 34.3421C34.934 34.728 35.5132 35.0175 35.9959 35.4035Z" fill="white"/>
<path d="M35.9959 35.4035C35.8029 35.6929 35.5132 35.8859 35.2236 36.1754C32.3274 38.8771 28.4658 40.5175 24.218 40.5175C20.839 40.5175 17.6532 39.4561 14.9501 37.6228C14.1777 37.1403 13.502 36.4649 12.8262 35.8859C13.2123 35.4035 13.7916 35.114 15.0466 34.6315L15.5293 34.4385C16.4947 34.0526 17.8463 33.5701 19.584 32.7982C19.8736 32.7017 20.0667 32.5087 20.2598 32.3157C21.2252 33.6666 22.7699 34.535 24.6041 34.535C26.3419 34.535 27.8865 33.6666 28.8519 32.4122C29.045 32.6052 29.2381 32.7982 29.4312 32.8947C31.362 33.6666 32.8101 34.2456 33.7755 34.6315C34.934 34.728 35.5132 35.0175 35.9959 35.4035Z" fill="#634EFE"/>
<path d="M30.0113 22.5701C30.1078 22.1842 29.9147 21.6052 29.7216 21.3158C29.7216 21.2193 29.6251 21.2193 29.6251 21.1228C28.9493 19.7719 27.5012 19.2894 26.1496 19.1929C22.5776 19 22.288 19.6754 21.1295 18.7105C21.5157 19.1929 21.5157 20.0614 20.9364 21.0263C20.5503 21.7017 19.8745 22.0877 19.1987 22.2807C17.5575 18.614 18.4264 16.2982 19.971 15.5263C19.5849 14.2719 19.5849 13.8859 19.5849 13.8859C19.5849 13.8859 22.9638 14.4649 24.2188 14.2719C25.6669 13.9824 27.9839 14.3684 28.8528 16.2982C30.3009 16.8772 30.7836 17.7456 30.9767 18.7105C31.0732 20.2543 30.2043 21.8947 30.0113 22.5701Z" fill="#1C3754"/>
<path d="M20.6462 31.0614V27.7807C20.5497 27.6842 20.5497 27.6842 20.4531 27.5877V27.3947C20.6462 27.6842 20.8393 27.9737 21.1289 28.1666L23.7355 30C24.3148 30.4824 25.1836 30.4824 25.8594 30L28.2729 27.8772C28.3695 27.7807 28.466 27.6842 28.5625 27.6842C28.5625 27.9737 28.5625 28.4561 28.5625 31.1579C28.5625 31.3509 28.5625 31.4473 28.6591 31.6403H20.7427C20.6462 31.4473 20.6462 31.2544 20.6462 31.0614Z" fill="url(#paint20_linear)"/>
<path d="M40.4377 24.2105C40.4377 28.9386 38.4103 33.1842 35.2245 36.079C32.3283 38.7807 28.4666 40.4211 24.2188 40.4211C20.8399 40.4211 17.6541 39.3597 14.9509 37.5263C10.7031 34.6316 8 29.7105 8 24.2105C8 15.2368 15.2406 8 24.2188 8C33.1971 8 40.4377 15.2368 40.4377 24.2105Z" stroke="white" stroke-width="1.9345" stroke-miterlimit="10" stroke-linecap="round" stroke-linejoin="round"/>
<defs>
<linearGradient id="paint0_linear" x1="63.024" y1="105.293" x2="63.024" y2="90.2417" gradientUnits="userSpaceOnUse">
<stop stop-color="#F5F8FF"/>
<stop offset="0.9913" stop-color="#D8E0EB"/>
</linearGradient>
<linearGradient id="paint1_linear" x1="22.5508" y1="58.1463" x2="24.4884" y2="58.1463" gradientUnits="userSpaceOnUse">
<stop stop-color="#FFD600"/>
<stop offset="1" stop-color="#FFBE07"/>
</linearGradient>
<linearGradient id="paint2_linear" x1="26.5013" y1="42.9518" x2="28.4389" y2="42.9518" gradientUnits="userSpaceOnUse">
<stop stop-color="#FFD600"/>
<stop offset="1" stop-color="#FFBE07"/>
</linearGradient>
<linearGradient id="paint3_linear" x1="30.4498" y1="58.1463" x2="32.3874" y2="58.1463" gradientUnits="userSpaceOnUse">
<stop stop-color="#866FFE"/>
<stop offset="1" stop-color="#3A30F2"/>
</linearGradient>
<linearGradient id="paint4_linear" x1="35.3209" y1="64.7369" x2="35.3209" y2="66.6667" gradientUnits="userSpaceOnUse">
<stop stop-color="#866FFE"/>
<stop offset="1" stop-color="#3A30F2"/>
</linearGradient>
<linearGradient id="paint5_linear" x1="38.3496" y1="54.3478" x2="40.2872" y2="54.3478" gradientUnits="userSpaceOnUse">
<stop stop-color="#FFD600"/>
<stop offset="1" stop-color="#FFBE07"/>
</linearGradient>
<linearGradient id="paint6_linear" x1="50.199" y1="73.341" x2="52.1366" y2="73.341" gradientUnits="userSpaceOnUse">
<stop stop-color="#866FFE"/>
<stop offset="1" stop-color="#3A30F2"/>
</linearGradient>
<linearGradient id="paint7_linear" x1="54.1475" y1="65.7437" x2="56.085" y2="65.7437" gradientUnits="userSpaceOnUse">
<stop stop-color="#FFBE07"/>
<stop offset="1" stop-color="#FFD600"/>
</linearGradient>
<linearGradient id="paint8_linear" x1="85.7763" y1="54.3478" x2="87.7139" y2="54.3478" gradientUnits="userSpaceOnUse">
<stop stop-color="#FFD600"/>
<stop offset="1" stop-color="#FFBE07"/>
</linearGradient>
<linearGradient id="paint9_linear" x1="90.7349" y1="45.8246" x2="90.7349" y2="47.7544" gradientUnits="userSpaceOnUse">
<stop stop-color="#866FFE"/>
<stop offset="1" stop-color="#3A30F2"/>
</linearGradient>
<linearGradient id="paint10_linear" x1="97.6246" y1="73.341" x2="99.5622" y2="73.341" gradientUnits="userSpaceOnUse">
<stop stop-color="#83A6FF"/>
<stop offset="0.0001" stop-color="#866FFE"/>
<stop offset="1" stop-color="#3A30F2"/>
</linearGradient>
<linearGradient id="paint11_linear" x1="97.6246" y1="54.3478" x2="99.5622" y2="54.3478" gradientUnits="userSpaceOnUse">
<stop stop-color="#866FFE"/>
<stop offset="1" stop-color="#3A30F2"/>
</linearGradient>
<linearGradient id="paint12_linear" x1="101.575" y1="65.7437" x2="103.513" y2="65.7437" gradientUnits="userSpaceOnUse">
<stop stop-color="#FFD600"/>
<stop offset="1" stop-color="#FFBE07"/>
</linearGradient>
<linearGradient id="paint13_linear" x1="62.0465" y1="54.3478" x2="63.984" y2="54.3478" gradientUnits="userSpaceOnUse">
<stop stop-color="#83A6FF"/>
<stop offset="1" stop-color="#5A78FF"/>
</linearGradient>
<linearGradient id="paint14_linear" x1="65.9969" y1="61.945" x2="67.9344" y2="61.945" gradientUnits="userSpaceOnUse">
<stop stop-color="#FFBE07"/>
<stop offset="1" stop-color="#FFD600"/>
</linearGradient>
<linearGradient id="paint15_linear" x1="65.9969" y1="50.5491" x2="67.9344" y2="50.5491" gradientUnits="userSpaceOnUse">
<stop stop-color="#83A6FF"/>
<stop offset="1" stop-color="#5A78FF"/>
</linearGradient>
<linearGradient id="paint16_linear" x1="73.8959" y1="50.5491" x2="75.8335" y2="50.5491" gradientUnits="userSpaceOnUse">
<stop stop-color="#866FFE"/>
<stop offset="1" stop-color="#3A30F2"/>
</linearGradient>
<linearGradient id="paint17_linear" x1="66.44" y1="58.1187" x2="75.9871" y2="58.1187" gradientUnits="userSpaceOnUse">
<stop stop-color="#FFBE07"/>
<stop offset="1" stop-color="#FFBE07"/>
</linearGradient>
<linearGradient id="paint18_linear" x1="83.3405" y1="87.8361" x2="98.6057" y2="87.8361" gradientUnits="userSpaceOnUse">
<stop stop-color="#FF66A9"/>
<stop offset="0.0001" stop-color="#FFD600"/>
</linearGradient>
<linearGradient id="paint19_linear" x1="90.4193" y1="84.4454" x2="90.4193" y2="83.7087" gradientUnits="userSpaceOnUse">
<stop stop-color="white"/>
<stop offset="0.9913" stop-color="#E6EDF7"/>
</linearGradient>
<linearGradient id="paint20_linear" x1="24.5432" y1="31.5717" x2="24.5432" y2="29.2838" gradientUnits="userSpaceOnUse">
<stop stop-color="white"/>
<stop offset="0.9913" stop-color="#E6EDF7"/>
</linearGradient>
</defs>
</svg>
