<svg width="105" height="113" viewBox="0 0 105 113" fill="none" xmlns="http://www.w3.org/2000/svg">
<path d="M54.2676 99.8806C81.0534 99.8806 102.768 78.1664 102.768 51.3806C102.768 24.5948 81.0534 2.88062 54.2676 2.88062C27.4818 2.88062 5.76758 24.5948 5.76758 51.3806C5.76758 78.1664 27.4818 99.8806 54.2676 99.8806Z" fill="#EAEEF9"/>
<path d="M4.64011 18.7257C6.19319 18.2209 7.04299 16.5527 6.5382 14.9996C6.03341 13.4465 4.36517 12.5967 2.8121 13.1015C1.25902 13.6063 0.409214 15.2745 0.914005 16.8276C1.4188 18.3807 3.08703 19.2305 4.64011 18.7257Z" fill="url(#paint0_linear)"/>
<path d="M11.0947 9.07768C12.1508 8.73443 12.7287 7.60003 12.3854 6.54393C12.0422 5.48784 10.9078 4.90997 9.85168 5.25323C8.79559 5.59649 8.21772 6.73089 8.56098 7.78698C8.90424 8.84308 10.0386 9.42094 11.0947 9.07768Z" fill="#EAEEF9"/>
<path d="M102.794 9.81804C103.566 9.11296 103.62 7.91591 102.914 7.14435C102.209 6.3728 101.012 6.31891 100.241 7.02399C99.4692 7.72907 99.4153 8.92613 100.12 9.69768C100.825 10.4692 102.023 10.5231 102.794 9.81804Z" fill="url(#paint1_linear)"/>
<path d="M9.14371 106.564C9.91527 105.858 9.96915 104.661 9.26407 103.89C8.55899 103.118 7.36194 103.064 6.59038 103.769C5.81883 104.475 5.76495 105.672 6.47003 106.443C7.17511 107.215 8.37216 107.269 9.14371 106.564Z" fill="#EAEEF9"/>
<path d="M53.8867 20.2796L63.2308 1" stroke="url(#paint2_linear)" stroke-width="2" stroke-miterlimit="10" stroke-linecap="round" stroke-linejoin="round"/>
<g filter="url(#filter0_dd)">
<path d="M89.6069 13.6559V104.968C89.6069 107.57 87.4778 109.699 84.8757 109.699H22.8972C20.295 109.699 18.166 107.57 18.166 104.968V13.6559C18.166 11.0537 20.295 8.92468 22.8972 8.92468H84.8757C87.4778 8.92468 89.6069 11.0537 89.6069 13.6559Z" fill="white"/>
</g>
<path d="M22.5422 51.2688H20.2949V53.5161H22.5422V51.2688Z" fill="#EAEEF9"/>
<path d="M22.5422 46.7742H20.2949V49.0215H22.5422V46.7742Z" fill="#EAEEF9"/>
<path d="M22.5422 42.2795H20.2949V44.5269H22.5422V42.2795Z" fill="#EAEEF9"/>
<path d="M22.5422 37.9031H20.2949V40.1504H22.5422V37.9031Z" fill="url(#paint3_linear)"/>
<path d="M22.5422 28.9138H20.2949V31.1611H22.5422V28.9138Z" fill="#F3F5FA"/>
<path d="M27.1555 55.645H24.9082V57.8923H27.1555V55.645Z" fill="#EAEEF9"/>
<path d="M27.1555 51.2688H24.9082V53.5161H27.1555V51.2688Z" fill="#EAEEF9"/>
<path d="M27.1555 37.9031H24.9082V40.1504H27.1555V37.9031Z" fill="#EAEEF9"/>
<path d="M27.1555 20.043H24.9082V22.2903H27.1555V20.043Z" fill="url(#paint4_linear)"/>
<path d="M31.7688 55.645H29.5215V57.8923H31.7688V55.645Z" fill="#EAEEF9"/>
<path d="M31.7688 46.7742H29.5215V49.0215H31.7688V46.7742Z" fill="#EAEEF9"/>
<path d="M31.7688 42.2795H29.5215V44.5269H31.7688V42.2795Z" fill="#EAEEF9"/>
<path d="M31.7688 37.9031H29.5215V40.1504H31.7688V37.9031Z" fill="url(#paint5_linear)"/>
<path d="M31.7688 33.4084H29.5215V35.6558H31.7688V33.4084Z" fill="#F3F5FA"/>
<path d="M31.7688 28.9138H29.5215V31.1611H31.7688V28.9138Z" fill="#EAEEF9"/>
<path d="M31.7688 20.043H29.5215V22.2903H31.7688V20.043Z" fill="#EAEEF9"/>
<path d="M31.7688 15.5483H29.5215V17.7957H31.7688V15.5483Z" fill="#F3F5FA"/>
<path d="M36.3801 51.2688H34.1328V53.5161H36.3801V51.2688Z" fill="#EAEEF9"/>
<path d="M36.3801 46.7742H34.1328V49.0215H36.3801V46.7742Z" fill="#EAEEF9"/>
<path d="M36.3801 33.4084H34.1328V35.6558H36.3801V33.4084Z" fill="#F3F5FA"/>
<path d="M36.3801 24.5376H34.1328V26.7849H36.3801V24.5376Z" fill="#EAEEF9"/>
<path d="M40.9934 55.645H38.7461V57.8923H40.9934V55.645Z" fill="#EAEEF9"/>
<path d="M40.9934 51.2688H38.7461V53.5161H40.9934V51.2688Z" fill="#EAEEF9"/>
<path d="M40.9934 37.9031H38.7461V40.1504H40.9934V37.9031Z" fill="#EAEEF9"/>
<path d="M40.9934 33.4084H38.7461V35.6558H40.9934V33.4084Z" fill="url(#paint6_linear)"/>
<path d="M40.9934 28.9138H38.7461V31.1611H40.9934V28.9138Z" fill="#F3F5FA"/>
<path d="M45.6067 55.645H43.3594V57.8923H45.6067V55.645Z" fill="#EAEEF9"/>
<path d="M45.6067 51.2688H43.3594V53.5161H45.6067V51.2688Z" fill="#EAEEF9"/>
<path d="M45.6067 46.7742H43.3594V49.0215H45.6067V46.7742Z" fill="#EAEEF9"/>
<path d="M45.6067 42.2795H43.3594V44.5269H45.6067V42.2795Z" fill="#EAEEF9"/>
<path d="M45.6067 37.9031H43.3594V40.1504H45.6067V37.9031Z" fill="#EAEEF9"/>
<path d="M45.6067 33.4084H43.3594V35.6558H45.6067V33.4084Z" fill="#EAEEF9"/>
<path d="M45.6067 20.043H43.3594V22.2903H45.6067V20.043Z" fill="#EAEEF9"/>
<path d="M50.22 55.645H47.9727V57.8923H50.22V55.645Z" fill="#EAEEF9"/>
<path d="M50.22 51.2688H47.9727V53.5161H50.22V51.2688Z" fill="#EAEEF9"/>
<path d="M50.22 46.7742H47.9727V49.0215H50.22V46.7742Z" fill="#EAEEF9"/>
<path d="M50.22 37.9031H47.9727V40.1504H50.22V37.9031Z" fill="#EAEEF9"/>
<path d="M50.22 33.4084H47.9727V35.6558H50.22V33.4084Z" fill="#F3F5FA"/>
<path d="M54.8332 55.645H52.5859V57.8923H54.8332V55.645Z" fill="url(#paint7_linear)"/>
<path d="M54.8332 51.2688H52.5859V53.5161H54.8332V51.2688Z" fill="#EAEEF9"/>
<path d="M54.8332 46.7742H52.5859V49.0215H54.8332V46.7742Z" fill="#EAEEF9"/>
<path d="M54.8332 42.2795H52.5859V44.5269H54.8332V42.2795Z" fill="#F3F5FA"/>
<path d="M54.8332 37.9031H52.5859V40.1504H54.8332V37.9031Z" fill="#EAEEF9"/>
<path d="M54.8332 28.9138H52.5859V31.1611H54.8332V28.9138Z" fill="#EAEEF9"/>
<path d="M59.5637 55.645H57.3164V57.8923H59.5637V55.645Z" fill="#EAEEF9"/>
<path d="M59.5637 51.2688H57.3164V53.5161H59.5637V51.2688Z" fill="#EAEEF9"/>
<path d="M59.5637 46.7742H57.3164V49.0215H59.5637V46.7742Z" fill="url(#paint8_linear)"/>
<path d="M59.5637 42.2795H57.3164V44.5269H59.5637V42.2795Z" fill="#EAEEF9"/>
<path d="M59.5637 37.9031H57.3164V40.1504H59.5637V37.9031Z" fill="#EAEEF9"/>
<path d="M59.5637 33.4084H57.3164V35.6558H59.5637V33.4084Z" fill="#EAEEF9"/>
<path d="M64.177 55.645H61.9297V57.8923H64.177V55.645Z" fill="#EAEEF9"/>
<path d="M64.177 51.2688H61.9297V53.5161H64.177V51.2688Z" fill="#EAEEF9"/>
<path d="M64.177 46.7742H61.9297V49.0215H64.177V46.7742Z" fill="#EAEEF9"/>
<path d="M64.177 37.9031H61.9297V40.1504H64.177V37.9031Z" fill="#F3F5FA"/>
<path d="M64.177 28.9138H61.9297V31.1611H64.177V28.9138Z" fill="#EAEEF9"/>
<path d="M64.177 15.5483H61.9297V17.7957H64.177V15.5483Z" fill="#F3F5FA"/>
<path d="M68.7903 51.2688H66.543V53.5161H68.7903V51.2688Z" fill="#EAEEF9"/>
<path d="M68.7903 46.7742H66.543V49.0215H68.7903V46.7742Z" fill="#F3F5FA"/>
<path d="M68.7903 42.2795H66.543V44.5269H68.7903V42.2795Z" fill="#EAEEF9"/>
<path d="M68.7903 24.5376H66.543V26.7849H68.7903V24.5376Z" fill="#EAEEF9"/>
<path d="M73.4016 55.645H71.1543V57.8923H73.4016V55.645Z" fill="#EAEEF9"/>
<path d="M73.4016 46.7742H71.1543V49.0215H73.4016V46.7742Z" fill="#EAEEF9"/>
<path d="M73.4016 42.2795H71.1543V44.5269H73.4016V42.2795Z" fill="url(#paint9_linear)"/>
<path d="M73.4016 37.9031H71.1543V40.1504H73.4016V37.9031Z" fill="#EAEEF9"/>
<path d="M73.4016 33.4084H71.1543V35.6558H73.4016V33.4084Z" fill="#F3F5FA"/>
<path d="M73.4016 28.9138H71.1543V31.1611H73.4016V28.9138Z" fill="url(#paint10_linear)"/>
<path d="M78.0149 55.645H75.7676V57.8923H78.0149V55.645Z" fill="#EAEEF9"/>
<path d="M78.0149 42.2795H75.7676V44.5269H78.0149V42.2795Z" fill="#F3F5FA"/>
<path d="M78.0149 33.4084H75.7676V35.6558H78.0149V33.4084Z" fill="#EAEEF9"/>
<path d="M82.6282 55.645H80.3809V57.8923H82.6282V55.645Z" fill="#EAEEF9"/>
<path d="M82.6282 51.2688H80.3809V53.5161H82.6282V51.2688Z" fill="#EAEEF9"/>
<path d="M82.6282 46.7742H80.3809V49.0215H82.6282V46.7742Z" fill="#EAEEF9"/>
<path d="M82.6282 42.2795H80.3809V44.5269H82.6282V42.2795Z" fill="#EAEEF9"/>
<path d="M82.6282 37.9031H80.3809V40.1504H82.6282V37.9031Z" fill="#F3F5FA"/>
<path d="M82.6282 24.5376H80.3809V26.7849H82.6282V24.5376Z" fill="#EAEEF9"/>
<path d="M87.2414 55.645H84.9941V57.8923H87.2414V55.645Z" fill="url(#paint11_linear)"/>
<path d="M87.2414 46.7742H84.9941V49.0215H87.2414V46.7742Z" fill="#EAEEF9"/>
<path d="M87.2414 42.2795H84.9941V44.5269H87.2414V42.2795Z" fill="#F3F5FA"/>
<path d="M85.075 71.3484L87.3223 71.3484L87.3223 69.1011L85.075 69.1011L85.075 71.3484Z" fill="#EAEEF9"/>
<path d="M85.075 66.8198L87.3223 66.8198L87.3223 64.5725L85.075 64.5725L85.075 66.8198Z" fill="#EAEEF9"/>
<path d="M85.075 62.4094L87.3223 62.4094L87.3223 60.1621L85.075 60.1621L85.075 62.4094Z" fill="#EAEEF9"/>
<path d="M80.4343 75.7588L82.6816 75.7588L82.6816 73.5115L80.4343 73.5115L80.4343 75.7588Z" fill="#EAEEF9"/>
<path d="M80.4343 71.3484L82.6816 71.3484L82.6816 69.1011L80.4343 69.1011L80.4343 71.3484Z" fill="#EAEEF9"/>
<path d="M80.4343 62.4094L82.6816 62.4094L82.6816 60.1621L80.4343 60.1621L80.4343 62.4094Z" fill="#EAEEF9"/>
<path d="M75.7917 75.7588L78.0391 75.7588L78.0391 73.5115L75.7917 73.5115L75.7917 75.7588Z" fill="#EAEEF9"/>
<path d="M75.7917 71.3484L78.0391 71.3484L78.0391 69.1011L75.7917 69.1011L75.7917 71.3484Z" fill="#EAEEF9"/>
<path d="M75.7917 66.8198L78.0391 66.8198L78.0391 64.5725L75.7917 64.5725L75.7917 66.8198Z" fill="url(#paint12_linear)"/>
<path d="M75.7917 62.4094L78.0391 62.4094L78.0391 60.1621L75.7917 60.1621L75.7917 62.4094Z" fill="#EAEEF9"/>
<path d="M71.1511 75.7588L73.3984 75.7588L73.3984 73.5115L71.1511 73.5115L71.1511 75.7588Z" fill="#EAEEF9"/>
<path d="M71.1511 71.3484L73.3984 71.3484L73.3984 69.1011L71.1511 69.1011L71.1511 71.3484Z" fill="#EAEEF9"/>
<path d="M71.1511 66.8198L73.3984 66.8198L73.3984 64.5725L71.1511 64.5725L71.1511 66.8198Z" fill="#EAEEF9"/>
<path d="M71.1511 62.4094L73.3984 62.4094L73.3984 60.1621L71.1511 60.1621L71.1511 62.4094Z" fill="#EAEEF9"/>
<path d="M66.5105 75.7588L68.7578 75.7588L68.7578 73.5115L66.5105 73.5115L66.5105 75.7588Z" fill="#EAEEF9"/>
<path d="M66.5105 71.3484L68.7578 71.3484L68.7578 69.1011L66.5105 69.1011L66.5105 71.3484Z" fill="#EAEEF9"/>
<path d="M66.5105 66.8198L68.7578 66.8198L68.7578 64.5725L66.5105 64.5725L66.5105 66.8198Z" fill="#EAEEF9"/>
<path d="M61.8679 75.7588L64.1152 75.7588L64.1152 73.5115L61.8679 73.5115L61.8679 75.7588Z" fill="#EAEEF9"/>
<path d="M61.8679 71.3484L64.1152 71.3484L64.1152 69.1011L61.8679 69.1011L61.8679 71.3484Z" fill="#EAEEF9"/>
<path d="M61.8679 66.8198L64.1152 66.8198L64.1152 64.5725L61.8679 64.5725L61.8679 66.8198Z" fill="#EAEEF9"/>
<path d="M61.8679 62.4094L64.1152 62.4094L64.1152 60.1621L61.8679 60.1621L61.8679 62.4094Z" fill="#EAEEF9"/>
<path d="M57.2273 75.7588L59.4746 75.7588L59.4746 73.5115L57.2273 73.5115L57.2273 75.7588Z" fill="#EAEEF9"/>
<path d="M57.2273 71.3484L59.4746 71.3484L59.4746 69.1011L57.2273 69.1011L57.2273 71.3484Z" fill="#EAEEF9"/>
<path d="M57.2273 66.8198L59.4746 66.8198L59.4746 64.5725L57.2273 64.5725L57.2273 66.8198Z" fill="#EAEEF9"/>
<path d="M52.5859 75.7527H54.9515V73.5054H52.5859V75.7527Z" fill="url(#paint13_linear)"/>
<path d="M52.7039 71.3484L54.9512 71.3484L54.9512 69.1011L52.7039 69.1011L52.7039 71.3484Z" fill="#EAEEF9"/>
<path d="M52.7039 66.8198L54.9512 66.8198L54.9512 64.5725L52.7039 64.5725L52.7039 66.8198Z" fill="#EAEEF9"/>
<path d="M52.7039 62.4094L54.9512 62.4094L54.9512 60.1621L52.7039 60.1621L52.7039 62.4094Z" fill="#F3F5FA"/>
<path d="M48.0632 75.7588L50.3105 75.7588L50.3105 73.5115L48.0632 73.5115L48.0632 75.7588Z" fill="#EAEEF9"/>
<path d="M48.0632 71.3484L50.3105 71.3484L50.3105 69.1011L48.0632 69.1011L48.0632 71.3484Z" fill="#EAEEF9"/>
<path d="M47.9727 66.8816H50.22V64.6343H47.9727V66.8816Z" fill="url(#paint14_linear)"/>
<path d="M48.0632 62.4094L50.3105 62.4094L50.3105 60.1621L48.0632 60.1621L48.0632 62.4094Z" fill="#EAEEF9"/>
<path d="M43.4207 75.7588L45.668 75.7588L45.668 73.5115L43.4207 73.5115L43.4207 75.7588Z" fill="#EAEEF9"/>
<path d="M43.4207 71.3484L45.668 71.3484L45.668 69.1011L43.4207 69.1011L43.4207 71.3484Z" fill="#EAEEF9"/>
<path d="M43.4207 66.8198L45.668 66.8198L45.668 64.5725L43.4207 64.5725L43.4207 66.8198Z" fill="#EAEEF9"/>
<path d="M38.78 71.3484L41.0273 71.3484L41.0273 69.1011L38.78 69.1011L38.78 71.3484Z" fill="#EAEEF9"/>
<path d="M38.78 66.8198L41.0273 66.8198L41.0273 64.5725L38.78 64.5725L38.78 66.8198Z" fill="#F3F5FA"/>
<path d="M38.78 62.4094L41.0273 62.4094L41.0273 60.1621L38.78 60.1621L38.78 62.4094Z" fill="#EAEEF9"/>
<path d="M34.1394 75.7588L36.3867 75.7588L36.3867 73.5115L34.1394 73.5115L34.1394 75.7588Z" fill="#EAEEF9"/>
<path d="M34.1394 66.8198L36.3867 66.8198L36.3867 64.5725L34.1394 64.5725L34.1394 66.8198Z" fill="#EAEEF9"/>
<path d="M34.1328 62.387H36.3801V60.1396H34.1328V62.387Z" fill="url(#paint15_linear)"/>
<path d="M29.4968 75.7588L31.7441 75.7588L31.7441 73.5115L29.4968 73.5115L29.4968 75.7588Z" fill="#EAEEF9"/>
<path d="M29.4968 62.4094L31.7441 62.4094L31.7441 60.1621L29.4968 60.1621L29.4968 62.4094Z" fill="#F3F5FA"/>
<path d="M24.8562 75.7588L27.1035 75.7588L27.1035 73.5115L24.8562 73.5115L24.8562 75.7588Z" fill="#EAEEF9"/>
<path d="M24.8562 71.3484L27.1035 71.3484L27.1035 69.1011L24.8562 69.1011L24.8562 71.3484Z" fill="#EAEEF9"/>
<path d="M24.8562 66.8198L27.1035 66.8198L27.1035 64.5725L24.8562 64.5725L24.8562 66.8198Z" fill="#EAEEF9"/>
<path d="M20.2156 75.7588L22.4629 75.7588L22.4629 73.5115L20.2156 73.5115L20.2156 75.7588Z" fill="#EAEEF9"/>
<path d="M20.2156 66.8198L22.4629 66.8198L22.4629 64.5725L20.2156 64.5725L20.2156 66.8198Z" fill="#EAEEF9"/>
<path d="M20.2156 62.4094L22.4629 62.4094L22.4629 60.1621L20.2156 60.1621L20.2156 62.4094Z" fill="#F3F5FA"/>
<path d="M53.8857 24.8925C56.6293 24.8925 58.8535 22.6684 58.8535 19.9248C58.8535 17.1812 56.6293 14.957 53.8857 14.957C51.1421 14.957 48.918 17.1812 48.918 19.9248C48.918 22.6684 51.1421 24.8925 53.8857 24.8925Z" fill="#EAEEF9"/>
<path d="M53.6496 20.2796L44.4238 1" stroke="url(#paint16_linear)" stroke-width="2" stroke-miterlimit="10" stroke-linecap="round" stroke-linejoin="round"/>
<path d="M73.9948 76.1076C73.9948 75.871 73.8765 75.5162 73.7582 75.2796C73.6399 74.8065 73.5217 74.4517 73.4034 74.0968C73.2851 73.742 73.1668 73.5054 73.0485 73.2689C71.8657 70.785 69.9733 68.4194 67.3711 67.1183C66.07 66.5269 64.6507 66.0538 63.1131 66.0538C62.6399 66.0538 62.2851 66.0538 61.9303 66.0538C60.8657 66.0538 60.1561 65.9355 59.8012 65.8173C59.2098 65.699 59.0916 65.4624 59.0916 65.4624V61.0861C60.5109 59.9033 61.6937 58.7205 62.7582 57.3011C63.7045 55.8818 64.5324 54.3442 64.8872 52.6882C66.5432 52.3334 67.726 50.7958 67.4894 49.0216C67.3711 48.1936 66.898 47.6022 66.898 46.7743C66.898 46.4194 66.898 45.9463 66.898 45.5915C66.898 45.3549 66.898 45.1183 66.898 44.7635C66.898 44.5269 66.898 44.2904 66.7797 43.9355C66.6614 42.9893 66.4249 41.9248 65.9518 40.742C65.8335 40.3872 65.5969 40.0323 65.4786 39.6775C63.3496 35.656 59.0915 32.9355 54.2421 32.9355C53.2958 32.9355 52.3496 33.0538 51.4034 33.2904C49.7475 33.6452 48.0915 34.4732 46.6722 35.5377C46.4356 35.7743 46.0808 36.0108 45.8442 36.2474C45.8442 36.2474 45.726 36.3657 45.6077 36.3657C44.07 37.785 42.8872 39.5592 42.2958 41.57C41.5862 43.5807 41.4679 45.5915 41.7045 47.7205V47.8388V47.9571C41.7045 48.3119 41.8227 48.3119 41.5862 48.5485C41.4679 48.6667 41.4679 48.785 41.3496 48.9033C40.9948 49.4947 40.7582 50.3226 41.1131 51.2689C41.7045 53.0431 43.0055 52.8065 44.3066 53.871C44.1883 53.871 44.1883 53.9893 44.07 53.9893L42.5324 54.5807C37.3281 56.2366 35.0808 60.3764 36.3819 63.57C36.6184 63.9248 36.7367 64.3979 37.0915 64.7528C38.0378 65.9355 39.5754 66.8818 41.8227 67.3549C41.2313 67.3549 40.6399 67.7097 40.2851 68.0646C37.6829 70.0753 36.027 73.2689 35.5539 76.3442C35.4356 77.2904 36.1453 78.1183 37.0915 78.1183H72.3389C73.4034 78.0001 74.2313 77.0538 73.9948 76.1076ZM46.5539 58.6022C46.9088 59.0753 47.2636 59.5484 47.7367 60.0216C48.0915 60.3764 48.4464 60.613 48.9195 60.9678C49.1561 61.2044 49.5109 61.3226 49.7475 61.5592L49.8657 61.6775C49.984 61.6775 49.984 61.7958 50.1023 61.914V64.5162L49.984 64.3979C49.7475 64.1614 49.5109 63.9248 49.2743 63.8065C48.9195 63.57 48.4464 63.3334 48.0915 63.0968C47.9733 62.9786 47.855 62.9786 47.7367 62.8603C46.5539 62.1506 45.3711 61.3226 45.3711 60.4947C45.3711 59.9033 45.726 59.3119 46.5539 58.6022Z" fill="#EAEEF9"/>
<path d="M64.651 52.6882C64.2962 54.4624 63.5865 56 62.522 57.3011C61.4575 58.7205 60.2747 59.9032 58.8553 61.086V62.9785H54.0059V40.9785H65.5973C66.0704 42.1613 66.3069 43.1075 66.4252 44.1721C66.4252 44.4086 66.4252 44.7635 66.5435 45C66.5435 45.2366 66.5435 45.4731 66.5435 45.828C66.5435 46.1828 66.5435 46.6559 66.5435 47.0108C66.5435 47.8387 67.0166 48.4301 67.1349 49.2581C67.4897 50.7957 66.4252 52.3334 64.651 52.6882Z" fill="#E3E7F5"/>
<path d="M74.231 76.3441C73.1665 77.4087 71.5106 77.1721 70.3278 78.0001H37.2095C36.3816 78.0001 35.7902 77.4086 35.6719 76.699C35.6719 76.5807 35.6719 76.3441 35.6719 76.2259C36.145 73.1506 37.8009 70.0753 40.4031 67.9463C40.7579 67.5914 41.3493 67.3549 41.9407 67.2366C39.6934 66.7635 38.1557 65.8173 37.2095 64.6345C36.8547 64.2796 36.7364 63.9248 36.4998 63.4517H44.8977L45.2525 63.9248C47.145 66.5269 50.102 68.0646 53.2955 68.0646C55.6611 68.0646 58.0267 67.2366 59.8009 65.699C60.1557 65.8173 60.6289 65.8172 61.3385 65.9355C61.5751 65.9355 61.6934 65.9355 61.9299 65.9355C62.2848 65.9355 62.6396 65.9355 63.1127 65.9355C64.6504 65.9355 66.0697 66.4086 67.3708 67C69.973 68.3011 71.9837 70.6667 73.0482 73.1506C73.1665 73.3871 73.2848 73.742 73.4031 73.9785C73.5213 74.4517 74.1127 75.9893 74.231 76.3441Z" fill="white"/>
<path d="M74.2321 76.3442C73.1676 77.4087 71.5117 77.1722 70.3289 78.0001H37.5654C36.8558 77.6453 36.2644 77.1722 35.5547 76.699C35.5547 76.5808 35.5547 76.3442 35.5547 76.2259C36.0278 73.1507 37.6837 70.0754 40.2859 67.9463C40.6407 67.5915 41.2321 67.355 41.8235 67.2367C39.5762 66.7636 38.0386 65.8173 37.0923 64.6345H44.1891C46.1998 67.4732 49.5117 69.2474 53.1783 69.2474C56.3719 69.2474 59.0923 67.9463 61.2214 65.8173C61.4579 65.8173 61.5762 65.8173 61.8128 65.8173C62.1676 65.8173 62.5224 65.8173 62.9956 65.8173C64.5332 65.8173 65.9525 66.2904 67.2536 66.8818C69.8558 68.1829 71.8665 70.5485 72.931 73.0324C73.0493 73.2689 73.1676 73.6238 73.2859 73.8603C73.5224 74.4517 74.1138 75.9894 74.2321 76.3442Z" fill="url(#paint17_linear)"/>
<path d="M59.0908 61.0861C58.9725 61.0861 58.9725 61.0861 59.0908 61.0861L58.9725 65.8172L47.1445 66.1721L47.7359 62.8603C47.8542 62.9785 47.9725 62.9785 48.0908 63.0968C48.4456 63.3334 48.9187 63.5699 49.2736 63.8065C49.5101 63.9248 49.7467 64.1613 49.9832 64.3979L50.1015 64.5162V61.914C49.9832 61.914 49.9832 61.7957 49.865 61.7957C52.2306 62.8603 55.0693 63.4517 59.0908 61.0861Z" fill="url(#paint18_linear)"/>
<path d="M66.6606 44.8818C64.295 45.7098 61.8111 45.9463 59.3273 45.828C55.424 45.4732 51.6391 43.9356 48.6821 41.3334C47.8541 44.1721 45.3703 46.3012 42.6498 47.4839C42.295 47.6022 41.9402 47.8388 41.5853 47.9571V47.8388C41.3488 45.828 41.467 43.699 42.1767 41.6882C42.8864 39.6775 43.9509 37.9033 45.4886 36.4839C45.6068 36.3657 45.6068 36.3657 45.7251 36.3657C45.9617 36.1291 46.3165 35.8925 46.5531 35.656C47.9724 34.5915 49.5101 33.8818 51.2843 33.527C52.2305 33.2904 53.1767 33.1721 54.123 33.1721C58.9724 33.1721 63.2305 35.8925 65.3595 39.9141C66.1875 41.4517 66.5423 42.871 66.6606 44.0538C66.6606 44.4087 66.6606 44.6452 66.6606 44.8818Z" fill="#1C3754"/>
<path d="M51.7575 72.4409C50.693 73.742 48.8005 73.742 47.1446 73.742C48.9188 72.086 47.8543 66.6452 41.822 67.2366H41.7037C33.4241 65.6989 34.3704 57.0645 42.4134 54.5807L43.7145 54.1075C43.8328 54.2258 43.8327 54.2258 43.951 54.3441C44.5424 56 45.4887 57.4194 46.4349 58.6022C43.1231 61.3226 47.736 62.2688 49.9833 64.2796C51.994 65.4624 53.65 70.1936 51.7575 72.4409Z" fill="#1C3754"/>
<path d="M89.6069 75.9893V104.968C89.6069 107.57 87.4778 109.699 84.8757 109.699H22.8972C20.295 109.699 18.166 107.57 18.166 104.968V75.9893H89.6069Z" fill="#F7F8FD"/>
<path d="M63.1114 87.1075H44.6598C43.7136 87.1075 43.0039 86.3978 43.0039 85.4516C43.0039 84.5053 43.7136 83.7957 44.6598 83.7957H63.1114C64.0577 83.7957 64.7673 84.5053 64.7673 85.4516C64.7673 86.3978 64.0577 87.1075 63.1114 87.1075Z" fill="#866FFE"/>
<path d="M70.5646 94.4409H37.0915C36.1452 94.4409 35.4355 93.7312 35.4355 92.7849C35.4355 91.8387 36.1452 91.129 37.0915 91.129H70.5646C71.5108 91.129 72.2205 91.8387 72.2205 92.7849C72.2205 93.7312 71.5108 94.4409 70.5646 94.4409Z" fill="#866FFE"/>
<path d="M60.3928 101.892H47.2637C46.6723 101.892 46.1992 101.419 46.1992 100.828V99.6451C46.1992 99.0537 46.6723 98.5806 47.2637 98.5806H60.3928C60.9842 98.5806 61.4573 99.0537 61.4573 99.6451V100.828C61.4573 101.419 60.9842 101.892 60.3928 101.892Z" fill="#866FFE"/>
<defs>
<filter id="filter0_dd" x="17.166" y="7.92468" width="73.4414" height="104.774" filterUnits="userSpaceOnUse" color-interpolation-filters="sRGB">
<feFlood flood-opacity="0" result="BackgroundImageFix"/>
<feColorMatrix in="SourceAlpha" type="matrix" values="0 0 0 0 0 0 0 0 0 0 0 0 0 0 0 0 0 0 127 0" result="hardAlpha"/>
<feOffset/>
<feGaussianBlur stdDeviation="0.5"/>
<feColorMatrix type="matrix" values="0 0 0 0 0 0 0 0 0 0 0 0 0 0 0 0 0 0 0.25 0"/>
<feBlend mode="normal" in2="BackgroundImageFix" result="effect1_dropShadow"/>
<feColorMatrix in="SourceAlpha" type="matrix" values="0 0 0 0 0 0 0 0 0 0 0 0 0 0 0 0 0 0 127 0" result="hardAlpha"/>
<feOffset dy="2"/>
<feGaussianBlur stdDeviation="0.5"/>
<feColorMatrix type="matrix" values="0 0 0 0 0 0 0 0 0 0 0 0 0 0 0 0 0 0 0.05 0"/>
<feBlend mode="normal" in2="effect1_dropShadow" result="effect2_dropShadow"/>
<feBlend mode="normal" in="SourceGraphic" in2="effect2_dropShadow" result="shape"/>
</filter>
<linearGradient id="paint0_linear" x1="2.8121" y1="13.1015" x2="4.64011" y2="18.7257" gradientUnits="userSpaceOnUse">
<stop stop-color="#866FFE"/>
<stop offset="1" stop-color="#0016CC"/>
</linearGradient>
<linearGradient id="paint1_linear" x1="100.241" y1="7.02399" x2="102.794" y2="9.81804" gradientUnits="userSpaceOnUse">
<stop stop-color="#FFBE07"/>
<stop offset="1" stop-color="#FFD600"/>
</linearGradient>
<linearGradient id="paint2_linear" x1="58.5435" y1="21.4935" x2="58.5435" y2="-0.195925" gradientUnits="userSpaceOnUse">
<stop offset="0.00289017" stop-color="#83A6FF"/>
<stop offset="1" stop-color="#5A78FF"/>
</linearGradient>
<linearGradient id="paint3_linear" x1="20.2484" y1="39.0031" x2="22.5183" y2="39.0031" gradientUnits="userSpaceOnUse">
<stop stop-color="#FFD600"/>
<stop offset="1" stop-color="#FFBE07"/>
</linearGradient>
<linearGradient id="paint4_linear" x1="24.8759" y1="21.1932" x2="27.1458" y2="21.1932" gradientUnits="userSpaceOnUse">
<stop stop-color="#FFBE07"/>
<stop offset="1" stop-color="#FFD600"/>
</linearGradient>
<linearGradient id="paint5_linear" x1="29.5035" y1="39.0031" x2="31.7734" y2="39.0031" gradientUnits="userSpaceOnUse">
<stop stop-color="#866FFE"/>
<stop offset="1" stop-color="#3A30F2"/>
</linearGradient>
<linearGradient id="paint6_linear" x1="38.7565" y1="34.5506" x2="41.0264" y2="34.5506" gradientUnits="userSpaceOnUse">
<stop stop-color="#FFD600"/>
<stop offset="1" stop-color="#FFBE07"/>
</linearGradient>
<linearGradient id="paint7_linear" x1="52.6389" y1="56.813" x2="54.9088" y2="56.813" gradientUnits="userSpaceOnUse">
<stop stop-color="#83A6FF"/>
<stop offset="1" stop-color="#5A78FF"/>
</linearGradient>
<linearGradient id="paint8_linear" x1="57.2653" y1="47.9082" x2="59.5352" y2="47.9082" gradientUnits="userSpaceOnUse">
<stop stop-color="#FF66A9"/>
<stop offset="1" stop-color="#F53689"/>
</linearGradient>
<linearGradient id="paint9_linear" x1="71.1458" y1="43.4557" x2="73.4157" y2="43.4557" gradientUnits="userSpaceOnUse">
<stop stop-color="#FFBE07"/>
<stop offset="1" stop-color="#FFD600"/>
</linearGradient>
<linearGradient id="paint10_linear" x1="71.1458" y1="30.098" x2="73.4157" y2="30.098" gradientUnits="userSpaceOnUse">
<stop stop-color="#3A30F2"/>
<stop offset="1" stop-color="#3A30F2"/>
</linearGradient>
<linearGradient id="paint11_linear" x1="84.7684" y1="56.3805" x2="87.7684" y2="57.3805" gradientUnits="userSpaceOnUse">
<stop stop-color="#866FFE"/>
<stop offset="1" stop-color="#3A30F2"/>
</linearGradient>
<linearGradient id="paint12_linear" x1="76.9154" y1="66.8198" x2="76.9154" y2="64.5725" gradientUnits="userSpaceOnUse">
<stop stop-color="#FFD600"/>
<stop offset="1" stop-color="#FFBE07"/>
</linearGradient>
<linearGradient id="paint13_linear" x1="54.904" y1="74.6322" x2="52.6341" y2="74.6322" gradientUnits="userSpaceOnUse">
<stop stop-color="#83A6FF"/>
<stop offset="1" stop-color="#5A78FF"/>
</linearGradient>
<linearGradient id="paint14_linear" x1="50.2765" y1="65.7271" x2="48.0066" y2="65.7271" gradientUnits="userSpaceOnUse">
<stop stop-color="#FF66A9"/>
<stop offset="1" stop-color="#F53689"/>
</linearGradient>
<linearGradient id="paint15_linear" x1="36.394" y1="61.2745" x2="34.1241" y2="61.2745" gradientUnits="userSpaceOnUse">
<stop stop-color="#866FFE"/>
<stop offset="1" stop-color="#3A30F2"/>
</linearGradient>
<linearGradient id="paint16_linear" x1="49.037" y1="21.4935" x2="49.037" y2="-0.195925" gradientUnits="userSpaceOnUse">
<stop offset="0.00289017" stop-color="#3A30F2"/>
<stop offset="1" stop-color="#3A30F2"/>
</linearGradient>
<linearGradient id="paint17_linear" x1="35.5768" y1="71.3963" x2="74.1869" y2="71.3963" gradientUnits="userSpaceOnUse">
<stop stop-color="#FFD600"/>
<stop offset="1" stop-color="#FFBE07"/>
</linearGradient>
<linearGradient id="paint18_linear" x1="53.1111" y1="65.7989" x2="53.1111" y2="62.5025" gradientUnits="userSpaceOnUse">
<stop stop-color="#EAEEF9"/>
<stop offset="0.9913" stop-color="#CED5E6"/>
</linearGradient>
</defs>
</svg>
