<svg width="140" height="128" viewBox="0 0 140 128" fill="none" xmlns="http://www.w3.org/2000/svg">
<path d="M69.5 113C96.2858 113 118 91.2858 118 64.5C118 37.7142 96.2858 16 69.5 16C42.7142 16 21 37.7142 21 64.5C21 91.2858 42.7142 113 69.5 113Z" fill="#EAEEF9"/>
<rect x="57" y="86" width="25" height="9" fill="#1C3754"/>
<path d="M120.405 90.8021V93.4518C120.405 95.8225 118.307 97.7748 115.789 97.7748H23.6157C21.098 97.7748 19 95.8225 19 93.4518V90.8021H60.681C60.9607 91.7783 61.9398 92.4756 63.1986 92.4756H76.2064C77.3254 92.4756 78.3045 91.7783 78.7241 90.8021H120.405Z" fill="#3A5674"/>
<path d="M120.405 90.8021C120.405 93.1737 118.307 95.1268 115.789 95.1268H23.6157C21.098 95.1268 19 93.1737 19 90.8021H60.681C60.9607 91.7787 61.9398 92.4762 63.1986 92.4762H76.2064C77.3254 92.4762 78.3045 91.7787 78.7241 90.8021H120.405Z" fill="#3A5674"/>
<path d="M115.231 90.8021H24.1758V33.3469C24.1758 31.534 25.7143 30 27.5326 30H111.874C113.692 30 115.231 31.534 115.231 33.3469V90.8021Z" fill="#1C3754"/>
<path d="M92.9796 88H29V35H111V88H102.339" fill="white"/>
<path d="M50.5736 66.8223H46.6659C45.5804 66.8223 44.6035 65.9415 44.6035 64.7303V60.7665C44.6035 59.6654 45.4719 58.6744 46.6659 58.6744H50.5736C51.6592 58.6744 52.6361 59.5553 52.6361 60.7665V64.7303C52.6361 65.9415 51.6592 66.8223 50.5736 66.8223Z" fill="#C9D2DE"/>
<path d="M38.9701 78.5915H35.0624C33.9769 78.5915 33 77.7107 33 76.4995V72.5357C33 71.4346 33.8684 70.4436 35.0624 70.4436H38.9701C40.0557 70.4436 41.0326 71.3245 41.0326 72.5357V76.4995C41.0326 77.7107 40.0557 78.5915 38.9701 78.5915Z" fill="#C9D2DE"/>
<path d="M62.1752 66.8223H58.2674C57.182 66.8223 56.2051 65.9415 56.2051 64.7303V60.7665C56.2051 59.6654 57.0735 58.6744 58.2674 58.6744H62.1752C63.2607 58.6744 64.2377 59.5553 64.2377 60.7665V64.7303C64.2377 65.9415 63.2607 66.8223 62.1752 66.8223Z" fill="#866FFE"/>
<path d="M59.7149 64.6213C59.5674 64.6213 59.4199 64.5412 59.3461 64.4612L58.166 63.1808C57.9447 62.9407 57.9447 62.5405 58.166 62.3005C58.3872 62.0604 58.7561 62.0604 58.9773 62.3005L59.7149 63.1007L61.4852 61.1801C61.7065 60.94 62.0753 60.94 62.2966 61.1801C62.5179 61.4201 62.5179 61.8203 62.2966 62.0604L60.0837 64.3812C60.01 64.5412 59.8625 64.6213 59.7149 64.6213Z" fill="white"/>
<path d="M73.937 66.8223H70.0293C68.9438 66.8223 67.9668 65.9415 67.9668 64.7303V60.7665C67.9668 59.6654 68.8352 58.6744 70.0293 58.6744H73.937C75.0225 58.6744 75.9994 59.5553 75.9994 60.7665V64.7303C75.9994 65.9415 75.0225 66.8223 73.937 66.8223Z" fill="#C9D2DE"/>
<path d="M50.5736 79H46.6659C45.5804 79 44.6035 78.1192 44.6035 76.9081V72.9442C44.6035 71.8432 45.4719 70.8522 46.6659 70.8522H50.5736C51.6592 70.8522 52.6361 71.7331 52.6361 72.9442V76.9081C52.6361 78.1192 51.6592 79 50.5736 79Z" fill="#DAE1ED"/>
<path d="M62.2553 79H58.3475C57.262 79 56.2852 78.1192 56.2852 76.9081V72.9442C56.2852 71.8432 57.1536 70.8522 58.3475 70.8522H62.2553C63.3407 70.8522 64.3177 71.7331 64.3177 72.9442V76.9081C64.3177 78.1192 63.3407 79 62.2553 79Z" fill="#C9D2DE"/>
<path d="M50.5736 54.1479H46.6659C45.5804 54.1479 44.6035 53.2671 44.6035 52.0559V48.0921C44.6035 46.991 45.4719 46 46.6659 46H50.5736C51.6592 46 52.6361 46.8809 52.6361 48.0921V52.0559C52.6361 53.2671 51.6592 54.1479 50.5736 54.1479Z" fill="#DAE1ED"/>
<path d="M62.2553 54.1479H58.3475C57.262 54.1479 56.2852 53.2671 56.2852 52.0559V48.0921C56.2852 46.991 57.1536 46 58.3475 46H62.2553C63.3407 46 64.3177 46.8809 64.3177 48.0921V52.0559C64.3177 53.2671 63.3407 54.1479 62.2553 54.1479Z" fill="#C9D2DE"/>
<path d="M73.9369 54.1479H70.0292C68.9437 54.1479 67.9668 53.2671 67.9668 52.0559V48.0921C67.9668 46.991 68.8351 46 70.0292 46H73.9369C75.0224 46 75.9994 46.8809 75.9994 48.0921V52.0559C75.9994 53.2671 75.0224 54.1479 73.9369 54.1479Z" fill="#DAE1ED"/>
<path d="M38.9701 66.8223H35.0624C33.9769 66.8223 33 65.9415 33 64.7303V60.7665C33 59.6654 33.8683 58.6744 35.0624 58.6744H38.9701C40.0556 58.6744 41.0326 59.5553 41.0326 60.7665V64.7303C41.0326 65.9415 40.0556 66.8223 38.9701 66.8223Z" fill="#DAE1ED"/>
<path d="M39.2103 54.1479H35.3026C34.2171 54.1479 33.2402 53.2671 33.2402 52.0559V48.0921C33.2402 46.991 34.1085 46 35.3026 46H39.2103C40.2958 46 41.2728 46.8809 41.2728 48.0921V52.0559C41.2728 53.2671 40.2958 54.1479 39.2103 54.1479Z" fill="#C9D2DE"/>
<path d="M101.914 48.0262H86.4396C86.1758 48.0262 86 47.8209 86 47.5131C86 47.2052 86.1758 47 86.4396 47H101.914C102.178 47 102.354 47.2052 102.354 47.5131C102.266 47.8209 102.09 48.0262 101.914 48.0262Z" fill="url(#paint0_linear)"/>
<path d="M96.4628 51.8229H86.4396C86.1758 51.8229 86 51.6177 86 51.3098C86 51.002 86.1758 50.7968 86.4396 50.7968H96.5507C96.8145 50.7968 96.9903 51.002 96.9903 51.3098C96.9024 51.5151 96.7266 51.8229 96.4628 51.8229Z" fill="url(#paint1_linear)"/>
<path d="M102.047 59.7002H86.5724C86.3087 59.7002 86.1328 59.495 86.1328 59.1872C86.1328 58.8793 86.3087 58.6741 86.5724 58.6741H102.047C102.311 58.6741 102.486 58.8793 102.486 59.1872C102.399 59.495 102.223 59.7002 102.047 59.7002Z" fill="url(#paint2_linear)"/>
<path d="M96.5956 63.497H86.5724C86.3087 63.497 86.1328 63.2918 86.1328 62.9839C86.1328 62.6761 86.3087 62.4708 86.5724 62.4708H96.6835C96.9473 62.4708 97.1231 62.6761 97.1231 62.9839C97.0352 63.2918 96.8594 63.497 96.5956 63.497Z" fill="url(#paint3_linear)"/>
<path d="M106.706 79.4668C106.706 79.9799 106.355 80.3903 105.915 80.3903H82.7913C82.3517 80.3903 82 79.9799 82 79.4668V69.9235C82 69.4105 82.3517 69 82.7913 69H105.827C106.267 69 106.618 69.4105 106.618 69.9235V79.4668H106.706Z" fill="#866FFE"/>
<path d="M102.047 73.3098H86.5724C86.3087 73.3098 86.1328 73.1046 86.1328 72.7968C86.1328 72.4889 86.3087 72.2837 86.5724 72.2837H102.047C102.311 72.2837 102.486 72.4889 102.486 72.7968C102.399 73.1046 102.223 73.3098 102.047 73.3098Z" fill="url(#paint4_linear)"/>
<path d="M96.5956 77.1067H86.5724C86.3087 77.1067 86.1328 76.9015 86.1328 76.5936C86.1328 76.2858 86.3087 76.0806 86.5724 76.0806H96.6835C96.9473 76.0806 97.1231 76.2858 97.1231 76.5936C97.0352 76.7989 96.8594 77.1067 96.5956 77.1067Z" fill="url(#paint5_linear)"/>
<path d="M124.18 52.0732C126.489 52.9952 129.112 51.8614 130.038 49.5408C130.965 47.2201 129.845 44.5915 127.537 43.6695C125.229 42.7474 122.606 43.8812 121.679 46.2019C120.752 48.5225 121.872 51.1512 124.18 52.0732Z" fill="#EAEEF9"/>
<path d="M33.2628 17.5292C34.8715 17.235 35.9359 15.6856 35.6402 14.0684C35.3445 12.4512 33.8007 11.3786 32.192 11.6728C30.5834 11.9669 29.519 13.5163 29.8147 15.1335C30.1104 16.7507 31.6542 17.8233 33.2628 17.5292Z" fill="#EAEEF9"/>
<path d="M21.3514 27.4538C22.4453 27.2538 23.169 26.2002 22.968 25.1005C22.7669 24.0008 21.7171 23.2715 20.6232 23.4715C19.5294 23.6715 18.8056 24.7251 19.0066 25.8248C19.2077 26.9245 20.2575 27.6538 21.3514 27.4538Z" fill="url(#paint6_linear)"/>
<path d="M129.761 16.2413C130.733 16.6296 131.837 16.1522 132.227 15.1751C132.617 14.198 132.146 13.0911 131.174 12.7029C130.202 12.3147 129.098 12.7921 128.707 13.7692C128.317 14.7463 128.789 15.8531 129.761 16.2413Z" fill="#EAEEF9"/>
<path d="M28.6582 109.334C29.574 109.334 30.3163 108.588 30.3163 107.667C30.3163 106.746 29.574 106 28.6582 106C27.7424 106 27 106.746 27 107.667C27 108.588 27.7424 109.334 28.6582 109.334Z" fill="url(#paint7_linear)"/>
<path d="M106.54 24.7112C107.39 25.0509 108.356 24.6331 108.698 23.7782C109.039 22.9232 108.627 21.9547 107.776 21.6151C106.926 21.2754 105.959 21.6931 105.618 22.5481C105.277 23.403 105.689 24.3715 106.54 24.7112Z" fill="url(#paint8_linear)"/>
<defs>
<linearGradient id="paint0_linear" x1="85.9818" y1="47.5406" x2="102.3" y2="47.5406" gradientUnits="userSpaceOnUse">
<stop stop-color="#CED7E2"/>
<stop offset="1" stop-color="#E6ECF5"/>
</linearGradient>
<linearGradient id="paint1_linear" x1="85.9818" y1="51.286" x2="96.9306" y2="51.286" gradientUnits="userSpaceOnUse">
<stop stop-color="#CED7E2"/>
<stop offset="1" stop-color="#E6ECF5"/>
</linearGradient>
<linearGradient id="paint2_linear" x1="86.1146" y1="59.2312" x2="102.433" y2="59.2312" gradientUnits="userSpaceOnUse">
<stop stop-color="#CED7E2"/>
<stop offset="1" stop-color="#E6ECF5"/>
</linearGradient>
<linearGradient id="paint3_linear" x1="86.1146" y1="62.9766" x2="97.0634" y2="62.9766" gradientUnits="userSpaceOnUse">
<stop stop-color="#CED7E2"/>
<stop offset="1" stop-color="#E6ECF5"/>
</linearGradient>
<linearGradient id="paint4_linear" x1="86.1146" y1="72.8085" x2="102.433" y2="72.8085" gradientUnits="userSpaceOnUse">
<stop stop-color="#CED7E2"/>
<stop offset="1" stop-color="#E6ECF5"/>
</linearGradient>
<linearGradient id="paint5_linear" x1="86.1146" y1="76.5539" x2="97.0634" y2="76.5539" gradientUnits="userSpaceOnUse">
<stop stop-color="#CED7E2"/>
<stop offset="1" stop-color="#E6ECF5"/>
</linearGradient>
<linearGradient id="paint6_linear" x1="20.6232" y1="23.4715" x2="21.3514" y2="27.4538" gradientUnits="userSpaceOnUse">
<stop stop-color="#FFBE07"/>
<stop offset="1" stop-color="#FFBE07" stop-opacity="0"/>
</linearGradient>
<linearGradient id="paint7_linear" x1="27.0078" y1="107.665" x2="30.207" y2="107.665" gradientUnits="userSpaceOnUse">
<stop stop-color="#FFD600"/>
<stop offset="1" stop-color="#FFBE07"/>
</linearGradient>
<linearGradient id="paint8_linear" x1="105.662" y1="22.6295" x2="108.633" y2="23.8162" gradientUnits="userSpaceOnUse">
<stop stop-color="#FFD600"/>
<stop offset="1" stop-color="#FFBE07"/>
</linearGradient>
</defs>
</svg>
