<svg width="24" height="24" viewBox="0 0 24 24" fill="none" xmlns="http://www.w3.org/2000/svg">
<path d="M2.13193 13.627C1.9526 12.548 1.9526 11.4468 2.13193 10.3678C3.23364 10.3938 4.22339 9.86595 4.60828 8.9372C4.99318 8.00744 4.66627 6.93372 3.86848 6.17492C4.50472 5.28444 5.28367 4.50515 6.17388 3.86852C6.93368 4.66631 8.0074 4.99323 8.93715 4.60833C9.86691 4.22343 10.3938 3.23269 10.3668 2.13198C11.4464 1.95243 12.5483 1.95243 13.6279 2.13198C13.6009 3.23369 14.1288 4.22343 15.0576 4.60833C15.9873 4.99323 17.061 4.66631 17.8198 3.86852C18.7103 4.50477 19.4896 5.28372 20.1262 6.17392C19.3284 6.93372 19.0015 8.00744 19.3864 8.9372C19.7713 9.86695 20.7621 10.3938 21.8628 10.3668C22.0423 11.4465 22.0423 12.5483 21.8628 13.628C20.7611 13.601 19.7713 14.1288 19.3864 15.0576C19.0015 15.9874 19.3284 17.0611 20.1262 17.8199C19.49 18.7104 18.711 19.4896 17.8208 20.1263C17.061 19.3285 15.9873 19.0016 15.0576 19.3865C14.1278 19.7714 13.6009 20.7621 13.6279 21.8628C12.5483 22.0424 11.4464 22.0424 10.3668 21.8628C10.3938 20.7611 9.86591 19.7714 8.93715 19.3865C8.0074 19.0016 6.93368 19.3285 6.17488 20.1263C5.2844 19.49 4.50511 18.7111 3.86848 17.8209C4.66627 17.0611 4.99318 15.9874 4.60828 15.0576C4.22339 14.1278 3.23264 13.6 2.13193 13.627ZM11.9974 14.9966C12.7928 14.9966 13.5557 14.6806 14.1181 14.1182C14.6806 13.5557 14.9966 12.7928 14.9966 11.9974C14.9966 11.202 14.6806 10.4391 14.1181 9.87663C13.5557 9.31417 12.7928 8.99818 11.9974 8.99818C11.2019 8.99818 10.439 9.31417 9.87659 9.87663C9.31412 10.4391 8.99814 11.202 8.99814 11.9974C8.99814 12.7928 9.31412 13.5557 9.87659 14.1182C10.439 14.6806 11.2019 14.9966 11.9974 14.9966Z" fill="#BABEC3"/>
</svg>
