<svg width="24" height="24" viewBox="0 0 24 24" fill="none" xmlns="http://www.w3.org/2000/svg">
<path d="M2.375 16.125C2.375 15.3656 2.99061 14.75 3.75 14.75H6.5C7.25939 14.75 7.875 15.3656 7.875 16.125V20.25C7.875 21.0094 7.25939 21.625 6.5 21.625H3.75C2.99061 21.625 2.375 21.0094 2.375 20.25V16.125Z" fill="#202223"/>
<path d="M9.25 10.625C9.25 9.86561 9.86561 9.25 10.625 9.25H13.375C14.1344 9.25 14.75 9.86561 14.75 10.625V20.25C14.75 21.0094 14.1344 21.625 13.375 21.625H10.625C9.86561 21.625 9.25 21.0094 9.25 20.25V10.625Z" fill="#202223"/>
<path d="M16.125 3.75C16.125 2.99061 16.7406 2.375 17.5 2.375H20.25C21.0094 2.375 21.625 2.99061 21.625 3.75V20.25C21.625 21.0094 21.0094 21.625 20.25 21.625H17.5C16.7406 21.625 16.125 21.0094 16.125 20.25V3.75Z" fill="#202223"/>
</svg>
