<svg width="18" height="18" viewBox="0 0 18 18" fill="none" xmlns="http://www.w3.org/2000/svg">
<path d="M6.25866 5.42498L8.16699 3.50832V11.5C8.16699 11.721 8.25479 11.933 8.41107 12.0892C8.56735 12.2455 8.77931 12.3333 9.00033 12.3333C9.22134 12.3333 9.4333 12.2455 9.58958 12.0892C9.74586 11.933 9.83366 11.721 9.83366 11.5V3.50832L11.742 5.42498C11.8195 5.50309 11.9116 5.56509 12.0132 5.60739C12.1147 5.6497 12.2236 5.67148 12.3337 5.67148C12.4437 5.67148 12.5526 5.6497 12.6541 5.60739C12.7557 5.56509 12.8479 5.50309 12.9253 5.42498C13.0034 5.34752 13.0654 5.25535 13.1077 5.1538C13.15 5.05225 13.1718 4.94333 13.1718 4.83332C13.1718 4.72331 13.15 4.61439 13.1077 4.51284C13.0654 4.41129 13.0034 4.31912 12.9253 4.24165L9.59199 0.908318C9.51274 0.832451 9.41929 0.77298 9.31699 0.733318C9.11411 0.64997 8.88654 0.64997 8.68366 0.733318C8.58137 0.77298 8.48791 0.832451 8.40866 0.908318L5.07533 4.24165C4.99763 4.31935 4.93599 4.41159 4.89394 4.51311C4.85189 4.61463 4.83025 4.72344 4.83025 4.83332C4.83025 4.9432 4.85189 5.05201 4.89394 5.15353C4.93599 5.25504 4.99763 5.34729 5.07533 5.42498C5.15302 5.50268 5.24527 5.56432 5.34678 5.60637C5.4483 5.64842 5.55711 5.67006 5.66699 5.67006C5.77688 5.67006 5.88568 5.64842 5.9872 5.60637C6.08872 5.56432 6.18096 5.50268 6.25866 5.42498ZM16.5003 10.6667C16.2793 10.6667 16.0674 10.7544 15.9111 10.9107C15.7548 11.067 15.667 11.279 15.667 11.5V14.8333C15.667 15.0543 15.5792 15.2663 15.4229 15.4226C15.2666 15.5789 15.0547 15.6667 14.8337 15.6667H3.16699C2.94598 15.6667 2.73402 15.5789 2.57774 15.4226C2.42146 15.2663 2.33366 15.0543 2.33366 14.8333V11.5C2.33366 11.279 2.24586 11.067 2.08958 10.9107C1.9333 10.7544 1.72134 10.6667 1.50033 10.6667C1.27931 10.6667 1.06735 10.7544 0.91107 10.9107C0.75479 11.067 0.666992 11.279 0.666992 11.5V14.8333C0.666992 15.4964 0.930384 16.1322 1.39923 16.6011C1.86807 17.0699 2.50395 17.3333 3.16699 17.3333H14.8337C15.4967 17.3333 16.1326 17.0699 16.6014 16.6011C17.0703 16.1322 17.3337 15.4964 17.3337 14.8333V11.5C17.3337 11.279 17.2459 11.067 17.0896 10.9107C16.9333 10.7544 16.7213 10.6667 16.5003 10.6667Z" fill="white"/>
</svg>
