<svg width="16" height="18" viewBox="0 0 16 18" fill="none" xmlns="http://www.w3.org/2000/svg">
<path d="M13 12.4C12.3667 12.4 11.8 12.65 11.3667 13.0417L5.425 9.58332C5.46667 9.39166 5.5 9.19999 5.5 8.99999C5.5 8.79999 5.46667 8.60832 5.425 8.41666L11.3 4.99166C11.75 5.40832 12.3417 5.66666 13 5.66666C14.3833 5.66666 15.5 4.54999 15.5 3.16666C15.5 1.78332 14.3833 0.666656 13 0.666656C11.6167 0.666656 10.5 1.78332 10.5 3.16666C10.5 3.36666 10.5333 3.55832 10.575 3.74999L4.7 7.17499C4.25 6.75832 3.65833 6.49999 3 6.49999C1.61667 6.49999 0.5 7.61666 0.5 8.99999C0.5 10.3833 1.61667 11.5 3 11.5C3.65833 11.5 4.25 11.2417 4.7 10.825L10.6333 14.2917C10.5917 14.4667 10.5667 14.65 10.5667 14.8333C10.5667 16.175 11.6583 17.2667 13 17.2667C14.3417 17.2667 15.4333 16.175 15.4333 14.8333C15.4333 13.4917 14.3417 12.4 13 12.4Z" fill="white"/>
</svg>
