<svg width="20" height="18" viewBox="0 0 20 18" fill="none" xmlns="http://www.w3.org/2000/svg">
<path d="M0.833008 2.58333C0.833008 1.57081 1.65382 0.75 2.66634 0.75H17.333C18.3455 0.75 19.1663 1.57081 19.1663 2.58333V4.41667C19.1663 5.10149 18.7909 5.6986 18.2345 6.01339C18.2445 6.09085 18.2497 6.16982 18.2497 6.25V15.4167C18.2497 16.4292 17.4289 17.25 16.4163 17.25H3.58301C2.57049 17.25 1.74967 16.4292 1.74967 15.4167V6.25C1.74967 6.16982 1.75482 6.09085 1.7648 6.01339C1.20849 5.69861 0.833008 5.10148 0.833008 4.41667V2.58333ZM17.333 4.41667V2.58333H2.66634V4.41667H17.333ZM3.58301 6.25V15.4167H16.4163V6.25H3.58301ZM6.33301 9C6.33301 8.49374 6.74341 8.08333 7.24967 8.08333H12.7497C13.2559 8.08333 13.6663 8.49374 13.6663 9C13.6663 9.50626 13.2559 9.91667 12.7497 9.91667H7.24967C6.74341 9.91667 6.33301 9.50626 6.33301 9Z" fill="white"/>
</svg>
