<svg width="173" height="109" viewBox="0 0 173 109" fill="none" xmlns="http://www.w3.org/2000/svg">
<path d="M18.899 3.05176e-05H18.579C17.9389 3.05176e-05 17.2988 0.478636 17.2988 1.27631C17.2988 2.07399 17.7789 2.55259 18.579 2.55259H18.899C19.5391 2.55259 20.1792 2.07399 20.1792 1.27631C20.1792 0.478636 19.5391 3.05176e-05 18.899 3.05176e-05Z" fill="url(#paint0_linear)"/>
<path d="M13.776 3.05176e-05H13.4559C12.8159 3.05176e-05 12.1758 0.478636 12.1758 1.27631C12.1758 2.07399 12.6558 2.55259 13.4559 2.55259H13.776C14.4161 2.55259 15.0562 2.07399 15.0562 1.27631C15.0562 0.478636 14.4161 3.05176e-05 13.776 3.05176e-05Z" fill="url(#paint1_linear)"/>
<path d="M24.0201 3.05176e-05H23.7001C23.06 3.05176e-05 22.4199 0.478637 22.4199 1.11678C22.4199 1.75492 22.9 2.39306 23.5401 2.39306H23.8601C23.8601 2.39306 23.8601 2.39306 24.0201 2.39306C24.6602 2.39306 25.1403 1.91445 25.1403 1.27631C25.1403 0.638171 24.6602 0.159566 24.0201 3.05176e-05Z" fill="url(#paint2_linear)"/>
<path d="M35.2185 15.6345C35.2185 14.9964 34.7385 14.3583 33.9384 14.3583C33.1383 14.3583 32.6582 14.8369 32.6582 15.6345V15.9536C32.6582 16.5918 33.1383 17.2299 33.9384 17.2299C34.7385 17.2299 35.2185 16.7513 35.2185 15.9536V15.6345Z" fill="url(#paint3_linear)"/>
<path d="M33.1413 5.58382L32.9813 5.26475C32.6612 4.78614 31.8611 4.62661 31.3811 4.94568C30.901 5.26475 30.741 6.06242 31.061 6.54103L31.2211 6.8601C31.3811 7.17917 31.8611 7.3387 32.1812 7.3387C32.3412 7.3387 32.6612 7.3387 32.8213 7.17917C33.4613 6.8601 33.6214 6.22196 33.1413 5.58382Z" fill="url(#paint4_linear)"/>
<path d="M33.9384 19.4634C33.2983 19.4634 32.6582 19.942 32.6582 20.7397V21.0588C32.6582 21.6969 33.1383 22.335 33.9384 22.335C34.7385 22.335 35.2185 21.6969 35.2185 21.0588V20.7397C35.2185 19.942 34.5785 19.4634 33.9384 19.4634Z" fill="url(#paint5_linear)"/>
<path d="M8.817 3.05176e-05H8.49696C7.85688 3.05176e-05 7.2168 0.478636 7.2168 1.27631C7.2168 2.07399 7.69686 2.55259 8.49696 2.55259H8.817C9.45708 2.55259 10.0972 2.07399 10.0972 1.27631C10.0972 0.478636 9.45708 3.05176e-05 8.817 3.05176e-05Z" fill="url(#paint6_linear)"/>
<path d="M29.299 1.75492L28.979 1.59539C28.3389 1.27632 27.6988 1.43585 27.3788 2.07399C27.0587 2.71213 27.2187 3.35027 27.8588 3.66934L28.0189 3.82888C28.1789 3.98841 28.4989 3.98841 28.6589 3.98841C29.139 3.98841 29.459 3.82888 29.6191 3.35027C29.9391 2.87167 29.7791 2.07399 29.299 1.75492Z" fill="url(#paint7_linear)"/>
<path d="M36.661 34.7787C36.3409 34.3001 35.5408 34.1406 35.0608 34.4597C34.5807 34.7787 34.4207 35.5764 34.7407 36.055L34.9007 36.3741C35.0608 36.6931 35.5408 36.8527 35.8609 36.8527C36.0209 36.8527 36.3409 36.8527 36.5009 36.6931C36.981 36.3741 37.141 35.5764 36.821 35.0978L36.661 34.7787Z" fill="url(#paint8_linear)"/>
<path d="M40.1806 37.9694L40.0206 37.8099C39.3805 37.4908 38.7405 37.6503 38.4204 38.1289C38.1004 38.7671 38.2604 39.4052 38.7405 39.7243L39.0605 39.8838C39.2205 40.0434 39.3805 40.0434 39.7006 40.0434C40.1806 40.0434 40.5007 39.8838 40.8207 39.4052C40.9807 39.0862 40.6607 38.2885 40.1806 37.9694Z" fill="url(#paint9_linear)"/>
<path d="M44.3404 39.2457H44.0204C43.3803 39.2457 42.7402 39.7243 42.7402 40.3624C42.7402 41.0006 43.2203 41.6387 43.8604 41.6387H44.1804C44.1804 41.6387 44.1804 41.6387 44.3404 41.6387C44.9805 41.6387 45.4606 41.1601 45.4606 40.522C45.6206 39.8838 45.1405 39.4052 44.3404 39.2457Z" fill="url(#paint10_linear)"/>
<path d="M33.9362 12.1247C34.7363 11.9652 35.2163 11.4866 35.0563 10.8484V10.5294C34.8963 9.89124 34.4162 9.41263 33.6161 9.57216C32.9761 9.7317 32.496 10.2103 32.656 11.008V11.3271C32.816 11.6461 33.2961 12.1247 33.9362 12.1247Z" fill="url(#paint11_linear)"/>
<path d="M35.2206 30.7903V30.4712C35.2206 29.8331 34.5805 29.3545 33.9405 29.3545C33.3004 29.3545 32.8203 29.9926 32.8203 30.6308C32.8203 30.7903 32.8203 30.9498 32.8203 30.9498C32.9803 31.588 33.4604 31.9071 33.9405 31.9071H34.1005C34.9006 32.0666 35.3806 31.4284 35.2206 30.7903Z" fill="url(#paint12_linear)"/>
<path d="M33.9384 27.2806C34.5785 27.2806 35.2185 26.802 35.2185 26.0043V25.6852C35.2185 25.0471 34.7385 24.409 33.9384 24.409C33.1383 24.409 32.6582 24.8876 32.6582 25.6852V26.0043C32.8182 26.6424 33.2983 27.2806 33.9384 27.2806Z" fill="url(#paint13_linear)"/>
<path d="M3.53602 9.15527e-05C2.89594 9.15527e-05 2.25586 0.478697 2.25586 1.27637C2.25586 2.07405 2.73592 2.55265 3.53602 2.55265H3.69604C4.33613 2.55265 4.81619 2.07405 4.81619 1.27637C4.81619 0.478697 4.17611 9.15527e-05 3.53602 9.15527e-05Z" fill="url(#paint14_linear)"/>
<path d="M64.3433 39.4053H59.3827H59.0626H54.262H53.942H49.3014H48.9813C48.3413 39.4053 47.7012 39.8839 47.7012 40.6815C47.7012 41.4792 48.1812 41.9578 48.9813 41.9578H49.3014H53.942H54.422H59.2226H59.5427H64.5033C65.1434 41.9578 65.7835 41.4792 65.7835 40.6815C65.7835 39.8839 64.9834 39.4053 64.3433 39.4053Z" fill="url(#paint15_linear)"/>
<path d="M28.0189 104.496L27.8588 104.655C27.2187 104.974 27.0587 105.772 27.3788 106.25C27.5388 106.569 28.0189 106.889 28.4989 106.889C28.6589 106.889 28.819 106.889 29.139 106.729L29.459 106.569C30.0991 106.25 30.2591 105.453 29.7791 104.974C29.299 104.336 28.4989 104.017 28.0189 104.496Z" fill="url(#paint16_linear)"/>
<path d="M23.696 105.772H23.376C22.7359 105.772 22.2559 106.41 22.2559 107.048C22.2559 107.686 22.8959 108.165 23.376 108.165H23.696C24.3361 108.165 24.8162 107.527 24.8162 106.889C24.9762 106.25 24.3361 105.772 23.696 105.772Z" fill="url(#paint17_linear)"/>
<path d="M34.0983 96.0403C33.4582 95.8807 32.8181 96.3593 32.8181 97.157V97.4761C32.6581 98.1142 33.1382 98.7524 33.7782 98.9119H33.9383C34.5784 98.9119 35.0584 98.4333 35.0584 97.9547V97.6356C35.2184 96.8379 34.7384 96.1998 34.0983 96.0403Z" fill="url(#paint18_linear)"/>
<path d="M18.8971 105.931H18.577C17.937 105.931 17.2969 106.41 17.2969 107.208C17.2969 108.005 17.7769 108.484 18.577 108.484H18.8971C19.5372 108.484 20.1772 108.005 20.1772 107.208C20.1772 106.41 19.5372 105.931 18.8971 105.931Z" fill="url(#paint19_linear)"/>
<path d="M33.9384 91.0946C33.2983 91.0946 32.6582 91.5732 32.6582 92.3709V92.6899C32.6582 93.3281 33.1383 93.9662 33.9384 93.9662C34.7385 93.9662 35.2185 93.4876 35.2185 92.6899V92.3709C35.2185 91.5732 34.5785 91.0946 33.9384 91.0946Z" fill="url(#paint20_linear)"/>
<path d="M8.8131 105.931H8.49305C7.85297 105.931 7.21289 106.41 7.21289 107.208C7.21289 108.005 7.69295 108.484 8.49305 108.484H8.8131C9.45318 108.484 10.0933 108.005 10.0933 107.208C10.0933 106.41 9.45318 105.931 8.8131 105.931Z" fill="url(#paint21_linear)"/>
<path d="M13.776 105.931H13.4559C12.8159 105.931 12.1758 106.41 12.1758 107.208C12.1758 108.005 12.6558 108.484 13.4559 108.484H13.776C14.4161 108.484 15.0562 108.005 15.0562 107.208C15.0562 106.41 14.4161 105.931 13.776 105.931Z" fill="url(#paint22_linear)"/>
<path d="M32.8174 100.986C32.3373 100.667 31.5372 100.826 31.2172 101.305L31.0571 101.624C30.7371 102.102 30.8971 102.9 31.3772 103.219C31.5372 103.379 31.8572 103.379 32.0173 103.379C32.3373 103.379 32.8174 103.219 32.9774 102.9L33.1374 102.581C33.6175 102.102 33.4574 101.305 32.8174 100.986Z" fill="url(#paint23_linear)"/>
<path d="M38.8997 68.1216L38.5796 68.2811C37.9396 68.6002 37.7795 69.3979 38.2596 69.8765C38.4196 70.1955 38.8997 70.5146 39.2197 70.5146C39.3797 70.5146 39.6998 70.5146 39.8598 70.3551L40.0198 70.1955C40.6599 69.8765 40.8199 69.0788 40.4999 68.6002C40.1798 68.1216 39.5398 67.8025 38.8997 68.1216Z" fill="url(#paint24_linear)"/>
<path d="M44.1804 66.5262H43.8604C43.2203 66.5262 42.7402 67.1644 42.7402 67.8025C42.7402 68.4407 43.3803 68.9193 43.8604 68.9193H44.0204H44.3404C44.9805 68.9193 45.4606 68.2811 45.4606 67.643C45.4606 67.0049 44.8205 66.5262 44.1804 66.5262Z" fill="url(#paint25_linear)"/>
<path d="M34.8988 71.9504L34.7388 72.2695C34.4187 72.7481 34.5787 73.5458 35.0588 73.8648C35.2188 74.0244 35.5389 74.0244 35.6989 74.0244C36.0189 74.0244 36.499 73.8648 36.659 73.5458L36.819 73.3862C37.1391 72.9076 36.9791 72.11 36.499 71.7909C36.0189 71.1527 35.2188 71.3123 34.8988 71.9504Z" fill="url(#paint26_linear)"/>
<path d="M33.9384 85.9894C33.2983 85.9894 32.6582 86.468 32.6582 87.2657V87.5848C32.6582 88.2229 33.1383 88.861 33.9384 88.861C34.7385 88.861 35.2185 88.3824 35.2185 87.5848V87.2657C35.2185 86.6275 34.5785 85.9894 33.9384 85.9894Z" fill="url(#paint27_linear)"/>
<path d="M33.9384 81.0439C33.2983 81.0439 32.6582 81.5225 32.6582 82.3202V82.6392C32.6582 83.2774 33.1383 83.9155 33.9384 83.9155C34.7385 83.9155 35.2185 83.4369 35.2185 82.6392V82.3202C35.2185 81.5225 34.5785 81.0439 33.9384 81.0439Z" fill="url(#paint28_linear)"/>
<path d="M34.2585 76.0982C33.6185 75.9386 32.9784 76.4173 32.8184 77.0554C32.8184 77.2149 32.8184 77.3745 32.8184 77.3745C32.8184 78.0126 33.2984 78.6507 33.9385 78.6507H34.0985C34.7386 78.6507 35.2187 78.1721 35.2187 77.534V77.2149C35.3787 76.7363 34.8986 76.0982 34.2585 76.0982Z" fill="url(#paint29_linear)"/>
<path d="M3.53407 105.931C2.89399 105.931 2.25391 106.41 2.25391 107.208C2.25391 108.005 2.73397 108.484 3.53407 108.484H3.69409C4.33417 108.484 4.81423 108.005 4.81423 107.208C4.81423 106.41 4.17415 105.931 3.53407 105.931Z" fill="url(#paint30_linear)"/>
<path d="M64.3432 66.5262H59.3825H59.0625H54.2619H53.9418H49.1412H48.9812H48.8212C48.1811 66.5262 47.541 67.0049 47.541 67.8025C47.541 68.6002 48.0211 69.0788 48.8212 69.0788H48.9812H49.1412H53.9418H54.4219H59.2225H59.5426H64.5032C65.1433 69.0788 65.7833 68.6002 65.7833 67.8025C65.7833 67.0049 64.9833 66.5262 64.3432 66.5262Z" fill="url(#paint31_linear)"/>
<path d="M134.702 52.4872H134.382C133.742 52.4872 133.102 52.9658 133.102 53.7634C133.102 54.5611 133.582 55.0397 134.382 55.0397H134.702C135.342 55.0397 135.982 54.5611 135.982 53.7634C135.982 52.9658 135.342 52.4872 134.702 52.4872Z" fill="url(#paint32_linear)"/>
<path d="M139.983 52.4872H139.663C139.023 52.4872 138.383 52.9658 138.383 53.7634C138.383 54.5611 138.863 55.0397 139.663 55.0397H139.983C140.623 55.0397 141.263 54.5611 141.263 53.7634C141.263 52.9658 140.623 52.4872 139.983 52.4872Z" fill="url(#paint33_linear)"/>
<path d="M129.419 52.4872H129.099C128.458 52.4872 127.818 52.9658 127.818 53.7634C127.818 54.5611 128.298 55.0397 129.099 55.0397H129.419C130.059 55.0397 130.699 54.5611 130.699 53.7634C130.699 52.9658 130.059 52.4872 129.419 52.4872Z" fill="url(#paint34_linear)"/>
<path d="M124.14 52.4872H123.82H123.66H123.5H119.019H118.699H113.738H113.418H108.298C107.658 52.4872 107.018 52.9658 107.018 53.7635C107.018 54.5611 107.498 55.0397 108.298 55.0397H113.418H113.738H118.699H119.019H123.5H123.66H123.82H124.14C124.78 55.0397 125.42 54.5611 125.42 53.7635C125.42 52.9658 124.78 52.4872 124.14 52.4872Z" fill="url(#paint35_linear)"/>
<path d="M145.102 52.4872H144.782C144.142 52.4872 143.502 52.9658 143.502 53.7634C143.502 54.5611 143.982 55.0397 144.782 55.0397H145.102C145.742 55.0397 146.382 54.5611 146.382 53.7634C146.382 52.9658 145.902 52.4872 145.102 52.4872Z" fill="url(#paint36_linear)"/>
<path d="M160.946 52.4872H160.626C159.986 52.4872 159.346 52.9658 159.346 53.7634C159.346 54.5611 159.826 55.0397 160.626 55.0397H160.946C161.586 55.0397 162.226 54.5611 162.226 53.7634C162.226 52.9658 161.586 52.4872 160.946 52.4872Z" fill="url(#paint37_linear)"/>
<path d="M166.223 52.4872H165.903C165.263 52.4872 164.623 52.9658 164.623 53.7634C164.623 54.5611 165.103 55.0397 165.903 55.0397H166.223C166.863 55.0397 167.503 54.5611 167.503 53.7634C167.503 52.9658 166.863 52.4872 166.223 52.4872Z" fill="url(#paint38_linear)"/>
<path d="M155.663 52.4872H155.343C154.703 52.4872 154.062 52.9658 154.062 53.7634C154.062 54.5611 154.543 55.0397 155.343 55.0397H155.663C156.303 55.0397 156.943 54.5611 156.943 53.7634C156.943 52.9658 156.303 52.4872 155.663 52.4872Z" fill="url(#paint39_linear)"/>
<path d="M150.383 52.4872H150.063C149.423 52.4872 148.783 52.9658 148.783 53.7634C148.783 54.5611 149.263 55.0397 150.063 55.0397H150.383C151.023 55.0397 151.664 54.5611 151.664 53.7634C151.664 52.9658 151.023 52.4872 150.383 52.4872Z" fill="url(#paint40_linear)"/>
<path d="M171.343 52.4872C170.543 52.4872 170.062 52.9658 170.062 53.7634C170.062 54.5611 170.703 55.0397 171.343 55.0397C171.983 55.0397 172.623 54.5611 172.623 53.7634C172.623 52.9658 171.983 52.4872 171.343 52.4872Z" fill="url(#paint41_linear)"/>
<path d="M37.9213 55.0397H38.2413C38.8814 55.0397 39.5215 54.5611 39.5215 53.7635C39.5215 52.9658 39.0414 52.4872 38.2413 52.4872H37.9213C37.2812 52.4872 36.6411 52.9658 36.6411 53.7635C36.6411 54.5611 37.2812 55.0397 37.9213 55.0397Z" fill="url(#paint42_linear)"/>
<path d="M32.64 55.0397H32.9601C33.6002 55.0397 34.2402 54.5611 34.2402 53.7635C34.2402 52.9658 33.7602 52.4872 32.9601 52.4872H32.64C31.9999 52.4872 31.3599 52.9658 31.3599 53.7635C31.3599 54.5611 31.9999 55.0397 32.64 55.0397Z" fill="url(#paint43_linear)"/>
<path d="M43.2045 55.0397H43.5245C44.1646 55.0397 44.8047 54.5611 44.8047 53.7635C44.8047 52.9658 44.3246 52.4872 43.5245 52.4872H43.2045C42.5644 52.4872 41.9243 52.9658 41.9243 53.7635C41.9243 54.5611 42.5644 55.0397 43.2045 55.0397Z" fill="url(#paint44_linear)"/>
<path d="M48.4833 55.0397H48.8033H48.9633H49.1234H53.6039H53.924H58.8846H59.2046H64.3253C64.9654 55.0397 65.6055 54.5611 65.6055 53.7634C65.6055 52.9658 65.1254 52.4872 64.3253 52.4872H59.2046H58.8846H53.924H53.6039H49.1234H48.9633H48.8033H48.4833C47.8432 52.4872 47.2031 52.9658 47.2031 53.7634C47.2031 54.5611 47.8432 55.0397 48.4833 55.0397Z" fill="url(#paint45_linear)"/>
<path d="M27.5189 55.0397H27.839C28.4791 55.0397 29.1191 54.5611 29.1191 53.7635C29.1191 52.9658 28.6391 52.4872 27.839 52.4872H27.5189C26.8789 52.4872 26.2388 52.9658 26.2388 53.7635C26.2388 54.5611 26.7188 55.0397 27.5189 55.0397Z" fill="url(#paint46_linear)"/>
<path d="M11.6771 55.0397H11.9972C12.6373 55.0397 13.2773 54.5611 13.2773 53.7635C13.2773 52.9658 12.7973 52.4872 11.9972 52.4872H11.6771C11.0371 52.4872 10.397 52.9658 10.397 53.7635C10.397 54.5611 11.0371 55.0397 11.6771 55.0397Z" fill="url(#paint47_linear)"/>
<path d="M6.39784 55.0397H6.71788C7.35796 55.0397 7.99805 54.5611 7.99805 53.7635C7.99805 52.9658 7.51798 52.4872 6.71788 52.4872H6.39784C5.75776 52.4872 5.11767 52.9658 5.11767 53.7635C5.11767 54.5611 5.75776 55.0397 6.39784 55.0397Z" fill="url(#paint48_linear)"/>
<path d="M16.9603 55.0397H17.2804C17.9205 55.0397 18.5605 54.5611 18.5605 53.7635C18.5605 52.9658 18.0805 52.4872 17.2804 52.4872H16.9603C16.3203 52.4872 15.6802 52.9658 15.6802 53.7635C15.6802 54.5611 16.3203 55.0397 16.9603 55.0397Z" fill="url(#paint49_linear)"/>
<path d="M22.2396 55.0397H22.5597C23.1998 55.0397 23.8398 54.5611 23.8398 53.7635C23.8398 52.9658 23.3598 52.4872 22.5597 52.4872H22.2396C21.5996 52.4872 20.9595 52.9658 20.9595 53.7635C20.9595 54.5611 21.5996 55.0397 22.2396 55.0397Z" fill="url(#paint50_linear)"/>
<path d="M1.28038 55.0397C2.08048 55.0397 2.56055 54.5611 2.56055 53.7635C2.56055 52.9658 1.92046 52.4872 1.28038 52.4872C0.640296 52.4872 0.000209006 52.9658 0.000209006 53.7635C0.000209006 54.5611 0.640296 55.0397 1.28038 55.0397Z" fill="url(#paint51_linear)"/>
<path d="M134.223 68.2811L133.903 68.1216C133.263 67.8025 132.623 67.9621 132.303 68.6002C131.983 69.2384 132.143 69.8765 132.783 70.1956L132.943 70.3551C133.103 70.5146 133.423 70.5146 133.583 70.5146C134.063 70.5146 134.383 70.3551 134.543 69.8765C134.863 69.3979 134.703 68.7597 134.223 68.2811Z" fill="url(#paint52_linear)"/>
<path d="M138.059 72.2694L137.899 71.9503C137.579 71.4717 136.779 71.3122 136.299 71.6313C135.819 71.9503 135.659 72.748 135.979 73.2266L136.139 73.3862C136.299 73.7052 136.779 73.8648 137.099 73.8648C137.259 73.8648 137.579 73.8648 137.739 73.7052C138.379 73.5457 138.539 72.748 138.059 72.2694Z" fill="url(#paint53_linear)"/>
<path d="M138.862 78.6508C139.662 78.6508 140.142 78.0126 139.982 77.3745C139.982 77.215 139.982 77.0554 139.982 77.0554C139.822 76.4173 139.182 75.9387 138.542 76.0982C137.902 76.2577 137.422 76.7364 137.582 77.534V77.8531C137.742 78.3317 138.222 78.6508 138.862 78.6508Z" fill="url(#paint54_linear)"/>
<path d="M123.82 66.5262H123.66H123.5H118.699H118.379H113.578H113.258H108.298C107.658 66.5262 107.018 67.0048 107.018 67.8025C107.018 68.6002 107.498 69.0788 108.298 69.0788H113.258H113.578H118.379H118.699H123.5H123.66H123.82C124.46 69.0788 125.1 68.6002 125.1 67.8025C125.1 67.0048 124.46 66.5262 123.82 66.5262Z" fill="url(#paint55_linear)"/>
<path d="M138.862 85.9894C138.222 85.9894 137.582 86.468 137.582 87.2657V87.5848C137.582 88.2229 138.062 88.861 138.862 88.861C139.662 88.861 140.142 88.3824 140.142 87.5848V87.2657C140.142 86.6275 139.502 85.9894 138.862 85.9894Z" fill="url(#paint56_linear)"/>
<path d="M140.142 82.1606C140.142 81.5225 139.662 80.8843 138.862 80.8843C138.062 80.8843 137.582 81.3629 137.582 82.1606V82.4797C137.582 83.1178 138.062 83.7559 138.862 83.7559C139.662 83.7559 140.142 83.2773 140.142 82.4797V82.1606Z" fill="url(#paint57_linear)"/>
<path d="M138.862 93.8067C139.502 93.8067 140.142 93.3281 140.142 92.5304V92.2113C140.142 91.5732 139.662 90.9351 138.862 90.9351C138.062 90.9351 137.582 91.4137 137.582 92.2113V92.5304C137.742 93.3281 138.222 93.8067 138.862 93.8067Z" fill="url(#paint58_linear)"/>
<path d="M128.938 66.5262H128.618C127.978 66.5262 127.338 67.0048 127.338 67.643C127.338 68.2811 127.818 68.9192 128.458 68.9192H128.778H128.938C129.578 68.9192 130.058 68.4406 130.058 67.8025C130.058 67.1644 129.578 66.6857 128.938 66.5262Z" fill="url(#paint59_linear)"/>
<path d="M141.741 101.305C141.421 100.826 140.621 100.667 140.141 100.986C139.661 101.305 139.501 102.102 139.821 102.581L139.981 102.9C140.141 103.219 140.621 103.379 140.941 103.379C141.101 103.379 141.421 103.379 141.581 103.219C142.061 102.9 142.221 102.102 141.901 101.624L141.741 101.305Z" fill="url(#paint60_linear)"/>
<path d="M140.141 97.476V97.1569C140.141 96.5188 139.5 96.0402 138.86 96.0402C138.22 96.0402 137.74 96.6783 137.74 97.3165V97.6355C137.9 98.2737 138.38 98.5927 138.86 98.5927H139.02C139.821 98.7523 140.301 98.1141 140.141 97.476Z" fill="url(#paint61_linear)"/>
<path d="M164.463 105.931H164.143C163.503 105.931 162.863 106.41 162.863 107.208C162.863 108.005 163.343 108.484 164.143 108.484H164.463C165.104 108.484 165.744 108.005 165.744 107.208C165.744 106.41 165.104 105.931 164.463 105.931Z" fill="url(#paint62_linear)"/>
<path d="M154.383 105.931H154.063C153.423 105.931 152.783 106.41 152.783 107.208C152.783 108.005 153.263 108.484 154.063 108.484H154.383C155.023 108.484 155.664 108.005 155.664 107.208C155.664 106.41 155.023 105.931 154.383 105.931Z" fill="url(#paint63_linear)"/>
<path d="M159.342 105.931H159.022C158.382 105.931 157.742 106.41 157.742 107.208C157.742 108.005 158.222 108.484 159.022 108.484H159.342C159.982 108.484 160.623 108.005 160.623 107.208C160.623 106.41 159.982 105.931 159.342 105.931Z" fill="url(#paint64_linear)"/>
<path d="M149.422 105.772H149.102C148.462 105.772 147.822 106.25 147.822 106.889C147.822 107.527 148.302 108.165 148.942 108.165H149.262C149.903 108.165 150.383 107.686 150.383 107.048C150.543 106.41 150.063 105.931 149.422 105.772Z" fill="url(#paint65_linear)"/>
<path d="M145.103 104.495L144.942 104.336C144.302 104.017 143.662 104.176 143.342 104.655C143.022 105.293 143.182 105.931 143.662 106.25L143.982 106.41C144.142 106.569 144.302 106.569 144.622 106.569C145.103 106.569 145.423 106.41 145.743 105.931C145.903 105.612 145.743 104.814 145.103 104.495Z" fill="url(#paint66_linear)"/>
<path d="M169.427 105.931C168.627 105.931 168.146 106.41 168.146 107.208C168.146 108.005 168.787 108.484 169.427 108.484C170.067 108.484 170.707 108.005 170.707 107.208C170.707 106.41 170.067 105.931 169.427 105.931Z" fill="url(#paint67_linear)"/>
<path d="M134.113 40.0371L133.794 40.196C133.157 40.5137 132.519 40.3548 132.2 39.7193C131.882 39.0838 132.041 38.4483 132.678 38.1306L132.838 37.9717C132.997 37.8128 133.316 37.8128 133.475 37.8128C133.953 37.8128 134.272 37.9717 134.431 38.4483C134.75 38.9249 134.591 39.5605 134.113 40.0371Z" fill="url(#paint68_linear)"/>
<path d="M137.931 36.0652L137.772 36.383C137.453 36.8596 136.656 37.0185 136.178 36.7008C135.7 36.383 135.54 35.5886 135.859 35.112L136.019 34.9531C136.178 34.6353 136.656 34.4765 136.975 34.4765C137.134 34.4765 137.453 34.4765 137.612 34.6353C138.25 34.7942 138.409 35.5886 137.931 36.0652Z" fill="url(#paint69_linear)"/>
<path d="M138.732 29.7102C139.528 29.7102 140.006 30.3457 139.847 30.9812C139.847 31.1401 139.847 31.299 139.847 31.299C139.688 31.9345 139.05 32.4111 138.413 32.2523C137.775 32.0934 137.297 31.6167 137.457 30.8224V30.5046C137.616 30.028 138.094 29.7102 138.732 29.7102Z" fill="url(#paint70_linear)"/>
<path d="M123.751 41.7848H123.591H123.432H118.651H118.332H113.551H113.233H108.292C107.655 41.7848 107.018 41.3082 107.018 40.5138C107.018 39.7194 107.496 39.2427 108.292 39.2427H113.233H113.551H118.332H118.651H123.432H123.591H123.751C124.388 39.2427 125.025 39.7194 125.025 40.5138C125.025 41.3082 124.388 41.7848 123.751 41.7848Z" fill="url(#paint71_linear)"/>
<path d="M138.73 22.4017C138.093 22.4017 137.455 21.9251 137.455 21.1307V20.813C137.455 20.1774 137.933 19.5419 138.73 19.5419C139.527 19.5419 140.005 20.0186 140.005 20.813V21.1307C140.005 21.7662 139.367 22.4017 138.73 22.4017Z" fill="url(#paint72_linear)"/>
<path d="M140.005 26.2148C140.005 26.8503 139.527 27.4859 138.73 27.4859C137.933 27.4859 137.455 27.0092 137.455 26.2148V25.8971C137.455 25.2616 137.933 24.626 138.73 24.626C139.527 24.626 140.005 25.1027 140.005 25.8971V26.2148Z" fill="url(#paint73_linear)"/>
<path d="M138.73 14.6167C139.367 14.6167 140.005 15.0933 140.005 15.8877V16.2055C140.005 16.841 139.527 17.4765 138.73 17.4765C137.933 17.4765 137.455 16.9999 137.455 16.2055V15.8877C137.614 15.0933 138.093 14.6167 138.73 14.6167Z" fill="url(#paint74_linear)"/>
<path d="M128.848 41.7848H128.529C127.891 41.7848 127.254 41.3082 127.254 40.6726C127.254 40.0371 127.732 39.4016 128.369 39.4016H128.688H128.848C129.485 39.4016 129.963 39.8783 129.963 40.5138C129.963 41.1493 129.485 41.6259 128.848 41.7848Z" fill="url(#paint75_linear)"/>
<path d="M141.596 7.14955C141.277 7.62619 140.48 7.78507 140.002 7.46732C139.524 7.14956 139.365 6.35517 139.683 5.87854L139.843 5.56078C140.002 5.24302 140.48 5.08415 140.799 5.08415C140.958 5.08415 141.277 5.08415 141.436 5.24302C141.914 5.56078 142.074 6.35517 141.755 6.8318L141.596 7.14955Z" fill="url(#paint76_linear)"/>
<path d="M140.004 10.9625V11.2802C140.004 11.9157 139.366 12.3924 138.729 12.3924C138.091 12.3924 137.613 11.7569 137.613 11.1214V10.8036C137.773 10.1681 138.251 9.85034 138.729 9.85034H138.888C139.685 9.69146 140.163 10.327 140.004 10.9625Z" fill="url(#paint77_linear)"/>
<path d="M164.224 2.54205H163.906C163.268 2.54205 162.631 2.06543 162.631 1.27104C162.631 0.476649 163.109 1.08166e-05 163.906 1.08166e-05H164.224C164.862 1.08166e-05 165.499 0.476649 165.499 1.27104C165.499 2.06543 164.862 2.54205 164.224 2.54205Z" fill="url(#paint78_linear)"/>
<path d="M154.187 2.54205H153.869C153.231 2.54205 152.594 2.06543 152.594 1.27104C152.594 0.476649 153.072 1.08166e-05 153.869 1.08166e-05H154.187C154.825 1.08166e-05 155.462 0.476649 155.462 1.27104C155.462 2.06543 154.825 2.54205 154.187 2.54205Z" fill="url(#paint79_linear)"/>
<path d="M159.125 2.54205H158.806C158.169 2.54205 157.531 2.06543 157.531 1.27104C157.531 0.476649 158.009 1.08166e-05 158.806 1.08166e-05H159.125C159.762 1.08166e-05 160.4 0.476649 160.4 1.27104C160.4 2.06543 159.762 2.54205 159.125 2.54205Z" fill="url(#paint80_linear)"/>
<path d="M149.25 2.70093H148.931C148.294 2.70093 147.656 2.22429 147.656 1.58878C147.656 0.953265 148.134 0.317761 148.772 0.317761H149.09C149.728 0.317761 150.206 0.794389 150.206 1.4299C150.365 2.06541 149.887 2.54205 149.25 2.70093Z" fill="url(#paint81_linear)"/>
<path d="M144.944 3.97198L144.785 4.13086C144.147 4.44861 143.51 4.28974 143.191 3.81311C142.872 3.17759 143.032 2.54208 143.51 2.22433L143.829 2.06545C143.988 1.90657 144.147 1.90658 144.466 1.90658C144.944 1.90658 145.263 2.06544 145.582 2.54208C145.741 2.85983 145.582 3.65423 144.944 3.97198Z" fill="url(#paint82_linear)"/>
<path d="M169.171 2.54205C168.375 2.54205 167.896 2.06543 167.896 1.27104C167.896 0.476649 168.534 1.08166e-05 169.171 1.08166e-05C169.809 1.08166e-05 170.446 0.476649 170.446 1.27104C170.446 2.06543 169.809 2.54205 169.171 2.54205Z" fill="url(#paint83_linear)"/>
<path d="M85.5 102C112.286 102 134 80.2858 134 53.5C134 26.7142 112.286 5 85.5 5C58.7142 5 37 26.7142 37 53.5C37 80.2858 58.7142 102 85.5 102Z" fill="#EAEEF9"/>
<path d="M41 99.5582H130.3" stroke="#EBF0F6" stroke-width="2" stroke-miterlimit="10" stroke-linecap="round" stroke-linejoin="round"/>
<path d="M105.111 98.8517C98.4641 99.0284 90.5049 98.8517 84.9072 98.7634C79.3095 98.9401 71.3504 99.0284 64.7031 98.8517C71.2629 95.0534 73.5369 88.0751 73.8868 83.4817H95.8402C96.3649 87.9867 98.639 95.0534 105.111 98.8517Z" fill="url(#paint84_linear)"/>
<path d="M65.407 100H104.416C104.941 100 105.465 99.5584 105.465 98.9401C105.465 98.4101 105.028 97.8801 104.416 97.8801H65.407C64.8822 97.8801 64.3574 98.3217 64.3574 98.9401C64.4449 99.5584 64.8822 100 65.407 100Z" fill="#EBF0F6"/>
<path d="M126.452 24.9167V82.6867C126.452 84.1001 125.315 85.1601 124.003 85.1601H46.2478C44.9359 85.1601 43.7988 84.0117 43.7988 82.6867V24.9167C43.7988 23.5917 44.9359 22.4434 46.2478 22.4434H124.003C125.402 22.4434 126.452 23.5917 126.452 24.9167Z" fill="#F5F8FF"/>
<path d="M126.452 24.9167V74.6484H43.7988V24.9167C43.7988 23.5917 44.9359 22.4434 46.2478 22.4434H124.003C125.402 22.4434 126.452 23.5917 126.452 24.9167Z" fill="#172D45"/>
<path d="M123.305 25.6234H46.5996V71.91H123.305V25.6234Z" fill="white"/>
<path d="M84.996 82.2451C86.107 82.2451 87.0077 81.3355 87.0077 80.2134C87.0077 79.0913 86.107 78.1817 84.996 78.1817C83.885 78.1817 82.9844 79.0913 82.9844 80.2134C82.9844 81.3355 83.885 82.2451 84.996 82.2451Z" fill="#DBDFE6"/>
<path d="M119.548 34.1033V40.0216C119.548 40.9049 118.848 41.6116 117.973 41.6116H53.2501C52.3755 41.6116 51.6758 40.9049 51.6758 40.0216V34.1033C51.6758 33.2199 52.3755 32.5133 53.2501 32.5133H117.973C118.848 32.5133 119.548 33.2199 119.548 34.1033Z" fill="#E3EAF2"/>
<path d="M60.7677 32.5133V41.6999H53.1583C52.2837 41.6999 51.584 40.9933 51.584 40.1099V34.1916C51.584 33.3083 52.2837 32.6016 53.1583 32.6016H60.7677V32.5133Z" fill="#CED7E2"/>
<path d="M119.548 46.47V52.3884C119.548 53.2717 118.848 53.9783 117.973 53.9783H53.2501C52.3755 53.9783 51.6758 53.2717 51.6758 52.3884V46.47C51.6758 45.5867 52.3755 44.88 53.2501 44.88H117.973C118.848 44.88 119.548 45.5867 119.548 46.47Z" fill="#E3EAF2"/>
<path d="M60.7677 44.88V54.0667H53.1583C52.2837 54.0667 51.584 53.36 51.584 52.4767V46.5584C51.584 45.675 52.2837 44.9684 53.1583 44.9684H60.7677V44.88Z" fill="#866FFE"/>
<path d="M55.8734 51.4167C55.6984 51.4167 55.5235 51.3284 55.4361 51.24L54.0366 49.8267C53.7742 49.5617 53.7742 49.12 54.0366 48.855C54.299 48.59 54.7363 48.59 54.9987 48.855L55.8734 49.7384L57.9725 47.6184C58.2349 47.3534 58.6722 47.3534 58.9346 47.6184C59.197 47.8834 59.197 48.325 58.9346 48.59L56.3107 51.1517C56.2232 51.3284 56.0483 51.4167 55.8734 51.4167Z" fill="white"/>
<path d="M119.548 58.8366V64.755C119.548 65.6383 118.848 66.345 117.973 66.345H53.2501C52.3755 66.345 51.6758 65.6383 51.6758 64.755V58.8366C51.6758 57.9533 52.3755 57.2466 53.2501 57.2466H117.973C118.848 57.2466 119.548 57.9533 119.548 58.8366Z" fill="#E3EAF2"/>
<path d="M60.7677 57.2467V66.4333H53.1583C52.2837 66.4333 51.584 65.7267 51.584 64.8433V58.925C51.584 58.0417 52.2837 57.335 53.1583 57.335H60.7677V57.2467Z" fill="#CED7E2"/>
<path d="M119.543 71.2033V71.9099H51.584V71.2033C51.584 70.3199 52.2837 69.6133 53.1583 69.6133H117.881C118.843 69.6133 119.543 70.3199 119.543 71.2033Z" fill="#E3EAF2"/>
<path d="M60.7677 69.6133V71.9099H51.584V71.2033C51.584 70.3199 52.2837 69.6133 53.1583 69.6133H60.7677Z" fill="#CED7E2"/>
<path d="M50.5328 29.1566C51.0159 29.1566 51.4075 28.7612 51.4075 28.2733C51.4075 27.7855 51.0159 27.39 50.5328 27.39C50.0498 27.39 49.6582 27.7855 49.6582 28.2733C49.6582 28.7612 50.0498 29.1566 50.5328 29.1566Z" fill="#E3EAF2"/>
<path d="M53.3317 29.1566C53.8147 29.1566 54.2063 28.7612 54.2063 28.2733C54.2063 27.7855 53.8147 27.39 53.3317 27.39C52.8486 27.39 52.457 27.7855 52.457 28.2733C52.457 28.7612 52.8486 29.1566 53.3317 29.1566Z" fill="#E3EAF2"/>
<path d="M56.1324 29.1566C56.6155 29.1566 57.0071 28.7612 57.0071 28.2733C57.0071 27.7855 56.6155 27.39 56.1324 27.39C55.6494 27.39 55.2578 27.7855 55.2578 28.2733C55.2578 28.7612 55.6494 29.1566 56.1324 29.1566Z" fill="#E3EAF2"/>
<defs>
<linearGradient id="paint0_linear" x1="-0.473852" y1="1.17197" x2="64.4066" y2="1.17197" gradientUnits="userSpaceOnUse">
<stop stop-color="#83A6FF" stop-opacity="0"/>
<stop offset="1" stop-color="#5A78FF"/>
<stop offset="1" stop-color="white"/>
</linearGradient>
<linearGradient id="paint1_linear" x1="-0.47624" y1="1.17197" x2="64.4042" y2="1.17197" gradientUnits="userSpaceOnUse">
<stop stop-color="#83A6FF" stop-opacity="0"/>
<stop offset="1" stop-color="#634EFE"/>
</linearGradient>
<linearGradient id="paint2_linear" x1="-0.473411" y1="1.20867" x2="64.4071" y2="1.20867" gradientUnits="userSpaceOnUse">
<stop stop-color="#83A6FF" stop-opacity="0"/>
<stop offset="0.9999" stop-color="#634EFE"/>
<stop offset="1" stop-color="#5A78FF"/>
</linearGradient>
<linearGradient id="paint3_linear" x1="-0.476453" y1="15.8032" x2="64.404" y2="15.8032" gradientUnits="userSpaceOnUse">
<stop stop-color="#83A6FF" stop-opacity="0"/>
<stop offset="1" stop-color="#634EFE"/>
</linearGradient>
<linearGradient id="paint4_linear" x1="-0.473419" y1="6.12847" x2="64.4071" y2="6.12847" gradientUnits="userSpaceOnUse">
<stop stop-color="#83A6FF" stop-opacity="0"/>
<stop offset="1" stop-color="#634EFE"/>
</linearGradient>
<linearGradient id="paint5_linear" x1="-0.476453" y1="20.8262" x2="64.404" y2="20.8262" gradientUnits="userSpaceOnUse">
<stop stop-color="#83A6FF" stop-opacity="0"/>
<stop offset="1" stop-color="#634EFE"/>
</linearGradient>
<linearGradient id="paint6_linear" x1="-0.47459" y1="1.17197" x2="64.4059" y2="1.17197" gradientUnits="userSpaceOnUse">
<stop stop-color="#83A6FF" stop-opacity="0"/>
<stop offset="1" stop-color="#634EFE"/>
</linearGradient>
<linearGradient id="paint7_linear" x1="-0.475197" y1="2.70798" x2="64.4053" y2="2.70798" gradientUnits="userSpaceOnUse">
<stop stop-color="#83A6FF" stop-opacity="0"/>
<stop offset="1" stop-color="#634EFE"/>
</linearGradient>
<linearGradient id="paint8_linear" x1="-0.474176" y1="35.5309" x2="64.4063" y2="35.5309" gradientUnits="userSpaceOnUse">
<stop stop-color="#83A6FF" stop-opacity="0"/>
<stop offset="1" stop-color="#634EFE"/>
</linearGradient>
<linearGradient id="paint9_linear" x1="-0.474971" y1="38.9668" x2="64.4055" y2="38.9668" gradientUnits="userSpaceOnUse">
<stop stop-color="#83A6FF" stop-opacity="0"/>
<stop offset="1" stop-color="#634EFE"/>
</linearGradient>
<linearGradient id="paint10_linear" x1="-0.475679" y1="40.4849" x2="64.4048" y2="40.4849" gradientUnits="userSpaceOnUse">
<stop stop-color="#83A6FF" stop-opacity="0"/>
<stop offset="1" stop-color="#634EFE"/>
</linearGradient>
<linearGradient id="paint11_linear" x1="-0.478638" y1="10.7853" x2="64.4018" y2="10.7853" gradientUnits="userSpaceOnUse">
<stop stop-color="#83A6FF" stop-opacity="0"/>
<stop offset="1" stop-color="#634EFE"/>
</linearGradient>
<linearGradient id="paint12_linear" x1="-0.474358" y1="30.8685" x2="64.4061" y2="30.8685" gradientUnits="userSpaceOnUse">
<stop stop-color="#83A6FF" stop-opacity="0"/>
<stop offset="1" stop-color="#634EFE"/>
</linearGradient>
<linearGradient id="paint13_linear" x1="-0.476453" y1="25.8497" x2="64.404" y2="25.8497" gradientUnits="userSpaceOnUse">
<stop stop-color="#83A6FF" stop-opacity="0"/>
<stop offset="1" stop-color="#634EFE"/>
</linearGradient>
<linearGradient id="paint14_linear" x1="-0.474891" y1="1.17204" x2="64.4056" y2="1.17204" gradientUnits="userSpaceOnUse">
<stop stop-color="#83A6FF" stop-opacity="0"/>
<stop offset="1" stop-color="#634EFE"/>
</linearGradient>
<linearGradient id="paint15_linear" x1="-0.475395" y1="40.5246" x2="64.4051" y2="40.5246" gradientUnits="userSpaceOnUse">
<stop stop-color="#83A6FF" stop-opacity="0"/>
<stop offset="1" stop-color="#634EFE"/>
</linearGradient>
<linearGradient id="paint16_linear" x1="-0.475197" y1="105.534" x2="64.4053" y2="105.534" gradientUnits="userSpaceOnUse">
<stop stop-color="#83A6FF" stop-opacity="0"/>
<stop offset="1" stop-color="#634EFE"/>
</linearGradient>
<linearGradient id="paint17_linear" x1="-0.477461" y1="107.033" x2="64.403" y2="107.033" gradientUnits="userSpaceOnUse">
<stop stop-color="#83A6FF" stop-opacity="0"/>
<stop offset="1" stop-color="#634EFE"/>
</linearGradient>
<linearGradient id="paint18_linear" x1="-0.476539" y1="97.4561" x2="64.4039" y2="97.4561" gradientUnits="userSpaceOnUse">
<stop stop-color="#83A6FF" stop-opacity="0"/>
<stop offset="1" stop-color="#634EFE"/>
</linearGradient>
<linearGradient id="paint19_linear" x1="-0.475805" y1="107.07" x2="64.4047" y2="107.07" gradientUnits="userSpaceOnUse">
<stop stop-color="#83A6FF" stop-opacity="0"/>
<stop offset="1" stop-color="#634EFE"/>
</linearGradient>
<linearGradient id="paint20_linear" x1="-0.476453" y1="92.4385" x2="64.404" y2="92.4385" gradientUnits="userSpaceOnUse">
<stop stop-color="#83A6FF" stop-opacity="0"/>
<stop offset="1" stop-color="#634EFE"/>
</linearGradient>
<linearGradient id="paint21_linear" x1="-0.478496" y1="107.07" x2="64.402" y2="107.07" gradientUnits="userSpaceOnUse">
<stop stop-color="#83A6FF" stop-opacity="0"/>
<stop offset="1" stop-color="#634EFE"/>
</linearGradient>
<linearGradient id="paint22_linear" x1="-0.47624" y1="107.07" x2="64.4042" y2="107.07" gradientUnits="userSpaceOnUse">
<stop stop-color="#83A6FF" stop-opacity="0"/>
<stop offset="1" stop-color="#634EFE"/>
</linearGradient>
<linearGradient id="paint23_linear" x1="-0.477325" y1="102.113" x2="64.4032" y2="102.113" gradientUnits="userSpaceOnUse">
<stop stop-color="#83A6FF" stop-opacity="0"/>
<stop offset="1" stop-color="#634EFE"/>
</linearGradient>
<linearGradient id="paint24_linear" x1="-0.475757" y1="69.274" x2="64.4047" y2="69.274" gradientUnits="userSpaceOnUse">
<stop stop-color="#83A6FF" stop-opacity="0"/>
<stop offset="1" stop-color="#634EFE"/>
</linearGradient>
<linearGradient id="paint25_linear" x1="-0.475676" y1="67.7577" x2="64.4048" y2="67.7577" gradientUnits="userSpaceOnUse">
<stop stop-color="#83A6FF" stop-opacity="0"/>
<stop offset="1" stop-color="#634EFE"/>
</linearGradient>
<linearGradient id="paint26_linear" x1="-0.47613" y1="72.7106" x2="64.4043" y2="72.7106" gradientUnits="userSpaceOnUse">
<stop stop-color="#83A6FF" stop-opacity="0"/>
<stop offset="1" stop-color="#634EFE"/>
</linearGradient>
<linearGradient id="paint27_linear" x1="-0.476453" y1="87.4155" x2="64.404" y2="87.4155" gradientUnits="userSpaceOnUse">
<stop stop-color="#83A6FF" stop-opacity="0"/>
<stop offset="1" stop-color="#634EFE"/>
</linearGradient>
<linearGradient id="paint28_linear" x1="-0.476453" y1="82.392" x2="64.404" y2="82.392" gradientUnits="userSpaceOnUse">
<stop stop-color="#83A6FF" stop-opacity="0"/>
<stop offset="1" stop-color="#634EFE"/>
</linearGradient>
<linearGradient id="paint29_linear" x1="-0.47631" y1="77.3733" x2="64.4042" y2="77.3733" gradientUnits="userSpaceOnUse">
<stop stop-color="#83A6FF" stop-opacity="0"/>
<stop offset="1" stop-color="#634EFE"/>
</linearGradient>
<linearGradient id="paint30_linear" x1="-0.476844" y1="107.07" x2="64.4036" y2="107.07" gradientUnits="userSpaceOnUse">
<stop stop-color="#83A6FF" stop-opacity="0"/>
<stop offset="1" stop-color="#634EFE"/>
</linearGradient>
<linearGradient id="paint31_linear" x1="-0.475529" y1="67.7172" x2="64.4049" y2="67.7172" gradientUnits="userSpaceOnUse">
<stop stop-color="#83A6FF" stop-opacity="0"/>
<stop offset="1" stop-color="#634EFE"/>
</linearGradient>
<linearGradient id="paint32_linear" x1="172.6" y1="53.7594" x2="107.326" y2="53.7594" gradientUnits="userSpaceOnUse">
<stop stop-color="#83A6FF" stop-opacity="0"/>
<stop offset="1" stop-color="#634EFE"/>
</linearGradient>
<linearGradient id="paint33_linear" x1="172.601" y1="53.7594" x2="107.327" y2="53.7594" gradientUnits="userSpaceOnUse">
<stop stop-color="#83A6FF" stop-opacity="0"/>
<stop offset="1" stop-color="#634EFE"/>
</linearGradient>
<linearGradient id="paint34_linear" x1="172.598" y1="53.7594" x2="107.324" y2="53.7594" gradientUnits="userSpaceOnUse">
<stop stop-color="#83A6FF" stop-opacity="0"/>
<stop offset="1" stop-color="#5A78FF"/>
</linearGradient>
<linearGradient id="paint35_linear" x1="172.6" y1="53.7595" x2="107.326" y2="53.7595" gradientUnits="userSpaceOnUse">
<stop stop-color="#83A6FF" stop-opacity="0"/>
<stop offset="1" stop-color="#634EFE"/>
</linearGradient>
<linearGradient id="paint36_linear" x1="172.599" y1="53.7594" x2="107.325" y2="53.7594" gradientUnits="userSpaceOnUse">
<stop stop-color="#83A6FF" stop-opacity="0"/>
<stop offset="1" stop-color="#634EFE"/>
</linearGradient>
<linearGradient id="paint37_linear" x1="172.601" y1="53.7594" x2="107.327" y2="53.7594" gradientUnits="userSpaceOnUse">
<stop stop-color="#83A6FF" stop-opacity="0"/>
<stop offset="1" stop-color="#634EFE"/>
</linearGradient>
<linearGradient id="paint38_linear" x1="172.598" y1="53.7594" x2="107.324" y2="53.7594" gradientUnits="userSpaceOnUse">
<stop stop-color="#83A6FF" stop-opacity="0"/>
<stop offset="1" stop-color="#634EFE"/>
</linearGradient>
<linearGradient id="paint39_linear" x1="172.599" y1="53.7594" x2="107.325" y2="53.7594" gradientUnits="userSpaceOnUse">
<stop stop-color="#83A6FF" stop-opacity="0"/>
<stop offset="0.9999" stop-color="#634EFE"/>
<stop offset="1" stop-color="#5A78FF"/>
</linearGradient>
<linearGradient id="paint40_linear" x1="172.6" y1="53.7594" x2="107.326" y2="53.7594" gradientUnits="userSpaceOnUse">
<stop stop-color="#83A6FF" stop-opacity="0"/>
<stop offset="1" stop-color="#634EFE"/>
</linearGradient>
<linearGradient id="paint41_linear" x1="172.597" y1="53.7594" x2="107.322" y2="53.7594" gradientUnits="userSpaceOnUse">
<stop stop-color="#83A6FF" stop-opacity="0"/>
<stop offset="1" stop-color="#634EFE"/>
</linearGradient>
<linearGradient id="paint42_linear" x1="0.0225962" y1="53.7675" x2="65.2967" y2="53.7675" gradientUnits="userSpaceOnUse">
<stop stop-color="#83A6FF" stop-opacity="0"/>
<stop offset="1" stop-color="#634EFE"/>
</linearGradient>
<linearGradient id="paint43_linear" x1="0.0223173" y1="53.7675" x2="65.2958" y2="53.7675" gradientUnits="userSpaceOnUse">
<stop stop-color="#83A6FF" stop-opacity="0"/>
<stop offset="1" stop-color="#634EFE"/>
</linearGradient>
<linearGradient id="paint44_linear" x1="0.0251143" y1="53.7675" x2="65.2992" y2="53.7675" gradientUnits="userSpaceOnUse">
<stop stop-color="#83A6FF" stop-opacity="0"/>
<stop offset="1" stop-color="#5A78FF"/>
</linearGradient>
<linearGradient id="paint45_linear" x1="0.0233007" y1="53.7674" x2="65.2973" y2="53.7674" gradientUnits="userSpaceOnUse">
<stop stop-color="#83A6FF" stop-opacity="0"/>
<stop offset="1" stop-color="#634EFE"/>
</linearGradient>
<linearGradient id="paint46_linear" x1="0.0216044" y1="53.7675" x2="65.2957" y2="53.7675" gradientUnits="userSpaceOnUse">
<stop stop-color="#83A6FF" stop-opacity="0"/>
<stop offset="1" stop-color="#634EFE"/>
</linearGradient>
<linearGradient id="paint47_linear" x1="0.0218636" y1="53.7675" x2="65.2959" y2="53.7675" gradientUnits="userSpaceOnUse">
<stop stop-color="#83A6FF" stop-opacity="0"/>
<stop offset="1" stop-color="#634EFE"/>
</linearGradient>
<linearGradient id="paint48_linear" x1="0.0232517" y1="53.7675" x2="65.2973" y2="53.7675" gradientUnits="userSpaceOnUse">
<stop stop-color="#83A6FF" stop-opacity="0"/>
<stop offset="1" stop-color="#634EFE"/>
</linearGradient>
<linearGradient id="paint49_linear" x1="0.0243807" y1="53.7675" x2="65.2985" y2="53.7675" gradientUnits="userSpaceOnUse">
<stop stop-color="#83A6FF" stop-opacity="0"/>
<stop offset="0.9999" stop-color="#634EFE"/>
<stop offset="1" stop-color="#5A78FF"/>
</linearGradient>
<linearGradient id="paint50_linear" x1="0.0231917" y1="53.7675" x2="65.2967" y2="53.7675" gradientUnits="userSpaceOnUse">
<stop stop-color="#83A6FF" stop-opacity="0"/>
<stop offset="1" stop-color="#634EFE"/>
</linearGradient>
<linearGradient id="paint51_linear" x1="0.0264525" y1="53.7675" x2="65.3007" y2="53.7675" gradientUnits="userSpaceOnUse">
<stop stop-color="#83A6FF" stop-opacity="0"/>
<stop offset="1" stop-color="#634EFE"/>
</linearGradient>
<linearGradient id="paint52_linear" x1="172.922" y1="69.2741" x2="107.648" y2="69.2741" gradientUnits="userSpaceOnUse">
<stop stop-color="#83A6FF" stop-opacity="0"/>
<stop offset="1" stop-color="#634EFE"/>
</linearGradient>
<linearGradient id="paint53_linear" x1="172.918" y1="72.7099" x2="107.644" y2="72.7099" gradientUnits="userSpaceOnUse">
<stop stop-color="#83A6FF" stop-opacity="0"/>
<stop offset="1" stop-color="#634EFE"/>
</linearGradient>
<linearGradient id="paint54_linear" x1="172.92" y1="77.3729" x2="107.646" y2="77.3729" gradientUnits="userSpaceOnUse">
<stop stop-color="#83A6FF" stop-opacity="0"/>
<stop offset="1" stop-color="#634EFE"/>
</linearGradient>
<linearGradient id="paint55_linear" x1="172.92" y1="67.7171" x2="107.646" y2="67.7171" gradientUnits="userSpaceOnUse">
<stop stop-color="#83A6FF" stop-opacity="0"/>
<stop offset="1" stop-color="#634EFE"/>
</linearGradient>
<linearGradient id="paint56_linear" x1="172.92" y1="87.4147" x2="107.646" y2="87.4147" gradientUnits="userSpaceOnUse">
<stop stop-color="#83A6FF" stop-opacity="0"/>
<stop offset="1" stop-color="#634EFE"/>
</linearGradient>
<linearGradient id="paint57_linear" x1="172.92" y1="82.3919" x2="107.646" y2="82.3919" gradientUnits="userSpaceOnUse">
<stop stop-color="#83A6FF" stop-opacity="0"/>
<stop offset="1" stop-color="#634EFE"/>
</linearGradient>
<linearGradient id="paint58_linear" x1="172.92" y1="92.4385" x2="107.646" y2="92.4385" gradientUnits="userSpaceOnUse">
<stop stop-color="#83A6FF" stop-opacity="0"/>
<stop offset="1" stop-color="#634EFE"/>
</linearGradient>
<linearGradient id="paint59_linear" x1="172.917" y1="67.7575" x2="107.644" y2="67.7575" gradientUnits="userSpaceOnUse">
<stop stop-color="#83A6FF" stop-opacity="0"/>
<stop offset="0.9999" stop-color="#634EFE"/>
<stop offset="1" stop-color="#634EFE"/>
</linearGradient>
<linearGradient id="paint60_linear" x1="172.919" y1="102.113" x2="107.645" y2="102.113" gradientUnits="userSpaceOnUse">
<stop stop-color="#866FFE" stop-opacity="0"/>
<stop offset="0.9999" stop-color="#634EFE"/>
<stop offset="1" stop-color="#5A78FF"/>
<stop offset="1" stop-color="#634EFE"/>
</linearGradient>
<linearGradient id="paint61_linear" x1="172.919" y1="97.4561" x2="107.645" y2="97.4561" gradientUnits="userSpaceOnUse">
<stop stop-color="#83A6FF" stop-opacity="0"/>
<stop offset="1" stop-color="#634EFE"/>
</linearGradient>
<linearGradient id="paint62_linear" x1="172.918" y1="107.07" x2="107.644" y2="107.07" gradientUnits="userSpaceOnUse">
<stop stop-color="#83A6FF" stop-opacity="0"/>
<stop offset="1" stop-color="#634EFE"/>
</linearGradient>
<linearGradient id="paint63_linear" x1="172.92" y1="107.07" x2="107.646" y2="107.07" gradientUnits="userSpaceOnUse">
<stop stop-color="#83A6FF" stop-opacity="0"/>
<stop offset="1" stop-color="#634EFE"/>
</linearGradient>
<linearGradient id="paint64_linear" x1="172.918" y1="107.07" x2="107.644" y2="107.07" gradientUnits="userSpaceOnUse">
<stop stop-color="#83A6FF" stop-opacity="0"/>
<stop offset="1" stop-color="#7964E5"/>
</linearGradient>
<linearGradient id="paint65_linear" x1="172.919" y1="107.033" x2="107.645" y2="107.033" gradientUnits="userSpaceOnUse">
<stop stop-color="#83A6FF" stop-opacity="0"/>
<stop offset="1" stop-color="#634EFE"/>
</linearGradient>
<linearGradient id="paint66_linear" x1="172.92" y1="105.534" x2="107.646" y2="105.534" gradientUnits="userSpaceOnUse">
<stop stop-color="#83A6FF" stop-opacity="0"/>
<stop offset="1" stop-color="#634EFE"/>
</linearGradient>
<linearGradient id="paint67_linear" x1="172.921" y1="107.07" x2="107.647" y2="107.07" gradientUnits="userSpaceOnUse">
<stop stop-color="#83A6FF" stop-opacity="0"/>
<stop offset="1" stop-color="#634EFE"/>
</linearGradient>
<linearGradient id="paint68_linear" x1="172.652" y1="39.0482" x2="107.647" y2="39.0482" gradientUnits="userSpaceOnUse">
<stop stop-color="#83A6FF" stop-opacity="0"/>
<stop offset="1" stop-color="#634EFE"/>
</linearGradient>
<linearGradient id="paint69_linear" x1="172.646" y1="35.6266" x2="107.64" y2="35.6266" gradientUnits="userSpaceOnUse">
<stop stop-color="#83A6FF" stop-opacity="0"/>
<stop offset="1" stop-color="#634EFE"/>
</linearGradient>
<linearGradient id="paint70_linear" x1="172.649" y1="30.9828" x2="107.644" y2="30.9828" gradientUnits="userSpaceOnUse">
<stop stop-color="#83A6FF" stop-opacity="0"/>
<stop offset="1" stop-color="#634EFE"/>
</linearGradient>
<linearGradient id="paint71_linear" x1="172.648" y1="40.5988" x2="107.643" y2="40.5988" gradientUnits="userSpaceOnUse">
<stop stop-color="#83A6FF" stop-opacity="0"/>
<stop offset="1" stop-color="#634EFE"/>
</linearGradient>
<linearGradient id="paint72_linear" x1="172.648" y1="20.9823" x2="107.643" y2="20.9823" gradientUnits="userSpaceOnUse">
<stop stop-color="#83A6FF" stop-opacity="0"/>
<stop offset="1" stop-color="#634EFE"/>
</linearGradient>
<linearGradient id="paint73_linear" x1="172.648" y1="25.9845" x2="107.643" y2="25.9845" gradientUnits="userSpaceOnUse">
<stop stop-color="#83A6FF" stop-opacity="0"/>
<stop offset="1" stop-color="#634EFE"/>
</linearGradient>
<linearGradient id="paint74_linear" x1="172.648" y1="15.9792" x2="107.643" y2="15.9792" gradientUnits="userSpaceOnUse">
<stop stop-color="#83A6FF" stop-opacity="0"/>
<stop offset="1" stop-color="#634EFE"/>
</linearGradient>
<linearGradient id="paint75_linear" x1="172.646" y1="40.5586" x2="107.641" y2="40.5586" gradientUnits="userSpaceOnUse">
<stop stop-color="#83A6FF" stop-opacity="0"/>
<stop offset="0.9999" stop-color="#634EFE"/>
<stop offset="1" stop-color="#634EFE"/>
</linearGradient>
<linearGradient id="paint76_linear" x1="172.645" y1="6.34484" x2="107.64" y2="6.34484" gradientUnits="userSpaceOnUse">
<stop stop-color="#866FFE" stop-opacity="0"/>
<stop offset="0.9999" stop-color="#634EFE"/>
<stop offset="1" stop-color="#5A78FF"/>
<stop offset="1" stop-color="#634EFE"/>
</linearGradient>
<linearGradient id="paint77_linear" x1="172.647" y1="10.9823" x2="107.642" y2="10.9823" gradientUnits="userSpaceOnUse">
<stop stop-color="#83A6FF" stop-opacity="0"/>
<stop offset="1" stop-color="#634EFE"/>
</linearGradient>
<linearGradient id="paint78_linear" x1="172.645" y1="1.40846" x2="107.639" y2="1.40846" gradientUnits="userSpaceOnUse">
<stop stop-color="#83A6FF" stop-opacity="0"/>
<stop offset="1" stop-color="#634EFE"/>
</linearGradient>
<linearGradient id="paint79_linear" x1="172.647" y1="1.40846" x2="107.642" y2="1.40846" gradientUnits="userSpaceOnUse">
<stop stop-color="#83A6FF" stop-opacity="0"/>
<stop offset="1" stop-color="#634EFE"/>
</linearGradient>
<linearGradient id="paint80_linear" x1="172.644" y1="1.40846" x2="107.639" y2="1.40846" gradientUnits="userSpaceOnUse">
<stop stop-color="#83A6FF" stop-opacity="0"/>
<stop offset="1" stop-color="#7964E5"/>
</linearGradient>
<linearGradient id="paint81_linear" x1="172.65" y1="1.44516" x2="107.645" y2="1.44516" gradientUnits="userSpaceOnUse">
<stop stop-color="#83A6FF" stop-opacity="0"/>
<stop offset="1" stop-color="#634EFE"/>
</linearGradient>
<linearGradient id="paint82_linear" x1="172.647" y1="2.93769" x2="107.642" y2="2.93769" gradientUnits="userSpaceOnUse">
<stop stop-color="#83A6FF" stop-opacity="0"/>
<stop offset="1" stop-color="#634EFE"/>
</linearGradient>
<linearGradient id="paint83_linear" x1="172.651" y1="1.40846" x2="107.646" y2="1.40846" gradientUnits="userSpaceOnUse">
<stop stop-color="#83A6FF" stop-opacity="0"/>
<stop offset="1" stop-color="#634EFE"/>
</linearGradient>
<linearGradient id="paint84_linear" x1="84.9516" y1="98.4175" x2="84.9516" y2="84.6388" gradientUnits="userSpaceOnUse">
<stop stop-color="#F5F8FF"/>
<stop offset="0.9913" stop-color="#D8E0EB"/>
</linearGradient>
</defs>
</svg>
