<svg width="111" height="153" viewBox="0 0 111 153" fill="none" xmlns="http://www.w3.org/2000/svg">
<ellipse cx="76" cy="76.5" rx="76" ry="76.5" fill="#EAEEF9"/>
<path d="M153 76.5389C153 98.8234 143.29 118.72 127.85 132.409H4.17082C2.57907 132.409 1.30566 131.136 1.30566 129.544V26.0802C1.30566 24.4885 2.57907 23.2151 4.17082 23.2151H130.238C144.245 36.4267 153 55.5277 153 76.5389Z" fill="#EAEEF9"/>
<path d="M55.5846 87.3628H5.92184C5.12596 87.3628 4.48926 86.7261 4.48926 85.9302V50.2749C4.48926 49.479 5.12596 48.8423 5.92184 48.8423H55.5846C56.3805 48.8423 57.0172 49.479 57.0172 50.2749V85.9302C57.0172 86.5669 56.3805 87.3628 55.5846 87.3628Z" fill="white"/>
<path d="M146.315 45.818H5.92184C5.12596 45.818 4.48926 45.1813 4.48926 44.3854V27.5128C4.48926 26.7169 5.12596 26.0802 5.92184 26.0802H133.262C135.172 28.1495 136.923 30.378 138.674 32.6064C140.425 34.9941 142.176 37.7 143.609 40.2468C144.564 42.157 145.519 43.9079 146.315 45.818Z" fill="white"/>
<path d="M110.659 87.3628H60.9961C60.2002 87.3628 59.5635 86.7261 59.5635 85.9302V50.2749C59.5635 49.479 60.2002 48.8423 60.9961 48.8423H110.659C111.455 48.8423 112.091 49.479 112.091 50.2749V85.9302C112.251 86.5669 111.614 87.3628 110.659 87.3628Z" fill="white"/>
<path d="M55.5846 128.748H5.92184C5.12596 128.748 4.48926 128.112 4.48926 127.316V91.6605C4.48926 90.8646 5.12596 90.2279 5.92184 90.2279H55.5846C56.3805 90.2279 57.0172 90.8646 57.0172 91.6605V127.316C57.0172 128.112 56.3805 128.748 55.5846 128.748Z" fill="white"/>
<path d="M110.659 128.748H60.9961C60.2002 128.748 59.5635 128.112 59.5635 127.316V91.6605C59.5635 90.8646 60.2002 90.2279 60.9961 90.2279H110.659C111.455 90.2279 112.091 90.8646 112.091 91.6605V127.316C112.251 128.112 111.614 128.748 110.659 128.748Z" fill="white"/>
<path d="M37.1206 111.398C37.1206 111.557 37.1206 111.717 36.9614 111.876C36.8022 112.194 36.8022 112.512 36.8022 112.831C36.643 112.99 36.643 113.149 36.643 113.308C36.4839 113.627 36.4839 113.945 36.3247 114.104V114.263C36.1655 114.423 36.1655 114.582 36.1655 114.582C36.0063 114.741 36.0063 114.9 35.8472 114.9L38.7123 117.447C38.8715 117.288 38.8715 117.129 39.0307 116.969C39.349 116.492 39.6674 116.014 39.8265 115.537C39.9857 115.378 39.9857 115.218 39.9857 115.059C40.1449 114.582 40.3041 114.104 40.6224 113.627C40.6224 113.468 40.7816 113.308 40.7816 113.308C40.9408 112.99 40.9408 112.672 40.9408 112.512C40.9408 112.353 41.0999 112.194 41.0999 112.194C41.0999 112.035 41.0999 111.876 41.2591 111.876V111.717C41.2591 111.557 41.2591 111.398 41.2591 111.398H37.1206ZM29.0026 118.561C24.5457 118.561 20.7255 114.9 20.7255 110.443C20.7255 106.145 23.909 102.803 27.8884 102.325V98.505C21.8397 98.9826 16.9053 104.235 16.9053 110.602C16.9053 117.288 22.3172 122.7 29.0026 122.7C32.3453 122.7 35.3696 121.426 37.4389 119.198L34.5738 116.492C33.1412 117.924 31.0719 118.561 29.0026 118.561ZM29.9577 98.3459V102.166C33.7779 102.644 36.643 105.509 37.1206 109.17H41.0999C40.6224 103.439 35.8472 98.8234 29.9577 98.3459Z" fill="#E3EAF2"/>
<path d="M41.1003 109.329H37.2801C36.8026 105.509 33.7782 102.644 30.1172 102.325V98.505C35.8475 98.8234 40.6228 103.439 41.1003 109.329Z" fill="#989FB0"/>
<path d="M41.0995 111.398C41.0995 111.557 41.0995 111.717 41.0995 111.717V111.876C41.0995 112.035 41.0995 112.194 40.9403 112.194C40.9403 112.353 40.9403 112.513 40.7811 112.513C40.6219 112.831 40.6219 113.149 40.6219 113.308C40.6219 113.468 40.4628 113.627 40.4628 113.627C40.3036 114.104 40.1444 114.582 39.8261 115.059C39.6669 115.218 39.6669 115.378 39.6669 115.537C39.5077 116.014 39.1894 116.492 38.871 116.969C38.7118 117.129 38.7118 117.288 38.5527 117.447L35.8467 114.9C36.0059 114.741 36.0059 114.582 36.165 114.582C36.3242 114.423 36.3242 114.263 36.3242 114.263V114.104C36.4834 113.786 36.6426 113.468 36.6426 113.308C36.8017 113.149 36.8017 112.99 36.8017 112.831C36.9609 112.513 36.9609 112.194 36.9609 111.876C36.9609 111.717 37.1201 111.557 37.1201 111.398H41.0995Z" fill="#989FB0"/>
<path d="M69.1142 74.6287H66.8857C66.7266 74.6287 66.4082 74.3104 66.4082 74.1512V62.0539C66.4082 61.7355 66.5674 61.5764 66.8857 61.5764H69.1142C69.2734 61.5764 69.5917 61.8947 69.5917 62.0539V74.1512C69.4325 74.3104 69.2734 74.6287 69.1142 74.6287Z" fill="#989FB0"/>
<path d="M70.3876 74.6287H67.8408C67.6816 74.6287 67.5225 74.4695 67.5225 74.3104V68.7392C67.5225 68.4209 67.6816 68.4209 67.8408 68.4209H70.3876C70.5468 68.4209 70.706 68.58 70.706 68.7392V74.3104C70.706 74.4695 70.5468 74.6287 70.3876 74.6287Z" fill="#CED7E2"/>
<path d="M74.8447 74.6287H72.6162C72.457 74.6287 72.1387 74.3104 72.1387 74.1512V65.7149C72.1387 65.3965 72.2978 65.2374 72.6162 65.2374H74.8447C75.0038 65.2374 75.3222 65.5557 75.3222 65.7149V74.1512C75.3222 74.3104 75.0038 74.6287 74.8447 74.6287Z" fill="#989FB0"/>
<path d="M80.5751 74.6288H78.3467C78.1875 74.6288 77.8691 74.3104 77.8691 74.1512V68.7393C77.8691 68.4209 78.0283 68.2617 78.3467 68.2617H80.5751C80.7343 68.2617 81.0527 68.5801 81.0527 68.7393V73.9921C81.0527 74.3104 80.7343 74.6288 80.5751 74.6288Z" fill="#989FB0"/>
<path d="M86.3056 74.6287H84.0771C83.918 74.6287 83.5996 74.3104 83.5996 74.1512V64.1231C83.5996 63.8048 83.7588 63.6456 84.0771 63.6456H86.3056C86.4648 63.6456 86.7831 63.9639 86.7831 64.1231V74.1512C86.7831 74.3104 86.6239 74.6287 86.3056 74.6287Z" fill="#989FB0"/>
<path d="M92.1943 74.6287H89.9658C89.8066 74.6287 89.4883 74.3104 89.4883 74.1512V68.1025C89.4883 67.7842 89.6475 67.625 89.9658 67.625H92.1943C92.3534 67.625 92.6718 67.9433 92.6718 68.1025V74.1512C92.6718 74.3104 92.5126 74.6287 92.1943 74.6287Z" fill="#989FB0"/>
<path d="M97.9247 74.6287H95.6963C95.5371 74.6287 95.2188 74.3104 95.2188 74.1512V65.7149C95.2188 65.3965 95.3779 65.2374 95.6963 65.2374H97.9247C98.0839 65.2374 98.4023 65.5557 98.4023 65.7149V74.1512C98.4023 74.3104 98.2431 74.6287 97.9247 74.6287Z" fill="#989FB0"/>
<path d="M103.814 74.6288H101.586C101.427 74.6288 101.108 74.3104 101.108 74.1512V68.7393C101.108 68.4209 101.268 68.2617 101.586 68.2617H103.814C103.974 68.2617 104.292 68.5801 104.292 68.7393V73.9921C104.133 74.3104 103.974 74.6288 103.814 74.6288Z" fill="#989FB0"/>
<path d="M76.1181 74.6288H73.4121C73.2529 74.6288 73.2529 74.4696 73.2529 74.3104V70.9677C73.2529 70.8086 73.4121 70.6494 73.4121 70.6494H76.1181C76.2773 70.6494 76.2773 70.8086 76.2773 70.9677V74.3104C76.4364 74.4696 76.2773 74.6288 76.1181 74.6288Z" fill="#CED7E2"/>
<path d="M82.0077 74.6287H79.3018C79.1426 74.6287 79.1426 74.4696 79.1426 74.3104V72.7186C79.1426 72.5594 79.3018 72.4003 79.3018 72.4003H82.0077C82.1669 72.4003 82.1669 72.5594 82.1669 72.7186V74.3104C82.1669 74.4696 82.1669 74.6287 82.0077 74.6287Z" fill="#CED7E2"/>
<path d="M87.7382 74.6287H85.0322C84.873 74.6287 84.873 74.4695 84.873 74.3104V71.9227C84.873 71.7635 85.0322 71.6044 85.0322 71.6044H87.7382C87.8974 71.6044 87.8974 71.7635 87.8974 71.9227V74.3104C88.0566 74.4695 88.0566 74.6287 87.7382 74.6287Z" fill="#CED7E2"/>
<path d="M93.6269 74.6287H91.0801C90.9209 74.6287 90.9209 74.4695 90.9209 74.3103V70.0126C90.9209 69.8534 91.0801 69.6942 91.0801 69.6942H93.6269C93.7861 69.6942 93.7861 69.8534 93.7861 70.0126V74.3103C93.9452 74.4695 93.7861 74.6287 93.6269 74.6287Z" fill="#CED7E2"/>
<path d="M99.6757 74.6287H96.8105C96.6514 74.6287 96.6514 74.6287 96.6514 74.4695V73.6737C96.6514 73.5145 96.6514 73.5145 96.8105 73.5145H99.6757C99.8349 73.5145 99.8349 73.5145 99.8349 73.6737V74.3104C99.8349 74.4695 99.8349 74.6287 99.6757 74.6287Z" fill="#CED7E2"/>
<path d="M105.406 74.6287H102.541C102.541 74.6287 102.382 74.6287 102.382 74.4695V74.1512C102.382 74.1512 102.382 73.992 102.541 73.992H105.406C105.406 73.992 105.565 73.992 105.565 74.1512L105.406 74.6287C105.565 74.4695 105.406 74.6287 105.406 74.6287Z" fill="#CED7E2"/>
<path d="M107.953 95.3216H63.8613V101.211H107.953V95.3216Z" fill="#E6EDF5"/>
<path d="M89.4889 97.2317H77.3916V98.9826H89.4889V97.2317Z" fill="#CED7E2"/>
<path d="M104.769 97.2317H100.472V98.9826H104.769V97.2317Z" fill="#CED7E2"/>
<path d="M107.953 106.464H63.8613V112.353H107.953V106.464Z" fill="#E6EDF5"/>
<path d="M85.8279 108.692H77.3916V110.443H85.8279V108.692Z" fill="#CED7E2"/>
<path d="M104.769 108.692H97.2881V110.443H104.769V108.692Z" fill="#CED7E2"/>
<path d="M107.953 117.765H63.8613V123.655H107.953V117.765Z" fill="#E6EDF5"/>
<path d="M91.399 119.835H77.3916V121.585H91.399V119.835Z" fill="#CED7E2"/>
<path d="M104.769 119.835H102.382V121.585H104.769V119.835Z" fill="#CED7E2"/>
<path d="M16.2684 33.8798H9.58299C9.10546 33.8798 8.78711 33.4023 8.78711 33.0839V32.288C8.78711 31.8105 9.26464 31.4922 9.58299 31.4922H16.2684C16.7459 31.4922 17.0642 31.9697 17.0642 32.288V33.0839C17.0642 33.4023 16.7459 33.8798 16.2684 33.8798Z" fill="#CED7E2"/>
<path d="M62.2694 33.8798H22.7939C22.3164 33.8798 21.998 33.4023 21.998 33.0839V32.288C21.998 31.8105 22.4756 31.4922 22.7939 31.4922H62.2694C62.747 31.4922 63.0653 31.9697 63.0653 32.288V33.0839C63.0653 33.4023 62.747 33.8798 62.2694 33.8798Z" fill="#E3EAF2"/>
<path d="M16.2684 40.406H9.58299C9.10546 40.406 8.78711 39.9285 8.78711 39.6102V38.8143C8.78711 38.3368 9.26464 38.0184 9.58299 38.0184H16.2684C16.7459 38.0184 17.0642 38.4959 17.0642 38.8143V39.6102C17.0642 40.0877 16.7459 40.406 16.2684 40.406Z" fill="#CED7E2"/>
<path d="M43.9643 39.6102C43.9643 40.0877 43.4867 40.406 43.1684 40.406H22.7939C22.3164 40.406 21.998 39.9285 21.998 39.6102V38.8143C21.998 38.3368 22.4756 38.0184 22.7939 38.0184H43.1684C43.6459 38.0184 43.9643 38.4959 43.9643 38.8143V39.6102Z" fill="#E3EAF2"/>
<path d="M51.4461 82.7466H8.78711V56.1643C11.0156 56.3235 13.244 56.4827 15.3133 57.1194C16.2684 57.4377 16.9051 57.7561 17.5418 58.3928C17.8601 58.7111 17.8601 58.8703 17.8601 59.0295C18.1785 59.8254 18.8152 60.3029 19.9294 60.4621L20.8844 60.6213C22.7946 60.7804 24.2271 61.8947 24.3863 63.1681L24.7047 65.3965C26.7739 65.874 26.9331 65.874 28.8432 66.3516C29.1616 66.5107 29.1616 66.3516 29.3207 66.1924C29.4799 66.0332 29.6391 66.0332 29.7983 66.0332C30.1166 66.0332 30.1166 66.0332 30.435 65.874C30.7533 65.7149 31.0717 65.7149 31.2309 66.0332C32.0267 67.1474 33.6185 67.7841 34.5735 68.7392C35.6878 69.8534 37.5979 69.6943 38.8713 69.6943C39.1896 69.6943 39.6672 69.8534 39.9855 70.0126C41.5773 71.1268 44.1241 74.7879 46.1933 74.7879C46.9892 74.7879 47.6259 75.1062 48.1035 75.4246C49.8544 77.9714 50.9686 80.0407 51.4461 82.7466Z" fill="#EAEEF9"/>
<path d="M50.3319 82.9059C49.8544 80.5183 48.7402 78.6082 46.9892 76.5389C46.8301 76.3797 46.3525 76.2205 45.875 76.2205C43.9649 76.2205 42.3731 74.4696 40.7814 72.8778C40.1447 72.2411 39.508 71.6044 39.0305 71.2861C38.8713 71.1269 38.5529 71.1269 38.5529 71.1269C38.2346 71.1269 38.0754 71.1269 37.7571 71.1269C36.4837 71.1269 34.7327 70.9677 33.4593 69.8535C33.141 69.376 32.6634 69.0576 32.0267 68.7393C31.39 68.2618 30.7533 67.9434 30.2758 67.3067C30.1166 67.3067 29.7983 67.3067 29.6391 67.3067C29.4799 67.4659 28.8432 67.7842 28.0473 67.4659L27.0923 67.1475C26.1372 66.9884 25.6597 66.8292 24.068 66.5108H23.5904L23.2721 63.4865C23.2721 62.6906 22.1579 62.0539 20.8845 61.8947L19.9294 61.7356C18.4968 61.5764 17.2234 60.7805 16.9051 59.5071V59.3479C16.4275 58.8704 15.95 58.5521 15.3133 58.3929C13.4032 57.7562 11.1747 57.597 9.10547 57.4378L9.26464 55.0502C11.4931 55.2094 13.8807 55.3685 16.1092 56.1644C17.2234 56.4828 18.1785 57.1195 18.8152 57.9154C18.9743 58.0745 19.2927 58.5521 19.4519 59.1888C19.611 59.5071 19.9294 59.6663 20.4069 59.6663L21.362 59.8255C23.9088 59.9846 25.6597 61.5764 25.9781 63.4865L26.1372 64.7599C27.0923 64.9191 27.5698 65.0783 28.3657 65.2374L29.3208 65.3966C29.6391 65.2374 29.9575 65.0783 30.2758 65.0783C30.435 65.0783 30.435 65.0783 30.5942 65.0783C31.39 64.7599 32.3451 65.0783 32.8226 65.715C33.141 66.0333 33.7777 66.5108 34.2552 66.8292C34.8919 67.3067 35.5286 67.6251 36.0061 68.2618C36.4837 68.7393 37.5979 68.7393 38.7121 68.8985C39.0305 68.8985 39.1896 68.8985 39.508 68.8985C40.1447 68.8985 40.6222 69.2168 41.0997 69.376L41.2589 69.5352C41.8956 70.0127 42.6915 70.6494 43.3282 71.4453C44.2832 72.5595 45.875 73.9921 46.6709 73.9921C47.6259 73.9921 48.581 74.3104 49.3769 74.9471C51.6053 77.3348 52.8787 79.7224 53.3563 82.5876L50.3319 82.9059Z" fill="#989FB0"/>
<path d="M49.6948 66.5107H30.9121C30.1162 66.5107 29.4795 65.874 29.4795 65.0782V58.3928C29.4795 57.5969 30.1162 56.9602 30.9121 56.9602H49.6948C50.4907 56.9602 51.1274 57.5969 51.1274 58.3928V65.0782C51.1274 65.874 50.4907 66.5107 49.6948 66.5107Z" fill="#989FB0"/>
<path d="M47.3072 59.6662H33.459C33.1406 59.6662 32.9814 59.9846 32.9814 60.1438C32.9814 60.3029 33.1406 60.7805 33.2998 60.7805H47.1481C47.4664 60.7805 47.6256 60.4621 47.6256 60.3029C47.6256 60.1438 47.4664 59.6662 47.3072 59.6662Z" fill="white"/>
<path d="M40.781 62.8497H33.2998C32.9814 62.8497 32.8223 63.1681 32.8223 63.3273C32.8223 63.6456 33.1406 63.8048 33.2998 63.8048H40.781C41.0994 63.8048 41.2586 63.4864 41.2586 63.3273C41.2586 63.1681 40.9402 62.8497 40.781 62.8497Z" fill="white"/>
</svg>
