<svg width="1150" height="462" viewBox="0 0 1150 462" fill="none" xmlns="http://www.w3.org/2000/svg">
<rect x="30.7891" width="259" height="97" rx="10" fill="white"/>
<mask id="mask0_54:5975" style="mask-type:alpha" maskUnits="userSpaceOnUse" x="55" y="25" width="118" height="46">
<path fill-rule="evenodd" clip-rule="evenodd" d="M59 25C56.7909 25 55 26.7909 55 29V35C55 37.2091 56.7909 39 59 39H169C171.209 39 173 37.2091 173 35V29C173 26.7909 171.209 25 169 25H59ZM59 51C56.7909 51 55 52.7909 55 55V67C55 69.2091 56.7909 71 59 71H128C130.209 71 132 69.2091 132 67V55C132 52.7909 130.209 51 128 51H59Z" fill="#EDF3F6"/>
</mask>
<g mask="url(#mask0_54:5975)">
<rect x="46" y="18" width="214" height="59" fill="#EDF3F6"/>
</g>
<rect x="309.789" width="257" height="97" rx="10" fill="white"/>
<mask id="mask1_54:5975" style="mask-type:alpha" maskUnits="userSpaceOnUse" x="330" y="23" width="182" height="49">
<path fill-rule="evenodd" clip-rule="evenodd" d="M379 47.5C379 61.031 368.031 72 354.5 72C340.969 72 330 61.031 330 47.5C330 33.969 340.969 23 354.5 23C368.031 23 379 33.969 379 47.5ZM394 55C394 52.7909 395.791 51 398 51H467C469.209 51 471 52.7909 471 55V67C471 69.2091 469.209 71 467 71H398C395.791 71 394 69.2091 394 67V55ZM398 25C395.791 25 394 26.7909 394 29V35C394 37.2091 395.791 39 398 39H508C510.209 39 512 37.2091 512 35V29C512 26.7909 510.209 25 508 25H398Z" fill="#EDF3F6"/>
</mask>
<g mask="url(#mask1_54:5975)">
<rect x="331" y="19" width="214" height="59" fill="#EDF3F6"/>
</g>
<rect x="586.789" width="257" height="97" rx="10" fill="white"/>
<mask id="mask2_54:5975" style="mask-type:alpha" maskUnits="userSpaceOnUse" x="611" y="25" width="118" height="46">
<path fill-rule="evenodd" clip-rule="evenodd" d="M615 25C612.791 25 611 26.7909 611 29V35C611 37.2091 612.791 39 615 39H725C727.209 39 729 37.2091 729 35V29C729 26.7909 727.209 25 725 25H615ZM615 51C612.791 51 611 52.7909 611 55V67C611 69.2091 612.791 71 615 71H684C686.209 71 688 69.2091 688 67V55C688 52.7909 686.209 51 684 51H615Z" fill="#EDF3F6"/>
</mask>
<g mask="url(#mask2_54:5975)">
<rect x="602" y="18" width="214" height="59" fill="#EDF3F6"/>
</g>
<rect x="863.789" width="257" height="97" rx="10" fill="white"/>
<mask id="mask3_54:5975" style="mask-type:alpha" maskUnits="userSpaceOnUse" x="888" y="25" width="118" height="46">
<path fill-rule="evenodd" clip-rule="evenodd" d="M892 25C889.791 25 888 26.7909 888 29V35C888 37.2091 889.791 39 892 39H1002C1004.21 39 1006 37.2091 1006 35V29C1006 26.7909 1004.21 25 1002 25H892ZM892 51C889.791 51 888 52.7909 888 55V67C888 69.2091 889.791 71 892 71H961C963.209 71 965 69.2091 965 67V55C965 52.7909 963.209 51 961 51H892Z" fill="#EDF3F6"/>
</mask>
<g mask="url(#mask3_54:5975)">
<rect x="879" y="18" width="214" height="59" fill="#EDF3F6"/>
</g>
<rect x="30.7891" y="117" width="720" height="345" rx="10" fill="white"/>
<rect x="685.789" y="145" width="33" height="33" rx="7" fill="#F4F7FE"/>
<rect x="65.7891" y="343" width="34.9606" height="58" rx="8" fill="#EDF3F6"/>
<rect x="121.75" y="259" width="34.9606" height="142" rx="8" fill="#EDF3F6"/>
<rect x="177.71" y="303" width="34.9606" height="98" rx="8" fill="#EDF3F6"/>
<rect x="233.671" y="289" width="34.9606" height="112" rx="8" fill="#EDF3F6"/>
<rect x="289.632" y="311" width="34.9606" height="90" rx="8" fill="#EDF3F6"/>
<rect x="345.592" y="240" width="34.9606" height="161" rx="8" fill="#EDF3F6"/>
<rect x="401.553" y="323" width="34.9606" height="78" rx="8" fill="#EDF3F6"/>
<rect x="457.514" y="259" width="34.9606" height="142" rx="8" fill="#EDF3F6"/>
<rect x="513.475" y="362" width="34.9606" height="39" rx="8" fill="#EDF3F6"/>
<rect x="569.436" y="289" width="34.9606" height="112" rx="8" fill="#EDF3F6"/>
<rect x="625.396" y="338" width="34.9606" height="63" rx="8" fill="#EDF3F6"/>
<rect x="681.356" y="303" width="34.9606" height="98" rx="8" fill="#EDF3F6"/>
<line x1="65.7883" y1="240.5" x2="723.999" y2="239.467" stroke="#E9EDF7" stroke-dasharray="7 6"/>
<mask id="mask4_54:5975" style="mask-type:alpha" maskUnits="userSpaceOnUse" x="54" y="140" width="210" height="60">
<path fill-rule="evenodd" clip-rule="evenodd" d="M58 140C55.7909 140 54 141.791 54 144V156C54 158.209 55.7909 160 58 160H260C262.209 160 264 158.209 264 156V144C264 141.791 262.209 140 260 140H58ZM58 169C55.7909 169 54 170.791 54 173V196C54 198.209 55.7909 200 58 200H187C189.209 200 191 198.209 191 196V173C191 170.791 189.209 169 187 169H58Z" fill="#EDF3F6"/>
</mask>
<g mask="url(#mask4_54:5975)">
<rect x="38" y="128" width="381" height="105" fill="#EDF3F6"/>
</g>
<rect x="770.789" y="117" width="350" height="345" rx="10" fill="white"/>
<path d="M803.017 157.168C802.298 157.168 801.668 157.042 801.127 156.79C800.586 156.538 800.161 156.179 799.853 155.712C799.554 155.245 799.4 154.69 799.391 154.046H800.959C800.968 154.569 801.15 155.012 801.505 155.376C801.86 155.74 802.359 155.922 803.003 155.922C803.572 155.922 804.016 155.787 804.333 155.516C804.66 155.236 804.823 154.881 804.823 154.452C804.823 154.107 804.744 153.827 804.585 153.612C804.436 153.397 804.226 153.22 803.955 153.08C803.694 152.94 803.39 152.814 803.045 152.702C802.7 152.59 802.336 152.469 801.953 152.338C801.197 152.086 800.628 151.759 800.245 151.358C799.872 150.957 799.685 150.429 799.685 149.776C799.676 149.225 799.802 148.745 800.063 148.334C800.334 147.923 800.707 147.606 801.183 147.382C801.668 147.149 802.233 147.032 802.877 147.032C803.512 147.032 804.067 147.149 804.543 147.382C805.028 147.615 805.406 147.942 805.677 148.362C805.948 148.773 806.088 149.253 806.097 149.804H804.529C804.529 149.552 804.464 149.314 804.333 149.09C804.202 148.857 804.011 148.665 803.759 148.516C803.507 148.367 803.199 148.292 802.835 148.292C802.368 148.283 801.981 148.399 801.673 148.642C801.374 148.885 801.225 149.221 801.225 149.65C801.225 150.033 801.337 150.327 801.561 150.532C801.785 150.737 802.093 150.91 802.485 151.05C802.877 151.181 803.325 151.335 803.829 151.512C804.314 151.671 804.748 151.862 805.131 152.086C805.514 152.31 805.817 152.604 806.041 152.968C806.274 153.332 806.391 153.794 806.391 154.354C806.391 154.849 806.265 155.311 806.013 155.74C805.761 156.16 805.383 156.505 804.879 156.776C804.375 157.037 803.754 157.168 803.017 157.168ZM807.678 160.08V150.056H809.008L809.162 151.134C809.386 150.807 809.694 150.518 810.086 150.266C810.478 150.014 810.982 149.888 811.598 149.888C812.27 149.888 812.862 150.047 813.376 150.364C813.889 150.681 814.29 151.115 814.58 151.666C814.878 152.217 815.028 152.842 815.028 153.542C815.028 154.242 814.878 154.867 814.58 155.418C814.29 155.959 813.889 156.389 813.376 156.706C812.862 157.014 812.265 157.168 811.584 157.168C811.042 157.168 810.562 157.061 810.142 156.846C809.731 156.631 809.404 156.328 809.162 155.936V160.08H807.678ZM811.332 155.88C811.966 155.88 812.489 155.665 812.9 155.236C813.31 154.797 813.516 154.228 813.516 153.528C813.516 153.071 813.422 152.665 813.236 152.31C813.049 151.955 812.792 151.68 812.466 151.484C812.139 151.279 811.761 151.176 811.332 151.176C810.697 151.176 810.174 151.395 809.764 151.834C809.362 152.273 809.162 152.837 809.162 153.528C809.162 154.228 809.362 154.797 809.764 155.236C810.174 155.665 810.697 155.88 811.332 155.88ZM819.601 157.168C818.919 157.168 818.313 157.019 817.781 156.72C817.258 156.412 816.847 155.987 816.549 155.446C816.25 154.905 816.101 154.275 816.101 153.556C816.101 152.828 816.245 152.189 816.535 151.638C816.833 151.087 817.244 150.658 817.767 150.35C818.299 150.042 818.915 149.888 819.615 149.888C820.296 149.888 820.889 150.042 821.393 150.35C821.897 150.649 822.289 151.05 822.569 151.554C822.849 152.058 822.989 152.613 822.989 153.22C822.989 153.313 822.984 153.416 822.975 153.528C822.975 153.631 822.97 153.747 822.961 153.878H817.557C817.603 154.55 817.823 155.063 818.215 155.418C818.616 155.763 819.078 155.936 819.601 155.936C820.021 155.936 820.371 155.843 820.651 155.656C820.94 155.46 821.155 155.199 821.295 154.872H822.779C822.592 155.525 822.219 156.071 821.659 156.51C821.108 156.949 820.422 157.168 819.601 157.168ZM819.601 151.106C819.106 151.106 818.667 151.255 818.285 151.554C817.902 151.843 817.669 152.282 817.585 152.87H821.505C821.477 152.329 821.285 151.899 820.931 151.582C820.576 151.265 820.133 151.106 819.601 151.106ZM824.248 157V150.056H825.564L825.676 151.274C825.891 150.845 826.204 150.509 826.614 150.266C827.034 150.014 827.515 149.888 828.056 149.888C828.896 149.888 829.554 150.149 830.03 150.672C830.516 151.195 830.758 151.974 830.758 153.01V157H829.288V153.164C829.288 151.82 828.738 151.148 827.636 151.148C827.086 151.148 826.628 151.344 826.264 151.736C825.91 152.128 825.732 152.688 825.732 153.416V157H824.248ZM835.138 157C834.457 157 833.916 156.837 833.514 156.51C833.113 156.174 832.912 155.581 832.912 154.732V151.302H831.722V150.056H832.912L833.094 148.292H834.396V150.056H836.356V151.302H834.396V154.732C834.396 155.115 834.476 155.381 834.634 155.53C834.802 155.67 835.087 155.74 835.488 155.74H836.286V157H835.138ZM843.766 157C843.084 157 842.543 156.837 842.142 156.51C841.74 156.174 841.54 155.581 841.54 154.732V151.302H840.35V150.056H841.54L841.722 148.292H843.024V150.056H844.984V151.302H843.024V154.732C843.024 155.115 843.103 155.381 843.262 155.53C843.43 155.67 843.714 155.74 844.116 155.74H844.914V157H843.766ZM846.234 157V146.92H847.718V151.176C847.951 150.775 848.273 150.462 848.684 150.238C849.104 150.005 849.566 149.888 850.07 149.888C850.901 149.888 851.554 150.149 852.03 150.672C852.506 151.195 852.744 151.974 852.744 153.01V157H851.274V153.164C851.274 151.82 850.737 151.148 849.664 151.148C849.104 151.148 848.637 151.344 848.264 151.736C847.9 152.128 847.718 152.688 847.718 153.416V157H846.234ZM855.052 148.74C854.772 148.74 854.538 148.656 854.352 148.488C854.174 148.311 854.086 148.091 854.086 147.83C854.086 147.569 854.174 147.354 854.352 147.186C854.538 147.009 854.772 146.92 855.052 146.92C855.332 146.92 855.56 147.009 855.738 147.186C855.924 147.354 856.018 147.569 856.018 147.83C856.018 148.091 855.924 148.311 855.738 148.488C855.56 148.656 855.332 148.74 855.052 148.74ZM854.31 157V150.056H855.794V157H854.31ZM860.245 157.168C859.367 157.168 858.644 156.953 858.075 156.524C857.505 156.095 857.179 155.525 857.095 154.816H858.593C858.667 155.133 858.845 155.409 859.125 155.642C859.405 155.866 859.773 155.978 860.231 155.978C860.679 155.978 861.005 155.885 861.211 155.698C861.416 155.511 861.519 155.297 861.519 155.054C861.519 154.699 861.374 154.461 861.085 154.34C860.805 154.209 860.413 154.093 859.909 153.99C859.517 153.906 859.125 153.794 858.733 153.654C858.35 153.514 858.028 153.318 857.767 153.066C857.515 152.805 857.389 152.455 857.389 152.016C857.389 151.409 857.622 150.905 858.089 150.504C858.555 150.093 859.209 149.888 860.049 149.888C860.823 149.888 861.449 150.075 861.925 150.448C862.41 150.821 862.695 151.349 862.779 152.03H861.351C861.304 151.731 861.164 151.498 860.931 151.33C860.707 151.162 860.403 151.078 860.021 151.078C859.647 151.078 859.358 151.157 859.153 151.316C858.947 151.465 858.845 151.661 858.845 151.904C858.845 152.147 858.985 152.338 859.265 152.478C859.554 152.618 859.932 152.744 860.399 152.856C860.865 152.959 861.295 153.08 861.687 153.22C862.088 153.351 862.41 153.547 862.653 153.808C862.895 154.069 863.017 154.452 863.017 154.956C863.026 155.591 862.779 156.118 862.275 156.538C861.78 156.958 861.103 157.168 860.245 157.168ZM867.604 157V150.056H868.92L869.046 151.036C869.27 150.681 869.564 150.401 869.928 150.196C870.301 149.991 870.731 149.888 871.216 149.888C872.317 149.888 873.083 150.322 873.512 151.19C873.764 150.789 874.1 150.471 874.52 150.238C874.949 150.005 875.411 149.888 875.906 149.888C876.774 149.888 877.455 150.149 877.95 150.672C878.445 151.195 878.692 151.974 878.692 153.01V157H877.208V153.164C877.208 151.82 876.695 151.148 875.668 151.148C875.145 151.148 874.716 151.344 874.38 151.736C874.053 152.128 873.89 152.688 873.89 153.416V157H872.406V153.164C872.406 151.82 871.888 151.148 870.852 151.148C870.339 151.148 869.914 151.344 869.578 151.736C869.251 152.128 869.088 152.688 869.088 153.416V157H867.604ZM883.396 157.168C882.734 157.168 882.136 157.019 881.604 156.72C881.082 156.412 880.666 155.987 880.358 155.446C880.05 154.895 879.896 154.256 879.896 153.528C879.896 152.8 880.05 152.165 880.358 151.624C880.676 151.073 881.1 150.649 881.632 150.35C882.164 150.042 882.757 149.888 883.41 149.888C884.073 149.888 884.666 150.042 885.188 150.35C885.72 150.649 886.14 151.073 886.448 151.624C886.766 152.165 886.924 152.8 886.924 153.528C886.924 154.256 886.766 154.895 886.448 155.446C886.14 155.987 885.72 156.412 885.188 156.72C884.656 157.019 884.059 157.168 883.396 157.168ZM883.396 155.894C883.751 155.894 884.078 155.805 884.376 155.628C884.684 155.451 884.932 155.189 885.118 154.844C885.305 154.489 885.398 154.051 885.398 153.528C885.398 153.005 885.305 152.571 885.118 152.226C884.941 151.871 884.698 151.605 884.39 151.428C884.092 151.251 883.765 151.162 883.41 151.162C883.056 151.162 882.724 151.251 882.416 151.428C882.118 151.605 881.875 151.871 881.688 152.226C881.502 152.571 881.408 153.005 881.408 153.528C881.408 154.051 881.502 154.489 881.688 154.844C881.875 155.189 882.118 155.451 882.416 155.628C882.715 155.805 883.042 155.894 883.396 155.894ZM888.249 157V150.056H889.565L889.677 151.274C889.892 150.845 890.205 150.509 890.615 150.266C891.035 150.014 891.516 149.888 892.057 149.888C892.897 149.888 893.555 150.149 894.031 150.672C894.517 151.195 894.759 151.974 894.759 153.01V157H893.289V153.164C893.289 151.82 892.739 151.148 891.637 151.148C891.087 151.148 890.629 151.344 890.265 151.736C889.911 152.128 889.733 152.688 889.733 153.416V157H888.249ZM899.139 157C898.458 157 897.916 156.837 897.515 156.51C897.114 156.174 896.913 155.581 896.913 154.732V151.302H895.723V150.056H896.913L897.095 148.292H898.397V150.056H900.357V151.302H898.397V154.732C898.397 155.115 898.476 155.381 898.635 155.53C898.803 155.67 899.088 155.74 899.489 155.74H900.287V157H899.139ZM901.607 157V146.92H903.091V151.176C903.324 150.775 903.646 150.462 904.057 150.238C904.477 150.005 904.939 149.888 905.443 149.888C906.274 149.888 906.927 150.149 907.403 150.672C907.879 151.195 908.117 151.974 908.117 153.01V157H906.647V153.164C906.647 151.82 906.11 151.148 905.037 151.148C904.477 151.148 904.01 151.344 903.637 151.736C903.273 152.128 903.091 152.688 903.091 153.416V157H901.607Z" fill="#A3AED0"/>
<path d="M807.765 200.958V198.34C805.566 198.091 803.776 197.32 802.393 196.028C801.01 194.736 800.296 193.002 800.251 190.826H804.841C804.886 191.733 805.158 192.526 805.657 193.206C806.178 193.886 806.881 194.351 807.765 194.6V187.426C807.561 187.358 807.346 187.29 807.119 187.222C806.915 187.154 806.7 187.086 806.473 187.018C804.637 186.383 803.232 185.567 802.257 184.57C801.305 183.573 800.829 182.247 800.829 180.592C800.806 178.643 801.441 177.079 802.733 175.9C804.025 174.699 805.702 174.007 807.765 173.826V171.072H810.043V173.86C812.083 174.064 813.726 174.778 814.973 176.002C816.242 177.203 816.911 178.756 816.979 180.66H812.321C812.298 180.003 812.083 179.402 811.675 178.858C811.29 178.291 810.746 177.895 810.043 177.668V183.992C810.224 184.06 810.406 184.128 810.587 184.196C810.768 184.241 810.95 184.298 811.131 184.366C812.31 184.774 813.386 185.25 814.361 185.794C815.336 186.338 816.118 187.063 816.707 187.97C817.296 188.854 817.591 189.999 817.591 191.404C817.591 192.583 817.296 193.682 816.707 194.702C816.14 195.722 815.29 196.572 814.157 197.252C813.046 197.909 811.675 198.283 810.043 198.374V200.958H807.765ZM805.385 180.286C805.385 181.011 805.6 181.601 806.031 182.054C806.462 182.485 807.04 182.859 807.765 183.176V177.532C807.062 177.668 806.484 177.974 806.031 178.45C805.6 178.926 805.385 179.538 805.385 180.286ZM812.967 191.71C812.967 190.803 812.695 190.089 812.151 189.568C811.607 189.047 810.904 188.605 810.043 188.242V194.702C810.95 194.566 811.664 194.237 812.185 193.716C812.706 193.195 812.967 192.526 812.967 191.71ZM829.65 198.408C827.86 198.408 826.352 198.079 825.128 197.422C823.904 196.765 822.918 195.881 822.17 194.77C821.422 193.659 820.878 192.424 820.538 191.064C820.221 189.704 820.062 188.31 820.062 186.882C820.062 184.23 820.436 181.929 821.184 179.98C821.932 178.008 823.009 176.489 824.414 175.424C825.82 174.336 827.52 173.792 829.514 173.792C831.146 173.792 832.529 174.121 833.662 174.778C834.818 175.413 835.714 176.251 836.348 177.294C836.983 178.337 837.357 179.459 837.47 180.66H833.424C833.22 179.617 832.778 178.813 832.098 178.246C831.418 177.679 830.546 177.396 829.48 177.396C827.962 177.396 826.738 178.099 825.808 179.504C824.879 180.887 824.38 183.006 824.312 185.862C824.856 184.933 825.672 184.162 826.76 183.55C827.848 182.938 829.061 182.632 830.398 182.632C831.713 182.632 832.948 182.949 834.104 183.584C835.26 184.219 836.19 185.114 836.892 186.27C837.618 187.426 837.98 188.786 837.98 190.35C837.98 191.778 837.629 193.104 836.926 194.328C836.246 195.552 835.272 196.538 834.002 197.286C832.756 198.034 831.305 198.408 829.65 198.408ZM829.412 194.668C830.682 194.668 831.724 194.283 832.54 193.512C833.379 192.719 833.798 191.721 833.798 190.52C833.798 189.251 833.379 188.231 832.54 187.46C831.702 186.689 830.636 186.304 829.344 186.304C828.506 186.304 827.746 186.497 827.066 186.882C826.409 187.245 825.888 187.743 825.502 188.378C825.117 188.99 824.924 189.681 824.924 190.452C824.924 191.676 825.344 192.685 826.182 193.478C827.044 194.271 828.12 194.668 829.412 194.668ZM849.975 198.408C848.343 198.408 846.87 198.125 845.555 197.558C844.24 196.969 843.186 196.141 842.393 195.076C841.622 194.011 841.237 192.775 841.237 191.37C841.237 189.919 841.611 188.65 842.359 187.562C843.13 186.474 844.138 185.692 845.385 185.216C844.297 184.74 843.436 184.06 842.801 183.176C842.166 182.269 841.849 181.261 841.849 180.15C841.849 179.017 842.155 177.974 842.767 177.022C843.379 176.047 844.286 175.265 845.487 174.676C846.711 174.087 848.207 173.792 849.975 173.792C851.743 173.792 853.228 174.087 854.429 174.676C855.63 175.265 856.537 176.047 857.149 177.022C857.761 177.974 858.067 179.017 858.067 180.15C858.067 181.238 857.738 182.247 857.081 183.176C856.446 184.083 855.596 184.763 854.531 185.216C855.8 185.692 856.809 186.474 857.557 187.562C858.305 188.65 858.679 189.919 858.679 191.37C858.679 192.775 858.294 194.011 857.523 195.076C856.752 196.141 855.698 196.969 854.361 197.558C853.046 198.125 851.584 198.408 849.975 198.408ZM849.975 183.924C851.154 183.924 852.083 183.618 852.763 183.006C853.443 182.394 853.783 181.612 853.783 180.66C853.783 179.617 853.443 178.801 852.763 178.212C852.106 177.623 851.176 177.328 849.975 177.328C848.751 177.328 847.81 177.623 847.153 178.212C846.496 178.801 846.167 179.617 846.167 180.66C846.167 181.635 846.496 182.428 847.153 183.04C847.833 183.629 848.774 183.924 849.975 183.924ZM849.975 194.77C851.426 194.77 852.525 194.419 853.273 193.716C854.021 192.991 854.395 192.084 854.395 190.996C854.395 189.795 853.998 188.854 853.205 188.174C852.434 187.494 851.358 187.154 849.975 187.154C848.592 187.154 847.493 187.494 846.677 188.174C845.884 188.854 845.487 189.795 845.487 190.996C845.487 192.084 845.861 192.991 846.609 193.716C847.38 194.419 848.502 194.77 849.975 194.77ZM861.403 198V194.838C862.854 193.637 864.259 192.447 865.619 191.268C867.002 190.089 868.226 188.922 869.291 187.766C870.379 186.61 871.24 185.488 871.875 184.4C872.532 183.289 872.861 182.213 872.861 181.17C872.861 180.195 872.589 179.334 872.045 178.586C871.524 177.838 870.651 177.464 869.427 177.464C868.18 177.464 867.24 177.872 866.605 178.688C865.97 179.504 865.653 180.49 865.653 181.646H861.437C861.482 179.901 861.868 178.45 862.593 177.294C863.318 176.115 864.282 175.243 865.483 174.676C866.684 174.087 868.033 173.792 869.529 173.792C871.954 173.792 873.836 174.461 875.173 175.798C876.533 177.113 877.213 178.824 877.213 180.932C877.213 182.247 876.907 183.527 876.295 184.774C875.706 186.021 874.924 187.222 873.949 188.378C872.974 189.534 871.92 190.622 870.787 191.642C869.654 192.639 868.554 193.569 867.489 194.43H877.791V198H861.403ZM882.493 198.238C881.699 198.238 881.042 197.989 880.521 197.49C880.022 196.991 879.773 196.391 879.773 195.688C879.773 194.963 880.022 194.351 880.521 193.852C881.042 193.353 881.699 193.104 882.493 193.104C883.286 193.104 883.932 193.353 884.431 193.852C884.952 194.351 885.213 194.963 885.213 195.688C885.213 196.391 884.952 196.991 884.431 197.49C883.932 197.989 883.286 198.238 882.493 198.238ZM896.747 198.408C895.001 198.408 893.494 198.102 892.225 197.49C890.978 196.878 889.992 196.039 889.267 194.974C888.564 193.886 888.156 192.662 888.043 191.302H892.293C892.497 192.277 892.995 193.093 893.789 193.75C894.582 194.385 895.568 194.702 896.747 194.702C898.016 194.702 899.047 194.237 899.841 193.308C900.657 192.379 901.065 191.223 901.065 189.84C901.065 188.412 900.657 187.279 899.841 186.44C899.047 185.601 898.039 185.182 896.815 185.182C895.795 185.182 894.911 185.431 894.163 185.93C893.415 186.429 892.882 187.052 892.565 187.8H888.383L890.423 174.2H903.615V178.008H893.687L892.599 183.516C893.097 182.972 893.777 182.53 894.639 182.19C895.5 181.827 896.463 181.646 897.529 181.646C899.229 181.646 900.645 182.031 901.779 182.802C902.912 183.55 903.773 184.547 904.363 185.794C904.952 187.018 905.247 188.355 905.247 189.806C905.247 191.461 904.884 192.934 904.159 194.226C903.456 195.518 902.459 196.538 901.167 197.286C899.897 198.034 898.424 198.408 896.747 198.408Z" fill="#1B2559"/>
<mask id="mask5_54:5975" style="mask-type:alpha" maskUnits="userSpaceOnUse" x="795" y="141" width="309" height="63">
<path fill-rule="evenodd" clip-rule="evenodd" d="M1048 145C1048 142.791 1049.79 141 1052 141H1100C1102.21 141 1104 142.791 1104 145V155C1104 157.209 1102.21 159 1100 159H1052C1049.79 159 1048 157.209 1048 155V145ZM795 173C795 170.791 796.791 169 799 169H905C907.209 169 909 170.791 909 173V200C909 202.209 907.209 204 905 204H799C796.791 204 795 202.209 795 200V173ZM799 142C796.791 142 795 143.791 795 146V155C795 157.209 796.791 159 799 159H944C946.209 159 948 157.209 948 155V146C948 143.791 946.209 142 944 142H799Z" fill="#EDF3F6"/>
</mask>
<g mask="url(#mask5_54:5975)">
<path d="M786 136H1105V315H786V136Z" fill="#EDF3F6"/>
</g>
</svg>
