<svg width="351" height="345" viewBox="0 0 351 345" fill="none" xmlns="http://www.w3.org/2000/svg">
<rect x="0.789062" width="350" height="345" rx="10" fill="white"/>
<path d="M33.0171 40.168C32.2984 40.168 31.6684 40.042 31.1271 39.79C30.5857 39.538 30.1611 39.1787 29.8531 38.712C29.5544 38.2453 29.4004 37.69 29.3911 37.046H30.9591C30.9684 37.5687 31.1504 38.012 31.5051 38.376C31.8597 38.74 32.3591 38.922 33.0031 38.922C33.5724 38.922 34.0157 38.7867 34.3331 38.516C34.6597 38.236 34.8231 37.8813 34.8231 37.452C34.8231 37.1067 34.7437 36.8267 34.5851 36.612C34.4357 36.3973 34.2257 36.22 33.9551 36.08C33.6937 35.94 33.3904 35.814 33.0451 35.702C32.6997 35.59 32.3357 35.4687 31.9531 35.338C31.1971 35.086 30.6277 34.7593 30.2451 34.358C29.8717 33.9567 29.6851 33.4293 29.6851 32.776C29.6757 32.2253 29.8017 31.7447 30.0631 31.334C30.3337 30.9233 30.7071 30.606 31.1831 30.382C31.6684 30.1487 32.2331 30.032 32.8771 30.032C33.5117 30.032 34.0671 30.1487 34.5431 30.382C35.0284 30.6153 35.4064 30.942 35.6771 31.362C35.9477 31.7727 36.0877 32.2533 36.0971 32.804H34.5291C34.5291 32.552 34.4637 32.314 34.3331 32.09C34.2024 31.8567 34.0111 31.6653 33.7591 31.516C33.5071 31.3667 33.1991 31.292 32.8351 31.292C32.3684 31.2827 31.9811 31.3993 31.6731 31.642C31.3744 31.8847 31.2251 32.2207 31.2251 32.65C31.2251 33.0327 31.3371 33.3267 31.5611 33.532C31.7851 33.7373 32.0931 33.91 32.4851 34.05C32.8771 34.1807 33.3251 34.3347 33.8291 34.512C34.3144 34.6707 34.7484 34.862 35.1311 35.086C35.5137 35.31 35.8171 35.604 36.0411 35.968C36.2744 36.332 36.3911 36.794 36.3911 37.354C36.3911 37.8487 36.2651 38.3107 36.0131 38.74C35.7611 39.16 35.3831 39.5053 34.8791 39.776C34.3751 40.0373 33.7544 40.168 33.0171 40.168ZM37.6775 43.08V33.056H39.0075L39.1615 34.134C39.3855 33.8073 39.6935 33.518 40.0855 33.266C40.4775 33.014 40.9815 32.888 41.5975 32.888C42.2695 32.888 42.8622 33.0467 43.3755 33.364C43.8889 33.6813 44.2902 34.1153 44.5795 34.666C44.8782 35.2167 45.0275 35.842 45.0275 36.542C45.0275 37.242 44.8782 37.8673 44.5795 38.418C44.2902 38.9593 43.8889 39.3887 43.3755 39.706C42.8622 40.014 42.2649 40.168 41.5835 40.168C41.0422 40.168 40.5615 40.0607 40.1415 39.846C39.7309 39.6313 39.4042 39.328 39.1615 38.936V43.08H37.6775ZM41.3315 38.88C41.9662 38.88 42.4889 38.6653 42.8995 38.236C43.3102 37.7973 43.5155 37.228 43.5155 36.528C43.5155 36.0707 43.4222 35.6647 43.2355 35.31C43.0489 34.9553 42.7922 34.68 42.4655 34.484C42.1389 34.2787 41.7609 34.176 41.3315 34.176C40.6969 34.176 40.1742 34.3953 39.7635 34.834C39.3622 35.2727 39.1615 35.8373 39.1615 36.528C39.1615 37.228 39.3622 37.7973 39.7635 38.236C40.1742 38.6653 40.6969 38.88 41.3315 38.88ZM49.6006 40.168C48.9193 40.168 48.3126 40.0187 47.7806 39.72C47.2579 39.412 46.8473 38.9873 46.5486 38.446C46.2499 37.9047 46.1006 37.2747 46.1006 36.556C46.1006 35.828 46.2453 35.1887 46.5346 34.638C46.8333 34.0873 47.2439 33.658 47.7666 33.35C48.2986 33.042 48.9146 32.888 49.6146 32.888C50.2959 32.888 50.8886 33.042 51.3926 33.35C51.8966 33.6487 52.2886 34.05 52.5686 34.554C52.8486 35.058 52.9886 35.6133 52.9886 36.22C52.9886 36.3133 52.9839 36.416 52.9746 36.528C52.9746 36.6307 52.9699 36.7473 52.9606 36.878H47.5566C47.6033 37.55 47.8226 38.0633 48.2146 38.418C48.6159 38.7633 49.0779 38.936 49.6006 38.936C50.0206 38.936 50.3706 38.8427 50.6506 38.656C50.9399 38.46 51.1546 38.1987 51.2946 37.872H52.7786C52.5919 38.5253 52.2186 39.0713 51.6586 39.51C51.1079 39.9487 50.4219 40.168 49.6006 40.168ZM49.6006 34.106C49.1059 34.106 48.6673 34.2553 48.2846 34.554C47.9019 34.8433 47.6686 35.282 47.5846 35.87H51.5046C51.4766 35.3287 51.2853 34.8993 50.9306 34.582C50.5759 34.2647 50.1326 34.106 49.6006 34.106ZM54.2484 40V33.056H55.5644L55.6764 34.274C55.8911 33.8447 56.2037 33.5087 56.6144 33.266C57.0344 33.014 57.5151 32.888 58.0564 32.888C58.8964 32.888 59.5544 33.1493 60.0304 33.672C60.5157 34.1947 60.7584 34.974 60.7584 36.01V40H59.2884V36.164C59.2884 34.82 58.7377 34.148 57.6364 34.148C57.0857 34.148 56.6284 34.344 56.2644 34.736C55.9097 35.128 55.7324 35.688 55.7324 36.416V40H54.2484ZM65.1382 40C64.4569 40 63.9155 39.8367 63.5142 39.51C63.1129 39.174 62.9122 38.5813 62.9122 37.732V34.302H61.7222V33.056H62.9122L63.0942 31.292H64.3962V33.056H66.3562V34.302H64.3962V37.732C64.3962 38.1147 64.4755 38.3807 64.6342 38.53C64.8022 38.67 65.0869 38.74 65.4882 38.74H66.2862V40H65.1382ZM73.7657 40C73.0844 40 72.543 39.8367 72.1417 39.51C71.7404 39.174 71.5397 38.5813 71.5397 37.732V34.302H70.3497V33.056H71.5397L71.7217 31.292H73.0237V33.056H74.9837V34.302H73.0237V37.732C73.0237 38.1147 73.103 38.3807 73.2617 38.53C73.4297 38.67 73.7144 38.74 74.1157 38.74H74.9137V40H73.7657ZM76.2339 40V29.92H77.7179V34.176C77.9512 33.7747 78.2732 33.462 78.6839 33.238C79.1039 33.0047 79.5659 32.888 80.0699 32.888C80.9005 32.888 81.5539 33.1493 82.0299 33.672C82.5059 34.1947 82.7439 34.974 82.7439 36.01V40H81.2739V36.164C81.2739 34.82 80.7372 34.148 79.6639 34.148C79.1039 34.148 78.6372 34.344 78.2639 34.736C77.8999 35.128 77.7179 35.688 77.7179 36.416V40H76.2339ZM85.0517 31.74C84.7717 31.74 84.5383 31.656 84.3517 31.488C84.1743 31.3107 84.0857 31.0913 84.0857 30.83C84.0857 30.5687 84.1743 30.354 84.3517 30.186C84.5383 30.0087 84.7717 29.92 85.0517 29.92C85.3317 29.92 85.5603 30.0087 85.7377 30.186C85.9243 30.354 86.0177 30.5687 86.0177 30.83C86.0177 31.0913 85.9243 31.3107 85.7377 31.488C85.5603 31.656 85.3317 31.74 85.0517 31.74ZM84.3097 40V33.056H85.7937V40H84.3097ZM90.2447 40.168C89.3674 40.168 88.644 39.9533 88.0747 39.524C87.5054 39.0947 87.1787 38.5253 87.0947 37.816H88.5927C88.6674 38.1333 88.8447 38.4087 89.1247 38.642C89.4047 38.866 89.7734 38.978 90.2307 38.978C90.6787 38.978 91.0054 38.8847 91.2107 38.698C91.416 38.5113 91.5187 38.2967 91.5187 38.054C91.5187 37.6993 91.374 37.4613 91.0847 37.34C90.8047 37.2093 90.4127 37.0927 89.9087 36.99C89.5167 36.906 89.1247 36.794 88.7327 36.654C88.35 36.514 88.028 36.318 87.7667 36.066C87.5147 35.8047 87.3887 35.4547 87.3887 35.016C87.3887 34.4093 87.622 33.9053 88.0887 33.504C88.5554 33.0933 89.2087 32.888 90.0487 32.888C90.8234 32.888 91.4487 33.0747 91.9247 33.448C92.41 33.8213 92.6947 34.3487 92.7787 35.03H91.3507C91.304 34.7313 91.164 34.498 90.9307 34.33C90.7067 34.162 90.4034 34.078 90.0207 34.078C89.6474 34.078 89.358 34.1573 89.1527 34.316C88.9474 34.4653 88.8447 34.6613 88.8447 34.904C88.8447 35.1467 88.9847 35.338 89.2647 35.478C89.554 35.618 89.932 35.744 90.3987 35.856C90.8654 35.9587 91.2947 36.08 91.6867 36.22C92.088 36.3507 92.41 36.5467 92.6527 36.808C92.8954 37.0693 93.0167 37.452 93.0167 37.956C93.026 38.5907 92.7787 39.118 92.2747 39.538C91.78 39.958 91.1034 40.168 90.2447 40.168ZM97.6041 40V33.056H98.9201L99.0461 34.036C99.2701 33.6813 99.5641 33.4013 99.9281 33.196C100.301 32.9907 100.731 32.888 101.216 32.888C102.317 32.888 103.083 33.322 103.512 34.19C103.764 33.7887 104.1 33.4713 104.52 33.238C104.949 33.0047 105.411 32.888 105.906 32.888C106.774 32.888 107.455 33.1493 107.95 33.672C108.445 34.1947 108.692 34.974 108.692 36.01V40H107.208V36.164C107.208 34.82 106.695 34.148 105.668 34.148C105.145 34.148 104.716 34.344 104.38 34.736C104.053 35.128 103.89 35.688 103.89 36.416V40H102.406V36.164C102.406 34.82 101.888 34.148 100.852 34.148C100.339 34.148 99.9141 34.344 99.5781 34.736C99.2514 35.128 99.0881 35.688 99.0881 36.416V40H97.6041ZM113.396 40.168C112.734 40.168 112.136 40.0187 111.604 39.72C111.082 39.412 110.666 38.9873 110.358 38.446C110.05 37.8953 109.896 37.256 109.896 36.528C109.896 35.8 110.05 35.1653 110.358 34.624C110.676 34.0733 111.1 33.6487 111.632 33.35C112.164 33.042 112.757 32.888 113.41 32.888C114.073 32.888 114.666 33.042 115.188 33.35C115.72 33.6487 116.14 34.0733 116.448 34.624C116.766 35.1653 116.924 35.8 116.924 36.528C116.924 37.256 116.766 37.8953 116.448 38.446C116.14 38.9873 115.72 39.412 115.188 39.72C114.656 40.0187 114.059 40.168 113.396 40.168ZM113.396 38.894C113.751 38.894 114.078 38.8053 114.376 38.628C114.684 38.4507 114.932 38.1893 115.118 37.844C115.305 37.4893 115.398 37.0507 115.398 36.528C115.398 36.0053 115.305 35.5713 115.118 35.226C114.941 34.8713 114.698 34.6053 114.39 34.428C114.092 34.2507 113.765 34.162 113.41 34.162C113.056 34.162 112.724 34.2507 112.416 34.428C112.118 34.6053 111.875 34.8713 111.688 35.226C111.502 35.5713 111.408 36.0053 111.408 36.528C111.408 37.0507 111.502 37.4893 111.688 37.844C111.875 38.1893 112.118 38.4507 112.416 38.628C112.715 38.8053 113.042 38.894 113.396 38.894ZM118.249 40V33.056H119.565L119.677 34.274C119.892 33.8447 120.205 33.5087 120.615 33.266C121.035 33.014 121.516 32.888 122.057 32.888C122.897 32.888 123.555 33.1493 124.031 33.672C124.517 34.1947 124.759 34.974 124.759 36.01V40H123.289V36.164C123.289 34.82 122.739 34.148 121.637 34.148C121.087 34.148 120.629 34.344 120.265 34.736C119.911 35.128 119.733 35.688 119.733 36.416V40H118.249ZM129.139 40C128.458 40 127.916 39.8367 127.515 39.51C127.114 39.174 126.913 38.5813 126.913 37.732V34.302H125.723V33.056H126.913L127.095 31.292H128.397V33.056H130.357V34.302H128.397V37.732C128.397 38.1147 128.476 38.3807 128.635 38.53C128.803 38.67 129.088 38.74 129.489 38.74H130.287V40H129.139ZM131.607 40V29.92H133.091V34.176C133.324 33.7747 133.646 33.462 134.057 33.238C134.477 33.0047 134.939 32.888 135.443 32.888C136.274 32.888 136.927 33.1493 137.403 33.672C137.879 34.1947 138.117 34.974 138.117 36.01V40H136.647V36.164C136.647 34.82 136.11 34.148 135.037 34.148C134.477 34.148 134.01 34.344 133.637 34.736C133.273 35.128 133.091 35.688 133.091 36.416V40H131.607Z" fill="#A3AED0"/>
<path d="M37.7651 83.958V81.34C35.5664 81.0907 33.7757 80.32 32.3931 79.028C31.0104 77.736 30.2964 76.002 30.2511 73.826H34.8411C34.8864 74.7327 35.1584 75.526 35.6571 76.206C36.1784 76.886 36.8811 77.3507 37.7651 77.6V70.426C37.5611 70.358 37.3457 70.29 37.1191 70.222C36.9151 70.154 36.6997 70.086 36.4731 70.018C34.6371 69.3833 33.2317 68.5673 32.2571 67.57C31.3051 66.5727 30.8291 65.2467 30.8291 63.592C30.8064 61.6427 31.4411 60.0787 32.7331 58.9C34.0251 57.6987 35.7024 57.0073 37.7651 56.826V54.072H40.0431V56.86C42.0831 57.064 43.7264 57.778 44.9731 59.002C46.2424 60.2033 46.9111 61.756 46.9791 63.66H42.3211C42.2984 63.0027 42.0831 62.402 41.6751 61.858C41.2897 61.2913 40.7457 60.8947 40.0431 60.668V66.992C40.2244 67.06 40.4057 67.128 40.5871 67.196C40.7684 67.2413 40.9497 67.298 41.1311 67.366C42.3097 67.774 43.3864 68.25 44.3611 68.794C45.3357 69.338 46.1177 70.0633 46.7071 70.97C47.2964 71.854 47.5911 72.9987 47.5911 74.404C47.5911 75.5827 47.2964 76.682 46.7071 77.702C46.1404 78.722 45.2904 79.572 44.1571 80.252C43.0464 80.9093 41.6751 81.2833 40.0431 81.374V83.958H37.7651ZM35.3851 63.286C35.3851 64.0113 35.6004 64.6007 36.0311 65.054C36.4617 65.4847 37.0397 65.8587 37.7651 66.176V60.532C37.0624 60.668 36.4844 60.974 36.0311 61.45C35.6004 61.926 35.3851 62.538 35.3851 63.286ZM42.9671 74.71C42.9671 73.8033 42.6951 73.0893 42.1511 72.568C41.6071 72.0467 40.9044 71.6047 40.0431 71.242V77.702C40.9497 77.566 41.6637 77.2373 42.1851 76.716C42.7064 76.1947 42.9671 75.526 42.9671 74.71ZM59.6502 81.408C57.8595 81.408 56.3522 81.0793 55.1282 80.422C53.9042 79.7647 52.9182 78.8807 52.1702 77.77C51.4222 76.6593 50.8782 75.424 50.5382 74.064C50.2208 72.704 50.0622 71.31 50.0622 69.882C50.0622 67.23 50.4362 64.9293 51.1842 62.98C51.9322 61.008 53.0088 59.4893 54.4142 58.424C55.8195 57.336 57.5195 56.792 59.5142 56.792C61.1462 56.792 62.5288 57.1207 63.6622 57.778C64.8182 58.4127 65.7135 59.2513 66.3482 60.294C66.9828 61.3367 67.3568 62.4587 67.4702 63.66H63.4242C63.2202 62.6173 62.7782 61.8127 62.0982 61.246C61.4182 60.6793 60.5455 60.396 59.4802 60.396C57.9615 60.396 56.7375 61.0987 55.8082 62.504C54.8788 63.8867 54.3802 66.006 54.3122 68.862C54.8562 67.9327 55.6722 67.162 56.7602 66.55C57.8482 65.938 59.0608 65.632 60.3982 65.632C61.7128 65.632 62.9482 65.9493 64.1042 66.584C65.2602 67.2187 66.1895 68.114 66.8922 69.27C67.6175 70.426 67.9802 71.786 67.9802 73.35C67.9802 74.778 67.6288 76.104 66.9262 77.328C66.2462 78.552 65.2715 79.538 64.0022 80.286C62.7555 81.034 61.3048 81.408 59.6502 81.408ZM59.4122 77.668C60.6815 77.668 61.7242 77.2827 62.5402 76.512C63.3788 75.7187 63.7982 74.7213 63.7982 73.52C63.7982 72.2507 63.3788 71.2307 62.5402 70.46C61.7015 69.6893 60.6362 69.304 59.3442 69.304C58.5055 69.304 57.7462 69.4967 57.0662 69.882C56.4088 70.2447 55.8875 70.7433 55.5022 71.378C55.1168 71.99 54.9242 72.6813 54.9242 73.452C54.9242 74.676 55.3435 75.6847 56.1822 76.478C57.0435 77.2713 58.1202 77.668 59.4122 77.668ZM79.975 81.408C78.343 81.408 76.8697 81.1247 75.555 80.558C74.2403 79.9687 73.1863 79.1413 72.393 78.076C71.6223 77.0107 71.237 75.7753 71.237 74.37C71.237 72.9193 71.611 71.65 72.359 70.562C73.1297 69.474 74.1383 68.692 75.385 68.216C74.297 67.74 73.4357 67.06 72.801 66.176C72.1663 65.2693 71.849 64.2607 71.849 63.15C71.849 62.0167 72.155 60.974 72.767 60.022C73.379 59.0473 74.2857 58.2653 75.487 57.676C76.711 57.0867 78.207 56.792 79.975 56.792C81.743 56.792 83.2277 57.0867 84.429 57.676C85.6303 58.2653 86.537 59.0473 87.149 60.022C87.761 60.974 88.067 62.0167 88.067 63.15C88.067 64.238 87.7383 65.2467 87.081 66.176C86.4463 67.0827 85.5963 67.7627 84.531 68.216C85.8003 68.692 86.809 69.474 87.557 70.562C88.305 71.65 88.679 72.9193 88.679 74.37C88.679 75.7753 88.2937 77.0107 87.523 78.076C86.7523 79.1413 85.6983 79.9687 84.361 80.558C83.0463 81.1247 81.5843 81.408 79.975 81.408ZM79.975 66.924C81.1537 66.924 82.083 66.618 82.763 66.006C83.443 65.394 83.783 64.612 83.783 63.66C83.783 62.6173 83.443 61.8013 82.763 61.212C82.1057 60.6227 81.1763 60.328 79.975 60.328C78.751 60.328 77.8103 60.6227 77.153 61.212C76.4957 61.8013 76.167 62.6173 76.167 63.66C76.167 64.6347 76.4957 65.428 77.153 66.04C77.833 66.6293 78.7737 66.924 79.975 66.924ZM79.975 77.77C81.4257 77.77 82.525 77.4187 83.273 76.716C84.021 75.9907 84.395 75.084 84.395 73.996C84.395 72.7947 83.9983 71.854 83.205 71.174C82.4343 70.494 81.3577 70.154 79.975 70.154C78.5923 70.154 77.493 70.494 76.677 71.174C75.8837 71.854 75.487 72.7947 75.487 73.996C75.487 75.084 75.861 75.9907 76.609 76.716C77.3797 77.4187 78.5017 77.77 79.975 77.77ZM91.403 81V77.838C92.8537 76.6367 94.259 75.4467 95.619 74.268C97.0017 73.0893 98.2257 71.922 99.291 70.766C100.379 69.61 101.24 68.488 101.875 67.4C102.532 66.2893 102.861 65.2127 102.861 64.17C102.861 63.1953 102.589 62.334 102.045 61.586C101.524 60.838 100.651 60.464 99.427 60.464C98.1803 60.464 97.2397 60.872 96.605 61.688C95.9703 62.504 95.653 63.49 95.653 64.646H91.437C91.4823 62.9007 91.8677 61.45 92.593 60.294C93.3183 59.1153 94.2817 58.2427 95.483 57.676C96.6843 57.0867 98.033 56.792 99.529 56.792C101.954 56.792 103.836 57.4607 105.173 58.798C106.533 60.1127 107.213 61.824 107.213 63.932C107.213 65.2467 106.907 66.5273 106.295 67.774C105.706 69.0207 104.924 70.222 103.949 71.378C102.974 72.534 101.92 73.622 100.787 74.642C99.6537 75.6393 98.5543 76.5687 97.489 77.43H107.791V81H91.403ZM112.493 81.238C111.699 81.238 111.042 80.9887 110.521 80.49C110.022 79.9913 109.773 79.3907 109.773 78.688C109.773 77.9627 110.022 77.3507 110.521 76.852C111.042 76.3533 111.699 76.104 112.493 76.104C113.286 76.104 113.932 76.3533 114.431 76.852C114.952 77.3507 115.213 77.9627 115.213 78.688C115.213 79.3907 114.952 79.9913 114.431 80.49C113.932 80.9887 113.286 81.238 112.493 81.238ZM126.747 81.408C125.001 81.408 123.494 81.102 122.225 80.49C120.978 79.878 119.992 79.0393 119.267 77.974C118.564 76.886 118.156 75.662 118.043 74.302H122.293C122.497 75.2767 122.995 76.0927 123.789 76.75C124.582 77.3847 125.568 77.702 126.747 77.702C128.016 77.702 129.047 77.2373 129.841 76.308C130.657 75.3787 131.065 74.2227 131.065 72.84C131.065 71.412 130.657 70.2787 129.841 69.44C129.047 68.6013 128.039 68.182 126.815 68.182C125.795 68.182 124.911 68.4313 124.163 68.93C123.415 69.4287 122.882 70.052 122.565 70.8H118.383L120.423 57.2H133.615V61.008H123.687L122.599 66.516C123.097 65.972 123.777 65.53 124.639 65.19C125.5 64.8273 126.463 64.646 127.529 64.646C129.229 64.646 130.645 65.0313 131.779 65.802C132.912 66.55 133.773 67.5473 134.363 68.794C134.952 70.018 135.247 71.3553 135.247 72.806C135.247 74.4607 134.884 75.934 134.159 77.226C133.456 78.518 132.459 79.538 131.167 80.286C129.897 81.034 128.424 81.408 126.747 81.408Z" fill="#1B2559"/>
<mask id="mask0_159:5719" style="mask-type:alpha" maskUnits="userSpaceOnUse" x="25" y="24" width="309" height="63">
<path fill-rule="evenodd" clip-rule="evenodd" d="M278 28C278 25.7909 279.791 24 282 24H330C332.209 24 334 25.7909 334 28V38C334 40.2091 332.209 42 330 42H282C279.791 42 278 40.2091 278 38V28ZM25 56C25 53.7909 26.7909 52 29 52H135C137.209 52 139 53.7909 139 56V83C139 85.2091 137.209 87 135 87H29C26.7909 87 25 85.2091 25 83V56ZM29 25C26.7909 25 25 26.7909 25 29V38C25 40.2091 26.7909 42 29 42H174C176.209 42 178 40.2091 178 38V29C178 26.7909 176.209 25 174 25H29Z" fill="#EDF3F6"/>
</mask>
<g mask="url(#mask0_159:5719)">
<path d="M16 19H335V198H16V19Z" fill="#EDF3F6"/>
</g>
<path d="M165 164C165 161.791 163.208 159.99 161.001 160.099C146.384 160.821 132.209 165.493 119.999 173.651C106.678 182.551 96.2965 195.202 90.1658 210.003C84.0351 224.803 82.431 241.09 85.5564 256.802C88.6818 272.515 96.3963 286.948 107.724 298.276C119.052 309.604 133.485 317.318 149.198 320.444C164.91 323.569 181.197 321.965 195.997 315.834C210.798 309.704 223.449 299.322 232.349 286.001C240.507 273.791 245.179 259.616 245.901 244.999C246.01 242.792 244.209 241 242 241H169C166.791 241 165 239.209 165 237V164Z" fill="#EDF3F6"/>
<path d="M264 227C266.209 227 268.009 225.208 267.912 223.001C267.449 212.548 265.177 202.245 261.187 192.558C256.689 181.639 250.097 171.718 241.786 163.36C233.475 155.003 223.609 148.374 212.75 143.851C203.125 139.842 192.887 137.557 182.499 137.09C180.292 136.991 178.5 138.791 178.5 141V223C178.5 225.209 180.291 227 182.5 227H264Z" fill="#EDF3F6"/>
</svg>
