<svg width="721" height="345" viewBox="0 0 721 345" fill="none" xmlns="http://www.w3.org/2000/svg">
<rect x="0.789062" width="720" height="345" rx="10" fill="white"/>
<rect x="655.789" y="28" width="33" height="33" rx="7" fill="#F4F7FE"/>
<rect x="35.7891" y="226" width="34.9606" height="58" rx="8" fill="#EDF3F6"/>
<rect x="91.75" y="142" width="34.9606" height="142" rx="8" fill="#EDF3F6"/>
<rect x="147.71" y="186" width="34.9606" height="98" rx="8" fill="#EDF3F6"/>
<rect x="203.671" y="172" width="34.9606" height="112" rx="8" fill="#EDF3F6"/>
<rect x="259.632" y="194" width="34.9606" height="90" rx="8" fill="#EDF3F6"/>
<rect x="315.592" y="123" width="34.9606" height="161" rx="8" fill="#EDF3F6"/>
<rect x="371.553" y="206" width="34.9606" height="78" rx="8" fill="#EDF3F6"/>
<rect x="427.514" y="142" width="34.9606" height="142" rx="8" fill="#EDF3F6"/>
<rect x="483.475" y="245" width="34.9606" height="39" rx="8" fill="#EDF3F6"/>
<rect x="539.436" y="172" width="34.9606" height="112" rx="8" fill="#EDF3F6"/>
<rect x="595.396" y="221" width="34.9606" height="63" rx="8" fill="#EDF3F6"/>
<rect x="651.356" y="186" width="34.9606" height="98" rx="8" fill="#EDF3F6"/>
<line x1="35.7883" y1="123.5" x2="693.999" y2="122.467" stroke="#E9EDF7" stroke-dasharray="7 6"/>
<mask id="mask0_54:5708" style="mask-type:alpha" maskUnits="userSpaceOnUse" x="24" y="23" width="210" height="60">
<path fill-rule="evenodd" clip-rule="evenodd" d="M28 23C25.7909 23 24 24.7909 24 27V39C24 41.2091 25.7909 43 28 43H230C232.209 43 234 41.2091 234 39V27C234 24.7909 232.209 23 230 23H28ZM28 52C25.7909 52 24 53.7909 24 56V79C24 81.2091 25.7909 83 28 83H157C159.209 83 161 81.2091 161 79V56C161 53.7909 159.209 52 157 52H28Z" fill="#EDF3F6"/>
</mask>
<g mask="url(#mask0_54:5708)">
<rect x="8" y="11" width="381" height="105" fill="#EDF3F6"/>
</g>
</svg>
